<svg width="104" height="99" viewBox="0 0 104 99" fill="none" xmlns="http://www.w3.org/2000/svg">
<g clip-path="url(#clip0_8770_6347)">
<path d="M18.7283 32.8886C18.7383 32.9566 18.7568 33.0234 18.7711 33.0907C18.71 32.9723 18.6437 32.7891 18.5817 32.5744C18.7025 33.1008 18.8675 33.6593 19.0512 34.2266C19.227 34.7989 19.497 35.3574 19.7364 35.9166C19.9716 36.4764 20.2752 36.9953 20.5529 37.4871C20.6934 37.7289 20.8327 37.9631 20.9667 38.1905C21.1081 38.409 21.2559 38.6111 21.3892 38.8038C21.7027 39.3907 22.041 39.8775 22.1531 39.8958C22.2646 39.9103 22.1049 39.4476 21.7962 38.8638C21.7372 38.7297 21.6625 38.5786 21.6262 38.4797C21.4527 38.0421 21.296 37.5403 21.0964 37.0139C20.9965 36.7507 20.8908 36.4768 20.7845 36.1991C20.6862 35.9164 20.5862 35.6224 20.4862 35.3283C20.5554 35.5613 20.6262 35.8056 20.6953 36.0385C20.5747 35.6935 20.459 35.3516 20.3077 34.9763C20.3101 35.0223 20.3136 35.0758 20.3116 35.1224C20.224 34.8227 20.1024 34.5009 19.9884 34.1703C19.8823 33.8347 19.7629 33.4972 19.6365 33.1723C19.3757 32.5276 19.1425 31.9212 18.936 31.527C18.518 30.7355 18.3722 31.0848 18.6122 32.3346C18.6393 32.5197 18.6841 32.706 18.7326 32.888L18.7283 32.8886Z" fill="#F5CD72"/>
<path d="M19.049 35.2933C18.7895 34.5673 18.6436 33.8401 18.4474 33.128L18.4258 32.9807L18.3072 33.0675L18.3217 33.077C18.6665 33.6979 19.0755 34.757 19.5344 35.7084L19.6978 36.0472C19.7826 36.2084 19.8538 36.306 19.8968 36.3306C19.9925 36.386 19.9278 36.0637 19.752 35.6109L19.5487 35.0889C19.3067 34.453 19.0692 33.608 18.772 32.8644C18.5001 32.1132 18.2552 31.4275 18.0264 31.0906C17.9255 30.9395 17.8968 31.1019 17.8472 31.1516C17.7425 31.1245 17.8092 31.6395 17.9977 32.2987C18.1738 32.9636 18.4742 33.4907 18.5692 33.5115C18.6029 33.6223 18.6372 33.7369 18.6667 33.8483C18.624 33.7658 18.5855 33.6827 18.5428 33.6002C18.6882 33.7564 18.9016 34.3464 19.1157 34.7626L19.4059 35.3992L19.4607 34.9668L19.2953 34.6437C19.2991 34.6702 19.3074 34.7268 19.302 34.7199C18.9964 34.0972 18.738 33.4983 18.4432 32.8007C18.3127 32.5072 18.2079 32.21 18.0902 31.9147C17.9771 31.6805 17.9259 31.7189 17.9668 31.9984L18.0411 32.4158C18.0317 32.3516 18.0228 32.2912 18.0134 32.2269C18.1185 32.7054 18.2756 33.1802 18.4241 33.6562C18.5812 34.131 18.7008 34.6189 18.8759 35.0679C18.9232 35.2114 19.0049 35.3808 19.0588 35.4501C19.1063 35.5049 19.1049 35.4356 19.0527 35.2889L19.049 35.2933Z" fill="#F5CD72"/>
<path d="M17.8767 32.0453C17.8492 31.8874 17.8234 31.7408 17.7522 31.5237C17.7274 31.4734 17.7149 31.4482 17.709 31.4375C17.7211 31.5205 17.7377 31.6338 17.7623 31.742C17.7987 31.9603 17.8532 32.0641 17.8767 32.0453Z" fill="#F5CD72"/>
<path d="M17.709 31.4376C17.6979 31.3621 17.6902 31.3093 17.6902 31.3093C17.6946 31.3395 17.6948 31.3703 17.6944 31.3974C17.702 31.4194 17.7025 31.4232 17.7025 31.4232C17.7025 31.4232 17.7025 31.4232 17.709 31.4376Z" fill="#F5CD72"/>
<path d="M49.657 58.9953C52.9167 59.6755 56.2986 60.0252 59.7032 60.0821C59.8174 60.0847 59.9133 60.0822 59.9202 60.0696C59.9277 60.0608 59.8381 60.0469 59.7325 60.0431C56.3279 59.9861 52.9636 59.6377 49.7094 58.9645C49.5973 58.9462 49.5072 58.9285 49.4912 58.9386C49.4837 58.9474 49.5535 58.9757 49.6576 58.9991L49.657 58.9953Z" fill="#F5CD72"/>
<path d="M75.1614 59.6606C75.0822 59.6876 75.0882 59.6983 75.1743 59.6895C75.2471 59.6789 75.3788 59.6519 75.4536 59.6255C75.5205 59.6041 75.514 59.5897 75.4406 59.5965C75.355 59.6091 75.2277 59.6354 75.1608 59.6568L75.1614 59.6606Z" fill="#F5CD72"/>
<path d="M74.611 60.7207C74.1275 60.8262 73.6655 60.9286 73.2565 61.0349C73.1804 61.0537 73.0948 61.0663 73.0262 61.0763C73.059 61.0908 72.9675 61.1235 72.794 61.1643C69.3362 61.91 65.5319 62.3823 61.7654 62.5442C61.7414 62.5593 61.6911 62.5744 61.6059 62.5908C61.3425 62.6448 60.8174 62.6754 60.2744 62.6739L59.8665 62.668C59.0383 62.6311 58.2144 62.5936 57.3904 62.5561C56.5659 62.5148 55.7508 62.4181 54.9353 62.3484C54.5976 62.3439 54.2069 62.3355 53.7832 62.2818C53.0701 62.2242 52.3613 62.166 51.644 62.109C50.9318 62.0281 50.2164 61.9245 49.4929 61.8259C49.5804 61.8556 49.632 61.8789 49.6256 61.8952C49.5872 61.9317 49.2462 61.9045 48.8557 61.8382L48.2731 61.7152C48.8237 61.8584 49.3884 61.9493 49.9431 62.061C50.0241 62.0761 50.0966 62.0925 50.1642 62.1058C50.7831 62.208 51.4011 62.3336 52.0446 62.3937C52.7433 62.4727 53.4372 62.5486 54.1273 62.6289C54.8205 62.6701 55.5099 62.7157 56.1946 62.7582C56.8803 62.8083 57.5637 62.8124 58.2427 62.8171C58.9207 62.8143 59.5988 62.8423 60.2686 62.8136C61.6131 62.7595 62.947 62.7223 64.261 62.58C64.921 62.5142 65.5769 62.4799 66.2287 62.3883L68.1816 62.1254C68.2673 62.1129 68.4007 62.0972 68.4758 62.1016C68.5288 62.1054 68.5182 62.1224 68.4239 62.1362C67.6126 62.2743 66.8178 62.4062 66.0322 62.5405C65.2438 62.656 64.4612 62.7514 63.6626 62.8567C62.8656 62.9735 62.0458 63.0241 61.1928 63.0873C60.7637 63.1154 60.3259 63.1448 59.8839 63.1748C59.4342 63.1828 58.9755 63.1882 58.5039 63.1956C54.0052 63.2294 49.5157 62.8181 45.0386 61.7143C42.7066 61.1221 40.5319 60.3487 38.3863 59.5053C36.2503 58.6375 34.1869 57.6085 32.1153 56.4032C26.5641 53.076 22.23 48.7949 18.9409 43.7898C17.7028 41.9106 16.9481 40.0147 17.0793 39.6559C17.1206 39.5496 17.2318 39.5912 17.3917 39.7568C17.564 39.9168 17.7936 40.1996 18.0584 40.5736C17.9741 40.4162 17.8898 40.2588 17.8055 40.1014C17.6767 39.8501 17.5566 39.5976 17.4488 39.3394C17.1356 38.6059 16.9022 37.9687 16.8146 37.5493L16.6988 36.9682C16.6541 36.5735 16.5543 36.071 16.4658 35.5862C16.3944 35.0989 16.3424 34.6242 16.3468 34.2956L16.4764 34.404L16.4548 34.2566C16.3497 33.7781 16.3188 33.447 16.3696 33.3161L16.4854 33.33C16.6347 33.393 16.8253 33.5889 17.0579 33.9214C17.098 33.8962 17.1549 33.9264 17.2282 34.0083C17.2218 33.6658 17.2788 33.4877 17.4845 33.6968C17.4472 33.5016 17.5025 33.5205 17.608 33.7328C17.6447 33.8045 17.68 33.8958 17.7153 33.9871C17.7078 33.8763 17.7028 33.8423 17.6818 33.6988C17.6284 33.5137 17.5947 33.4029 17.5947 33.4029C17.4348 32.9092 17.4391 32.9086 17.3321 32.4767C17.2591 32.0977 17.2414 31.8572 17.2414 31.8572C17.3014 31.4008 17.3063 31.4039 17.3997 31.4443C17.4164 31.4688 17.4289 31.494 17.4456 31.5186C17.3755 31.1893 17.3722 31.1666 17.3541 31.0728C17.3402 30.9784 17.3394 30.9129 17.3394 30.9129C17.3661 30.8961 17.3781 30.8686 17.3755 30.8304C17.3856 30.8097 17.4027 30.8072 17.4027 30.8072C17.469 30.9209 17.508 30.9782 17.5198 30.9791C17.543 31.0181 17.5733 31.0754 17.5733 31.0754C17.652 31.2838 17.6813 31.3644 17.6954 31.401C17.7222 31.8832 17.7179 31.8838 17.7179 31.8838L17.7838 31.9745L17.7661 32.0929L17.7947 32.0192L17.8295 32.2572L17.7983 31.984C17.8953 32.3479 17.9647 32.6027 18.0065 32.7483C18.0745 32.9737 18.1585 33.1582 18.1661 33.1803C18.1756 33.1557 18.1842 33.1545 18.1842 33.1545C18.3074 33.5377 18.4287 33.9174 18.5479 34.2935C18.5557 34.3464 18.5623 34.3917 18.5684 34.4333C18.5976 34.483 18.6436 34.5882 18.6816 34.6983C18.7137 34.7978 18.7538 34.8923 18.7896 34.9874C18.8015 35.0088 18.8128 35.0264 18.8205 35.0484C18.8691 35.1416 18.9053 35.2096 18.9427 35.2852C18.967 35.3318 18.967 35.3318 18.967 35.3318C19.0524 35.4968 19.1741 35.7298 19.4926 36.3507C19.5529 36.5232 19.6158 36.6837 19.6808 36.8286C19.665 36.7807 19.6493 36.7329 19.6335 36.685C19.6068 36.5925 19.6822 36.6586 19.6658 36.607C19.4583 35.9968 19.2298 35.3628 18.991 34.7186C18.7816 34.0663 18.5712 33.4065 18.3651 32.746C18.2825 32.5111 18.2445 32.2813 18.2689 32.2391C18.2939 32.2008 18.374 32.3588 18.4491 32.6025C19.504 35.203 20.901 38.3168 22.2756 40.8589C22.4685 41.1895 22.6608 41.5163 22.8536 41.8469L23.4937 42.8104L23.4482 42.709L23.7635 43.2185L23.7975 43.2714L23.6016 42.8602L23.4396 42.5907C22.4263 41.1108 21.7443 39.6518 21.0116 38.1153C20.8317 37.6941 20.6777 37.2999 20.5242 36.9095L20.2949 36.3296C20.2264 36.1313 20.1623 35.9323 20.0933 35.7302C20.0103 35.5224 19.9796 35.3726 20.0167 35.3864C20.0537 35.4003 20.1548 35.5823 20.2323 35.7831C20.3044 35.9462 20.3769 36.1131 20.4495 36.28C20.5301 36.4418 20.6113 36.6074 20.6924 36.773C20.8547 37.1042 21.0133 37.4398 21.1767 37.7786C21.503 38.4524 21.8785 39.1035 22.2068 39.7615C22.5678 40.4032 22.9254 41.0222 23.2497 41.623C23.6061 42.2036 23.9281 42.7584 24.2086 43.269C24.5295 43.6967 24.8353 44.111 25.0545 44.4725L25.0707 44.4933C25.0209 44.3925 24.9723 44.2993 24.9225 44.1986C25.1582 44.5229 25.2395 44.7194 25.4499 45.0204L25.4363 44.868C26.6611 46.4173 28.1743 47.9629 29.487 49.2755C29.5387 49.3296 29.5892 49.3763 29.6404 49.4266C29.9733 49.6673 30.3061 49.9079 30.6492 50.1586C30.9966 50.4087 31.3361 50.6947 31.735 50.9681C31.4747 50.7747 31.2305 50.5713 30.9931 50.3552L31.411 50.6683L31.8486 50.9669C32.1406 51.1672 32.4342 51.3789 32.7337 51.6013C33.1296 51.9137 33.5731 52.1922 33.993 52.4895C34.4167 52.7824 34.8169 53.0943 35.2222 53.3513C36.0221 53.8824 36.696 54.3895 37.1327 54.7114L38.4843 55.3932L39.8785 56.007L40.5755 56.3139L41.2939 56.5868L42.7258 57.1295L44.1949 57.5973L44.9297 57.8331L45.6766 58.0324L47.1743 58.4266C47.677 58.542 48.1904 58.6404 48.6963 58.7477C48.9082 58.79 49.0875 58.8486 49.1182 58.8788C49.1312 58.9078 48.9896 58.8977 48.7777 58.8554C45.8403 58.3133 42.9375 57.469 40.1849 56.3364C42.4539 57.3353 44.8428 58.1661 47.3641 58.7962C47.6892 58.8643 48.0186 58.9318 48.3443 59.0038C48.6694 59.0719 48.987 59.1489 49.3052 59.2296C52.5781 59.8808 55.7794 60.2222 59.2385 60.2326C59.9772 60.2556 60.6936 60.2163 61.3999 60.1978C62.1051 60.1716 62.7959 60.1669 63.4902 60.0961C64.1824 60.041 64.8746 59.9859 65.5759 59.9334C66.2782 59.8575 66.9906 59.7609 67.7218 59.6731C71.8387 59.1242 75.54 58.3081 79.5138 57.29C80.04 57.1474 80.5439 57.062 80.624 57.1004C80.704 57.1389 80.3365 57.2892 79.8066 57.4362C75.6797 58.604 71.4952 59.4986 67.2179 59.9977C62.9437 60.4887 58.565 60.6245 54.1507 60.1289C53.6782 60.0708 53.2058 60.0127 52.7376 59.9539L52.0378 59.8673L51.3507 59.748C51.3507 59.748 51.3711 59.7682 51.368 59.7764C51.3595 59.8085 51.2653 59.8223 51.112 59.8216L51.8941 59.9617C52.1585 60.004 52.4255 60.0343 52.6894 60.0729C53.2209 60.1455 53.7523 60.2181 54.2881 60.2902C57.2889 60.5182 60.315 60.5303 63.5378 60.421C64.6453 60.3629 65.7033 60.3546 66.7351 60.2575C67.7697 60.1793 68.791 60.13 69.8135 59.9995L71.7481 59.7008L73.6715 59.3265C74.9594 59.0954 76.2287 58.7667 77.5163 58.4739C77.6175 58.4475 77.7289 58.4312 77.7686 58.4331C77.8083 58.435 77.7548 58.4583 77.6536 58.4847C76.7719 58.7103 75.8822 58.9409 74.9834 59.169C74.0747 59.36 73.1575 59.5522 72.236 59.7451C72.5355 59.7282 72.7173 59.744 72.7036 59.8001C72.6899 59.8561 72.4711 59.946 72.1307 60.0422L73.3977 59.818C73.658 59.7722 73.8702 59.7565 73.8655 59.7842C73.8656 59.8151 73.6638 59.8716 73.4121 59.9162C72.551 60.0732 71.6899 60.2302 70.8211 60.3343C69.9528 60.4422 69.0911 60.5954 68.2221 60.6687C66.1411 60.9233 64.0587 61.1087 61.9628 61.1725C62.2518 61.2035 62.468 61.2452 62.5711 61.2918C62.8954 61.2945 63.2227 61.2581 63.5442 61.2419C64.2835 61.1799 65.0277 61.1211 65.7719 61.0622C66.5159 60.9726 67.26 60.8829 68.004 60.7932C68.7503 60.7186 69.4925 60.5868 70.2375 60.4738C70.9809 60.3495 71.734 60.2623 72.4724 60.104C73.2172 59.9602 73.9627 59.8202 74.7075 59.6763C75.4524 59.5325 76.1912 59.3471 76.9375 59.1838C78.4288 58.8766 79.8986 58.453 81.3858 58.0885C81.5041 58.0596 81.6021 58.0414 81.6086 58.0559C81.6103 58.0672 81.5274 58.0987 81.4219 58.1257C80.5273 58.3532 79.6333 58.5845 78.7388 58.8119C77.8448 59.0432 76.9425 59.2178 76.0458 59.4302L76.0543 59.4289C76.1272 59.4182 76.1465 59.4308 76.0673 59.4579C76.0004 59.4792 75.8564 59.5119 75.7878 59.522C75.7021 59.5345 75.7085 59.5181 75.7748 59.493C72.4214 60.2041 69.0586 60.7622 65.7132 61.1094C68.8285 60.8345 71.9227 60.3852 74.9949 59.8156C75.3236 59.7289 75.6523 59.6421 75.9895 59.5542C76.0827 59.5328 76.2021 59.5114 76.2423 59.5171C76.2691 59.5209 76.2076 59.5492 76.1102 59.5712L75.8318 59.6429C76.409 59.5197 76.866 59.4721 76.8754 59.5363C76.8596 59.6081 76.3748 59.764 75.7681 59.8953C74.9656 60.0938 74.1515 60.2131 73.3435 60.3739L72.129 60.5981C71.7236 60.669 71.3148 60.7173 70.9078 60.7769L70.3819 60.8617L69.8544 60.9659L71.7613 60.7175C72.3954 60.6246 73.022 60.5097 73.6545 60.4055C74.2816 60.2943 74.9168 60.209 75.5406 60.0752C76.165 59.9452 76.7898 59.8189 77.4099 59.6895C77.6219 59.643 77.811 59.6192 77.8186 59.6413C77.8305 59.6627 77.6592 59.7186 77.4472 59.7651C73.0975 60.8459 68.5806 61.5924 64.0054 61.8805L62.8789 62.0185C62.5028 62.0504 62.1219 62.0792 61.7458 62.1111C60.9876 62.1643 60.2216 62.2533 59.4499 62.2737C59.6434 62.2801 59.838 62.2941 60.0385 62.2878C65.048 62.2757 69.2702 61.5492 73.9862 60.6386C74.1051 60.6134 74.2048 60.6066 74.2236 60.6154C74.2381 60.6248 74.1589 60.6519 74.0395 60.6732C73.4654 60.7882 72.9005 60.9056 72.3437 61.0181C71.7879 61.1381 71.2303 61.2159 70.676 61.3163C70.1212 61.413 69.5664 61.5097 69.0073 61.607C68.446 61.6893 67.8745 61.7614 67.2944 61.8348C66.8134 61.8975 66.3366 61.9596 65.8636 62.0173C65.3927 62.0593 64.9218 62.1012 64.4595 62.1419C63.9971 62.1827 63.5353 62.2271 63.0773 62.2672C62.6198 62.3111 62.1658 62.3197 61.7152 62.3509C65.4156 62.245 68.9389 61.7675 72.5301 61.1258C72.687 61.0913 72.8455 61.068 72.9457 61.0649C72.9532 61.0561 72.9821 61.0442 73.033 61.0329C73.4762 60.9216 73.9592 60.8123 74.455 60.7011C74.5481 60.6798 74.6724 60.6616 74.7249 60.6616C74.7774 60.6616 74.7196 60.6855 74.6136 60.7087L74.611 60.7207ZM21.2336 40.8263C21.2206 40.7973 21.213 40.7753 21.2054 40.7532C21.2427 40.8288 21.2854 40.9113 21.3298 41.0051L21.4425 41.386C21.4425 41.386 21.3362 41.1084 21.2341 40.8301L21.2336 40.8263ZM18.633 36.6077C18.6137 36.4755 18.5998 36.3811 18.5998 36.3811C18.6131 36.4718 18.6242 36.5473 18.633 36.6077ZM42.3886 57.3371C40.7065 56.6999 39.0686 56.006 37.5549 55.1434C37.9405 55.3262 38.3086 55.5385 38.7129 55.6992C39.3151 55.9853 39.9172 56.2714 40.5236 56.5569C41.1438 56.8172 41.7683 57.0768 42.3928 57.3365L42.3886 57.3371ZM20.0394 37.7831C20.1791 38.1987 20.2551 38.5387 20.3573 38.8478C20.5074 39.096 20.6561 39.3636 20.8004 39.6318C21.1709 40.3686 21.6033 41.0499 22.0015 41.7363C21.9774 41.6318 22.0757 41.7949 22.1313 41.8755C22.1874 41.9599 22.243 42.0405 22.2948 42.1255C22.0836 41.759 21.8723 41.3925 21.6606 41.0223C21.4488 40.652 21.2332 40.2861 21.0492 39.8964C20.7068 39.2018 20.2971 38.4669 20.0389 37.7794L20.0394 37.7831ZM17.7498 32.4001C17.7465 32.3774 17.7432 32.3547 17.7393 32.3283L17.838 32.4643C17.838 32.4643 17.7993 32.4391 17.7455 32.4007L17.7498 32.4001ZM17.5881 32.1922C17.5936 32.23 17.6034 32.2672 17.6138 32.3081C17.5825 32.2741 17.5764 32.2325 17.5881 32.1922ZM17.8534 33.2569C17.844 33.1927 17.8379 33.1512 17.8307 33.1021C17.8534 33.2569 17.8534 33.2569 17.8534 33.2569ZM16.5663 34.4795L16.9783 34.8128L16.5645 34.4374L16.5706 34.4789L16.5663 34.4795Z" fill="#F5CD72"/>
<path d="M68.7951 52.3692L68.7738 52.4032C68.7738 52.4032 68.7474 52.3723 68.7393 52.3465C68.6573 52.4743 68.855 52.808 69.2158 53.06C69.5691 53.3208 70.0401 53.5181 70.4275 53.6234C70.6672 53.7658 70.9269 53.8358 71.0011 53.7747C71.0716 53.7181 70.9256 53.5581 70.6951 53.4183C70.6499 53.3786 70.5875 53.3414 70.5649 53.3061C70.3202 53.0101 70.0105 52.6889 69.8029 52.4068C69.8386 52.471 69.8608 52.5334 69.9147 52.6026C69.8361 52.5138 69.7799 52.4295 69.6992 52.3564C69.6929 52.3728 69.6871 52.3929 69.6855 52.4124C69.6243 52.2632 69.5213 52.1278 69.5057 52.1108C69.5008 52.1076 69.4917 52.1051 69.4869 52.102C69.4826 52.1026 69.5126 52.0982 69.4302 52.1334C69.3724 52.1573 69.3141 52.1774 69.251 52.1944L69.1626 52.2189L69.1155 52.2258L69.1161 52.2296C69.8006 52.0329 69.305 52.1749 69.4602 52.129L69.4608 52.1328C69.4609 52.1636 69.4092 52.2291 69.3673 52.2121C69.2789 52.2057 69.1759 52.1899 69.0773 52.2044C69.0302 52.2113 68.9836 52.222 68.9393 52.2478C68.8917 52.2817 68.8709 52.2886 68.8377 52.3012C68.8077 52.3056 68.8169 52.339 68.8026 52.3604L68.7951 52.3692Z" fill="#F5CD72"/>
<path d="M68.7127 53.1091C68.5568 52.8813 68.4948 52.6667 68.485 52.5101L68.5062 52.4761L68.379 52.5333L68.3876 52.532C68.5481 52.6126 68.7639 52.8316 69.0729 53.0602L69.1889 53.1357C69.2458 53.1659 69.3042 53.1766 69.3374 53.1641C69.408 53.1383 69.356 53.0225 69.2425 52.9042C69.1968 52.8608 69.151 52.8174 69.1224 52.7714C68.9877 52.5984 68.8996 52.4146 68.8457 52.3454C68.8086 52.3007 68.8108 52.3158 68.7593 52.2925C68.7269 52.251 68.6775 52.212 68.6254 52.1849C68.5776 52.1572 68.5022 52.1798 68.4374 52.1854C68.393 52.1804 68.339 52.1998 68.3065 52.247C68.2772 52.286 68.2508 52.3747 68.2655 52.415C68.2761 52.5175 68.4186 52.6239 68.51 52.5912L68.535 52.6724L68.4721 52.6315C68.56 52.634 68.6741 52.7561 68.8041 52.8373L68.9788 52.9852C69.0026 52.9085 69.0311 52.8349 69.0603 52.7651L68.9593 52.7028L68.9552 52.7342C68.7817 52.6247 68.6253 52.5126 68.5601 52.4258C68.5015 52.3842 68.5004 52.3767 68.4467 52.3383C68.4053 52.2942 68.341 52.3036 68.3065 52.3665C68.3007 52.3867 68.2906 52.4074 68.2768 52.4326L68.2981 52.3986C68.2703 52.5376 68.3894 52.8132 68.5867 53.0851C68.6153 53.131 68.6696 53.1732 68.7055 53.1795C68.7366 53.1827 68.7407 53.1512 68.7121 53.1053L68.7127 53.1091Z" fill="#F5CD72"/>
<path d="M68.2071 52.3872C68.2198 52.3545 68.24 52.313 68.2328 52.2639C68.2226 52.2538 68.2172 52.2469 68.2166 52.2431C68.2065 52.2639 68.1927 52.289 68.1838 52.3173C68.1567 52.3714 68.182 52.3947 68.2114 52.3865L68.2071 52.3872Z" fill="#F5CD72"/>
<path d="M68.2109 52.2415L68.2277 52.2132L68.2052 52.2312L68.2063 52.2385C68.2063 52.2385 68.2063 52.2385 68.2068 52.2421L68.2109 52.2415Z" fill="#F5CD72"/>
<path d="M78.6936 61.2953L77.8043 61.7381L77.3685 61.9602L76.9799 62.1753L76.2063 62.6011L75.8337 62.8062L75.6006 62.9484C74.9678 63.3189 74.3602 63.7127 73.7634 64.1204C73.7238 64.1493 73.6977 64.1801 73.7037 64.1909C73.7053 64.2022 73.7465 64.1846 73.7823 64.16C74.3791 63.7524 74.9824 63.3592 75.6158 62.9924L75.8494 62.8541L76.2135 62.6502L76.9908 62.22L77.3837 62.0042C77.5174 61.9306 77.6773 61.8571 77.8195 61.7822L78.7168 61.3344C78.7981 61.2916 78.8499 61.257 78.844 61.2463C78.83 61.2406 78.7631 61.262 78.6899 61.2998L78.6936 61.2953Z" fill="#F5CD72"/>
<path d="M68.1441 67.7406C68.1568 67.7079 68.1471 67.7016 68.1156 67.7255C68.0879 67.745 68.0549 67.7884 68.0421 67.8211C68.0332 67.8494 68.0471 67.8551 68.0706 67.8362C68.1021 67.8123 68.1351 67.7689 68.1446 67.7444L68.1441 67.7406Z" fill="#F5CD72"/>
<path d="M67.5076 66.9505C67.636 66.7812 67.7521 66.6176 67.8436 66.4653C67.8612 66.4357 67.8878 66.4087 67.9113 66.3898C67.8845 66.386 67.8961 66.3457 67.9441 66.2847C68.8282 65.0594 70.0109 63.8713 71.2714 62.7954C71.2686 62.7765 71.2739 62.7526 71.2952 62.7186C71.3542 62.6135 71.5239 62.4574 71.7227 62.3203L71.8787 62.2202C72.18 62.0063 72.4986 61.8208 72.8107 61.6207C73.1185 61.4213 73.437 61.2357 73.7562 61.0539C73.8688 60.9564 74.0066 60.8513 74.1621 60.7475C74.4441 60.521 74.726 60.2945 75.0037 60.0686C74.9737 60.073 74.9426 60.0699 74.9232 60.0573C74.8802 60.0327 74.8999 59.9874 74.9645 59.9509L75.057 59.8949L74.7441 60.0295C74.7441 60.0295 74.7152 60.0414 74.7023 60.0433C74.6125 60.0873 74.4719 60.1735 74.356 60.2484C74.1988 60.3409 73.5288 60.7863 73.0597 61.1096C72.5704 61.4745 72.0784 61.8206 71.6278 62.2107C70.6997 62.9563 69.8846 63.7856 69.1091 64.6169C69.0873 64.6471 69.0403 64.6849 69.0125 64.7044C68.9874 64.7119 68.9814 64.7012 69.007 64.6666C69.9017 63.5439 70.6838 62.5187 71.9785 61.4378C72.3705 61.1257 72.7517 60.7998 73.1598 60.5085L73.7682 60.0605C73.8355 60.0121 73.827 60.0133 73.8505 59.9944L73.9006 59.9485L73.9935 59.8654C74.1451 59.7352 74.1567 59.6949 74.1924 59.6395C74.2243 59.5886 74.2402 59.5476 74.2486 59.5155C74.3422 59.4671 74.4015 59.4237 74.4142 59.391C74.4206 59.3746 74.4226 59.3589 74.4001 59.3544C74.3224 59.362 74.2442 59.3657 74.1665 59.3732C74.098 59.3833 74.0283 59.3858 73.9549 59.3926C73.7647 59.4089 73.7375 59.4322 73.6807 59.4328C72.2506 59.0519 70.864 58.5797 69.4608 57.9634C68.3901 57.526 67.5394 56.7978 67.5809 56.5139C67.608 56.3402 67.9287 56.3781 68.3967 56.5256C68.3156 56.4796 68.235 56.4374 68.157 56.3832L67.7957 56.1275C67.4563 55.8724 67.2027 55.6047 67.0843 55.3944C67.0276 55.3062 66.9693 55.2067 66.9158 55.1104C66.7382 54.7042 66.4072 54.0582 66.4428 53.6439L66.5608 53.6729L66.5401 53.5911C66.4468 53.3424 66.4769 53.1296 66.536 53.0553L66.6432 53.0396C66.7853 53.0536 66.9196 53.1342 67.1093 53.2338C67.1451 53.2092 67.1976 53.2093 67.2572 53.2275C67.2757 53.0551 67.3503 52.9669 67.5171 53.0004C67.5055 52.9211 67.5532 52.9179 67.6237 52.9809C67.649 53.0042 67.6706 53.0319 67.6927 53.0634C67.6946 53.0168 67.6967 53.0011 67.697 52.9432C67.6656 52.8783 67.66 52.8406 67.66 52.8406C67.6137 52.6737 67.6009 52.6756 67.5938 52.5377C67.5943 52.4219 67.6598 52.3312 67.6561 52.3357C67.8361 52.1897 67.8463 52.1998 67.923 52.2155L67.9435 52.2357C67.9827 52.1451 67.9907 52.14 68.0003 52.1155C68.0184 52.0897 68.0381 52.0752 68.0381 52.0752C68.0671 52.0735 68.0883 52.0691 68.1019 52.062L68.1367 52.0608C68.1744 52.1093 68.1744 52.1093 68.1878 52.1111C68.1981 52.1212 68.2088 52.1351 68.2088 52.1351C68.216 52.1842 68.2194 52.2069 68.2205 52.2144C68.11 52.327 68.1111 52.3346 68.1111 52.3346L68.1493 52.356L68.1012 52.3862L68.1467 52.368L68.1319 52.4165L68.1584 52.3585C68.1739 52.4643 68.1599 52.4586 68.1794 52.5021C68.2 52.5531 68.2233 52.5921 68.2281 52.5953C68.2398 52.5859 68.2479 52.5808 68.2479 52.5808C68.2573 52.645 68.2987 52.6891 68.308 52.7225C68.3264 52.7584 68.3362 52.7955 68.3918 52.8761C68.3946 52.895 68.3968 52.9101 68.3947 52.9259C68.4178 52.9341 68.4431 52.9574 68.4652 52.9889C68.4825 53.0172 68.5126 53.0437 68.5342 53.0714L68.5578 53.0833C68.5917 53.1054 68.6159 53.1211 68.6401 53.1369C68.6589 53.1457 68.6589 53.1457 68.6589 53.1457C68.7083 53.1848 68.8077 53.2358 69.0458 53.3669C69.1012 53.4166 69.147 53.4601 69.1933 53.5073L69.1593 53.4544C69.1409 53.4185 69.1971 53.4141 69.1815 53.3971C69.0054 53.2107 68.8555 53.0243 68.725 52.8505C68.6214 52.6805 68.5128 52.5073 68.5161 52.4103C68.4843 52.3725 68.525 52.3512 68.5539 52.3392C68.5881 52.3342 68.6187 52.3336 68.6268 52.3594C68.7054 52.4173 68.8276 52.5345 68.9799 52.6781C69.1499 52.823 69.3501 52.9943 69.5905 53.1713C70.0584 53.5272 70.6336 53.8983 71.1669 54.2524C71.4624 54.4174 71.774 54.5724 72.0898 54.7268L72.0537 54.6897L72.2961 54.8201L72.324 54.8314L72.1636 54.6929L72.0389 54.6185C71.3015 54.2751 70.7111 53.8599 70.1636 53.4385C69.872 53.2111 69.6727 52.9856 69.5002 52.764C69.449 52.7136 69.4333 52.6657 69.4616 52.65C69.4905 52.6381 69.5555 52.6633 69.6023 52.7143C69.9681 53.0003 70.5023 53.331 71.0387 53.646C71.5756 53.9648 72.121 54.2824 72.5635 54.5841C72.7874 54.6787 73.0028 54.7745 73.1673 54.8816L73.1769 54.8879L73.0607 54.7814C73.2256 54.8615 73.2978 54.9358 73.4487 55.0101L73.4263 54.9169C73.8457 55.0909 74.302 55.2479 74.748 55.3947L75.0841 55.5076L75.5752 55.6633C75.9777 55.7819 76.3748 55.8935 76.7334 56.0107C76.7924 56.0252 76.8514 56.0397 76.9104 56.0543C77.2939 56.1023 77.6725 56.1471 78.0473 56.1964L78.6913 56.2603C78.8029 56.2748 78.9138 56.2856 79.0254 56.3001L79.1949 56.3216L79.3975 56.3305C79.2083 56.3235 79.0682 56.2938 78.9245 56.2686C78.7764 56.244 78.6327 56.2187 78.4804 56.1947C78.6579 56.2112 78.831 56.2283 79.0042 56.2453L79.2664 56.2725L79.579 56.2846C80.0019 56.3037 80.4201 56.3197 80.8564 56.3406C82.1268 56.3784 83.5019 56.4432 84.6824 56.525C85.8367 56.6067 86.7049 56.7072 86.9256 56.8099C86.901 56.8212 86.8802 56.8282 86.8556 56.8395L86.6659 56.9792L86.541 57.0823L86.3077 57.2824L86.1915 57.4152L86.1616 57.4505L86.0354 57.5152L85.775 57.6498L83.6999 58.7216C82.2846 59.4576 80.8693 60.1935 79.4539 60.9294C79.3037 61.0093 79.1421 61.0715 79.0859 61.0759C79.0376 61.0752 79.1076 61.0148 79.2535 60.9356C81.2466 59.8411 83.0852 58.858 84.9544 57.8742C83.1763 58.7327 81.4944 59.5308 79.7864 60.3906C79.5753 60.5026 79.3635 60.6108 79.148 60.7234C78.9368 60.8353 78.7111 60.9379 78.4908 61.0473C77.9711 61.3241 77.4038 61.6039 76.9349 61.8694L76.2363 62.2688L75.8894 62.4701L75.7156 62.5689L75.6034 62.6393C75.3031 62.83 74.9984 63.0212 74.6998 63.2232C74.4108 63.4314 74.118 63.6441 73.8167 63.858C72.8357 64.6306 72.0254 65.3435 71.1949 66.2176C70.0316 67.449 69.1368 68.6605 68.2022 69.9897C68.0841 70.169 67.9298 70.3113 67.8591 70.3062C67.7877 70.2973 67.8267 70.145 67.9443 69.9619C69.7072 67.0567 72.1844 64.4868 75.509 62.5027L75.6538 62.4159L75.8479 62.3064L76.2317 62.0882C76.4904 61.9422 76.7449 61.7969 76.9999 61.6554C76.987 61.6573 76.9731 61.6516 76.9639 61.6491C76.9306 61.6308 76.954 61.5811 77.0196 61.5213C76.7149 61.6817 76.4444 61.8371 76.1525 61.9956L75.7226 62.2283L75.5157 62.3396L75.3623 62.4277C74.2836 63.1606 73.2748 63.9528 72.1922 64.7789C72.0068 64.9179 71.8215 65.057 71.6399 65.1916C71.4674 65.3288 71.2949 65.4659 71.1224 65.6031L70.6081 66.0064L70.1138 66.4261C69.3659 67.207 68.724 68.0534 68.0891 68.9181C68.0678 68.9521 68.0331 68.9842 68.0122 68.9911C67.9908 68.9943 67.9966 68.9741 68.0173 68.9364C68.2212 68.6248 68.425 68.3133 68.6289 68.0018C68.8413 67.689 69.087 67.3945 69.3225 67.0899C69.2097 67.1566 69.1177 67.1855 69.081 67.1445C69.0401 67.1042 69.0606 67.0048 69.1334 66.8745L68.7713 67.2709C68.6956 67.3515 68.6202 67.405 68.5998 67.3848C68.575 67.3653 68.6165 67.2897 68.6879 67.2098C69.163 66.6579 69.6966 66.1476 70.2205 65.631C70.5391 65.3258 70.8577 65.0206 71.1805 64.7148L72.1997 63.844C72.0756 63.893 71.9744 63.9194 71.9031 63.9106L71.5832 64.1774C69.6964 65.8775 68.0739 67.8284 66.6432 69.8939C66.6139 69.9329 66.5835 69.9644 66.5696 69.9587C66.5556 69.953 66.5678 69.9165 66.5933 69.8819C67.0407 69.2608 67.4612 68.6358 67.9473 68.0399C67.9201 68.0631 67.9061 68.0575 67.9188 68.0247C67.9278 67.9964 67.9694 67.9517 67.9923 67.9291C68.0239 67.9052 68.0341 67.9152 68.0208 67.9442C68.9086 66.8341 69.8406 65.7561 70.8785 64.7745C69.8733 65.651 68.9773 66.6157 68.1001 67.5892L67.8772 67.9498C67.8559 67.9838 67.817 68.0165 67.7961 68.0234C67.7789 68.0259 67.7879 67.9976 67.8092 67.9636L67.8736 67.8654C67.7174 68.0542 67.5513 68.175 67.4932 68.1372C67.4427 68.0906 67.5281 67.8968 67.6911 67.6954C67.8951 67.4147 68.1239 67.1535 68.3531 66.8962C68.5867 66.6381 68.8009 66.3675 69.0538 66.1221L69.2042 65.9535L69.3395 65.7716C69.1442 65.9623 68.9344 66.1435 68.7488 66.3404L68.1877 66.932C67.8019 67.3164 67.4705 67.7431 67.1187 68.1496C67.0638 68.2233 66.9965 68.2717 66.9734 68.2635C66.9498 68.2516 66.9795 68.1855 67.0386 68.1112C68.1072 66.5617 69.426 65.1068 70.9389 63.8126C71.366 63.3217 71.8264 62.8491 72.3082 62.3734L72.0982 62.5238C70.3163 63.8343 69.1577 65.2773 67.8598 66.8449C67.8262 66.8846 67.791 66.9129 67.7776 66.911C67.7642 66.9091 67.7769 66.8764 67.8105 66.8367C68.4361 66.0583 69.0036 65.3308 69.7018 64.5996C70.2773 63.9866 70.867 63.4411 71.4439 62.8974C70.1698 63.9098 69.1191 65.0437 68.1019 66.2268C68.0614 66.2791 68.0118 66.3288 67.9717 66.3539C67.9728 66.3615 67.9745 66.3728 67.9601 66.3942C67.8574 66.5597 67.7339 66.7322 67.606 66.9053C67.5848 66.9392 67.5421 66.9764 67.5169 66.9839C67.4923 66.9952 67.5013 66.9669 67.5263 66.9285L67.5076 66.9505ZM70.5035 54.8627C70.5035 54.8627 70.4873 54.8419 70.4776 54.8356C70.5077 54.8621 70.5422 54.8879 70.5809 54.9131C70.5809 54.9131 70.5809 54.9131 70.692 55.0743C70.692 55.0743 70.594 54.9729 70.5035 54.8627ZM68.3904 53.9722C68.373 53.913 68.3577 53.8689 68.3577 53.8689C68.3724 53.9092 68.3817 53.9426 68.3904 53.9722ZM83.0316 58.7308C83.6236 58.4396 84.2155 58.1484 84.8075 57.8571L85.2776 57.6301L85.3391 57.6018C85.3391 57.6018 85.3465 57.593 85.3503 57.5886L85.3727 57.5621L85.4217 57.5087C85.4617 57.4526 85.6433 57.318 85.7977 57.2067C85.7279 57.2979 85.602 57.4244 85.6092 57.4735L85.5254 57.5591C85.5254 57.5591 85.5228 57.571 85.4939 57.583L85.3998 57.6276L85.2158 57.7163L84.4788 58.0635C83.9996 58.288 83.5156 58.5094 83.0279 58.7352L83.0316 58.7308ZM69.4612 53.8424C69.5744 53.9878 69.6709 54.1088 69.7508 54.236C69.8647 54.2965 69.9872 54.3557 70.1064 54.4231C70.4224 54.6083 70.7502 54.7841 71.0725 54.953C71.0476 54.9026 71.124 54.9455 71.1653 54.9587L71.2952 55.0091C70.9492 54.8283 70.6144 54.6342 70.2914 54.4307C70.0011 54.2417 69.6877 54.0446 69.4606 53.8386L69.4612 53.8424ZM68.0057 52.4812L68.0163 52.4642L68.0759 52.4825C68.0759 52.4825 68.0454 52.4831 68.0057 52.4812ZM67.8957 52.4472L67.8995 52.4736C67.8727 52.4698 67.8753 52.4579 67.8957 52.4472ZM67.9195 52.7292C67.9247 52.7053 67.9316 52.6927 67.9294 52.6776C67.9228 52.712 67.9195 52.7292 67.9195 52.7292ZM66.636 53.7082C66.7541 53.7372 66.8865 53.7449 67.0061 53.7544C66.8854 53.7373 66.7556 53.7177 66.6327 53.6856L66.636 53.7082Z" fill="#F5CD72"/>
</g>
<defs>
<clipPath id="clip0_8770_6347">
<rect width="66.6511" height="46.4135" fill="white" transform="translate(15.7793 31.0449) rotate(-8.33253)"/>
</clipPath>
</defs>
</svg>
