<svg width="9" height="15" viewBox="0 0 9 15" fill="none" xmlns="http://www.w3.org/2000/svg">
<path d="M5.99448 14.872H4.36248V13.16C2.13848 12.856 1.08248 11.24 0.938477 9.88002L2.92248 9.40002C3.01848 10.408 3.69048 11.336 5.16248 11.336C6.20248 11.336 6.81048 10.84 6.81048 10.136C6.81048 9.59202 6.41048 9.17602 5.61048 9.00002L4.13848 8.68002C2.41048 8.29602 1.33848 7.20802 1.33848 5.67202C1.33848 3.97602 2.65048 2.72802 4.36248 2.45602V0.744019H5.99448V2.50402C7.83448 2.84002 8.63448 4.12002 8.85848 5.19202L6.89048 5.75202C6.79448 5.19202 6.37848 4.26402 5.06648 4.26402C4.04248 4.26402 3.48248 4.85602 3.48248 5.51202C3.48248 6.00802 3.83448 6.42402 4.58648 6.58402L6.04248 6.92002C8.05848 7.36802 8.97048 8.56802 8.97048 10.008C8.97048 11.48 7.91448 12.84 5.99448 13.144V14.872Z" fill="#444444"/>
</svg>
