<svg width="64" height="30" viewBox="0 0 64 30" fill="none" xmlns="http://www.w3.org/2000/svg">
<path d="M24.8121 19.7376C22.1975 19.7538 19.6533 18.9362 17.5904 17.4167C15.7297 16.0928 14.4272 14.1865 13.9155 12.038C13.6874 11.0896 13.6323 10.1112 13.7527 9.14523C13.9693 7.18788 14.8601 5.35213 16.2879 3.92055C17.8859 2.27392 19.9951 1.14935 22.3119 0.708754C23.4568 0.472016 24.6326 0.397874 25.8006 0.488768C28.58 0.663035 31.197 1.78921 33.1619 3.65657C34.5173 4.94394 35.4294 6.58881 35.7785 8.37528C36.0573 9.61902 36.0478 10.9051 35.7506 12.1451C35.4535 13.385 34.8759 14.5493 34.0574 15.5578C32.4653 17.5521 30.1649 18.9349 27.5799 19.4516C26.6725 19.6499 25.7434 19.7459 24.8121 19.7376ZM26.7659 9.90418C26.7659 8.52927 26.7659 7.15435 26.7659 5.79044C26.7727 5.55621 26.7041 5.32556 26.5691 5.12911C26.434 4.93265 26.239 4.77968 26.01 4.69051C25.6626 4.53566 25.2834 4.45536 24.8994 4.45536C24.5154 4.45536 24.1361 4.53566 23.7888 4.69051C23.5546 4.77274 23.3546 4.92411 23.2185 5.12222C23.0823 5.32032 23.0173 5.55462 23.0329 5.79044V14.5899C23.0465 14.7473 23.1025 14.8988 23.1957 15.0299C23.3314 15.2273 23.5379 15.3717 23.7771 15.4368C24.4764 15.6512 25.2293 15.6512 25.9286 15.4368C26.1403 15.3854 26.3301 15.2732 26.4717 15.1156C26.6133 14.958 26.6998 14.7629 26.7193 14.5569C26.7309 14.3701 26.7309 14.1828 26.7193 13.9959C26.7659 12.621 26.7659 11.2571 26.7659 9.90418Z" fill="black" fill-opacity="0.55"/>
<path d="M42.5693 15.4253C42.3716 15.7113 42.1856 15.9643 42.0111 16.2282L39.6853 19.528C39.6661 19.5526 39.6417 19.5731 39.6137 19.5882C39.5856 19.6034 39.5546 19.6129 39.5225 19.616H32.5449C32.5449 19.55 32.6147 19.495 32.6496 19.451C34.7777 16.2062 36.8943 12.9504 39.0224 9.71664C39.0554 9.67763 39.0734 9.62913 39.0734 9.57915C39.0734 9.52917 39.0554 9.48068 39.0224 9.44166L33.0566 0.719204L32.8938 0.532216H39.8713C39.9169 0.528278 39.9626 0.537801 40.0022 0.559472C40.0417 0.581143 40.0732 0.613894 40.0923 0.653208C40.9063 1.90713 41.7204 3.16105 42.5228 4.41497L42.6391 4.56896L42.7205 4.42597C43.4415 3.17205 44.1509 1.91813 44.8603 0.664207C44.8736 0.622642 44.9017 0.586738 44.9399 0.562655C44.9781 0.538571 45.024 0.52781 45.0696 0.532216H52.1983C52.1724 0.586159 52.1413 0.637711 52.1053 0.686206C50.1051 3.61936 48.0971 6.55251 46.0814 9.48566C46.0372 9.53045 46.0127 9.58941 46.0127 9.65065C46.0127 9.71188 46.0372 9.77084 46.0814 9.81564L52.6635 19.495L52.7449 19.627H45.686C45.6409 19.6281 45.5964 19.6174 45.5574 19.596C45.5184 19.5747 45.4865 19.5435 45.465 19.506C44.523 18.2301 43.616 16.9542 42.7089 15.6233C42.657 15.5608 42.6104 15.4946 42.5693 15.4253Z" fill="black" fill-opacity="0.55"/>
<path d="M12.7874 13.6599H6.30995V19.6105H0.33252V0.636719H13.8108L13.8806 5.7844H6.39136V8.32524H12.7874V13.6599Z" fill="black" fill-opacity="0.55"/>
<path d="M53.8269 0.53125H60.2114C61.196 7.69547 62.169 14.856 63.1303 22.0129H62.9791C62.1651 22.0129 61.3627 22.0129 60.5486 22.0129C60.4323 22.0129 60.3974 22.0129 60.3625 21.8699C59.1531 17.8588 57.9282 13.8698 56.6877 9.90267C55.7263 6.82286 54.7727 3.74305 53.8269 0.663242C53.8269 0.663242 53.8269 0.586247 53.8269 0.53125Z" fill="black" fill-opacity="0.55"/>
<path d="M52.2687 3.15234L59.4905 22.0052H59.3277C58.2811 22.0052 57.2228 22.0052 56.1762 22.0052C56.1304 22.0109 56.0839 22.0021 56.0439 21.9802C56.004 21.9583 55.9728 21.9246 55.9552 21.8842L47.8729 9.67494C47.8386 9.63864 47.8196 9.59165 47.8196 9.54294C47.8196 9.49424 47.8386 9.44725 47.8729 9.41095L52.1524 3.30633L52.2687 3.15234Z" fill="black" fill-opacity="0.55"/>
<path d="M54.2806 22.0138H0.33252V20.7929H53.327C53.3729 20.7872 53.4196 20.7946 53.4611 20.8142C53.5025 20.8338 53.5368 20.8647 53.5596 20.9029C53.7689 21.2438 54.0015 21.5738 54.2224 21.9148L54.2806 22.0138Z" fill="black" fill-opacity="0.55"/>
<path d="M0.33252 23.0703H6.86816C7.1028 23.0703 7.33512 23.1142 7.55175 23.1995C7.76839 23.2847 7.96505 23.4097 8.13042 23.5671C8.2958 23.7245 8.42662 23.9114 8.51535 24.1168C8.60408 24.3223 8.64897 24.5423 8.64743 24.7642C8.66445 25.0405 8.611 25.3166 8.4916 25.5693C8.37219 25.822 8.19032 26.0438 7.96131 26.2161C8.24301 26.3715 8.46657 26.606 8.60092 26.8871C8.72771 27.1291 8.79428 27.3954 8.79551 27.6656C8.79675 27.9357 8.73262 28.2026 8.60804 28.4457C8.48346 28.6888 8.30172 28.9017 8.07675 29.0681C7.85178 29.2345 7.58953 29.3501 7.31007 29.4059C7.17855 29.4173 7.0462 29.4173 6.91467 29.4059H0.33252V23.0703ZM1.90247 25.5122H6.76349C6.8369 25.5154 6.90889 25.4923 6.96498 25.4474C7.02108 25.4025 7.05712 25.3392 7.06586 25.2702C7.08843 25.1464 7.08843 25.0199 7.06586 24.8962C7.06586 24.6212 6.93793 24.5552 6.63557 24.5552H1.98387L1.90247 25.5122ZM1.90247 27.943H6.74024C7.10074 27.943 7.21704 27.844 7.21704 27.492C7.22209 27.4298 7.22209 27.3673 7.21704 27.305C7.21704 27.0741 7.08911 27.0081 6.8449 27.0081H1.93736L1.90247 27.943Z" fill="black" fill-opacity="0.55"/>
<path d="M63.1303 23.0813V24.5662H57.4669C57.1761 24.5662 57.0831 24.6432 57.0482 24.9182C57.0366 25.0279 57.0366 25.1385 57.0482 25.2482C57.0482 25.4352 57.211 25.5122 57.432 25.5122C58.7926 25.5122 60.1648 25.5122 61.5255 25.5122C61.9952 25.5092 62.4496 25.6703 62.8016 25.9646C63.1535 26.2589 63.3782 26.6657 63.4327 27.1071C63.4953 27.4188 63.4829 27.7399 63.3963 28.0465C63.3098 28.3531 63.1513 28.6373 62.9326 28.878C62.773 29.0541 62.575 29.1954 62.3522 29.2923C62.1294 29.3891 61.887 29.4391 61.6418 29.4389H55.8271V27.954H61.5022C61.758 27.954 61.8976 27.899 61.9325 27.558C61.9441 27.5073 61.9441 27.4548 61.9325 27.404C61.9325 27.1071 61.8046 26.9971 61.5022 27.0081C60.1648 27.0081 58.8275 27.0081 57.4901 27.0081C57.2261 27.0125 56.9639 26.9667 56.7191 26.8732C56.4743 26.7797 56.2519 26.6405 56.0652 26.4639C55.8785 26.2873 55.7314 26.077 55.6325 25.8454C55.5337 25.6139 55.4852 25.3659 55.4899 25.1162C55.4702 24.7802 55.5384 24.4448 55.6886 24.1398C55.8387 23.8347 56.066 23.5694 56.3504 23.3673C56.6173 23.1816 56.938 23.0779 57.2692 23.0703H63.1303V23.0813Z" fill="black" fill-opacity="0.55"/>
<path d="M54.3154 23.0825V24.5675H48.6171C48.338 24.5675 48.2217 24.6664 48.21 24.9304C48.1983 25.0144 48.1983 25.0995 48.21 25.1834C48.21 25.4144 48.3496 25.5134 48.5938 25.5134H52.7455C52.9668 25.5123 53.1869 25.5457 53.3967 25.6124C53.6842 25.7058 53.9417 25.8669 54.1452 26.0805C54.3486 26.2941 54.4913 26.5532 54.5596 26.8333C54.6786 27.1764 54.7025 27.5426 54.6292 27.8969C54.5559 28.2512 54.3878 28.5818 54.141 28.8572C53.98 29.0382 53.7787 29.1833 53.5515 29.2822C53.3244 29.381 53.0769 29.4312 52.8269 29.4292H47.0122V27.9552H52.6641C52.9083 27.9552 53.0827 27.9552 53.0943 27.5483C53.1059 27.479 53.1059 27.4085 53.0943 27.3393C53.0965 27.2925 53.0878 27.2458 53.0688 27.2026C53.0498 27.1594 53.0209 27.1207 52.9843 27.0892C52.9476 27.0577 52.9041 27.0342 52.8568 27.0204C52.8095 27.0066 52.7596 27.0028 52.7106 27.0093C51.3732 27.0093 50.0242 27.0093 48.6869 27.0093C48.3937 27.0124 48.1032 26.9552 47.8357 26.8417C47.5682 26.7282 47.33 26.561 47.1375 26.3517C46.9451 26.1425 46.803 25.8962 46.7211 25.6299C46.6392 25.3636 46.6195 25.0837 46.6634 24.8094C46.6876 24.5093 46.7827 24.2181 46.9417 23.9573C47.1007 23.6965 47.3195 23.4727 47.5821 23.3025C47.8307 23.1473 48.1215 23.0633 48.4194 23.0605H54.3619L54.3154 23.0825Z" fill="black" fill-opacity="0.55"/>
<path d="M19.195 29.4364V27.9515H24.87C25.1724 27.9515 25.2538 27.9515 25.2887 27.6106C25.3057 27.4864 25.3057 27.3607 25.2887 27.2366C25.2887 27.0826 25.1491 27.0166 24.9631 27.0166C23.6025 27.0166 22.2302 27.0166 20.8696 27.0166C20.609 27.018 20.3507 26.9708 20.1095 26.8774C19.8683 26.7841 19.6489 26.6466 19.4641 26.4728C19.2793 26.299 19.1327 26.0924 19.0326 25.8648C18.9325 25.6373 18.881 25.3932 18.881 25.1467C18.8612 24.8285 18.9191 24.5102 19.0502 24.2164C19.1813 23.9227 19.382 23.6614 19.6369 23.4528C19.9122 23.2204 20.268 23.0913 20.637 23.0898H26.5679V24.5748H20.8696C20.5788 24.5748 20.4858 24.6407 20.4509 24.9157C20.4339 25.0435 20.4339 25.1729 20.4509 25.3007C20.4509 25.4547 20.6137 25.5207 20.7998 25.5207H22.3116C23.1838 25.5207 24.056 25.5207 24.9166 25.5207C25.3441 25.5056 25.7642 25.6294 26.107 25.8715C26.4498 26.1137 26.6945 26.4596 26.8005 26.8516C26.9172 27.2142 26.928 27.5999 26.8317 27.9678C26.7355 28.3357 26.5359 28.6722 26.2539 28.9415C25.9271 29.251 25.4837 29.4251 25.0212 29.4254H19.2066L19.195 29.4364Z" fill="black" fill-opacity="0.55"/>
<path d="M38.4417 23.082H45.6169V24.5559H40.0232V25.5129H45.2331V26.9978H40.0232V27.9547H45.5936V29.4506H38.4417V23.082Z" fill="black" fill-opacity="0.55"/>
<path d="M37.4414 23.0821V29.4397H36.0227C35.9765 29.4437 35.93 29.4367 35.8873 29.4194C35.8447 29.4022 35.8073 29.3751 35.7785 29.3407L31.9408 25.2489C31.9345 25.2199 31.9345 25.19 31.9408 25.1609V29.3957H30.2778V23.0711C30.65 23.0711 31.0105 23.0711 31.3826 23.0711C31.5325 23.0595 31.6831 23.0849 31.8196 23.1446C31.9561 23.2044 32.074 23.2965 32.1618 23.4121C33.034 24.358 33.9294 25.2929 34.8249 26.2279L35.8599 27.3278V23.0821H37.4414Z" fill="black" fill-opacity="0.55"/>
<path d="M17.8575 23.0825V23.2145C17.8575 24.6335 17.8575 26.0634 17.8575 27.4823C17.8748 27.8363 17.7883 28.1879 17.6078 28.4985C17.4272 28.809 17.1595 29.0664 16.8342 29.2422C16.5763 29.3829 16.2829 29.4552 15.9852 29.4511H11.4731C11.0303 29.4441 10.6041 29.2906 10.2685 29.0173C9.93283 28.7441 9.70894 28.3683 9.63565 27.9552C9.61852 27.787 9.61852 27.6175 9.63565 27.4493C9.63565 26.0194 9.63565 24.5785 9.63565 23.1375V23.0605H11.1707V27.4053C11.1649 27.4565 11.1649 27.5081 11.1707 27.5593C11.1707 27.8562 11.2986 27.9222 11.6126 27.9222H15.834C16.1248 27.9222 16.2178 27.8452 16.2411 27.5703C16.2467 27.508 16.2467 27.4455 16.2411 27.3833V23.0825H17.8575Z" fill="black" fill-opacity="0.55"/>
<path d="M29.2656 29.4396H27.7073V23.082H29.2656V29.4396Z" fill="black" fill-opacity="0.55"/>
</svg>
