<svg width="40" height="39" viewBox="0 0 40 39" fill="none" xmlns="http://www.w3.org/2000/svg">
<rect x="0.966797" y="0.00244141" width="38.5651" height="38.5651" rx="19.2826" fill="#F5F5F5"/>
<g clip-path="url(#clip0_1155_5009)">
<path d="M14.5701 20.6087C14.7481 20.6478 14.9307 20.6623 15.1127 20.6518C15.3764 20.6562 15.639 20.6166 15.8897 20.5347C15.2 20.3964 14.5806 20.0209 14.139 19.4734C13.6975 18.9259 13.4616 18.2411 13.4724 17.5378V17.4946C13.8785 17.7411 14.3419 17.8771 14.8167 17.8893C14.4159 17.5899 14.0895 17.2022 13.8628 16.7563C13.6361 16.3103 13.5152 15.8181 13.5094 15.3179C13.5035 14.7849 13.6374 14.2597 13.8979 13.7948C14.6386 14.7356 15.5722 15.5069 16.6358 16.0568C17.6994 16.6067 18.8685 16.9224 20.0644 16.9828C20.0198 16.7448 19.995 16.5035 19.9904 16.2613C19.9738 15.8721 20.0343 15.4834 20.1684 15.1175C20.3024 14.7517 20.5074 14.4159 20.7715 14.1294C21.0356 13.843 21.3537 13.6115 21.7074 13.4482C22.0612 13.285 22.4438 13.1932 22.8331 13.1781C23.2671 13.1628 23.6992 13.2421 24.0995 13.4103C24.4999 13.5785 24.8589 13.8317 25.1517 14.1524C25.8254 14.0333 26.4701 13.7864 27.0509 13.4248C26.8163 14.1148 26.3882 14.7227 25.8176 15.1761C26.4113 15.1212 26.9912 14.9648 27.5319 14.7136C27.1505 15.3267 26.6568 15.8623 26.0766 16.2922V16.6807C26.0766 20.7258 23.0428 25.3938 17.5546 25.3938C15.9248 25.3992 14.3294 24.9253 12.9668 24.0311C13.199 24.07 13.4346 24.0844 13.6698 24.0742C15.0195 24.0746 16.3273 23.6059 17.3696 22.7484C16.7381 22.7285 16.1286 22.5115 15.6265 22.1278C15.1245 21.744 14.7551 21.2129 14.5701 20.6087Z" fill="black" fill-opacity="0.55"/>
</g>
<rect x="1.4668" y="0.502441" width="37.5651" height="37.5651" rx="18.7826" stroke="#717475" stroke-opacity="0.2"/>
<defs>
<clipPath id="clip0_1155_5009">
<rect width="14.5651" height="14.5651" fill="white" transform="translate(12.9668 12.0024)"/>
</clipPath>
</defs>
</svg>
