<svg width="52" height="50" viewBox="0 0 52 50" fill="none" xmlns="http://www.w3.org/2000/svg">
<g clip-path="url(#clip0_530_18343)">
<path d="M5.95609 40.8608H3.9518V41.67H5.79288V42.3547H3.9518V43.3507H6.04532V44.0354H3.18141V40.1783H5.95827V40.8608H5.95609ZM8.49139 42.9861L8.87005 43.3507C8.73814 43.4197 8.59172 43.4548 8.44351 43.4529C8.01698 43.4529 7.41851 43.1839 7.41851 42.1057C7.41851 41.0275 8.01915 40.7585 8.44351 40.7585C8.86788 40.7585 9.46851 41.0275 9.46851 42.1057C9.46851 42.4681 9.40105 42.7349 9.29442 42.935L8.89399 42.5548L8.49139 42.9861ZM10.2737 43.8776L9.86241 43.4818C10.0931 43.1795 10.2585 42.7393 10.2585 42.1057C10.2585 40.2961 8.94405 40.076 8.44351 40.076C7.94298 40.076 6.63072 40.2961 6.63072 42.1057C6.63072 43.9153 7.94516 44.1354 8.44351 44.1354C8.66331 44.1354 9.05286 44.0932 9.40976 43.8776L9.85806 44.3133L10.2737 43.8776ZM13.9711 42.6882C13.9711 43.7019 13.3705 44.1377 12.4195 44.1377C12.0734 44.1377 11.5577 44.051 11.2204 43.6708C11.0158 43.4352 10.9375 43.1217 10.9266 42.7371V40.1805H11.7318V42.6837C11.7318 43.2217 12.0365 43.4574 12.4042 43.4574C12.9461 43.4574 13.1659 43.1884 13.1659 42.7215V40.1783H13.9711V42.6882ZM16.082 41.0498H16.0929L16.5608 42.5748H15.5967L16.082 41.0498ZM15.3878 43.2395H16.7828L17.0244 44.0376H17.8818L16.5521 40.1783H15.6425L14.2954 44.0354H15.1267L15.3878 43.2395ZM19.2854 43.3373H21.1613V44.0354H18.4955V40.1783H19.2854V43.3373ZM24.1515 42.3058V44.0376H23.3637V40.1783H24.1515V41.6389H25.6248V40.1783H26.4126V44.0354H25.6248V42.3036H24.1515V42.3058ZM27.9163 42.108C27.9163 41.0275 28.517 40.7608 28.9413 40.7608C29.3657 40.7608 29.9685 41.0298 29.9685 42.108C29.9685 43.1862 29.3679 43.4552 28.9413 43.4552C28.5148 43.4552 27.9163 43.1862 27.9163 42.108ZM27.1285 42.108C27.1285 43.9198 28.443 44.1377 28.9413 44.1377C29.4397 44.1377 30.7563 43.9176 30.7563 42.108C30.7563 40.2983 29.4419 40.0783 28.9413 40.0783C28.4408 40.0783 27.1285 40.2961 27.1285 42.108ZM34.5212 42.6882C34.5212 43.7019 33.9205 44.1377 32.9695 44.1377C32.6213 44.1377 32.1077 44.051 31.7704 43.6708C31.5659 43.4352 31.4875 43.1217 31.4766 42.7371V40.1805H32.2797V42.6837C32.2797 43.2217 32.5865 43.4574 32.9543 43.4574C33.4962 43.4574 33.716 43.1884 33.716 42.7215V40.1783H34.5212V42.6882ZM35.964 42.8483C35.9705 43.0617 36.0772 43.4707 36.7648 43.4707C37.137 43.4707 37.5548 43.3796 37.5548 42.9705C37.5548 42.6704 37.2719 42.5904 36.8715 42.4926L36.4667 42.3947C35.8552 42.2502 35.2676 42.1124 35.2676 41.2632C35.2676 40.8319 35.4961 40.076 36.7191 40.076C37.8769 40.076 38.1859 40.8497 38.1924 41.321H37.4351C37.4155 41.1498 37.3502 40.7407 36.6626 40.7407C36.3644 40.7407 36.0053 40.8541 36.0053 41.2032C36.0053 41.5055 36.2469 41.5677 36.4036 41.6055L37.3241 41.8367C37.8399 41.9657 38.3121 42.1813 38.3121 42.8727C38.3121 44.0354 37.1566 44.1354 36.8236 44.1354C35.4461 44.1354 35.211 43.324 35.211 42.846L35.964 42.8483ZM39.7463 44.0354H38.9606V40.1783H39.7463V44.0354ZM42.8974 40.1783H43.633V44.0354H42.8452L41.3044 41.2832H41.2914V44.0354H40.5558V40.1783H41.3871L42.8844 42.8638H42.8974V40.1783ZM46.2727 41.9568H47.8483V44.0354H47.3239L47.2455 43.553C47.0453 43.7864 46.7559 44.1377 46.0682 44.1377C45.1585 44.1377 44.3337 43.4729 44.3337 42.1191C44.3337 41.0675 44.9061 40.0716 46.177 40.0783C47.3347 40.0783 47.7939 40.8452 47.8331 41.3788H47.0453C47.0453 41.2276 46.7755 40.743 46.2205 40.743C45.6569 40.743 45.1368 41.1409 45.1368 42.128C45.1368 43.1817 45.7004 43.4552 46.2358 43.4552C46.4098 43.4552 46.9887 43.3862 47.1498 42.6059H46.2727V41.9568ZM3.80164 47.9659C3.80164 46.8854 4.4001 46.6164 4.82664 46.6164C5.25318 46.6164 5.85164 46.8854 5.85164 47.9659C5.85164 49.0463 5.25318 49.3153 4.82664 49.3153C4.4001 49.3153 3.80164 49.0463 3.80164 47.9659ZM3.01385 47.9659C3.01385 49.7755 4.32828 49.9978 4.82664 49.9978C5.32499 49.9978 6.63943 49.7755 6.63943 47.9659C6.63943 46.1562 5.32499 45.9362 4.82664 45.9362C4.32828 45.9362 3.01385 46.1562 3.01385 47.9659ZM8.80041 47.8369V46.7031H9.42717C9.91681 46.7031 10.1214 46.861 10.1214 47.2367C10.1214 47.4079 10.1214 47.8369 9.53162 47.8369H8.80041ZM8.80041 48.5039H9.70355C10.7198 48.5039 10.907 47.6213 10.907 47.2723C10.907 46.5164 10.4674 46.0362 9.73401 46.0362H8.01045V49.8933H8.80041V48.5039ZM13.0484 47.8369V46.7031H13.673C14.1626 46.7031 14.3672 46.861 14.3672 47.2367C14.3672 47.4079 14.3672 47.8369 13.7796 47.8369H13.0484ZM13.0484 48.5039H13.9537C14.9678 48.5039 15.1572 47.6213 15.1572 47.2723C15.1572 46.5164 14.7154 46.0362 13.9842 46.0362H12.2606V49.8933H13.0506V48.5039H13.0484ZM17.1288 47.9659C17.1288 46.8854 17.7273 46.6164 18.1538 46.6164C18.5803 46.6164 19.1788 46.8854 19.1788 47.9659C19.1788 49.0463 18.5782 49.3153 18.1538 49.3153C17.7294 49.3153 17.1288 49.0463 17.1288 47.9659ZM16.341 47.9659C16.341 49.7755 17.6555 49.9978 18.156 49.9978C18.6565 49.9978 19.9688 49.7755 19.9688 47.9659C19.9688 46.1562 18.6543 45.9362 18.156 45.9362C17.6576 45.9362 16.341 46.1562 16.341 47.9659ZM22.1145 47.7347V46.7009H23.096C23.5595 46.7009 23.6466 47.0033 23.6466 47.2078C23.6466 47.5902 23.4486 47.7347 23.0372 47.7347H22.1145ZM21.3398 49.8955H22.1145V48.386H22.9284C23.5117 48.386 23.5443 48.5883 23.5443 49.1152C23.5443 49.5109 23.5748 49.711 23.627 49.8955H24.4997V49.791C24.3321 49.7266 24.3321 49.5865 24.3321 49.0263C24.3321 48.3038 24.1645 48.1882 23.8533 48.0481C24.2255 47.9214 24.4366 47.5546 24.4366 47.13C24.4366 46.7965 24.2538 46.0384 23.2483 46.0384H21.3376L21.3398 49.8955ZM27.3745 49.8955H26.5867V46.7209H25.4463V46.0384H28.517V46.7209H27.3745V49.8955ZM32.7497 48.5461C32.7497 49.562 32.1513 50 31.1981 50C30.8521 50 30.3385 49.9111 30.0012 49.5287C29.7966 49.2931 29.7182 48.9818 29.7074 48.595V46.0384H30.5104V48.5416C30.5104 49.0796 30.8151 49.3175 31.1828 49.3175C31.7247 49.3175 31.9445 49.0463 31.9445 48.5794V46.0384H32.7497V48.5461ZM36.5646 46.0384H37.3024V49.8955H36.5124L34.9716 47.1433H34.9629V49.8955H34.2252V46.0384H35.0565L36.5559 48.7239H36.5646V46.0384ZM39.5286 49.8955H38.7365V46.0384H39.5286V49.8955ZM42.6058 49.8955H41.818V46.7209H40.6799V46.0384H43.7483V46.7209H42.6058V49.8955ZM46.7298 49.8955H45.9398V48.4394L44.6362 46.0384H45.5655L46.3489 47.7146L47.0975 46.0384H47.9898L46.7276 48.4483V49.8955H46.7298ZM25.4986 0L0.078125 12.7896V18.7964H2.92244V36.817H47.881V18.7986H51.2976V12.7896L25.4986 0ZM42.3817 31.3926H8.42393V14.9215L25.4986 6.00907L42.3817 14.9215V31.3926Z" fill="black" fill-opacity="0.55"/>
<path d="M33.274 20.7353H17.5312V14.9219H33.274V20.7353ZM33.274 29.072H17.5312V23.2563H33.274V29.072Z" fill="black" fill-opacity="0.55"/>
</g>
<defs>
<clipPath id="clip0_530_18343">
<rect width="51.2195" height="50" fill="white" transform="translate(0.078125)"/>
</clipPath>
</defs>
</svg>
