<svg width="39" height="39" viewBox="0 0 39 39" fill="none" xmlns="http://www.w3.org/2000/svg">
<rect x="0.402344" y="0.00244141" width="38.5651" height="38.5651" rx="19.2826" fill="#F5F5F5"/>
<g clip-path="url(#clip0_1155_5006)">
<path d="M15.6228 25.8522H12.7976V16.8838H15.6228V25.8522ZM17.3192 16.8963H20.5124V18.312C20.712 17.6883 21.7598 16.8152 23.3502 16.8152C25.3521 16.8152 26.93 18.1124 26.9675 20.8691V25.8585H23.7306V21.2121C23.7306 19.9647 23.2192 19.1664 22.1153 19.1664C21.7817 19.1702 21.4575 19.278 21.1881 19.4748C20.9187 19.6715 20.7174 19.9475 20.6122 20.2641C20.545 20.5076 20.5176 20.7603 20.5311 21.0125V25.8709H17.3192C17.3192 25.8709 17.3941 17.6447 17.3192 16.8963ZM14.0013 12.6989H14.2757C14.4805 12.7075 14.6815 12.7564 14.8674 12.8427C15.0533 12.929 15.2203 13.051 15.359 13.2019C15.4977 13.3528 15.6054 13.5295 15.6758 13.7219C15.7462 13.9144 15.778 14.1188 15.7694 14.3236C15.7608 14.5284 15.712 14.7294 15.6257 14.9153C15.5393 15.1012 15.4173 15.2682 15.2664 15.4069C15.1156 15.5456 14.9388 15.6533 14.7464 15.7237C14.5539 15.7941 14.3495 15.8259 14.1447 15.8173V15.7799H14.0948C13.8941 15.8015 13.6911 15.7833 13.4975 15.7263C13.3038 15.6693 13.1233 15.5746 12.9663 15.4478C12.8093 15.3209 12.6788 15.1642 12.5825 14.9869C12.4861 14.8095 12.4257 14.6148 12.4047 14.414C12.4016 14.3579 12.4016 14.3017 12.4047 14.2456C12.4079 14.0392 12.4518 13.8355 12.5338 13.6461C12.6158 13.4566 12.7343 13.2852 12.8826 13.1416C13.0308 12.9979 13.206 12.8849 13.3979 12.809C13.5899 12.733 13.7949 12.6956 14.0013 12.6989Z" fill="black" fill-opacity="0.55"/>
</g>
<rect x="0.902344" y="0.502441" width="37.5651" height="37.5651" rx="18.7826" stroke="#717475" stroke-opacity="0.2"/>
<defs>
<clipPath id="clip0_1155_5006">
<rect width="14.5651" height="14.5651" fill="white" transform="translate(12.4023 12.0024)"/>
</clipPath>
</defs>
</svg>
