<svg width="110" height="36" viewBox="0 0 110 36" fill="none" xmlns="http://www.w3.org/2000/svg">
<g clip-path="url(#clip0_4628_39988)">
<path fill-rule="evenodd" clip-rule="evenodd" d="M4.77965 13.0849C4.77965 14.0766 5.06299 14.3016 6.87132 14.3016V14.9266H0.562988V14.3016C1.81299 14.3016 2.22966 14.1932 2.22966 13.1182V3.01824C2.22966 1.94324 1.80465 1.8349 0.562988 1.8349V1.2099H11.138L11.1963 4.96824H10.688C10.4047 2.14324 9.68799 1.90157 7.07132 1.90157H4.75465V7.4849H6.62132C8.39632 7.4849 8.51299 7.2099 8.65465 5.81824H9.16299V9.91824H8.65465C8.51299 8.50157 8.39632 8.25157 6.62132 8.25157H4.75465V13.1099L4.77965 13.0849ZM12.4963 14.9266V14.3016C13.7463 14.3016 14.163 14.1932 14.163 13.1182V3.01824C14.163 1.94324 13.7463 1.8349 12.4963 1.8349V1.2099H18.3797V1.8349C17.138 1.8349 16.713 1.94324 16.713 3.01824V13.1182C16.713 14.1932 17.138 14.3016 18.3797 14.3016V14.9266H12.4963ZM31.7213 15.1516L22.338 3.56824V13.0599C22.338 14.1599 23.1047 14.3349 24.4047 14.3349V14.9516H19.4047V14.3349C20.7047 14.3349 21.4047 14.1599 21.4047 13.0599V2.4849C20.813 1.8599 20.388 1.8349 19.4047 1.8349V1.2099H23.8547L31.038 10.4599V3.07657C31.038 1.97657 30.2713 1.8099 28.9713 1.8099V1.2099H33.9713V1.8349C32.6713 1.8349 31.9713 2.00157 31.9713 3.1099V15.1516H31.7213ZM38.4297 14.9266H33.4797V14.3016C34.7797 14.3016 35.3713 14.1349 35.7963 13.0016L40.263 1.06824H41.5047L46.3547 13.0849C46.7797 14.1599 46.9797 14.2766 47.9713 14.2766V14.8932H42.188V14.2766C43.938 14.2766 44.113 14.1349 43.688 13.0849L42.2713 9.44324H37.9713L36.7047 12.9766C36.3046 14.0516 36.9296 14.2766 38.4547 14.2766V14.9266H38.4297ZM38.2297 8.7349H41.963L40.013 3.8099L38.2297 8.7349ZM60.8213 15.1516L51.463 3.56824V13.0599C51.463 14.1599 52.2213 14.3349 53.5213 14.3349V14.9516H48.663V14.3349C49.8463 14.3349 50.5547 14.1599 50.5547 13.0599V2.5099C49.8797 1.89324 49.3713 1.8349 48.238 1.8349V1.2099H52.9296L60.113 10.4599V3.07657C60.113 1.97657 59.3463 1.8099 58.0463 1.8099V1.2099H63.0463V1.8349C61.7463 1.8349 61.038 2.00157 61.038 3.1099V15.1516H60.8213ZM74.688 1.1849H75.0213L75.2213 5.2849H74.713C74.3713 2.94324 73.1296 1.69324 70.838 1.69324C68.313 1.71824 66.3546 3.90157 66.3546 7.2349C66.3546 11.5016 69.038 13.9016 71.8713 13.9016C72.5127 13.9205 73.1503 13.7956 73.7372 13.536C74.3241 13.2765 74.8454 12.8888 75.263 12.4016L75.6546 12.8016C75.0768 13.5474 74.3292 14.1445 73.474 14.5431C72.6188 14.9417 71.6808 15.1303 70.738 15.0932C69.8302 15.0944 68.9312 14.9157 68.0929 14.5676C67.2545 14.2194 66.4934 13.7087 65.8535 13.0649C65.2135 12.4211 64.7074 11.6569 64.3643 10.8165C64.0213 9.97603 63.848 9.07597 63.8546 8.16824C63.8288 7.22702 63.9933 6.29027 64.3383 5.41418C64.6833 4.5381 65.2017 3.74072 65.8624 3.06989C66.5231 2.39906 67.3125 1.8686 68.1833 1.51032C69.054 1.15204 69.9881 0.973325 70.9296 0.984904C72.763 0.984904 73.7213 1.81824 74.263 1.81824C74.488 1.81824 74.6546 1.61824 74.7713 1.22657L74.688 1.1849ZM76.8046 14.9266V14.3016C78.0463 14.3016 78.4713 14.1932 78.4713 13.1182V3.01824C78.4713 1.94324 78.0463 1.8349 76.8046 1.8349V1.2099H82.688V1.8349C81.4463 1.8349 81.0213 1.94324 81.0213 3.01824V13.1182C81.0213 14.1932 81.4463 14.3016 82.688 14.3016V14.9266H76.8046ZM88.2296 14.9266H83.6213V14.3016C83.8364 14.3466 84.0583 14.3487 84.2742 14.3076C84.4901 14.2666 84.6957 14.1833 84.8792 14.0624C85.0628 13.9416 85.2207 13.7857 85.3437 13.6036C85.4668 13.4215 85.5526 13.2169 85.5963 13.0016L90.0796 1.06824H91.3546L96.1546 13.0849C96.5797 14.1599 96.7796 14.2766 97.7713 14.2766V14.8932H92.0296V14.2766C93.7796 14.2766 93.9547 14.1349 93.5296 13.0849L92.113 9.44324H87.8213L86.5463 12.9766C86.1463 14.0516 86.7713 14.2766 88.2963 14.2766V14.9266H88.2296ZM88.0213 8.7349H91.7546L89.8296 3.8099L88.0213 8.7349ZM98.6796 14.9266V14.3016C99.9213 14.3016 100.346 14.1932 100.346 13.1182V3.01824C100.346 1.94324 99.9213 1.8349 98.6796 1.8349V1.2099H104.513V1.8349C103.271 1.8349 102.846 1.94324 102.846 3.01824V13.2016C102.846 14.1016 103.296 14.2182 104.03 14.2182H104.738C107.396 14.2182 108.246 13.8182 108.98 10.7932L109.488 10.8516L109.063 14.8932H98.7046L98.6796 14.9266Z" fill="black" fill-opacity="0.55"/>
<path d="M36.813 25.201L36.7546 21.2094L24.438 21.2427L24.3796 25.2344H24.888C25.1713 22.2677 25.8796 21.901 28.5046 21.901H29.338V33.0844C29.338 34.1344 28.8796 34.301 27.213 34.301V34.926H33.9463V34.301C32.2463 34.301 31.8546 34.1594 31.8546 33.0844V21.8677H32.688C35.313 21.8677 36.0213 22.2594 36.3046 25.201H36.813Z" fill="black" fill-opacity="0.55"/>
<path d="M38.088 34.301V34.926H43.9213V34.301C42.6796 34.301 42.2546 34.1927 42.2546 33.1177V23.0177C42.2546 21.9427 42.6796 21.8344 43.9213 21.8344V21.2094H38.088V21.8344C39.3296 21.8344 39.7546 21.9427 39.7546 23.0177V33.1177C39.7546 34.1927 39.3296 34.301 38.088 34.301Z" fill="black" fill-opacity="0.55"/>
<path d="M61.663 21.8344V21.2094H56.913L53.8046 30.5677L50.9213 21.2094H46.1296V21.8094C47.3713 21.8094 47.913 21.8927 47.7963 22.9677L46.7213 33.1427C46.638 34.1344 46.213 34.3344 44.9713 34.3344V34.951H49.5546V34.3344C48.3046 34.3344 47.5713 34.2177 47.688 33.1427L48.7046 22.4594L52.9463 35.176H53.113L57.438 22.4844L58.5463 33.1677C58.6546 34.2177 58.2046 34.3344 56.988 34.3344V34.951H62.8213V34.3344C61.5796 34.3344 61.188 34.2177 61.0713 33.1677L59.9963 22.9927C59.888 21.8927 60.4213 21.8344 61.663 21.8344Z" fill="black" fill-opacity="0.55"/>
<path d="M72.0796 29.8927H72.588L72.638 29.9177V25.8177H72.1296C71.988 27.2094 71.8713 27.4844 70.088 27.4844H68.0463V21.901H70.088C72.763 21.901 73.4213 22.201 73.6296 24.6344H74.138L74.088 21.2094H63.7046V21.8344C64.9463 21.8344 65.3713 21.9427 65.3713 23.0177V33.1094C65.3713 34.1844 64.9546 34.301 63.7046 34.301V34.9177H74.538L75.0213 30.876L74.513 30.8177C73.7796 33.8427 72.9296 34.2427 70.2713 34.2427H69.138C68.4046 34.2427 67.9546 34.126 67.9546 33.226V28.226H70.0463C71.8296 28.226 71.938 28.476 72.0796 29.8927Z" fill="black" fill-opacity="0.55"/>
<path d="M81.3546 29.4677C82.713 30.2344 83.5046 30.851 83.5046 32.0927L83.538 32.0844C83.538 33.7177 82.2963 34.401 80.8213 34.401C79.8439 34.4035 78.902 34.035 78.1859 33.3699C77.4697 32.7047 77.0326 31.7926 76.963 30.8177L76.4546 30.876L76.738 34.9427H77.1296C77.2713 34.5177 77.4463 34.2344 77.7546 34.2344C78.238 34.2344 79.138 35.1177 80.9796 35.1177C83.5796 35.1177 85.6713 33.3844 85.6713 30.951C85.6713 29.1094 84.4296 28.151 82.6713 27.1927L80.813 26.201C79.7046 25.6094 78.713 25.0677 78.713 23.7677C78.7202 23.4752 78.7884 23.1875 78.9133 22.9229C79.0382 22.6583 79.217 22.4227 79.4383 22.2313C79.6595 22.0399 79.9183 21.8968 80.1981 21.8112C80.4779 21.7256 80.7725 21.6995 81.063 21.7344C81.9516 21.7628 82.7982 22.1191 83.4398 22.7345C84.0814 23.35 84.4726 24.1811 84.538 25.0677H85.0463L84.8546 21.226H84.4546C84.313 21.6177 84.1713 21.8177 83.863 21.8177C83.3963 21.8177 82.563 20.9844 80.8963 20.9844C78.488 20.9844 76.6546 22.626 76.6546 24.776C76.6546 26.501 77.588 27.501 79.2546 28.3344L81.3546 29.4677Z" fill="black" fill-opacity="0.55"/>
</g>
<defs>
<clipPath id="clip0_4628_39988">
<rect width="110" height="35" fill="white" transform="translate(0 0.451172)"/>
</clipPath>
</defs>
</svg>
