<svg width="126" height="20" viewBox="0 0 126 20" fill="none" xmlns="http://www.w3.org/2000/svg">
<path d="M0.00340683 8.2511C0.00340683 6.11993 -0.000194404 3.99056 0.00521008 1.85939C0.00881308 0.93702 0.106092 0.83974 1.05008 0.836137C2.91102 0.828931 4.77017 0.825325 6.63111 0.837935C7.9426 0.846943 9.19825 1.09015 10.3098 1.83597C12.8769 3.5582 12.9454 7.48366 10.4467 9.30858C9.69726 9.85623 9.69906 9.85623 10.1584 10.6831C10.8881 11.9928 11.6231 13.2989 12.3401 14.6176C12.7832 15.4355 12.6355 15.6679 11.6879 15.6859C10.9979 15.6985 10.3062 15.6607 9.618 15.6967C8.96225 15.7291 8.5425 15.4589 8.25426 14.8842C7.63455 13.652 7.00222 12.427 6.35368 11.2092C6.20596 10.9335 6.00059 10.5336 5.76819 10.4922C5.22054 10.3949 4.63686 10.4525 4.07479 10.521C3.98291 10.5318 3.88383 10.9173 3.88023 11.1299C3.86041 12.2991 3.87663 13.47 3.86762 14.641C3.86041 15.5508 3.73431 15.6715 2.81735 15.6877C2.18683 15.6985 1.5563 15.6949 0.927575 15.6895C0.122306 15.6823 0.0106146 15.5778 0.00521008 14.7347C-0.0037974 12.7837 0.00160907 10.8344 0.00160907 8.88342C0.00341057 8.67085 0.00340683 8.46007 0.00340683 8.2511ZM5.50518 3.86625C5.50518 3.85724 5.50518 3.84824 5.50518 3.83923C5.23495 3.83923 4.96293 3.86265 4.69631 3.83382C4.16667 3.77798 3.92527 3.95813 3.95049 4.5274C3.98652 5.30565 3.9667 6.0857 3.9595 6.86394C3.95589 7.23865 4.10902 7.4062 4.49454 7.39719C5.21334 7.38098 5.93574 7.42241 6.65093 7.37557C7.62734 7.31252 8.25607 6.61894 8.27228 5.67135C8.28849 4.69314 7.73183 4.00497 6.76082 3.87346C6.35008 3.81941 5.92313 3.86625 5.50518 3.86625Z" fill="#717475"/>
<path d="M23.2893 5.59784C24.617 4.49172 25.9843 4.28815 27.4237 4.57639C29.4648 4.98533 30.416 6.43194 30.7853 8.34152C31.0501 9.70706 31.0483 11.0852 30.7187 12.4471C29.9098 15.7997 26.4059 17.0716 23.6064 15.0341C23.4875 14.9476 23.3722 14.8611 23.2443 14.7657C22.938 15.7042 22.9272 15.7132 21.9202 15.7169C21.4103 15.7187 20.9005 15.7006 20.3907 15.7204C19.8124 15.7439 19.5728 15.443 19.544 14.9116C19.535 14.7314 19.535 14.5513 19.535 14.3711C19.535 10.2313 19.5332 6.09145 19.535 1.95341C19.535 0.697771 19.6179 0.618508 20.8537 0.611302C21.3635 0.609501 21.8733 0.598692 22.3831 0.616707C23.1308 0.643729 23.2749 0.778843 23.2839 1.53007C23.3001 2.81634 23.2893 4.1044 23.2893 5.59784ZM27.1697 10.2205C27.1265 9.82956 27.0995 9.35036 27.0184 8.88017C26.8581 7.956 26.3356 7.46419 25.4853 7.39213C24.4369 7.30206 23.6586 7.67857 23.4911 8.62976C23.3235 9.57735 23.3055 10.5934 23.446 11.5464C23.61 12.6687 24.3144 13.0831 25.4457 13.0056C26.35 12.9444 26.8977 12.4003 27.0526 11.3825C27.1049 11.0258 27.1247 10.6673 27.1697 10.2205Z" fill="#717475"/>
<path d="M36.1792 14.7743C35.8639 15.7111 35.8621 15.7111 34.8443 15.7147C34.3038 15.7165 33.7634 15.7111 33.2229 15.7129C32.7383 15.7147 32.5167 15.4463 32.4807 14.9923C32.4663 14.8139 32.4717 14.632 32.4717 14.4518C32.4717 10.249 32.4699 6.04787 32.4717 1.84498C32.4717 0.713637 32.569 0.621758 33.7075 0.609148C34.1273 0.605545 34.5488 0.605545 34.9686 0.609148C36.1215 0.616354 36.2134 0.702825 36.2188 1.82516C36.2242 2.75653 36.217 3.6861 36.2224 4.61748C36.2242 4.87869 36.2476 5.13991 36.2674 5.50382C37.224 4.85888 38.1572 4.45354 39.2561 4.46796C41.4882 4.49858 43.0465 5.63892 43.5923 7.79531C44.0049 9.42026 44.0121 11.0758 43.5923 12.699C42.8285 15.6643 39.4561 16.9199 36.8349 15.2463C36.6133 15.1004 36.4026 14.9346 36.1792 14.7743ZM40.0596 10.1102C40.0308 9.80759 40.029 9.32299 39.9353 8.8582C39.7263 7.82414 39.1985 7.39178 38.2149 7.38097C37.206 7.36836 36.48 7.83675 36.3395 8.81316C36.2134 9.68869 36.2044 10.6093 36.3341 11.483C36.4962 12.5873 37.2114 13.0557 38.3085 13.0106C39.294 12.9692 39.8614 12.3981 40.0019 11.274C40.0434 10.9461 40.0362 10.6147 40.0596 10.1102Z" fill="#717475"/>
<path d="M55.9162 7.46558C55.9162 8.91218 55.8802 10.2291 55.9288 11.5442C55.9595 12.3674 56.3738 12.7061 57.2025 12.7386C57.6511 12.7566 58.1015 12.7458 58.5518 12.7476C59.0256 12.7476 59.2724 12.9836 59.2995 13.4556C59.3013 13.4862 59.303 13.515 59.303 13.5456C59.3193 16.0731 59.4616 15.7308 57.262 15.7452C56.8728 15.7471 56.4819 15.729 56.0928 15.702C53.7472 15.5381 52.4105 14.1978 52.3042 11.8486C52.2538 10.7407 52.288 9.62917 52.2844 8.51945C52.2808 7.47999 52.2808 7.47998 51.2846 7.46917C51.1351 7.46737 50.9855 7.46558 50.8342 7.46558C50.3532 7.46558 50.1172 7.22057 50.1172 6.74318C50.1172 6.56303 50.1154 6.38288 50.1136 6.20273C50.11 4.68046 50.1082 4.65163 51.5999 4.6048C52.1763 4.58678 52.3096 4.35079 52.2916 3.83736C52.2628 3.02849 52.2952 2.21781 52.2844 1.40894C52.2772 0.846876 52.551 0.573048 53.0969 0.564041C53.7274 0.553232 54.3561 0.546024 54.9867 0.562237C55.7163 0.582054 55.8838 0.751396 55.9018 1.47019C55.918 2.12954 55.8982 2.79069 55.9072 3.45004C55.9216 4.59399 55.6983 4.59399 57.0926 4.59579C57.4817 4.59579 57.8727 4.58138 58.2618 4.6048C59.0454 4.65163 59.1103 4.77053 59.1103 6.02978C59.1103 7.29263 59.0418 7.43315 58.2744 7.46197C57.5304 7.48719 56.7846 7.46558 55.9162 7.46558Z" fill="#717475"/>
<path d="M91.8163 5.91111C92.9044 4.80139 94.1114 4.41767 95.504 4.47351C97.5036 4.55278 98.9971 5.63367 99.5645 7.56308C100.056 9.23487 100.094 10.9409 99.624 12.6253C98.7719 15.677 95.3472 16.9092 92.7026 15.1348C92.4324 14.9528 92.1784 14.7456 91.7605 14.4322C91.7605 15.1618 91.7605 15.7689 91.7605 16.3742C91.7605 17.1849 91.7713 17.9955 91.7568 18.8044C91.7442 19.5016 91.5371 19.6926 90.9228 19.6817C90.303 19.6709 90.3967 19.2061 90.3967 18.8422C90.3895 14.4016 90.3913 9.96087 90.3913 5.51838C90.3913 5.07161 90.4165 4.66807 91.0272 4.64826C91.6542 4.63024 91.7947 4.98333 91.7641 5.50937C91.7586 5.59584 91.7839 5.68412 91.8163 5.91111ZM91.8073 8.34672L91.7352 12.3226C92.3982 13.2702 93.834 14.7294 95.603 14.6015C96.8785 14.5096 97.8063 13.7692 98.2062 12.4722C98.6692 10.9715 98.6656 9.46185 98.2026 7.95761C97.8189 6.71457 97.0046 5.97416 95.6949 5.83904C94.342 5.70033 93.2071 6.05703 92.4468 7.28385C92.1208 7.77385 91.8073 8.40257 91.8073 8.34672Z" fill="#717475"/>
<path d="M67.2512 8.28718C67.2476 9.43294 67.2332 10.5715 67.4368 11.6848C67.7124 13.1873 68.705 14.088 70.1841 14.4393C71.2307 14.6879 72.2648 14.6266 73.2898 14.3042C74.4356 13.9439 75.194 13.2071 75.5255 12.0451C75.5741 11.8722 75.648 11.7046 75.6768 11.5281C75.7705 10.9318 76.1686 10.8165 76.6676 10.9156C77.2045 11.0237 77.1577 11.4146 77.0766 11.8307C76.6821 13.87 75.4264 15.1203 73.4772 15.6751C72.2198 16.0336 70.9245 16.0372 69.6508 15.7202C67.8331 15.268 66.6729 14.088 66.1631 12.3135C65.9415 11.5443 65.8028 10.7264 65.7938 9.92835C65.7776 8.3142 65.7362 6.67845 65.9559 5.08592C66.3289 2.37467 68.0673 0.872219 70.8056 0.647032C72.335 0.520928 73.7943 0.720894 75.1003 1.62164C76.2299 2.39989 76.8442 3.4862 77.1 4.8085C77.1775 5.21023 77.1252 5.5471 76.6496 5.62096C76.2425 5.68401 75.857 5.64439 75.7147 5.15258C75.6822 5.03728 75.6678 4.91658 75.6336 4.80309C75.1039 3.00519 74.0789 2.1693 72.2089 2.01257C71.9099 1.98735 71.609 1.98195 71.31 1.98555C68.8942 2.02158 67.435 3.36549 67.2602 5.77229C67.2008 6.60458 67.2512 7.44769 67.2512 8.28718C67.2026 8.28899 67.2999 8.28538 67.2512 8.28718Z" fill="#717475"/>
<path d="M86.0678 14.454C84.8121 15.6574 83.4484 16.0519 81.9063 15.897C80.9731 15.8033 80.1697 15.4232 79.5049 14.7782C78.1556 13.4739 78.2853 11.5355 79.7824 10.3988C80.7984 9.62594 81.9928 9.35932 83.2232 9.19358C84.0267 9.0855 84.8265 8.95759 85.63 8.86751C86.0029 8.82608 86.1218 8.65854 86.1416 8.28923C86.2209 6.84443 85.4643 5.92568 84.0339 5.78876C83.7366 5.75994 83.434 5.76354 83.1349 5.76174C82.0613 5.75453 81.1929 6.11664 80.7209 7.15069C80.4975 7.6389 80.094 7.72356 79.6725 7.54882C79.177 7.34345 79.3194 6.91829 79.4779 6.54719C79.9841 5.3618 80.9425 4.70966 82.1639 4.54392C82.9836 4.43223 83.8519 4.44664 84.668 4.58716C86.2713 4.86459 87.3342 5.97431 87.4063 7.60286C87.5144 10.0889 87.4567 12.584 87.4657 15.0737C87.4675 15.5186 87.2334 15.7168 86.7866 15.715C86.3488 15.7132 86.1056 15.533 86.0984 15.0791C86.0948 14.9313 86.0822 14.7836 86.0678 14.454ZM86.1885 10.0907C84.4032 10.3159 82.7945 10.361 81.283 10.9843C81.0902 11.0635 80.9011 11.1626 80.7335 11.2833C79.6995 12.0291 79.7211 13.328 80.7732 14.0558C82.1928 15.0304 85.1292 14.5224 85.8102 12.4831C86.0462 11.7715 86.1885 11.1752 86.1885 10.0907Z" fill="#717475"/>
<path d="M49.0617 10.2741C49.0617 11.7117 49.0653 13.1493 49.0599 14.5869C49.0563 15.666 48.977 15.7398 47.8655 15.7452C47.4169 15.747 46.9665 15.7524 46.518 15.7434C45.5704 15.7254 45.4209 15.5867 45.4191 14.6391C45.4119 11.8828 45.4154 9.12835 45.4154 6.37206C45.4154 6.07301 45.4245 5.77216 45.4154 5.47311C45.3992 4.91465 45.6568 4.63901 46.2225 4.64442C46.8512 4.65162 47.48 4.63361 48.1087 4.64622C48.905 4.66243 49.0491 4.79934 49.0563 5.59921C49.0689 7.1593 49.0599 8.7176 49.0617 10.2741Z" fill="#717475"/>
<path d="M17.5624 10.2258C17.5624 11.7535 17.5714 13.2793 17.5588 14.807C17.5516 15.6087 17.4201 15.7276 16.604 15.7438C16.0347 15.7546 15.4654 15.7582 14.898 15.742C14.1269 15.7186 13.9432 15.5456 13.927 14.7782C13.9072 13.8504 13.9216 12.9226 13.9216 11.9931C13.9216 9.89612 13.9162 7.80098 13.9252 5.70404C13.9288 4.78528 14.0567 4.66098 14.9556 4.64657C15.5249 4.63756 16.0942 4.63396 16.6616 4.64837C17.4075 4.66819 17.5516 4.79969 17.5588 5.55271C17.5732 7.11281 17.5624 8.6693 17.5624 10.2258Z" fill="#717475"/>
<path d="M107.385 6.77598C107.414 6.16708 107.297 5.9563 106.593 5.95089C106.355 5.94909 106.113 5.9563 105.874 5.9455C105.47 5.92748 105.277 5.68788 105.272 5.30416C105.268 4.92405 105.443 4.67544 105.856 4.65742C105.886 4.65562 105.915 4.65382 105.946 4.65202C106.387 4.61419 107.072 4.73128 107.214 4.5061C107.47 4.10256 107.374 3.71524 107.374 2.91718V1.31925C107.374 0.93553 107.686 0.62207 108.072 0.62207C108.453 0.62207 108.763 0.930124 108.769 1.31204C108.778 2.19117 108.789 3.29189 108.765 3.98907C108.749 4.49709 108.916 4.68985 109.432 4.65562C109.999 4.61959 110.572 4.65562 111.141 4.64842C111.581 4.64301 111.82 4.83217 111.817 5.28794C111.815 5.73652 111.574 5.94369 111.143 5.94909C110.572 5.9563 110.001 5.97251 109.432 5.9527C108.985 5.93648 108.769 6.08601 108.772 6.56341C108.79 8.57388 108.744 10.5861 108.814 12.5948C108.864 14.0234 109.352 14.3999 110.808 14.4125C110.923 14.4143 111.167 14.4125 111.406 14.4125C111.754 14.4107 112.035 14.6918 112.035 15.0394C112.035 15.3871 111.752 15.6682 111.406 15.6682C110.858 15.6682 110.451 15.6682 109.848 15.6682C108.421 15.6682 107.382 14.4197 107.382 12.7533V6.77598H107.385Z" fill="#717475"/>
<path d="M125.998 8.2852C125.998 10.4776 126.004 12.6682 125.996 14.8607C125.995 15.5849 125.831 15.7668 125.297 15.738C124.915 15.7164 124.67 15.5524 124.658 15.1399C124.652 14.9904 124.651 14.839 124.651 14.6895C124.651 10.3371 124.647 5.98289 124.656 1.63047C124.656 1.26837 124.519 0.812591 125.09 0.69189C125.708 0.560381 125.993 0.801782 125.996 1.53139C126.004 3.78146 125.998 6.03333 125.998 8.2852Z" fill="#717475"/>
<path d="M102.246 10.1013C102.246 8.57359 102.246 7.04593 102.246 5.51826C102.246 5.01744 102.348 4.61751 102.986 4.64813C103.371 4.66795 103.615 4.81567 103.633 5.22821C103.638 5.34711 103.638 5.46781 103.638 5.58851C103.638 8.64385 103.64 11.6992 103.636 14.7563C103.636 15.1346 103.719 15.5652 103.182 15.6967C102.579 15.8444 102.26 15.5922 102.251 14.8662C102.233 13.2773 102.246 11.6902 102.246 10.1013Z" fill="#717475"/>
<path d="M15.7178 3.11714C13.983 3.11714 13.8911 3.34773 13.9217 1.29042C13.9379 0.164487 14.037 0.0545972 15.1539 0.0473913C15.6926 0.0437883 16.233 0.0473893 16.7717 0.0509923C17.3103 0.0527938 17.6202 0.294196 17.6148 0.863469C17.613 0.953544 17.6202 1.04362 17.6202 1.13369C17.631 3.32251 17.7066 3.11714 15.7178 3.11714Z" fill="#717475"/>
<path d="M47.1883 3.11714C45.4336 3.12435 45.3922 3.28288 45.4138 1.36608C45.4282 0.114044 45.4804 0.0509906 46.7397 0.0473876C47.2495 0.0455861 47.7575 0.0455859 48.2674 0.0527919C48.806 0.0599979 49.1123 0.304999 49.0906 0.877875C49.087 0.96795 49.0924 1.05802 49.0924 1.1481C49.0888 3.23423 49.2834 3.12975 47.1883 3.11714Z" fill="#717475"/>
<path d="M101.993 1.4795C102.015 0.775113 102.152 0.661624 102.952 0.674234C103.705 0.686845 103.843 0.847176 103.802 1.66866C103.768 2.34062 103.622 2.45231 102.802 2.42709C102.094 2.40727 101.968 2.25955 101.993 1.4795Z" fill="#717475"/>
<path d="M120.33 14.454C119.075 15.6574 117.711 16.0519 116.169 15.897C115.236 15.8033 114.434 15.4232 113.768 14.7782C112.418 13.4739 112.548 11.5355 114.045 10.3988C115.061 9.62594 116.255 9.35932 117.486 9.19358C118.289 9.0855 119.089 8.95759 119.893 8.86751C120.266 8.82608 120.385 8.65854 120.404 8.28923C120.484 6.84443 119.727 5.92568 118.297 5.78876C117.999 5.75994 117.697 5.76354 117.398 5.76174C116.324 5.75453 115.456 6.11664 114.984 7.15069C114.76 7.6389 114.357 7.72356 113.935 7.54882C113.44 7.34345 113.582 6.91829 113.741 6.54719C114.247 5.3618 115.205 4.70966 116.427 4.54392C117.246 4.43223 118.115 4.44664 118.931 4.58716C120.534 4.86459 121.597 5.97431 121.669 7.60286C121.777 10.0889 121.719 12.584 121.728 15.0737C121.73 15.5186 121.496 15.7168 121.049 15.715C120.612 15.7132 120.368 15.533 120.361 15.0791C120.357 14.9313 120.347 14.7836 120.33 14.454ZM120.451 10.0907C118.666 10.3159 117.057 10.361 115.546 10.9843C115.353 11.0635 115.164 11.1626 114.996 11.2833C113.962 12.0291 113.984 13.328 115.036 14.0558C116.455 15.0304 119.392 14.5224 120.073 12.4831C120.309 11.7715 120.451 11.1752 120.451 10.0907Z" fill="#717475"/>
</svg>
