<svg width="92" height="34" viewBox="0 0 92 34" fill="none" xmlns="http://www.w3.org/2000/svg">
<path d="M44.206 3.37592C44.206 2.36295 43.9636 1.61319 43.3906 1.06299C44.052 1.17322 44.6687 1.19507 45.3073 1.19507C46.9151 1.19507 47.9509 1.06299 48.6779 1.06299C52.0047 1.06299 54.8907 2.86943 54.8907 8.61946C54.8907 14.3695 52.3126 16.5731 49.0086 16.5731C47.7533 16.5731 45.8803 16.4411 45.0868 16.4411C44.492 16.4411 43.9636 16.4848 43.3906 16.5731C43.9636 16.022 44.206 15.2732 44.206 14.2602V3.37592ZM45.7482 13.6425C45.7482 15.0527 46.3212 15.2504 48.4365 15.2504C50.9481 15.2504 53.3494 13.9723 53.3494 9.03758C53.3494 3.26569 50.9262 2.38385 48.2161 2.38385C45.9687 2.38385 45.7482 2.75825 45.7482 3.68381V13.6416V13.6425Z" fill="#717475"/>
<path d="M56.5922 3.50788C56.5922 2.49491 56.3499 1.74515 55.7769 1.19495H64.5896C65.0742 1.19495 65.3602 1.17309 65.6691 0.864258V4.6539L65.6254 4.61019C64.6998 2.78188 63.8408 2.51771 62.1227 2.51771H59.1484C58.487 2.51771 58.1345 2.91397 58.1345 3.53069V7.7603H61.3292C62.2766 7.7603 63.092 7.5845 63.665 6.61429V10.2272C63.092 9.25791 62.2766 9.08116 61.3292 9.08116H58.1345V14.1261C58.1345 14.8312 58.3768 15.1172 59.1702 15.1172H63.0036C64.6998 15.1172 65.4714 14.434 66.0435 12.7815L66.0872 12.8252V16.7688C65.8012 16.4827 65.536 16.4381 65.1616 16.4381H55.7769C56.3499 15.8869 56.5922 15.1381 56.5922 14.1251V3.50788Z" fill="#717475"/>
<path d="M68.2606 3.50788C68.2606 2.49491 68.0183 1.74515 67.4453 1.19495H76.258C76.7427 1.19495 77.0287 1.17309 77.3375 0.864258V4.6539L77.2938 4.61019C76.3683 2.78188 75.5092 2.51771 73.7912 2.51771H70.8168C70.1555 2.51771 69.8029 2.91397 69.8029 3.53069V7.7603H72.9977C73.9451 7.7603 74.7604 7.5845 75.3334 6.61429V10.2272C74.7604 9.25791 73.9451 9.08116 72.9977 9.08116H69.8029V14.1261C69.8029 14.8312 70.0452 15.1172 70.8387 15.1172H74.672C76.3683 15.1172 77.1399 14.434 77.7119 12.7815L77.7556 12.8252V16.7688C77.4696 16.4827 77.2045 16.4381 76.8301 16.4381H67.4453C68.0183 15.8869 68.2606 15.1381 68.2606 14.1251V3.50788Z" fill="#717475"/>
<path d="M79.9301 3.37592C79.9301 2.36295 79.6878 1.61319 79.1147 1.06299C79.7761 1.17322 80.3928 1.19507 81.0314 1.19507C81.8686 1.19507 84.0276 1.06299 84.9313 1.06299C87.7289 1.06299 90.2404 1.76808 90.2404 5.00657C90.2404 6.83487 89.1172 8.50923 87.2661 8.83993V8.88364C89.1391 9.61059 89.3814 10.6901 89.8432 14.2374C89.9316 15.0081 90.1739 15.9555 90.879 16.4401H89.4907C88.6316 16.4401 88.4112 15.4708 88.1688 13.4221C87.86 10.7347 87.1559 9.43479 84.3792 9.43479H81.4714V14.1272C81.4714 15.1402 81.7137 15.8899 82.2867 16.4401H79.1147C79.6878 15.889 79.9301 15.1402 79.9301 14.1272V3.37592ZM81.4723 8.11298H83.3672C87.2005 8.11298 88.6991 7.25394 88.6991 4.89634C88.6991 3.33221 87.3336 2.3848 85.4606 2.3848H83.2579C81.7593 2.3848 81.4733 2.73735 81.4733 3.4643V8.11298H81.4723Z" fill="#717475"/>
<path d="M44.206 20.9316C44.206 19.9186 43.9636 19.1689 43.3906 18.6187C44.052 18.7289 44.6687 18.7507 45.3073 18.7507C46.2984 18.7507 47.3561 18.6187 48.1495 18.6187C51.4545 18.6187 53.9214 19.3456 53.9214 22.6943C53.9214 25.2496 51.9164 26.7481 49.229 27.0788C45.9905 27.4751 45.7482 27.7402 45.7482 28.7532V31.6828C45.7482 32.6958 45.9905 33.4456 46.5635 33.9958H43.3916C43.9646 33.4446 44.2069 32.6958 44.2069 31.6828V20.9316H44.206ZM45.7482 26.5277C46.1226 26.1314 47.3561 25.9328 49.0751 25.757C50.816 25.5812 52.3801 24.5673 52.3801 22.7827C52.3801 21.152 51.6313 19.9405 48.503 19.9405C46.2338 19.9405 45.7492 20.0507 45.7492 21.1739V26.5277H45.7482Z" fill="#717475"/>
<path d="M57.6663 19.3458C57.71 19.2138 57.7328 19.1035 57.7328 19.0151C57.7328 18.8831 57.6891 18.8165 57.6444 18.751H59.8034C59.7369 18.8612 59.7369 18.9496 59.7369 19.0598C59.7369 19.17 59.7588 19.3686 59.8034 19.5007L63.461 31.1775C63.747 32.1031 64.1661 33.1607 64.8712 33.9979H62.0289C62.2275 33.7337 62.4033 33.3593 62.4033 33.0068C62.4033 32.6761 62.3596 32.4119 62.2713 32.1031L61.7866 30.5171H55.4199L55.0673 31.7068C54.9571 32.0594 54.825 32.5659 54.825 32.8528C54.825 33.2491 54.9789 33.69 55.3096 33.9989H52.5776C53.0623 33.4259 53.6134 32.2361 53.9213 31.245L57.6663 19.3487V19.3458ZM58.6137 20.183H58.57L55.838 29.1934H61.3894L58.6137 20.183Z" fill="#717475"/>
<path d="M66.745 20.9316C66.745 19.9186 66.5027 19.1689 65.9297 18.6187C66.5911 18.7289 67.2078 18.7507 67.8464 18.7507C68.6835 18.7507 70.8425 18.6187 71.7462 18.6187C74.5438 18.6187 77.0553 19.3237 77.0553 22.5622C77.0553 24.3905 75.9321 26.0649 74.081 26.3956V26.4393C75.954 27.1663 76.1963 28.2457 76.6581 31.7931C76.7465 32.5637 76.9888 33.5111 77.6939 33.9958H76.3056C75.4466 33.9958 75.2261 33.0265 74.9838 30.9777C74.6749 28.2904 73.9698 26.9905 71.1941 26.9905H68.2863V31.6828C68.2863 32.6958 68.5287 33.4456 69.1017 33.9958H65.9297C66.5027 33.4446 66.745 32.6958 66.745 31.6828V20.9316ZM68.2873 25.6686H70.1821C74.0155 25.6686 75.514 24.8096 75.514 22.452C75.514 20.8879 74.1485 19.9405 72.2755 19.9405H70.0728C68.5743 19.9405 68.2882 20.293 68.2882 21.02V25.6686H68.2873Z" fill="#717475"/>
<path d="M79.9301 21.0649C79.9301 20.0519 79.6878 19.3021 79.1147 18.7519H82.2867C81.7137 19.3031 81.4714 20.0519 81.4714 21.0649V26.5289L87.0228 20.3379C87.4419 19.8751 87.6842 19.5007 87.6842 19.3021C87.6842 19.1035 87.5075 18.9059 87.3535 18.751H90.7241L90.6804 18.7947C90.1074 19.0807 89.4688 19.6319 89.0279 20.1165L85.6354 23.9061L89.9097 31.5728C90.5264 32.6523 90.9892 33.2909 91.6943 33.996H88.4777C88.6981 33.7537 88.7637 33.3128 88.7637 33.0705C88.7637 32.6742 88.5879 32.1668 88.3228 31.6821L84.6434 24.9182L81.4714 28.5092V31.6821C81.4714 32.6951 81.7137 33.4449 82.2867 33.9951H79.1147C79.6878 33.4439 79.9301 32.6951 79.9301 31.6821V21.063V21.0649Z" fill="#717475"/>
<path d="M40.2865 0.864258H39.9214V33.9989H40.2865V0.864258Z" fill="#717475"/>
<path d="M18.2429 10.923C22.3788 10.923 25.1656 5.32477 26.6909 1.05469H9.71826C11.3102 5.78117 14.5561 10.923 18.2429 10.923Z" fill="#717475"/>
<path d="M7.76369 1.05469H6.70576C3.25719 1.05469 0.447594 3.78214 0.3125 7.19692C4.88289 7.21883 8.72761 9.05904 11.4268 11.268C9.54183 8.50862 8.15254 4.84372 7.76369 1.05469Z" fill="#717475"/>
<path d="M36.1755 7.03262C35.9582 3.69542 33.1842 1.05469 29.7914 1.05469H28.7069C28.4578 4.65477 27.0803 8.21379 25.2456 10.9622C28.0388 8.92303 31.9072 7.33385 36.1755 7.03262Z" fill="#717475"/>
<path d="M14.5038 14.5835C15.2615 15.7172 15.6695 16.7633 15.6695 17.5273C15.6695 18.4173 15.3564 19.3638 14.7841 20.3113C15.9351 19.4843 17.1053 19.0206 18.1925 19.0444C19.4658 19.0717 20.7465 19.5939 21.9569 20.4893C21.1837 19.3456 20.7657 18.2931 20.7657 17.5273C20.7657 16.693 21.0413 15.7984 21.5479 14.8957C20.448 15.6533 19.3344 16.0732 18.2974 16.0513C17.014 16.0239 15.7224 15.4926 14.5029 14.5835H14.5038Z" fill="#717475"/>
<path d="M26.1128 17.6388C26.1128 21.8915 31.9456 24.7303 36.191 26.2337V8.77637C31.4344 10.1656 26.1128 13.3842 26.1128 17.6378V17.6388Z" fill="#717475"/>
<path d="M28.7238 33.9997H29.7917C33.2056 33.9997 35.9942 31.327 36.1804 27.9597C31.621 27.8958 27.7644 26.0282 25.0488 23.8037C26.9356 26.5549 28.3276 30.2143 28.7238 33.9997Z" fill="#717475"/>
<path d="M10.5058 17.527C10.5058 13.2341 4.56072 10.3807 0.306152 8.88916V26.2023C5.21519 24.3255 10.5058 21.4046 10.5058 17.527Z" fill="#717475"/>
<path d="M18.2493 24.1729C14.1271 24.1729 11.3439 29.7355 9.81592 34.0001H26.7602C25.1628 29.2845 21.926 24.1729 18.2493 24.1729Z" fill="#717475"/>
<path d="M0.313477 27.8958C0.468653 31.2923 3.27004 33.9997 6.70582 33.9997H7.78749C8.05585 30.2554 9.54098 26.5576 11.4898 23.7754C8.68021 25.8739 4.69948 27.5325 0.313477 27.8967V27.8958Z" fill="#717475"/>
</svg>
