<svg width="138" height="19" viewBox="0 0 138 19" fill="none" xmlns="http://www.w3.org/2000/svg">
<g clip-path="url(#clip0_936_17094)">
<path d="M31.7375 10.7096V14.555C31.7375 14.726 31.7785 14.8579 31.8624 14.9527C31.9444 15.0475 32.086 15.12 32.2873 15.1702V15.4434H28.6377V15.1702C28.8427 15.1126 28.9863 15.0401 29.0664 14.9471C29.1466 14.8561 29.1857 14.7241 29.1857 14.555V4.67846C29.1857 4.50189 29.1466 4.36807 29.0664 4.277C28.9863 4.18593 28.8446 4.11159 28.6377 4.05397V3.78076H35.937C36.7888 3.78076 37.4636 3.83838 37.9631 3.95175C38.4626 4.06513 38.9044 4.26214 39.2865 4.54092C39.6798 4.83086 39.9892 5.21373 40.211 5.68581C40.4347 6.17648 40.5447 6.69316 40.5447 7.24145C40.5447 8.02763 40.3341 8.71716 39.9109 9.30819C39.5456 9.81559 39.061 10.1762 38.4589 10.388C37.8569 10.6018 37.0143 10.7077 35.9351 10.7077H31.7375V10.7096ZM31.7375 8.78779H35.6369C36.4141 8.78779 36.9584 8.70601 37.2734 8.5406C37.4729 8.4328 37.635 8.25995 37.7581 8.02391C37.8811 7.78787 37.9426 7.52767 37.9426 7.24145C37.9426 6.95523 37.8811 6.70432 37.7581 6.46828C37.635 6.23224 37.4747 6.05939 37.2734 5.95159C36.9659 5.78618 36.4197 5.7044 35.6369 5.7044H31.7375V8.78779Z" fill="#717475"/>
<path d="M49.1472 12.4696H43.8312L43.0446 14.1108C42.9365 14.3394 42.8824 14.5178 42.8824 14.6498C42.8824 14.9007 43.0725 15.0735 43.4546 15.1702V15.4434H39.5869V15.1702C39.8162 15.1256 39.9895 15.0456 40.1088 14.9304C40.2281 14.817 40.366 14.594 40.5208 14.2632L44.8228 5.30108C44.9607 5.01672 45.0278 4.78812 45.0278 4.61713C45.0278 4.35506 44.8619 4.16735 44.5301 4.05397V3.78076H48.6775V4.05397C48.3401 4.15062 48.1723 4.31789 48.1723 4.55765C48.1723 4.72306 48.2264 4.91078 48.3345 5.1208L52.7894 14.1089C52.9776 14.4899 53.1435 14.752 53.287 14.8914C53.4306 15.0308 53.6207 15.1237 53.8611 15.1683V15.4415H49.5554V15.1683C49.9338 15.1051 50.122 14.9286 50.122 14.6386C50.122 14.5197 50.0642 14.3431 49.9505 14.1089L49.1472 12.4678V12.4696ZM48.4128 10.8713L46.5171 6.71733L44.5898 10.8713H48.4128Z" fill="#717475"/>
<path d="M57.9561 13.5216H65.1454C65.3225 13.5216 65.4567 13.4826 65.548 13.4027C65.6394 13.3227 65.7139 13.1796 65.7717 12.9752H66.0457V15.9917H65.7717C65.7139 15.7872 65.6394 15.6441 65.548 15.5642C65.4567 15.4843 65.3225 15.4452 65.1454 15.4452H54.8545V15.172C55.0595 15.1144 55.2031 15.0419 55.2832 14.949C55.3634 14.8579 55.4025 14.7241 55.4025 14.5475V4.67846C55.4025 4.50189 55.3634 4.36807 55.2832 4.277C55.2031 4.18593 55.0614 4.11159 54.8545 4.05397V3.78076H58.5041V4.05397C58.2991 4.10601 58.1556 4.1785 58.0754 4.27143C57.9953 4.36622 57.9561 4.50003 57.9561 4.6766V13.5197V13.5216Z" fill="#717475"/>
<path d="M67.8166 14.5457V4.66917C67.8166 4.49818 67.7774 4.36807 67.6973 4.277C67.6171 4.18593 67.4755 4.11159 67.2686 4.05397V3.78076H70.9182V4.05397C70.7132 4.10601 70.5696 4.1785 70.4895 4.27143C70.4093 4.36622 70.3702 4.49818 70.3702 4.66917V14.5457C70.3702 14.7223 70.4112 14.8579 70.4951 14.9509C70.5771 15.0456 70.7187 15.1181 70.9201 15.1683V15.4415H67.2704V15.1683C67.4755 15.1107 67.619 15.0382 67.6991 14.9453C67.7793 14.8542 67.8184 14.7204 67.8184 14.5438L67.8166 14.5457Z" fill="#717475"/>
<path d="M83.8988 4.76959L82.5027 7.51472L82.2623 7.37718C82.2679 7.31957 82.2716 7.27496 82.2716 7.23965C82.2716 7.04636 82.1057 6.83819 81.7739 6.61516C80.7581 5.9089 79.5633 5.55577 78.1932 5.55577C77.5875 5.55577 77.0544 5.63011 76.5902 5.77694C76.2529 5.89032 75.9807 6.06131 75.772 6.28991C75.5632 6.51666 75.4588 6.76571 75.4588 7.03149C75.4588 7.47011 75.7235 7.76749 76.2547 7.92732C76.5287 8.00724 77.1177 8.09274 78.0199 8.18381L79.3657 8.31949C80.1653 8.40498 80.8121 8.52207 81.3061 8.6689C81.8 8.81759 82.238 9.02389 82.622 9.29153C83.0097 9.57031 83.3173 9.93831 83.5428 10.3918C83.7684 10.8472 83.8821 11.3341 83.8821 11.8508C83.8821 12.6704 83.6155 13.399 83.0861 14.0365C82.6071 14.6164 81.8615 15.0476 80.8494 15.3264C80.0963 15.5364 79.2874 15.6423 78.4244 15.6423C76.8754 15.6423 75.3488 15.2725 73.8409 14.5309C73.5203 14.3822 73.3302 14.3078 73.2668 14.3078C73.1922 14.3078 73.0748 14.371 72.9164 14.4956L72.6685 14.3673L73.936 11.5051L74.1839 11.6241V11.7356C74.1839 11.9921 74.3069 12.2281 74.5529 12.4455C74.9239 12.7764 75.498 13.0607 76.2752 13.3005C77.0525 13.5403 77.7888 13.6592 78.4859 13.6592C79.2464 13.6592 79.8932 13.531 80.43 13.2763C80.7264 13.1351 80.965 12.9455 81.142 12.7095C81.3191 12.4734 81.4067 12.2281 81.4067 11.9716C81.4067 11.585 81.198 11.31 80.7804 11.1445C80.4896 11.0312 79.9006 10.9252 79.0153 10.8286L77.6956 10.6929C76.8102 10.6018 76.1839 10.5145 75.8186 10.4327C75.4532 10.3509 75.0879 10.2171 74.7225 10.035C74.2025 9.77848 73.7943 9.39375 73.4979 8.88078C73.2295 8.41985 73.0953 7.8883 73.0953 7.28983C73.0953 6.30478 73.4345 5.48886 74.1149 4.84393C75.0059 3.99456 76.3423 3.5708 78.1243 3.5708C78.8717 3.5708 79.5688 3.647 80.2156 3.79755C80.8606 3.94995 81.6658 4.22874 82.6313 4.63391C82.9631 4.76587 83.1663 4.83092 83.239 4.83092C83.3583 4.83092 83.4981 4.76587 83.6584 4.63391L83.8988 4.76215V4.76959Z" fill="#717475"/>
<path d="M93.7253 12.4696H88.4093L87.6227 14.1108C87.5146 14.3394 87.4605 14.5178 87.4605 14.6498C87.4605 14.9007 87.6506 15.0735 88.0328 15.1702V15.4434H84.165V15.1702C84.3943 15.1256 84.5677 15.0456 84.6869 14.9304C84.8062 14.817 84.9442 14.594 85.0989 14.2632L89.4009 5.30108C89.5388 5.01672 89.6059 4.78812 89.6059 4.61713C89.6059 4.35506 89.44 4.16735 89.1083 4.05397V3.78076H93.2556V4.05397C92.9182 4.15062 92.7504 4.31789 92.7504 4.55765C92.7504 4.72306 92.8045 4.91078 92.9126 5.1208L97.3675 14.1089C97.5557 14.4899 97.7216 14.752 97.8652 14.8914C98.0087 15.0308 98.1988 15.1237 98.4393 15.1683V15.4415H94.1335V15.1683C94.5119 15.1051 94.7002 14.9286 94.7002 14.6386C94.7002 14.5197 94.6424 14.3431 94.5287 14.1089L93.7253 12.4678V12.4696ZM92.9909 10.8713L91.0952 6.71733L89.1679 10.8713H92.9909Z" fill="#717475"/>
<path d="M99.8135 14.5457V4.67846C99.8135 4.50189 99.7744 4.36807 99.6942 4.277C99.6141 4.18593 99.4724 4.11159 99.2655 4.05397V3.78076H105.789C107.219 3.78076 108.315 3.94246 109.081 4.26771C110.179 4.73979 110.99 5.5204 111.516 6.60767C111.933 7.46262 112.142 8.46068 112.142 9.60557C112.142 11.6166 111.521 13.148 110.282 14.2018C109.762 14.6461 109.152 14.9639 108.455 15.1553C107.758 15.3467 106.869 15.4415 105.788 15.4415H99.2637V15.1683C99.4687 15.1107 99.6122 15.0382 99.6924 14.9453C99.7725 14.8542 99.8117 14.7204 99.8117 14.5438L99.8135 14.5457ZM102.367 13.5197H105.575C106.598 13.5197 107.368 13.3804 107.883 13.1016C108.986 12.5031 109.538 11.3396 109.538 9.60743C109.538 8.35474 109.24 7.39385 108.645 6.72848C108.313 6.35862 107.912 6.0947 107.445 5.93858C106.975 5.78246 106.352 5.7044 105.575 5.7044H102.367V13.5216V13.5197Z" fill="#717475"/>
<path d="M117.057 10.3248V13.5197H124.58C124.751 13.5197 124.882 13.4807 124.975 13.4007C125.066 13.3208 125.141 13.1777 125.197 12.9733H125.471V15.9898H125.197C125.139 15.7853 125.064 15.6422 124.975 15.5623C124.883 15.4824 124.751 15.4433 124.58 15.4433H113.955V15.1701C114.16 15.1125 114.304 15.04 114.384 14.9471C114.464 14.856 114.503 14.7222 114.503 14.5456V4.6784C114.503 4.50184 114.464 4.36802 114.384 4.27695C114.304 4.18588 114.16 4.11153 113.955 4.05392V3.7807H124.375C124.546 3.7807 124.677 3.73982 124.768 3.65804C124.859 3.57626 124.934 3.43501 124.992 3.23242H125.266V6.25076H124.992C124.934 6.04818 124.859 5.90693 124.768 5.82515C124.677 5.74337 124.544 5.70434 124.375 5.70434H117.057V8.47177H121.804C121.976 8.47177 122.106 8.43274 122.198 8.35282C122.289 8.27291 122.363 8.12979 122.421 7.92535H122.695V10.8731H122.421C122.363 10.6742 122.289 10.5329 122.198 10.4493C122.106 10.3675 121.974 10.3248 121.804 10.3248H117.057Z" fill="#717475"/>
<path d="M138 4.76959L136.604 7.51472L136.364 7.37718C136.369 7.31957 136.373 7.27496 136.373 7.23965C136.373 7.04636 136.207 6.83819 135.875 6.61516C134.858 5.9089 133.665 5.55577 132.295 5.55577C131.689 5.55577 131.156 5.63011 130.692 5.77694C130.354 5.89032 130.082 6.06131 129.874 6.28991C129.665 6.51666 129.56 6.76571 129.56 7.03149C129.56 7.47011 129.825 7.76749 130.356 7.92732C130.63 8.00724 131.219 8.09274 132.121 8.18381L133.467 8.31949C134.267 8.40498 134.914 8.52207 135.408 8.6689C135.902 8.81759 136.34 9.02389 136.724 9.29153C137.111 9.57031 137.419 9.93831 137.644 10.3918C137.87 10.8472 137.984 11.3341 137.984 11.8508C137.984 12.6704 137.719 13.399 137.188 14.0365C136.709 14.6164 135.963 15.0476 134.951 15.3264C134.196 15.5364 133.389 15.6423 132.526 15.6423C130.979 15.6423 129.45 15.2725 127.942 14.5309C127.622 14.3822 127.432 14.3078 127.368 14.3078C127.294 14.3078 127.176 14.371 127.018 14.4956L126.77 14.3673L128.038 11.5051L128.285 11.6241V11.7356C128.285 11.9921 128.408 12.2281 128.654 12.4455C129.025 12.7764 129.6 13.0607 130.377 13.3005C131.154 13.5403 131.89 13.6592 132.587 13.6592C133.348 13.6592 133.995 13.531 134.532 13.2763C134.828 13.1351 135.067 12.9455 135.244 12.7095C135.421 12.4734 135.508 12.2281 135.508 11.9716C135.508 11.585 135.3 11.31 134.882 11.1445C134.591 11.0312 134.002 10.9252 133.117 10.8286L131.797 10.6929C130.912 10.6018 130.285 10.5145 129.92 10.4327C129.555 10.3509 129.189 10.2171 128.824 10.035C128.304 9.77848 127.896 9.39375 127.599 8.88078C127.331 8.41985 127.197 7.8883 127.197 7.28983C127.197 6.30478 127.536 5.48886 128.216 4.84393C129.107 3.99456 130.444 3.5708 132.226 3.5708C132.973 3.5708 133.67 3.647 134.317 3.79755C134.964 3.94809 135.767 4.22874 136.733 4.63391C137.065 4.76587 137.268 4.83092 137.341 4.83092C137.46 4.83092 137.6 4.76587 137.76 4.63391L138 4.76215V4.76959Z" fill="#717475"/>
<path d="M15.6049 16.5024C15.6049 16.5024 13.1035 14.1662 13.9907 11.0419C14.8779 7.91759 18.6748 8.48631 18.6748 8.48631C18.6748 8.48631 15.3831 10.7278 15.6049 16.5024Z" fill="#717475"/>
<path d="M5.0961 17.8906C5.0961 17.8906 6.36173 14.4819 9.39999 14.4819C12.4382 14.4819 13.7989 18.0486 13.7989 18.0486C13.7989 18.0486 10.3171 15.6491 5.09424 17.8906H5.0961Z" fill="#717475"/>
<path d="M0 8.44552C0 8.44552 3.79876 8.33586 4.62076 10.8728C5.44277 13.4098 3.00657 16.5025 3.00657 16.5025C3.00657 16.5025 3.32345 11.0736 0 8.44552Z" fill="#717475"/>
<path d="M1.04386 6.27085C1.04386 6.27085 6.02623 5.6315 7.67583 0.998047C9.41864 3.41792 7.28067 10.0419 1.04199 6.27085H1.04386Z" fill="#717475"/>
<path d="M10.5409 0.815918C10.5409 0.815918 9.37032 4.98287 11.8699 6.71879C14.3695 8.4547 17.3779 6.11846 17.3779 6.11846C17.3779 6.11846 12.7888 6.24485 10.5409 0.815918Z" fill="#717475"/>
</g>
<defs>
<clipPath id="clip0_936_17094">
<rect width="138" height="17.2328" fill="white" transform="translate(0 0.815918)"/>
</clipPath>
</defs>
</svg>
