<svg width="24" height="25" viewBox="0 0 24 25" fill="none" xmlns="http://www.w3.org/2000/svg">
<path d="M11.7546 22.3167C11.4698 22.3167 11.2195 22.2197 11.0038 22.0257C10.788 21.8332 10.6801 21.5794 10.6801 21.2643C10.6801 21.1138 10.7131 20.9469 10.7791 20.7637C10.845 20.5806 10.9436 20.4234 11.0748 20.2923L15.3624 16.0058L14.7198 15.3632L10.4391 19.6496C10.3072 19.7816 10.1586 19.8801 9.99326 19.9453C9.82795 20.0113 9.65992 20.0443 9.48917 20.0443C9.1896 20.0443 8.93542 19.9399 8.72665 19.7311C8.51787 19.5223 8.41387 19.2686 8.41465 18.9698C8.41465 18.7905 8.45113 18.6155 8.52408 18.4447C8.59781 18.274 8.69056 18.1323 8.80232 18.0198L13.0899 13.7333L12.4531 13.0965L8.16668 17.3783C8.05026 17.4948 7.90552 17.5898 7.73245 17.6636C7.55937 17.7373 7.38552 17.7738 7.2109 17.773C6.9152 17.773 6.66219 17.6678 6.45186 17.4575C6.24154 17.2472 6.13637 16.9942 6.13637 16.6985C6.13637 16.5277 6.16897 16.3597 6.23416 16.1944C6.29936 16.0291 6.39792 15.8804 6.52986 15.7485L10.5486 11.7298L9.90595 11.0942L5.89423 15.1129C5.78247 15.2246 5.64005 15.3174 5.46698 15.3911C5.29313 15.4641 5.11695 15.5005 4.93844 15.5005C4.62334 15.5005 4.36529 15.4 4.16427 15.199C3.96404 14.9988 3.86392 14.7411 3.86392 14.426C3.86392 14.2553 3.89651 14.0872 3.96171 13.9219C4.02768 13.7566 4.12624 13.608 4.25741 13.4761L10.0084 7.72506L12.516 10.2397C12.7294 10.4531 12.9704 10.604 13.239 10.6925C13.5083 10.7818 13.7807 10.8264 14.0562 10.8264C14.6173 10.8264 15.0861 10.6417 15.4625 10.2723C15.8389 9.90283 16.0271 9.43057 16.0271 8.85547C16.0271 8.58383 15.9748 8.30986 15.87 8.03357C15.7652 7.75805 15.6018 7.50892 15.3799 7.28617L12.2971 4.20346L13.438 3.06257C13.6941 2.81111 14.0034 2.61437 14.3659 2.47234C14.7283 2.32953 15.0908 2.25813 15.4532 2.25813C15.8389 2.25813 16.2153 2.32953 16.5824 2.47234C16.9496 2.61437 17.2627 2.81538 17.5219 3.07538L22.5092 8.065C22.7537 8.31025 22.9473 8.60905 23.0901 8.96141C23.233 9.31299 23.3044 9.70298 23.3044 10.1314C23.3044 10.5195 23.2318 10.8862 23.0867 11.2315C22.9423 11.5769 22.7498 11.8699 22.5092 12.1105L12.7058 21.9209C12.58 22.0467 12.4326 22.1437 12.2634 22.212C12.0957 22.281 11.9266 22.3156 11.7558 22.3156M2.91512 13.5389L1.71021 12.334C1.38036 12.0088 1.132 11.618 0.96514 11.1617C0.798276 10.7046 0.714844 10.2583 0.714844 9.82289C0.714844 9.36343 0.78935 8.94627 0.938364 8.57141C1.08738 8.19655 1.27752 7.89348 1.50881 7.6622L6.09213 3.07305C6.34282 2.82236 6.62222 2.62329 6.93033 2.47583C7.2369 2.32837 7.57179 2.25464 7.93501 2.25464C8.32462 2.25464 8.68163 2.3241 9.00605 2.46302C9.33201 2.60117 9.62926 2.80451 9.8978 3.07305L14.7454 7.91948C14.8618 8.0359 14.9565 8.18064 15.0294 8.35371C15.1024 8.52679 15.1389 8.69093 15.1389 8.84616C15.1389 9.1566 15.0376 9.41737 14.835 9.62848C14.6317 9.83803 14.3748 9.9428 14.0644 9.9428C13.8897 9.9428 13.7217 9.91137 13.5603 9.8485C13.3996 9.78486 13.2514 9.68513 13.1156 9.54931L10.0026 6.45146L2.91512 13.5389Z" fill="#01679A"/>
<path d="M11.7546 22.3167C11.4698 22.3167 11.2195 22.2197 11.0038 22.0257C10.788 21.8332 10.6801 21.5794 10.6801 21.2643C10.6801 21.1138 10.7131 20.9469 10.7791 20.7637C10.845 20.5806 10.9436 20.4234 11.0748 20.2923L15.3624 16.0058L14.7198 15.3632L10.4391 19.6496C10.3072 19.7816 10.1586 19.8801 9.99326 19.9453C9.82795 20.0113 9.65992 20.0443 9.48917 20.0443C9.1896 20.0443 8.93542 19.9399 8.72665 19.7311C8.51787 19.5223 8.41387 19.2686 8.41465 18.9698C8.41465 18.7905 8.45113 18.6155 8.52408 18.4447C8.59781 18.274 8.69056 18.1323 8.80232 18.0198L13.0899 13.7333L12.4531 13.0965L8.16668 17.3783C8.05026 17.4948 7.90552 17.5898 7.73245 17.6636C7.55937 17.7373 7.38552 17.7738 7.2109 17.773C6.9152 17.773 6.66219 17.6678 6.45186 17.4575C6.24154 17.2472 6.13637 16.9942 6.13637 16.6985C6.13637 16.5277 6.16897 16.3597 6.23416 16.1944C6.29936 16.0291 6.39792 15.8804 6.52986 15.7485L10.5486 11.7298L9.90595 11.0942L5.89423 15.1129C5.78247 15.2246 5.64005 15.3174 5.46698 15.3911C5.29313 15.4641 5.11695 15.5005 4.93844 15.5005C4.62334 15.5005 4.36529 15.4 4.16427 15.199C3.96404 14.9988 3.86392 14.7411 3.86392 14.426C3.86392 14.2553 3.89651 14.0872 3.96171 13.9219C4.02768 13.7566 4.12624 13.608 4.25741 13.4761L10.0084 7.72506L12.516 10.2397C12.7294 10.4531 12.9704 10.604 13.239 10.6925C13.5083 10.7818 13.7807 10.8264 14.0562 10.8264C14.6173 10.8264 15.0861 10.6417 15.4625 10.2723C15.8389 9.90283 16.0271 9.43057 16.0271 8.85547C16.0271 8.58383 15.9748 8.30986 15.87 8.03357C15.7652 7.75805 15.6018 7.50892 15.3799 7.28617L12.2971 4.20346L13.438 3.06257C13.6941 2.81111 14.0034 2.61437 14.3659 2.47234C14.7283 2.32953 15.0908 2.25813 15.4532 2.25813C15.8389 2.25813 16.2153 2.32953 16.5824 2.47234C16.9495 2.61437 17.2627 2.81538 17.5219 3.07538L22.5092 8.065C22.7537 8.31025 22.9473 8.60905 23.0901 8.96141C23.2329 9.31299 23.3044 9.70298 23.3044 10.1314C23.3044 10.5195 23.2318 10.8862 23.0867 11.2315C22.9423 11.5769 22.7498 11.8699 22.5092 12.1105L12.7058 21.9209C12.58 22.0467 12.4326 22.1437 12.2634 22.212C12.0957 22.281 11.9266 22.3156 11.7558 22.3156M2.91512 13.5389L1.71021 12.334C1.38036 12.0088 1.132 11.618 0.96514 11.1617C0.798276 10.7046 0.714844 10.2583 0.714844 9.82289C0.714844 9.36343 0.78935 8.94627 0.938364 8.57141C1.08738 8.19655 1.27752 7.89348 1.50881 7.6622L6.09213 3.07305C6.34282 2.82236 6.62222 2.62329 6.93033 2.47583C7.2369 2.32837 7.57179 2.25464 7.93501 2.25464C8.32462 2.25464 8.68163 2.3241 9.00605 2.46302C9.33201 2.60117 9.62926 2.80451 9.8978 3.07305L14.7454 7.91948C14.8618 8.0359 14.9565 8.18064 15.0294 8.35371C15.1024 8.52679 15.1389 8.69093 15.1389 8.84616C15.1389 9.1566 15.0376 9.41737 14.835 9.62848C14.6317 9.83803 14.3748 9.9428 14.0644 9.9428C13.8897 9.9428 13.7217 9.91137 13.5603 9.8485C13.3996 9.78486 13.2514 9.68513 13.1156 9.54931L10.0026 6.45146L2.91512 13.5389Z" stroke="#F6F8FC" stroke-width="0.2"/>
</svg>
