<svg width="24" height="23" viewBox="0 0 24 23" fill="none" xmlns="http://www.w3.org/2000/svg">
<g clip-path="url(#clip0_8568_5753)">
<path d="M15.0697 10.9421L5.5813 9.27344V21.6032C5.5813 22.1663 6.03934 22.6228 6.60437 22.6228H22.9768C23.5419 22.6228 23.9999 22.1663 23.9999 21.6032V17.0606L15.0697 10.9421Z" fill="#185C37"/>
<path d="M15.0697 0.375H6.60437C6.03934 0.375 5.5813 0.831469 5.5813 1.39455V5.93723L15.0697 11.4995L20.0929 13.1681L23.9999 11.4995V5.93723L15.0697 0.375Z" fill="#21A366"/>
<path d="M5.5813 5.93555H15.0697V11.4978H5.5813V5.93555Z" fill="#107C41"/>
<path opacity="0.1" d="M12.3722 4.82422H5.5813V18.7298H12.3722C12.9364 18.728 13.3934 18.2726 13.3953 17.7102V5.84377C13.3934 5.28145 12.9364 4.82605 12.3722 4.82422Z" fill="black"/>
<path opacity="0.2" d="M11.814 5.38086H5.5813V19.2864H11.814C12.3783 19.2846 12.8353 18.8292 12.8371 18.2669V6.40041C12.8353 5.83809 12.3783 5.38269 11.814 5.38086Z" fill="black"/>
<path opacity="0.2" d="M11.814 5.38086H5.5813V18.174H11.814C12.3783 18.1722 12.8353 17.7168 12.8371 17.1544V6.40041C12.8353 5.83809 12.3783 5.38269 11.814 5.38086Z" fill="black"/>
<path opacity="0.2" d="M11.2559 5.38086H5.5813V18.174H11.2559C11.8202 18.1722 12.2771 17.7168 12.279 17.1544V6.40041C12.2771 5.83809 11.8202 5.38269 11.2559 5.38086Z" fill="black"/>
<path d="M1.02307 5.38086H11.256C11.821 5.38086 12.2791 5.83733 12.2791 6.40041V16.5982C12.2791 17.1613 11.821 17.6178 11.256 17.6178H1.02307C0.458041 17.6178 0 17.1613 0 16.5982V6.40041C0 5.83733 0.458041 5.38086 1.02307 5.38086Z" fill="url(#paint0_linear_8568_5753)"/>
<path d="M3.16846 14.8121L5.32064 11.4887L3.34874 8.18359H4.93497L6.01106 10.2972C6.11041 10.498 6.1785 10.6471 6.21534 10.7456H6.22929C6.29999 10.5854 6.37441 10.4298 6.45255 10.2789L7.60287 8.18471H9.05906L7.03691 11.4703L9.11042 14.8121H7.56102L6.31804 12.4921C6.25949 12.3934 6.20981 12.2897 6.16958 12.1823H6.15117C6.11475 12.2875 6.06644 12.3883 6.00716 12.4827L4.72735 14.8121H3.16846Z" fill="white"/>
<path d="M22.977 0.375H15.0698V5.93723H24.0001V1.39455C24.0001 0.831469 23.542 0.375 22.977 0.375Z" fill="#33C481"/>
<path d="M15.0698 11.5H24.0001V17.0622H15.0698V11.5Z" fill="#107C41"/>
</g>
<defs>
<linearGradient id="paint0_linear_8568_5753" x1="2.13312" y1="4.5842" x2="10.1047" y2="18.4382" gradientUnits="userSpaceOnUse">
<stop stop-color="#18884F"/>
<stop offset="0.5" stop-color="#117E43"/>
<stop offset="1" stop-color="#0B6631"/>
</linearGradient>
<clipPath id="clip0_8568_5753">
<rect width="24" height="22.2489" fill="white" transform="translate(0 0.375)"/>
</clipPath>
</defs>
</svg>
