<svg width="214" height="49" viewBox="0 0 214 49" fill="none" xmlns="http://www.w3.org/2000/svg">
<g clip-path="url(#clip0_1991_1999)">
<path d="M135.189 19.7265C132.276 18.1882 128.164 18.627 125.854 20.8076C123.195 23.3151 122.663 26.442 123.746 29.7791C124.834 33.1277 127.433 34.6796 130.855 34.9082C133.544 35.0888 136.012 34.4053 138.32 32.8236C137.781 31.866 137.282 30.9791 136.788 30.099C131.792 32.4831 127.901 31.7402 127.458 28.3436H138.735C138.735 28.3436 138.889 27.9711 138.937 27.5824C139.348 24.282 137.877 21.1459 135.189 19.7265ZM127.449 25.3059C127.687 23.4202 129.296 22.1173 131.339 22.1265C133.294 22.1357 134.793 23.4317 134.983 25.3059H127.447H127.449Z" fill="#444444"/>
<path d="M97.2228 18.8213C92.4731 18.8304 88.9782 22.2338 88.9691 26.8579C88.9623 31.5482 92.4639 34.9995 97.2342 35.0018C101.952 35.0018 105.472 31.4886 105.451 26.7984C105.433 22.2705 101.865 18.8121 97.2228 18.8213ZM97.232 31.3104C94.8205 31.3401 92.9347 29.3561 92.9622 26.8144C92.9874 24.403 94.8616 22.515 97.2251 22.5195C99.5588 22.5242 101.461 24.4669 101.47 26.8532C101.477 29.3173 99.6136 31.2784 97.2342 31.3082L97.232 31.3104Z" fill="#444444"/>
<path d="M185.339 18.8214C180.587 18.8008 177.056 22.1951 177.031 26.8031C177.005 31.5116 180.475 34.979 185.239 35.0019C189.972 35.0248 193.482 31.5688 193.513 26.8533C193.545 22.3436 189.979 18.842 185.339 18.8214ZM185.209 31.3104C182.819 31.274 181.002 29.3334 181.019 26.8351C181.04 24.4213 182.902 22.5264 185.264 22.5219C187.637 22.5174 189.557 24.506 189.525 26.9379C189.492 29.3973 187.568 31.3494 185.209 31.3128V31.3104Z" fill="#444444"/>
<path d="M206.085 19.1743C203.693 18.2897 201.166 18.9251 199.458 20.7742C199.367 20.8748 199.242 20.9456 199.085 21.0645C199.054 20.4062 199.029 19.8531 199.002 19.2817H195.251V34.5343H199.173C199.173 34.068 199.173 33.6703 199.173 33.2726C199.184 30.7537 199.132 28.2326 199.232 25.7182C199.31 23.7502 200.837 22.4451 202.77 22.4885C204.59 22.5296 205.763 23.7525 205.879 25.7479C205.904 26.1502 205.908 26.5526 205.908 26.9571C205.908 29.1399 205.908 31.3228 205.908 33.5057V34.5296H209.888C209.888 31.1331 209.981 27.8074 209.858 24.4907C209.762 21.9834 208.54 20.0794 206.085 19.1719V19.1743Z" fill="#444444"/>
<path d="M117.984 19.1743C115.593 18.2897 113.065 18.9251 111.358 20.7742C111.266 20.8748 111.141 20.9456 110.985 21.0645C110.953 20.4062 110.928 19.8531 110.901 19.2817H107.15V34.5343H111.072C111.072 34.068 111.072 33.6703 111.072 33.2726C111.084 30.7537 111.031 28.2326 111.132 25.7182C111.209 23.7502 112.736 22.4451 114.668 22.4885C116.487 22.5296 117.659 23.7525 117.778 25.7479C117.801 26.1502 117.808 26.5526 117.808 26.9571C117.808 29.1399 117.808 31.3228 117.808 33.5057V34.5296H121.788C121.788 31.1331 121.881 27.8074 121.758 24.4907C121.662 21.9834 120.439 20.0794 117.984 19.1719V19.1743Z" fill="#444444"/>
<path d="M160.46 13.8115H156.382V34.543H169.88V30.5476H160.46V13.8115Z" fill="#444444"/>
<path d="M175.374 19.297H171.493V34.5496H175.374V19.297Z" fill="#444444"/>
<path d="M173.453 12.6288C172.03 12.6379 170.951 13.7306 170.997 15.1202C171.04 16.4871 172.105 17.4973 173.486 17.4768C174.878 17.4585 175.873 16.4391 175.87 15.0356C175.87 13.6505 174.834 12.6197 173.453 12.6288Z" fill="#444444"/>
<path d="M76.4005 24.8007L68.7365 13.747H65.525V34.4465H69.5V22.2316L76.4005 32.1858L83.3011 22.2316V34.4465H87.2759V13.747H84.0622L76.4005 24.8007Z" fill="#444444"/>
<path d="M147.169 29.2014C147.169 29.2014 144.67 22.9682 143.189 19.2997H138.609C140.251 23.0184 144.407 32.3762 144.79 33.2424C144.983 33.6836 145.18 34.1407 145.185 34.6207C145.187 35.1007 144.995 35.5648 144.722 35.9602C143.731 37.4094 141.595 37.9282 140.051 37.0961C139.826 38.1842 139.606 39.2698 139.381 40.3579C140.971 41.2402 142.974 41.4414 144.633 40.6961C145.859 40.1454 146.827 39.1305 147.543 37.9922C148.259 36.8539 148.746 35.5899 149.223 34.335C150.75 30.3487 153.831 22.3419 155.004 19.2997H150.561L147.169 29.2014Z" fill="#444444"/>
<path d="M210.325 12.6504C208.939 12.6504 207.835 13.7248 207.835 15.0664C207.835 16.4081 208.939 17.5121 210.325 17.5121C211.71 17.5121 212.8 16.4379 212.8 15.0664C212.8 13.695 211.726 12.6504 210.325 12.6504ZM210.341 16.9956C209.251 16.9956 208.455 16.1407 208.455 15.0664C208.455 13.9922 209.251 13.1372 210.327 13.1372C211.404 13.1372 212.183 14.0059 212.183 15.0825C212.183 16.1591 211.401 16.9978 210.341 16.9978V16.9956Z" fill="#444444"/>
<path d="M210.782 15.2805C210.903 15.2325 211.009 15.1662 211.085 15.068C211.184 14.9422 211.235 14.789 211.235 14.6107C211.235 14.5057 211.216 14.4073 211.18 14.3159C211.143 14.2245 211.091 14.1444 211.024 14.0759C210.958 14.0073 210.876 13.9524 210.777 13.9136C210.681 13.8748 210.571 13.8564 210.455 13.8564H209.508V16.2999H209.981V15.3605H210.221C210.235 15.3605 210.245 15.3605 210.258 15.3605L210.759 16.2999H211.291L210.741 15.2964C210.755 15.2896 210.766 15.2827 210.78 15.2782L210.782 15.2805ZM210.385 14.9422H209.984V14.2816H210.385C210.501 14.2816 210.592 14.3113 210.66 14.3731C210.727 14.4324 210.762 14.5125 210.762 14.6154C210.762 14.7183 210.729 14.7937 210.66 14.8531C210.594 14.9124 210.501 14.9445 210.385 14.9445V14.9422Z" fill="#444444"/>
<path fill-rule="evenodd" clip-rule="evenodd" d="M46.3542 17.4905C45.9656 16.8414 45.6022 16.2311 45.392 15.7282C45.1633 15.1774 44.9737 14.4574 44.7725 13.6963C44.2674 11.7763 43.6411 9.38997 41.7691 7.52702C39.8971 5.66421 37.4994 5.03788 35.5747 4.53731C34.8091 4.33626 34.0845 4.14878 33.5313 3.92017C33.0262 3.71226 32.4136 3.34877 31.7622 2.96477C30.0342 1.94306 27.881 0.669922 25.1428 0.669922C22.4045 0.669922 20.2513 1.94306 18.521 2.96477C17.8719 3.34877 17.2571 3.71226 16.7519 3.92017C16.1988 4.14878 15.4764 4.33626 14.7108 4.53731C12.7839 5.04021 10.3862 5.66421 8.51425 7.52702C6.64225 9.38997 6.01589 11.7763 5.51075 13.6963C5.3119 14.4574 5.12219 15.1796 4.89132 15.7305C4.68333 16.2311 4.3199 16.8414 3.93361 17.4883C2.90504 19.2116 1.62732 21.3534 1.62732 24.0825C1.62732 26.8116 2.90504 28.9511 3.93132 30.6722C4.31761 31.3191 4.68333 31.9316 4.89132 32.4322C5.12219 32.9831 5.30961 33.7054 5.51075 34.4665C6.01589 36.3842 6.64225 38.7705 8.51425 40.6333C10.3862 42.4963 12.7839 43.1203 14.7084 43.623C15.4788 43.8242 16.2011 44.0117 16.7519 44.2402C17.2571 44.4482 17.8696 44.8116 18.521 45.1956C20.249 46.2174 22.4022 47.4905 25.1428 47.4905C27.8833 47.4905 30.0342 46.2174 31.7645 45.1956C32.4183 44.8093 33.0307 44.4459 33.5313 44.2402C34.0845 44.0117 34.8067 43.8242 35.5702 43.6254C37.5016 43.1225 39.8994 42.4985 41.7714 40.6333C43.6434 38.7705 44.2719 36.3842 44.7748 34.4665C44.9759 33.7031 45.1655 32.9831 45.3942 32.4322C45.6044 31.9294 45.968 31.3191 46.3542 30.6722C47.3805 28.9511 48.6582 26.8093 48.6582 24.0802C48.6582 21.351 47.3805 19.2116 46.3565 17.4905H46.3542ZM44.6971 29.6916C44.2764 30.4003 43.8765 31.0699 43.6136 31.6985C43.3325 32.3705 43.1268 33.1522 42.9119 33.9819C42.4434 35.7625 41.9131 37.7831 40.409 39.2803C38.9073 40.7773 36.8776 41.3053 35.0879 41.7716C34.256 41.9888 33.4719 42.1922 32.7954 42.471C32.1645 42.7316 31.4925 43.1293 30.7816 43.5499C29.177 44.4985 27.3553 45.5751 25.145 45.5751C22.9348 45.5751 21.113 44.4985 19.5063 43.5499C18.7953 43.1293 18.1233 42.7316 17.4924 42.471C16.8159 42.1922 16.0319 41.9865 15.2 41.7716C13.4103 41.3053 11.3805 40.7773 9.87882 39.2803C8.37478 37.7831 7.84444 35.7647 7.37596 33.9819C7.15873 33.1545 6.95302 32.3705 6.67187 31.6985C6.41133 31.0699 6.01132 30.4003 5.58847 29.694C4.63533 28.0939 3.55418 26.2836 3.55418 24.0825C3.55418 21.8814 4.63533 20.0687 5.58847 18.471C6.01132 17.7647 6.41133 17.0951 6.67187 16.4665C6.95302 15.7922 7.15873 15.0105 7.37596 14.1831C7.84444 12.4025 8.37478 10.3819 9.87882 8.88474C11.3827 7.38988 13.4103 6.85969 15.2 6.3934C16.0319 6.17617 16.8182 5.97278 17.4924 5.69397C18.1233 5.4334 18.7953 5.03569 19.5084 4.61507C21.113 3.66645 22.9348 2.58992 25.145 2.58992C27.3553 2.58992 29.177 3.66645 30.7816 4.61507C31.4925 5.03569 32.1645 5.4334 32.7954 5.69397C33.4719 5.97278 34.256 6.1785 35.0879 6.3956C36.8776 6.86188 38.9073 7.38988 40.409 8.88707C41.9107 10.3819 42.4434 12.4025 42.9119 14.1853C43.1291 15.0128 43.3348 15.7945 43.616 16.4687C43.8787 17.0974 44.2788 17.7671 44.6994 18.4734C45.6525 20.0734 46.7336 21.8837 46.7336 24.0848C46.7336 26.286 45.6525 28.0985 44.6994 29.6962L44.6971 29.6916Z" fill="#444444"/>
<path fill-rule="evenodd" clip-rule="evenodd" d="M20.7865 16.1591C22.327 16.0699 23.8813 15.9488 25.4036 16.191C25.6551 16.2322 25.9041 16.2825 26.1533 16.3442C27.4127 16.662 28.6036 17.2791 29.4105 18.2779C30.1602 19.2036 30.5601 20.4197 31.4974 21.1556C32.1396 21.6608 32.9738 21.8779 33.7922 21.9099C34.6105 21.942 35.4242 21.807 36.231 21.6699C36.4047 21.6402 36.5922 21.6036 36.7041 21.4688C36.8413 21.3042 36.807 21.0596 36.7431 20.8562C36.2562 19.311 34.4871 18.399 34.1007 16.8265C34.0345 16.5568 34.039 16.2208 34.2676 16.0654C34.4505 15.942 34.6699 15.9945 34.8962 16.0448C35.0402 16.0791 35.1887 16.1111 35.3305 16.0973C35.751 16.0585 36.0276 15.5831 35.9751 15.1648C35.9224 14.7465 35.6276 14.3991 35.2984 14.1317C34.6242 13.5853 33.7808 13.2928 32.9374 13.0871C31.2733 12.6802 29.5521 12.5751 27.8356 12.5751C27.6207 12.5751 27.4036 12.5751 27.1864 12.5796C23.6344 12.6276 20.0802 13.0116 16.6264 13.8437C15.9362 14.0104 14.2859 14.6344 15.2961 15.5327C15.5408 15.75 15.8631 15.8528 16.1785 15.9304C17.6756 16.3007 19.2413 16.2459 20.7818 16.1591H20.7865Z" fill="#444444"/>
<path fill-rule="evenodd" clip-rule="evenodd" d="M28.3341 22.2884C28.3525 22.2175 28.357 22.1466 28.3525 22.0758C28.3433 21.9387 28.3022 21.8015 28.261 21.6712C28.0324 20.9489 27.7673 20.1764 27.1479 19.7352C26.6153 19.358 25.9228 19.3032 25.2668 19.2895C25.1181 19.2871 24.9696 19.2849 24.8233 19.2849C23.3856 19.2849 21.9479 19.4243 20.5376 19.7009C19.6622 19.8723 18.6313 20.1329 18.0257 20.8415C17.4839 21.4746 17.2302 22.7409 17.8131 23.4243C18.1125 23.7717 18.5742 23.9249 19.0176 24.046C20.5376 24.4621 22.1239 24.7021 23.6919 24.5466C25.2599 24.3912 26.8142 23.8197 27.9868 22.7706C28.1353 22.6358 28.2861 22.4849 28.3365 22.2906L28.3341 22.2884Z" fill="#444444"/>
<path fill-rule="evenodd" clip-rule="evenodd" d="M32.979 28.9129C33.5596 28.5907 33.8956 28.1083 33.8658 27.4181C33.8499 27.0157 33.8384 26.6089 33.8293 26.2044C33.8133 25.5049 33.4316 25.082 32.7984 24.858C32.2659 24.6684 31.731 24.4854 31.1938 24.3095C30.9172 24.218 30.6429 24.1747 30.3733 24.1747C29.9687 24.1747 29.5732 24.2728 29.1847 24.4603C28.4533 24.8146 27.7218 25.1621 27.0065 25.5438C26.7138 25.6991 26.4442 25.914 26.1973 26.1403C25.9618 26.3529 25.8658 26.6478 25.8772 26.9746C25.8864 27.2077 25.8772 27.4408 25.8772 27.6603C25.8635 27.9071 25.8545 28.1381 25.8384 28.3712C25.8178 28.6843 25.9252 28.9586 26.1789 29.1232C26.4373 29.2901 26.7253 29.4317 27.0202 29.5209C27.7012 29.7266 28.3938 29.9049 29.0887 30.0671C29.3904 30.138 29.7082 30.1631 30.0189 30.1655C30.4578 30.1655 30.867 30.0328 31.2532 29.8295C31.8292 29.5254 32.4121 29.2306 32.9812 28.9151L32.979 28.9129Z" fill="#444444"/>
<path fill-rule="evenodd" clip-rule="evenodd" d="M36.9304 30.8051C36.6516 30.6041 36.3728 30.4006 36.103 30.188C35.8698 30.0052 35.6298 29.9229 35.3875 29.9229C35.1773 29.9229 34.9647 29.9846 34.7521 30.0988C34.0139 30.492 33.2847 30.9011 32.5647 31.3263C32.1098 31.596 31.7669 31.9824 31.6184 32.5057C31.447 33.1069 31.2824 33.7104 31.1224 34.3138C30.983 34.8395 31.1682 35.2372 31.655 35.4909C32.1464 35.7469 32.6264 36.0212 33.1225 36.2657C33.3327 36.3686 33.5704 36.4189 33.7945 36.492C34.1305 36.4509 34.4298 36.3641 34.7087 36.2109C35.2321 35.9252 35.7533 35.6349 36.2744 35.3445C36.7932 35.0544 37.0836 34.5995 37.1819 34.0258C37.2893 33.404 37.3853 32.78 37.463 32.1538C37.5293 31.6189 37.4035 31.1411 36.9327 30.8051H36.9304Z" fill="#444444"/>
<path fill-rule="evenodd" clip-rule="evenodd" d="M38.2178 23.9393C38.1309 23.8707 38.0303 23.8066 37.9229 23.8066C37.9114 23.8066 37.8977 23.8066 37.8863 23.8066C37.8017 23.818 37.7286 23.8707 37.6624 23.9255C36.46 24.9175 36.3869 27.1255 37.1892 28.4054C37.468 28.849 37.8795 29.1918 38.3091 29.4912C38.3869 29.5461 38.4692 29.5986 38.5607 29.6101C38.652 29.6215 38.7458 29.5941 38.8281 29.5553C39.2715 29.3495 39.5503 28.8855 39.6486 28.4101C39.6737 28.2912 39.6874 28.1701 39.6943 28.0489C39.7149 27.6878 39.6669 27.3175 39.612 26.9564C39.436 25.834 39.1206 24.6318 38.2178 23.9346V23.9393Z" fill="#444444"/>
</g>
<defs>
<clipPath id="clip0_1991_1999">
<rect width="212.571" height="48" fill="white" transform="translate(0.471191 0.323242)"/>
</clipPath>
</defs>
</svg>
