<svg width="85" height="75" viewBox="0 0 85 75" fill="none" xmlns="http://www.w3.org/2000/svg">
<path d="M56.2643 9.01817C55.8598 8.84453 55.4029 8.83864 54.9941 9.00179C54.5853 9.16493 54.258 9.48377 54.0843 9.88817L43.6343 34.8182C43.1498 34.7251 42.6576 34.6782 42.1643 34.6782C40.2517 34.6712 38.3999 35.3497 36.9446 36.5907C35.4892 37.8316 34.5267 39.5529 34.2313 41.4426C33.9359 43.3322 34.3272 45.2651 35.3344 46.891C36.3416 48.5169 37.898 49.7282 39.7214 50.3053C41.5448 50.8823 43.5147 50.7871 45.2739 50.0367C47.0332 49.2863 48.4654 47.9305 49.3109 46.215C50.1565 44.4995 50.3595 42.5378 49.8831 40.6855C49.4068 38.8332 48.2826 37.2129 46.7143 36.1182L57.1643 11.1982C57.3334 10.7897 57.3336 10.3308 57.1649 9.92214C56.9962 9.51348 56.6723 9.1884 56.2643 9.01817V9.01817ZM46.7943 42.6482C46.7943 43.5639 46.5227 44.4591 46.014 45.2205C45.5052 45.9819 44.7821 46.5753 43.9361 46.9257C43.0901 47.2762 42.1591 47.3679 41.261 47.1892C40.3629 47.0106 39.5379 46.5696 38.8904 45.9221C38.2428 45.2746 37.8019 44.4496 37.6232 43.5514C37.4446 42.6533 37.5363 41.7224 37.8867 40.8763C38.2371 40.0303 38.8306 39.3072 39.592 38.7985C40.3534 38.2897 41.2485 38.0182 42.1643 38.0182H42.2943L40.6243 42.0182C40.4548 42.4281 40.4543 42.8884 40.6229 43.2987C40.7915 43.7089 41.1155 44.0359 41.5243 44.2082C41.7266 44.2942 41.9443 44.3385 42.1643 44.3382C42.4903 44.3389 42.8095 44.2447 43.083 44.0672C43.3564 43.8896 43.5723 43.6363 43.7043 43.3382L45.3743 39.3382C45.8205 39.7667 46.1762 40.2805 46.4201 40.8491C46.664 41.4177 46.7913 42.0295 46.7943 42.6482V42.6482Z" fill="#F3C45A"/>
<path d="M42.1644 0.888184C33.8249 0.893253 25.674 3.36969 18.7412 8.00468C11.8084 12.6397 6.40479 19.2253 3.21281 26.9297C0.0208306 34.6341 -0.816278 43.1117 0.807221 51.2916C2.43072 59.4715 6.442 66.9868 12.3344 72.8882L13.5144 74.0682L24.1844 63.4282L22.9744 62.2482C18.6239 57.9177 15.8724 52.2385 15.1705 46.1404C14.4685 40.0422 15.8577 33.8864 19.1105 28.6808C22.3633 23.4751 27.2871 19.5279 33.0758 17.4855C38.8644 15.4431 45.175 15.4264 50.9744 17.4382L52.2644 14.3782C49.5652 13.4206 46.7437 12.8516 43.8844 12.6882V4.26818C52.9231 4.65408 61.5415 8.19203 68.2444 14.2682L62.2444 20.2682C60.148 18.4412 57.8134 16.9072 55.3044 15.7082L53.9744 18.7082C57.8589 20.5977 61.2356 23.388 63.8233 26.8468C66.411 30.3055 68.1347 34.3326 68.8509 38.5924C69.5671 42.8523 69.2549 47.2216 67.9405 51.3364C66.6261 55.4512 64.3474 59.1924 61.2944 62.2482L60.1144 63.4282L70.8244 74.0982L71.9744 72.8882C77.8656 66.988 81.8764 59.4745 83.5006 51.2965C85.1247 43.1184 84.2893 34.6425 81.0998 26.9389C77.9103 19.2353 72.5097 12.6495 65.58 8.013C58.6503 3.37649 50.5021 0.897201 42.1644 0.888184V0.888184ZM19.4944 63.3982L13.4944 69.3482C7.1923 62.5175 3.57307 53.6381 3.30437 44.3482H11.7144C11.9968 51.4133 14.7502 58.1552 19.4944 63.3982V63.3982ZM11.8044 40.9782H3.37437C3.85857 31.8845 7.53821 23.2538 13.7644 16.6082L19.7144 22.6082C15.0772 27.6615 12.2889 34.1368 11.8044 40.9782V40.9782ZM40.4944 12.6882C33.6918 13.058 27.2128 15.7109 22.1044 20.2182L16.1044 14.2182C22.8046 8.14418 31.4191 4.60638 40.4544 4.21818L40.4944 12.6882ZM64.6244 22.5482L70.5644 16.6082C76.8008 23.249 80.4881 31.8811 80.9744 40.9782H72.5244C72.0575 34.1167 69.2717 27.6178 64.6244 22.5482ZM70.7944 69.3482L64.8444 63.3982C69.5739 58.1384 72.3093 51.3867 72.5744 44.3182H80.9744C80.7147 53.617 77.0987 62.5078 70.7944 69.3482V69.3482Z" fill="#444444"/>
</svg>
