<svg width="75" height="30" viewBox="0 0 75 30" fill="none" xmlns="http://www.w3.org/2000/svg">
<g clip-path="url(#clip0_2762_25186)">
<path d="M14.7869 18.811H3.47663L3.0625 20.1875H6.07973L6.65394 22.0842H11.6131L12.1838 20.1875H15.201L14.7869 18.811Z" fill="#444444"/>
<path d="M5.31459 11.0862C4.44805 12.3035 4.71253 14.002 5.9062 14.8866L8.61718 16.8859C8.91647 17.1089 8.98259 17.5335 8.76334 17.8413L9.17051 18.1421L10.6287 16.1322C10.9593 15.6687 11.1368 15.1096 11.1368 14.5363C11.1368 14.3912 11.1263 14.2462 11.102 14.1046C10.9906 13.4004 10.6078 12.7706 10.0405 12.353L7.33651 10.3537C7.19035 10.2476 7.09291 10.0883 7.06506 9.90786C7.06158 9.87248 7.06158 9.83709 7.06506 9.79817C7.06506 9.65663 7.10683 9.51862 7.19035 9.40185L6.78318 9.09399L5.31459 11.0862Z" fill="#444444"/>
<path d="M6.95265 3.04317C6.4724 3.7155 6.2114 4.52229 6.21488 5.35386C6.21488 5.55556 6.2288 5.75726 6.2636 5.95542C6.42368 6.98868 6.98397 7.91578 7.81571 8.5315L11.2157 11.058C11.6647 11.3871 11.964 11.8825 12.0475 12.4381C12.0579 12.5513 12.0579 12.661 12.0475 12.7742C12.044 13.2201 11.9048 13.6518 11.6473 14.0092L11.9709 14.2569L14.6575 10.4883C15.9139 8.72258 15.5276 6.25973 13.7945 4.97877L9.66364 1.93914C9.14162 1.53928 9.0407 0.785563 9.43047 0.258316C9.43395 0.251239 9.43743 0.2477 9.44439 0.240623L9.12074 0L6.95265 3.04317Z" fill="#444444"/>
<path d="M0 23.2343H3.10075C3.74804 23.1847 4.3849 23.4006 4.87211 23.8358C5.1714 24.1401 5.33148 24.5577 5.31408 24.9894C5.33496 25.6122 4.98695 26.1854 4.43362 26.4544C5.18532 26.6384 5.71081 27.3355 5.68645 28.1246C5.68645 29.3595 4.69462 29.9859 3.18427 29.9859H0V23.2343ZM2.78754 25.9802C3.43832 25.9802 3.84549 25.7714 3.84549 25.2654C3.84549 24.8195 3.50444 24.5683 2.8815 24.5683H1.43031V26.0014L2.78754 25.9802ZM3.17731 28.7155C3.82809 28.7155 4.22133 28.482 4.22133 27.983C4.22133 27.5266 3.88377 27.2505 3.12859 27.2505H1.43031V28.7438L3.17731 28.7155Z" fill="#444444"/>
<path d="M6.31641 23.2343H9.445C10.0923 23.1847 10.7291 23.4006 11.2164 23.8358C11.5191 24.1401 11.6827 24.5577 11.6722 24.9894C11.6896 25.6122 11.3451 26.1854 10.7918 26.4544C11.5435 26.6384 12.0655 27.3355 12.0377 28.1246C12.0377 29.3595 11.0458 29.9859 9.53896 29.9859H6.31641V23.2343V23.2343ZM9.10395 25.9802C9.74776 25.9802 10.1619 25.7714 10.1619 25.2654C10.1619 24.8195 9.82084 24.5683 9.19791 24.5683H7.74672V26.0014L9.10395 25.9802ZM9.49372 28.7155C10.1445 28.7155 10.5343 28.482 10.5343 27.983C10.5343 27.5266 10.2037 27.2505 9.44848 27.2505H7.74672V28.7438L9.49372 28.7155Z" fill="#444444"/>
<path d="M12.6328 23.2344H15.7336C16.3809 23.1813 17.0177 23.4007 17.5049 23.8359C17.8112 24.1367 17.9782 24.5543 17.9643 24.9895C17.9817 25.6123 17.6372 26.1855 17.0838 26.4545C17.832 26.6526 18.3401 27.3568 18.2984 28.1424C18.2984 29.3773 17.3066 30.0037 15.7997 30.0037H12.6328V23.2344ZM15.4134 25.9803C16.0642 25.9803 16.4748 25.7715 16.4748 25.2655C16.4748 24.8196 16.1338 24.5684 15.5108 24.5684H14.0596V26.0015L15.4134 25.9803ZM15.8101 28.7156C16.4609 28.7156 16.8507 28.4821 16.8507 27.9831C16.8507 27.5267 16.5131 27.2506 15.7649 27.2506H14.0631V28.7439L15.8101 28.7156Z" fill="#444444"/>
<path d="M18.7891 29.363C18.7891 29.0233 19.0605 28.7473 19.3946 28.7473C19.7287 28.7473 20.0001 29.0233 20.0001 29.363C20.0001 29.7027 19.7287 29.9787 19.3946 29.9787C19.0605 29.9787 18.7891 29.7027 18.7891 29.363ZM19.9305 29.363C19.9618 29.0622 19.7461 28.7933 19.4538 28.7615C19.158 28.7296 18.8935 28.949 18.8621 29.2463C18.8587 29.2852 18.8587 29.3241 18.8621 29.3595C18.8308 29.6603 19.0466 29.9292 19.3389 29.961C19.6347 29.9929 19.8992 29.7735 19.9305 29.4763C19.934 29.4409 19.934 29.402 19.9305 29.363ZM19.144 29.0233H19.4329C19.506 29.0198 19.5756 29.0446 19.6278 29.0941C19.666 29.133 19.6869 29.1861 19.68 29.2392C19.6834 29.3312 19.6278 29.4126 19.5442 29.4444L19.6974 29.678H19.5338L19.3981 29.4692H19.2867V29.678H19.144V29.0233ZM19.4329 29.3418C19.5025 29.3418 19.5408 29.3064 19.5408 29.2533C19.5408 29.1932 19.499 29.1578 19.4294 29.1578H19.2867V29.3489L19.4329 29.3418Z" fill="#444444"/>
</g>
<line x1="32.5" y1="-2.18557e-08" x2="32.5" y2="30" stroke="#717475" stroke-opacity="0.2"/>
<g clip-path="url(#clip1_2762_25186)">
<path d="M56.5353 19.4777H48.8855L47.2044 24H43.998L51.0388 6H54.5804L61.6116 24H58.2495L56.5353 19.4777ZM49.9574 16.6618H55.4681L52.7151 9.30008L49.9574 16.6618Z" fill="#444444"/>
<path d="M67.4439 15.3925V10.4424H69.9655V15.3925H74.7726V17.7853H69.9655V22.7871H67.4439V17.8417H62.6367V15.4489L67.4439 15.3925Z" fill="#444444"/>
</g>
<defs>
<clipPath id="clip0_2762_25186">
<rect width="20" height="30" fill="white"/>
</clipPath>
<clipPath id="clip1_2762_25186">
<rect width="30.7742" height="18" fill="white" transform="translate(44 6)"/>
</clipPath>
</defs>
</svg>
