<svg width="288" height="289" viewBox="0 0 288 289" fill="none" xmlns="http://www.w3.org/2000/svg">
<path d="M285.991 203.934C281.621 212.554 276.491 220.714 270.691 228.354C264.891 235.984 258.421 243.084 251.371 249.554L143.011 192.814L34.6512 249.554C27.6012 243.084 21.1312 235.984 15.3312 228.354C9.53125 220.724 4.40125 212.554 0.03125 203.934L143.001 147.194" fill="#2F793B"/>
<g clip-path="url(#clip0_3495_36115)">
<rect width="288" height="289" transform="matrix(1 0 0 -1 0 289)" fill="white"/>
<rect width="288" height="289" transform="matrix(1 0 0 -1 0 289)" fill="url(#paint0_radial_3495_36115)" fill-opacity="0.3"/>
<mask id="mask0_3495_36115" style="mask-type:alpha" maskUnits="userSpaceOnUse" x="0" y="0" width="288" height="289">
<path d="M288 144.5C288 224.305 223.529 289 144 289C64.471 289 0 224.305 0 144.5C0 64.6949 64.471 0 144 0C223.529 0 288 64.6949 288 144.5ZM13.1689 144.5C13.1689 217.007 71.744 275.785 144 275.785C216.256 275.785 274.831 217.007 274.831 144.5C274.831 71.9931 216.256 13.2146 144 13.2146C71.744 13.2146 13.1689 71.9931 13.1689 144.5Z" fill="#9D9D9D"/>
</mask>
<g mask="url(#mask0_3495_36115)">
<rect width="288" height="289" transform="matrix(1 0 0 -1 0 289)" fill="white"/>
<rect width="288" height="289" transform="matrix(1 0 0 -1 0 289)" fill="url(#paint1_linear_3495_36115)"/>
</g>
<mask id="mask1_3495_36115" style="mask-type:alpha" maskUnits="userSpaceOnUse" x="0" y="0" width="288" height="289">
<path d="M288 144.5C288 224.305 223.529 289 144 289C64.471 289 0 224.305 0 144.5C0 64.6949 64.471 0 144 0C223.529 0 288 64.6949 288 144.5ZM8.2243 144.5C8.2243 219.747 69.0132 280.747 144 280.747C218.987 280.747 279.776 219.747 279.776 144.5C279.776 69.2528 218.987 8.25287 144 8.25287C69.0132 8.25287 8.2243 69.2528 8.2243 144.5Z" fill="#D9D9D9"/>
</mask>
<g mask="url(#mask1_3495_36115)">
<path d="M1.25889e-05 0L0 289H288V1.26326e-05L1.25889e-05 0Z" fill="white"/>
<path d="M1.25889e-05 0L0 289H288V1.26326e-05L1.25889e-05 0Z" fill="url(#paint2_linear_3495_36115)"/>
</g>
</g>
<path d="M285.991 203.934C277.251 221.164 265.481 236.604 251.371 249.554H34.661C20.561 236.614 8.79102 221.174 0.0410156 203.934" fill="#76C153"/>
<path d="M65.2107 135.884H69.2207V133.974H58.9707V135.884H62.9807V147.614H65.2107V135.884ZM75.4007 147.644C75.9507 147.534 76.4907 147.354 77.0207 147.104V145.324C76.4207 145.594 75.8507 145.784 75.3307 145.894C74.8007 146.014 74.2407 146.064 73.6307 146.064C72.7007 146.064 71.9807 145.794 71.4707 145.254C70.9607 144.714 70.6907 143.944 70.6607 142.944H77.5407V141.764C77.5407 140.314 77.1407 139.174 76.3607 138.344C75.5707 137.514 74.4907 137.104 73.1307 137.104C71.6607 137.104 70.5107 137.584 69.6707 138.554C68.8307 139.514 68.4107 140.844 68.4107 142.524C68.4107 144.204 68.8607 145.454 69.7707 146.394C70.6807 147.334 71.9307 147.794 73.5307 147.794C74.2307 147.794 74.8607 147.744 75.4107 147.634L75.4007 147.644ZM74.7707 139.424C75.1707 139.864 75.3707 140.504 75.3907 141.364H70.7107C70.7907 140.514 71.0407 139.874 71.4607 139.434C71.8807 138.994 72.4407 138.774 73.1307 138.774C73.8207 138.774 74.3707 138.994 74.7707 139.434V139.424Z" fill="#1A171A"/>
<path d="M85.2816 147.654C85.7216 147.554 86.1416 147.394 86.5316 147.164V145.254C85.6616 145.744 84.7416 145.984 83.7616 145.984C82.9016 145.984 82.2516 145.694 81.8116 145.114C81.3716 144.534 81.1416 143.664 81.1416 142.504C81.1416 140.134 82.0316 138.954 83.8216 138.954C84.4216 138.954 85.1916 139.134 86.1216 139.494L86.7816 137.734C85.9116 137.334 84.9316 137.124 83.8416 137.124C82.2416 137.124 81.0116 137.594 80.1616 138.524C79.3116 139.454 78.8916 140.794 78.8916 142.524C78.8916 144.254 79.3016 145.534 80.1116 146.444C80.9216 147.354 82.1116 147.814 83.6716 147.814C84.3016 147.814 84.8416 147.764 85.2916 147.664L85.2816 147.654ZM97.3916 140.894C97.3916 138.374 96.1416 137.114 93.6416 137.114C92.9316 137.114 92.3116 137.254 91.7816 137.524C91.2516 137.794 90.8316 138.184 90.5316 138.684H90.3916C90.4616 138.014 90.5016 137.384 90.5016 136.794V133.104H88.3116V147.624H90.5016V142.504C90.5016 141.214 90.7216 140.284 91.1516 139.734C91.5816 139.184 92.2616 138.904 93.1816 138.904C93.8816 138.904 94.3916 139.104 94.7116 139.494C95.0316 139.884 95.1916 140.484 95.1916 141.274V147.614H97.3916V140.884V140.894ZM108.872 140.894C108.872 138.374 107.632 137.114 105.162 137.114C104.462 137.114 103.832 137.244 103.262 137.514C102.692 137.784 102.252 138.164 101.942 138.654H101.832L101.522 137.304H99.8016V147.624H101.992V142.484C101.992 141.194 102.202 140.274 102.632 139.734C103.062 139.184 103.742 138.914 104.662 138.914C105.362 138.914 105.872 139.114 106.192 139.504C106.512 139.894 106.672 140.494 106.672 141.284V147.624H108.872V140.894ZM119.122 138.554C118.252 137.594 117.072 137.114 115.572 137.114C114.072 137.114 112.802 137.584 111.942 138.524C111.082 139.464 110.652 140.774 110.652 142.444C110.652 143.524 110.852 144.464 111.252 145.284C111.652 146.094 112.222 146.724 112.962 147.164C113.702 147.604 114.552 147.814 115.522 147.814C117.062 147.814 118.272 147.344 119.132 146.394C119.992 145.444 120.432 144.134 120.432 142.444C120.432 140.754 119.992 139.514 119.122 138.554ZM113.542 139.814C113.952 139.204 114.622 138.904 115.542 138.904C117.292 138.904 118.172 140.084 118.172 142.444C118.172 144.804 117.302 146.014 115.562 146.014C113.822 146.014 112.922 144.824 112.922 142.444C112.922 141.304 113.132 140.434 113.542 139.824V139.814ZM124.492 133.094H122.302V147.614H124.492V133.094ZM134.822 138.544C133.952 137.584 132.772 137.104 131.272 137.104C129.772 137.104 128.502 137.574 127.642 138.514C126.782 139.454 126.352 140.764 126.352 142.434C126.352 143.514 126.552 144.454 126.952 145.274C127.352 146.084 127.922 146.714 128.662 147.154C129.402 147.594 130.252 147.804 131.222 147.804C132.762 147.804 133.972 147.334 134.832 146.384C135.692 145.434 136.132 144.124 136.132 142.434C136.132 140.744 135.692 139.504 134.822 138.544ZM129.242 139.804C129.652 139.194 130.322 138.894 131.242 138.894C132.992 138.894 133.872 140.074 133.872 142.434C133.872 144.794 133.002 146.004 131.262 146.004C129.522 146.004 128.622 144.814 128.622 142.434C128.622 141.294 128.832 140.424 129.242 139.814V139.804ZM143.142 137.284C142.982 137.244 142.742 137.194 142.422 137.154C142.102 137.114 141.792 137.094 141.502 137.094C140.192 137.094 139.192 137.404 138.482 138.014C137.772 138.634 137.422 139.494 137.422 140.614C137.422 141.314 137.592 141.914 137.922 142.434C138.252 142.954 138.692 143.324 139.222 143.554C138.792 143.814 138.472 144.084 138.252 144.344C138.032 144.614 137.922 144.934 137.922 145.324C137.922 145.624 138.012 145.924 138.202 146.194C138.392 146.474 138.632 146.674 138.922 146.794C138.202 146.964 137.642 147.264 137.242 147.694C136.842 148.124 136.642 148.664 136.642 149.294C136.642 150.214 137.012 150.924 137.752 151.424C138.492 151.924 139.562 152.174 140.972 152.174C142.792 152.174 144.192 151.854 145.152 151.224C146.112 150.594 146.602 149.684 146.602 148.514C146.602 147.604 146.302 146.904 145.712 146.414C145.122 145.924 144.252 145.684 143.122 145.684H141.322C140.732 145.684 140.322 145.624 140.102 145.504C139.882 145.384 139.772 145.204 139.772 144.974C139.772 144.584 140.012 144.244 140.482 143.944C140.752 143.994 141.052 144.014 141.382 144.014C142.672 144.014 143.682 143.714 144.412 143.104C145.142 142.494 145.512 141.654 145.512 140.594C145.512 140.244 145.462 139.904 145.352 139.584C145.242 139.264 145.112 139.004 144.952 138.784L146.712 138.454V137.254H143.142V137.284ZM139.162 148.014C139.532 147.714 140.032 147.574 140.662 147.574H142.322C143.192 147.574 143.792 147.664 144.112 147.854C144.432 148.044 144.592 148.364 144.592 148.814C144.592 149.384 144.302 149.834 143.712 150.174C143.132 150.514 142.242 150.684 141.042 150.684C140.272 150.684 139.672 150.554 139.242 150.304C138.812 150.044 138.602 149.684 138.602 149.214C138.602 148.714 138.782 148.314 139.162 148.014ZM140.042 139.054C140.372 138.694 140.852 138.514 141.482 138.514C142.112 138.514 142.602 138.694 142.912 139.064C143.222 139.424 143.382 139.944 143.382 140.614C143.382 141.974 142.752 142.644 141.482 142.644C140.862 142.644 140.382 142.474 140.052 142.124C139.722 141.774 139.552 141.274 139.552 140.634C139.552 139.944 139.712 139.414 140.042 139.054Z" fill="#1A171A"/>
<path d="M151.401 147.614L151.021 148.584C150.591 149.814 149.851 150.424 148.791 150.424C148.371 150.424 147.991 150.384 147.661 150.314V152.054C148.121 152.164 148.591 152.214 149.081 152.214C150.951 152.214 152.291 151.144 153.091 148.994L157.501 137.304H155.131C153.701 141.454 152.911 143.774 152.761 144.264C152.611 144.754 152.511 145.164 152.451 145.514H152.381C152.271 144.784 152.061 143.994 151.751 143.164L149.651 137.314H147.261L151.401 147.634V147.614Z" fill="#1A171A"/>
<path d="M166.541 142.494H170.631V139.534H166.541V136.934H170.971V133.974H162.911V147.614H166.541V142.494ZM181.641 147.614V140.684C181.641 139.474 181.271 138.534 180.521 137.864C179.781 137.194 178.731 136.854 177.371 136.854C175.491 136.854 173.941 137.174 172.701 137.804L173.751 140.214C174.941 139.694 175.921 139.434 176.691 139.434C177.551 139.434 177.981 139.874 177.981 140.744V140.894L176.221 140.954C174.731 141.024 173.601 141.334 172.811 141.884C172.031 142.434 171.631 143.274 171.631 144.394C171.631 145.514 171.921 146.314 172.491 146.914C173.061 147.514 173.851 147.814 174.841 147.814C175.651 147.814 176.311 147.704 176.821 147.474C177.331 147.254 177.831 146.834 178.321 146.224H178.391L179.091 147.624H181.621L181.641 147.614ZM175.371 144.254C175.371 143.414 175.971 142.974 177.171 142.934L178.011 142.894V143.714C178.011 144.164 177.851 144.524 177.541 144.804C177.231 145.084 176.851 145.224 176.411 145.224C175.721 145.224 175.371 144.904 175.371 144.254Z" fill="#76C153"/>
<path d="M191.452 142.924C191.282 142.534 191.012 142.184 190.652 141.894C190.292 141.604 189.732 141.304 188.992 140.994C187.992 140.604 187.392 140.344 187.182 140.214C186.972 140.084 186.872 139.934 186.872 139.754C186.872 139.464 187.172 139.314 187.772 139.314C188.112 139.314 188.552 139.394 189.092 139.544C189.632 139.694 190.142 139.884 190.632 140.104L191.622 137.754C190.962 137.464 190.322 137.244 189.712 137.084C189.102 136.934 188.442 136.854 187.752 136.854C186.362 136.854 185.292 137.124 184.532 137.674C183.772 138.224 183.392 138.984 183.392 139.974C183.392 140.754 183.582 141.394 183.972 141.904C184.362 142.414 185.032 142.864 186.002 143.264C187.062 143.684 187.712 143.974 187.932 144.114C188.152 144.264 188.262 144.424 188.262 144.614C188.262 144.974 187.862 145.154 187.082 145.154C186.552 145.154 185.952 145.074 185.272 144.914C184.592 144.754 183.972 144.544 183.412 144.294V147.214C184.012 147.434 184.602 147.594 185.182 147.674C185.762 147.754 186.442 147.804 187.222 147.804C188.662 147.804 189.772 147.514 190.542 146.934C191.312 146.354 191.702 145.504 191.702 144.364C191.702 143.794 191.612 143.314 191.442 142.924H191.452ZM197.442 143.894V139.784H200.032V137.054H197.442V134.934H195.052L194.112 137.154L192.492 138.304V139.784H193.772V144.144C193.772 145.384 194.042 146.314 194.582 146.914C195.122 147.514 196.002 147.814 197.232 147.814C197.832 147.814 198.352 147.764 198.792 147.674C199.232 147.584 199.702 147.434 200.192 147.224V144.564C199.512 144.804 198.922 144.924 198.432 144.924C197.772 144.924 197.442 144.584 197.442 143.894ZM210.422 138.694C210.212 138.694 209.872 138.754 209.382 138.844L209.552 137.044H214.202V133.974H206.422L205.912 141.174L207.262 141.844C207.932 141.624 208.562 141.514 209.142 141.514C209.902 141.514 210.462 141.664 210.842 141.954C211.212 142.244 211.402 142.654 211.402 143.174C211.402 143.744 211.222 144.164 210.852 144.454C210.482 144.744 209.962 144.884 209.272 144.884C208.782 144.884 208.192 144.804 207.512 144.644C206.832 144.484 206.222 144.274 205.682 144.024V147.044C206.692 147.534 207.992 147.784 209.582 147.784C211.442 147.784 212.832 147.374 213.752 146.564C214.672 145.754 215.132 144.584 215.132 143.054C215.132 142.184 214.952 141.414 214.602 140.754C214.252 140.084 213.762 139.574 213.132 139.214C212.502 138.854 211.792 138.664 211.012 138.664C210.842 138.664 210.652 138.664 210.442 138.674L210.422 138.694Z" fill="#76C153"/>
<path d="M224.921 135.544C224.091 134.364 222.861 133.774 221.241 133.774C219.621 133.774 218.331 134.344 217.531 135.474C216.721 136.604 216.321 138.384 216.321 140.814C216.321 143.244 216.731 144.874 217.561 146.044C218.391 147.214 219.621 147.804 221.251 147.804C222.881 147.804 224.151 147.244 224.961 146.124C225.771 145.004 226.171 143.234 226.171 140.824C226.171 138.414 225.751 136.734 224.921 135.554V135.544ZM220.271 137.604C220.461 137.024 220.791 136.724 221.241 136.724C221.691 136.724 222.021 137.024 222.211 137.634C222.401 138.244 222.501 139.304 222.501 140.814C222.501 142.324 222.411 143.374 222.221 143.964C222.031 144.564 221.711 144.864 221.241 144.864C220.771 144.864 220.461 144.574 220.271 143.994C220.081 143.414 219.981 142.354 219.981 140.814C219.981 139.274 220.081 138.194 220.271 137.604ZM236.001 135.544C235.171 134.364 233.941 133.774 232.321 133.774C230.701 133.774 229.411 134.344 228.611 135.474C227.801 136.604 227.401 138.384 227.401 140.814C227.401 143.244 227.811 144.874 228.641 146.044C229.471 147.214 230.701 147.804 232.331 147.804C233.961 147.804 235.231 147.244 236.041 146.124C236.851 145.004 237.251 143.234 237.251 140.824C237.251 138.414 236.831 136.734 236.001 135.554V135.544ZM231.351 137.604C231.541 137.024 231.871 136.724 232.321 136.724C232.771 136.724 233.101 137.024 233.291 137.634C233.481 138.244 233.581 139.304 233.581 140.814C233.581 142.324 233.491 143.374 233.301 143.964C233.111 144.564 232.791 144.864 232.321 144.864C231.851 144.864 231.541 144.574 231.351 143.994C231.161 143.414 231.061 142.354 231.061 140.814C231.061 139.274 231.161 138.194 231.351 137.604Z" fill="#76C153"/>
<path d="M67.2913 165.974H62.3413V165.864L63.8013 164.484C64.7713 163.594 65.4513 162.904 65.8413 162.424C66.2313 161.944 66.5113 161.474 66.7013 161.014C66.8813 160.554 66.9813 160.064 66.9813 159.544C66.9813 158.944 66.8313 158.404 66.5313 157.944C66.2313 157.474 65.8113 157.114 65.2613 156.854C64.7213 156.594 64.0913 156.464 63.3813 156.464C62.8413 156.464 62.3513 156.514 61.9213 156.624C61.4813 156.734 61.0813 156.884 60.7113 157.074C60.3413 157.274 59.8813 157.604 59.3213 158.084L60.6313 159.634C61.0813 159.264 61.5113 158.974 61.9313 158.774C62.3413 158.574 62.7713 158.474 63.2113 158.474C63.6513 158.474 63.9713 158.584 64.2213 158.804C64.4713 159.024 64.6013 159.364 64.6013 159.824C64.6013 160.134 64.5413 160.424 64.4313 160.714C64.3213 161.004 64.1313 161.304 63.8713 161.644C63.6113 161.974 63.0613 162.574 62.2113 163.444L59.3613 166.324V167.994H67.3113V165.974H67.2913ZM75.3113 157.944C74.6413 156.944 73.6513 156.454 72.3413 156.454C71.0313 156.454 69.9913 156.934 69.3513 157.884C68.7013 158.834 68.3813 160.314 68.3813 162.324C68.3813 164.334 68.7113 165.704 69.3813 166.684C70.0513 167.664 71.0313 168.164 72.3513 168.164C73.6713 168.164 74.7013 167.684 75.3613 166.734C76.0113 165.784 76.3413 164.314 76.3413 162.324C76.3413 160.334 76.0013 158.954 75.3313 157.954L75.3113 157.944ZM71.1213 159.304C71.3613 158.694 71.7713 158.394 72.3313 158.394C72.8913 158.394 73.2913 158.694 73.5413 159.304C73.7913 159.914 73.9213 160.914 73.9213 162.314C73.9213 163.714 73.8013 164.684 73.5513 165.304C73.3013 165.914 72.9013 166.224 72.3413 166.224C71.7813 166.224 71.3613 165.924 71.1213 165.314C70.8813 164.714 70.7613 163.714 70.7613 162.314C70.7613 160.914 70.8813 159.914 71.1313 159.304H71.1213ZM85.4713 165.974H80.5213V165.864L81.9813 164.484C82.9513 163.594 83.6313 162.904 84.0213 162.424C84.4113 161.944 84.6913 161.474 84.8813 161.014C85.0613 160.554 85.1613 160.064 85.1613 159.544C85.1613 158.944 85.0113 158.404 84.7113 157.944C84.4113 157.474 83.9913 157.114 83.4413 156.854C82.9013 156.594 82.2713 156.464 81.5613 156.464C81.0213 156.464 80.5313 156.514 80.1013 156.624C79.6613 156.734 79.2613 156.884 78.8913 157.074C78.5213 157.274 78.0613 157.604 77.5013 158.084L78.8113 159.634C79.2613 159.264 79.6913 158.974 80.1113 158.774C80.5213 158.574 80.9513 158.474 81.3913 158.474C81.8313 158.474 82.1513 158.584 82.4013 158.804C82.6513 159.024 82.7813 159.364 82.7813 159.824C82.7813 160.134 82.7213 160.424 82.6113 160.714C82.5013 161.004 82.3113 161.304 82.0513 161.644C81.7913 161.974 81.2413 162.574 80.3913 163.444L77.5413 166.324V167.994H85.4913V165.974H85.4713ZM94.5613 165.974H89.6113V165.864L91.0713 164.484C92.0413 163.594 92.7213 162.904 93.1113 162.424C93.5013 161.944 93.7813 161.474 93.9713 161.014C94.1513 160.554 94.2513 160.064 94.2513 159.544C94.2513 158.944 94.1013 158.404 93.8013 157.944C93.5013 157.474 93.0813 157.114 92.5313 156.854C91.9913 156.594 91.3613 156.464 90.6513 156.464C90.1113 156.464 89.6213 156.514 89.1913 156.624C88.7513 156.734 88.3513 156.884 87.9813 157.074C87.6113 157.274 87.1513 157.604 86.5913 158.084L87.9013 159.634C88.3513 159.264 88.7813 158.974 89.2013 158.774C89.6113 158.574 90.0413 158.474 90.4813 158.474C90.9213 158.474 91.2413 158.584 91.4913 158.804C91.7413 159.024 91.8713 159.364 91.8713 159.824C91.8713 160.134 91.8113 160.424 91.7013 160.714C91.5913 161.004 91.4013 161.304 91.1413 161.644C90.8813 161.974 90.3313 162.574 89.4813 163.444L86.6313 166.324V167.994H94.5813V165.974H94.5613Z" fill="#1A171A"/>
<path d="M111.941 156.634H111.171V164.054C111.171 164.894 111.191 165.784 111.241 166.714H111.191L104.461 156.634H103.671V168.004H104.431V160.634C104.431 160.024 104.401 159.114 104.341 157.914H104.401L111.131 168.004H111.931V156.634H111.941ZM123.371 158.024C122.471 156.984 121.231 156.454 119.651 156.454C118.071 156.454 116.831 156.974 115.921 158.014C115.011 159.054 114.561 160.474 114.561 162.284C114.561 164.094 115.011 165.534 115.911 166.584C116.811 167.634 118.051 168.154 119.631 168.154C121.211 168.154 122.461 167.634 123.361 166.584C124.261 165.534 124.711 164.104 124.711 162.304C124.711 160.504 124.261 159.064 123.361 158.024H123.371ZM116.521 158.544C117.251 157.664 118.301 157.224 119.651 157.224C121.001 157.224 122.051 157.664 122.771 158.534C123.491 159.404 123.851 160.664 123.851 162.304C123.851 163.944 123.491 165.214 122.771 166.094C122.051 166.974 121.001 167.414 119.631 167.414C118.261 167.414 117.231 166.974 116.501 166.084C115.771 165.194 115.411 163.934 115.411 162.304C115.411 160.674 115.781 159.434 116.511 158.544H116.521ZM130.951 163.044L133.881 167.994H134.831L131.741 162.814C132.561 162.584 133.171 162.214 133.571 161.684C133.971 161.164 134.171 160.514 134.171 159.754C134.171 158.704 133.831 157.924 133.161 157.404C132.491 156.884 131.441 156.624 130.031 156.624H127.321V167.994H128.111V163.044H130.931H130.951ZM128.131 157.344H130.011C131.181 157.344 132.031 157.544 132.541 157.934C133.061 158.324 133.321 158.954 133.321 159.824C133.321 160.694 133.061 161.294 132.531 161.714C132.001 162.144 131.261 162.354 130.301 162.354H128.131V157.334V157.344Z" fill="#1A171A"/>
<path d="M141.361 157.374H145.051V156.634H136.861V157.374H140.561V167.994H141.361V157.374Z" fill="#1A171A"/>
<path d="M155.931 156.634H155.131V161.684H148.491V156.634H147.701V168.004H148.491V162.414H155.131V168.004H155.931V156.634ZM170.341 168.004H171.231L166.751 156.594H166.241L161.671 168.004H162.551L164.141 163.994H168.761L170.341 168.004ZM166.021 159.194C166.191 158.794 166.341 158.334 166.481 157.844C166.661 158.414 166.821 158.864 166.951 159.184L168.501 163.284H164.431L166.021 159.204V159.194Z" fill="#1A171A"/>
<path d="M179.141 167.994L183.391 157.514H183.451C183.391 158.154 183.361 158.774 183.361 159.384V168.004H184.161V156.634H182.961L178.931 166.634H178.881L174.851 156.634H173.621V168.004H174.381V159.484C174.381 158.814 174.361 158.154 174.321 157.514H174.381L178.621 168.014H179.131L179.141 167.994Z" fill="#1A171A"/>
<path d="M193.031 167.264H187.611V162.384H192.731V161.654H187.611V157.354H193.031V156.624H186.821V167.994H193.031V167.264ZM199.221 163.044L202.151 167.994H203.101L200.011 162.814C200.831 162.584 201.441 162.214 201.841 161.684C202.241 161.164 202.441 160.514 202.441 159.754C202.441 158.704 202.101 157.924 201.431 157.404C200.761 156.884 199.711 156.624 198.301 156.624H195.591V167.994H196.381V163.044H199.201H199.221ZM196.401 157.344H198.281C199.451 157.344 200.301 157.544 200.811 157.934C201.331 158.324 201.591 158.954 201.591 159.824C201.591 160.694 201.331 161.294 200.801 161.714C200.271 162.144 199.531 162.354 198.571 162.354H196.401V157.334V157.344ZM205.861 167.994V156.624H205.071V167.994H205.861ZM216.541 157.804L216.861 157.084C215.981 156.674 214.991 156.464 213.881 156.464C212.771 156.464 211.841 156.704 211.011 157.184C210.191 157.664 209.561 158.344 209.121 159.224C208.681 160.104 208.461 161.124 208.461 162.284C208.461 164.134 208.921 165.574 209.841 166.604C210.761 167.634 212.011 168.154 213.611 168.154C214.731 168.154 215.671 168.024 216.421 167.754V167.054C215.621 167.294 214.751 167.424 213.791 167.424C212.351 167.424 211.251 166.974 210.481 166.074C209.711 165.174 209.321 163.914 209.321 162.294C209.321 160.674 209.731 159.454 210.551 158.544C211.371 157.634 212.491 157.174 213.921 157.174C214.831 157.174 215.701 157.384 216.531 157.794L216.541 157.804Z" fill="#1A171A"/>
<path d="M227.621 167.994H228.511L224.031 156.584H223.521L218.951 167.994H219.831L221.421 163.984H226.041L227.621 167.994ZM223.301 159.184C223.471 158.784 223.621 158.324 223.761 157.834C223.941 158.404 224.101 158.854 224.231 159.174L225.781 163.274H221.711L223.301 159.194V159.184Z" fill="#1A171A"/>
<path d="M98.0909 180.854H94.9209V182.974H98.0909V180.854Z" fill="#1A171A"/>
<path d="M123.791 191.874C123.791 190.864 124.591 190.044 125.581 190.044C126.571 190.044 127.371 190.864 127.371 191.874C127.371 192.884 126.571 193.704 125.581 193.704C124.591 193.704 123.791 192.884 123.791 191.874Z" fill="#76C153"/>
<path d="M69.0809 186.934C69.0809 189.034 68.5209 190.654 67.3809 191.794C66.2509 192.934 64.6609 193.504 62.6109 193.504H58.6309V180.904H62.8909C64.8609 180.904 66.3909 181.424 67.4609 182.454C68.5309 183.484 69.0709 184.984 69.0709 186.934M65.6209 187.054C65.6209 185.904 65.4009 185.044 64.9509 184.484C64.5009 183.924 63.8309 183.654 62.9209 183.654H61.9509V190.714H62.6909C63.7009 190.714 64.4409 190.414 64.9109 189.814C65.3809 189.214 65.6209 188.294 65.6209 187.064" fill="#1A171A"/>
<path d="M83.2716 180.854H80.1016V193.504H83.2716V180.854Z" fill="#1A171A"/>
<path d="M93.661 188.784C93.661 190.324 93.261 191.524 92.451 192.374C91.641 193.234 90.511 193.664 89.061 193.664C87.611 193.664 86.561 193.224 85.741 192.344C84.921 191.464 84.501 190.274 84.501 188.774C84.501 187.274 84.901 186.054 85.711 185.204C86.521 184.354 87.651 183.934 89.111 183.934C90.011 183.934 90.811 184.134 91.501 184.524C92.191 184.914 92.721 185.484 93.101 186.214C93.481 186.944 93.661 187.804 93.661 188.784ZM87.721 188.784C87.721 189.594 87.831 190.204 88.041 190.624C88.251 191.044 88.601 191.264 89.101 191.264C89.601 191.264 89.941 191.054 90.141 190.624C90.341 190.204 90.441 189.584 90.441 188.784C90.441 187.984 90.341 187.374 90.131 186.964C89.921 186.554 89.571 186.354 89.081 186.354C88.591 186.354 88.251 186.554 88.041 186.964C87.831 187.374 87.721 187.974 87.721 188.784Z" fill="#1A171A"/>
<path d="M98.0909 184.104H94.9209V193.504H98.0909V184.104Z" fill="#1A171A"/>
<path d="M104.501 191.104C104.931 191.104 105.441 190.994 106.031 190.784V193.144C105.601 193.334 105.201 193.464 104.811 193.544C104.421 193.624 103.971 193.664 103.451 193.664C102.391 193.664 101.621 193.394 101.151 192.864C100.681 192.334 100.451 191.514 100.451 190.404V186.534H99.3408V184.104H100.451V181.704L103.641 181.154V184.104H105.661V186.534H103.641V190.194C103.641 190.804 103.931 191.104 104.501 191.104Z" fill="#1A171A"/>
<path d="M111.831 191.104C112.261 191.104 112.771 190.994 113.361 190.784V193.144C112.931 193.334 112.531 193.464 112.141 193.544C111.751 193.624 111.301 193.664 110.781 193.664C109.721 193.664 108.951 193.394 108.481 192.864C108.011 192.334 107.771 191.514 107.771 190.404V186.534H106.661V184.104H107.771V181.674L110.961 181.154V184.104H112.981V186.534H110.961V190.194C110.961 190.804 111.251 191.104 111.821 191.104" fill="#1A171A"/>
<path d="M121.821 185.044C121.071 184.304 120.001 183.934 118.621 183.934C117.171 183.934 116.051 184.354 115.271 185.204C114.491 186.054 114.091 187.274 114.091 188.854C114.091 190.434 114.511 191.574 115.361 192.404C116.211 193.234 117.391 193.654 118.921 193.654C119.651 193.654 120.291 193.604 120.811 193.504C121.341 193.404 121.851 193.224 122.341 192.974L121.851 190.854C121.491 191.004 121.151 191.114 120.831 191.184C120.361 191.294 119.851 191.344 119.301 191.344C118.691 191.344 118.211 191.194 117.851 190.894C117.501 190.594 117.311 190.184 117.291 189.654H122.951V188.214C122.951 186.824 122.571 185.764 121.821 185.024M117.351 187.614C117.391 187.104 117.541 186.724 117.791 186.484C118.041 186.244 118.351 186.124 118.721 186.124C119.131 186.124 119.451 186.264 119.691 186.534C119.931 186.804 120.061 187.174 120.071 187.624" fill="#1A171A"/>
<path d="M77.7515 185.044C77.0015 184.304 75.9315 183.934 74.5515 183.934C73.1015 183.934 71.9815 184.354 71.2015 185.204C70.4215 186.054 70.0215 187.274 70.0215 188.854C70.0215 190.434 70.4415 191.574 71.2915 192.404C72.1315 193.234 73.3215 193.654 74.8515 193.654C75.5815 193.654 76.2215 193.604 76.7415 193.504C77.2715 193.404 77.7815 193.224 78.2715 192.974L77.7815 190.854C77.4215 191.004 77.0815 191.114 76.7615 191.184C76.2915 191.294 75.7815 191.344 75.2315 191.344C74.6215 191.344 74.1415 191.194 73.7915 190.894C73.4415 190.594 73.2515 190.184 73.2315 189.654H78.8915V188.214C78.8915 186.824 78.5115 185.764 77.7615 185.024M73.2915 187.614C73.3315 187.104 73.4815 186.724 73.7315 186.484C73.9815 186.244 74.2915 186.124 74.6715 186.124C75.0715 186.124 75.4015 186.264 75.6415 186.534C75.8815 186.804 76.0115 187.174 76.0215 187.624" fill="#1A171A"/>
<path d="M73.221 78.3839C71.861 78.6038 70.711 78.7838 69.761 78.9538L71.091 64.3239H93.441V55.8738H62.721L60.461 84.7338L64.701 87.2439C66.101 86.9239 67.731 86.6338 69.591 86.3738C71.451 86.1138 73.011 85.9939 74.281 85.9939C83.281 85.9939 87.781 89.5238 87.781 96.5838C87.781 100.274 86.661 103.074 84.431 104.994C82.191 106.904 78.931 107.864 74.651 107.864C72.231 107.864 69.601 107.524 66.771 106.854C63.941 106.184 61.441 105.224 59.251 103.984V112.594C63.021 114.724 68.211 115.784 74.811 115.784C82.081 115.784 87.701 114.014 91.641 110.474C95.591 106.934 97.561 102.004 97.561 95.7038C97.561 90.2638 95.821 85.9638 92.351 82.8138C88.881 79.6638 84.161 78.0838 78.201 78.0838C76.231 78.0838 74.571 78.1939 73.211 78.4039L73.221 78.3839ZM134.581 62.7038C131.191 57.5338 126.191 54.9438 119.591 54.9438C112.991 54.9438 107.801 57.4138 104.491 62.3638C101.191 67.3038 99.541 74.9938 99.541 85.4238C99.541 95.8538 101.241 102.914 104.631 108.054C108.021 113.204 113.011 115.774 119.581 115.774C126.151 115.774 131.411 113.284 134.721 108.294C138.021 103.314 139.671 95.6838 139.671 85.4238C139.671 75.1638 137.971 67.8839 134.581 62.7139V62.7038ZM111.641 68.1238C113.301 64.6438 115.941 62.9138 119.581 62.9138C123.221 62.9138 125.881 64.6838 127.561 68.2238C129.241 71.7638 130.091 77.5038 130.091 85.4238C130.091 93.3438 129.251 99.0939 127.561 102.604C125.881 106.104 123.221 107.854 119.581 107.854C115.941 107.854 113.301 106.134 111.641 102.684C109.981 99.2339 109.151 93.4838 109.151 85.4238C109.151 77.3638 109.981 71.6038 111.641 68.1238Z" fill="#76C153"/>
<path d="M177.441 62.6941C174.051 57.5241 169.051 54.9341 162.451 54.9341C155.851 54.9341 150.661 57.4041 147.351 62.3541C144.051 67.2941 142.401 74.9841 142.401 85.4141C142.401 95.8441 144.101 102.904 147.491 108.044C150.881 113.194 155.871 115.764 162.441 115.764C169.011 115.764 174.271 113.274 177.581 108.284C180.881 103.304 182.531 95.6741 182.531 85.4141C182.531 75.1541 180.831 67.8741 177.441 62.7041V62.6941ZM154.501 68.1141C156.161 64.6341 158.801 62.9041 162.441 62.9041C166.081 62.9041 168.741 64.6741 170.421 68.2141C172.101 71.7541 172.951 77.4941 172.951 85.4141C172.951 93.3341 172.111 99.0841 170.421 102.594C168.741 106.094 166.081 107.844 162.441 107.844C158.801 107.844 156.161 106.124 154.501 102.674C152.841 99.2241 152.011 93.4741 152.011 85.4141C152.011 77.3541 152.841 71.5941 154.501 68.1141Z" fill="#76C153"/>
<path d="M178.581 56.1938H179.821V55.3838H176.371V56.1938H177.611V59.9638H178.581V56.1938ZM183.351 59.9638L184.531 56.3838H184.561C184.531 56.9638 184.521 57.3138 184.521 57.4438C184.521 57.5738 184.521 57.6938 184.521 57.7938V59.9538H185.421V55.3838H184.101L182.951 58.8838H182.931L181.851 55.3838H180.531V59.9538H181.401V57.8238C181.401 57.5838 181.381 57.0938 181.341 56.3638H181.371L182.471 59.9538H183.361L183.351 59.9638Z" fill="#76C153"/>
<path d="M57.9414 124.184H238.051" stroke="#1A171A" stroke-width="0.81" stroke-miterlimit="10"/>
<path d="M131.713 224.097L130.965 227.925H134.659V230.228H130.517L129.425 236.001H126.987L128.079 230.228H124.699L123.608 236.001H121.215L122.247 230.228H118.822V227.925H122.695L123.473 224.097H119.869V221.794H123.877L124.968 215.962H127.436L126.344 221.794H129.784L130.875 215.962H133.268L132.176 221.794H135.631V224.097H131.728H131.713ZM125.118 227.925H128.528L129.305 224.097H125.896L125.118 227.925Z" fill="white"/>
<path d="M153.876 227.462C153.846 219.551 157.061 215.663 163.447 215.663C164.419 215.663 165.301 215.738 165.989 215.902V218.594C165.271 218.37 164.494 218.295 163.582 218.295C161.413 218.265 159.828 218.878 158.751 220.045C157.66 221.196 157.091 223.065 157.002 225.638H157.166C157.555 224.875 158.198 224.322 158.976 223.918C159.723 223.499 160.665 223.305 161.712 223.305C163.477 223.305 164.942 223.858 165.959 224.98C166.961 226.086 167.47 227.597 167.47 229.511C167.44 231.589 166.886 233.264 165.705 234.491C164.494 235.672 162.939 236.315 160.905 236.315C159.439 236.315 158.228 235.971 157.166 235.283C156.074 234.595 155.297 233.578 154.729 232.262C154.145 230.902 153.876 229.346 153.876 227.492V227.462ZM160.86 233.638C161.952 233.638 162.804 233.279 163.402 232.576C163.985 231.859 164.299 230.842 164.299 229.526C164.299 228.344 164.015 227.477 163.462 226.819C162.864 226.131 162.056 225.832 160.95 225.832C160.217 225.832 159.619 225.982 159.035 226.281C158.452 226.535 157.989 226.983 157.66 227.492C157.286 228 157.151 228.539 157.151 229.062C157.121 230.318 157.495 231.425 158.198 232.307C158.871 233.175 159.783 233.623 160.86 233.623" fill="white"/>
<path d="M144.454 223.439C146.428 223.439 148.058 223.978 149.24 225.054C150.376 226.086 151.004 227.597 151.004 229.451C150.975 231.589 150.332 233.279 149.001 234.491C147.655 235.657 145.77 236.3 143.303 236.3C141.015 236.3 139.31 235.941 138.039 235.208V232.277C138.742 232.681 139.624 233.025 140.581 233.249C141.508 233.444 142.436 233.593 143.258 233.593C144.679 233.593 145.8 233.264 146.563 232.606C147.281 231.933 147.7 230.991 147.7 229.735C147.7 227.313 146.174 226.116 143.138 226.116C142.675 226.116 142.181 226.161 141.553 226.251C140.925 226.296 140.372 226.43 139.893 226.55L138.458 225.698L139.22 215.947H149.629V218.819H142.062L141.613 223.724C141.897 223.664 142.316 223.604 142.78 223.529C143.213 223.424 143.796 223.424 144.469 223.424" fill="white"/>
<defs>
<radialGradient id="paint0_radial_3495_36115" cx="0" cy="0" r="1" gradientUnits="userSpaceOnUse" gradientTransform="translate(129.721 203.104) rotate(-54.2054) scale(192.064 192.339)">
<stop offset="0.406706" stop-color="white"/>
<stop offset="1" stop-color="#344047"/>
</radialGradient>
<linearGradient id="paint1_linear_3495_36115" x1="288" y1="124.715" x2="6.70908" y2="127.204" gradientUnits="userSpaceOnUse">
<stop stop-color="#CFD3D6"/>
<stop offset="0.135064" stop-color="white"/>
<stop offset="0.303611" stop-color="#959A9E"/>
<stop offset="0.384549" stop-color="#CED2D4"/>
<stop offset="0.894356" stop-color="white" stop-opacity="0.851042"/>
<stop offset="1" stop-color="#AAAFB4"/>
</linearGradient>
<linearGradient id="paint2_linear_3495_36115" x1="124.283" y1="289" x2="126.798" y2="6.73269" gradientUnits="userSpaceOnUse">
<stop stop-color="#ACB1B5"/>
<stop offset="0.135064" stop-color="white"/>
<stop offset="0.227906" stop-color="#211F22"/>
<stop offset="0.273958" stop-color="#7A7E82"/>
<stop offset="0.384549" stop-color="#606365"/>
<stop offset="0.723016" stop-color="#CBD0D2"/>
<stop offset="0.769369" stop-color="#AAAFB4"/>
<stop offset="0.89375" stop-color="#FEFEFE"/>
<stop offset="1" stop-color="#D3D7D9"/>
</linearGradient>
<clipPath id="clip0_3495_36115">
<rect width="288" height="289" rx="144" fill="white"/>
</clipPath>
</defs>
</svg>
