<svg width="73" height="70" viewBox="0 0 73 70" fill="none" xmlns="http://www.w3.org/2000/svg">
<path d="M8.2168 0V50.654H10.9653V2.78035H62.1252V23.8578H64.8737V0H8.2168Z" fill="#444444"/>
<path d="M63.4994 32.049C63.1349 32.049 62.7854 32.1954 62.5276 32.4561C62.2699 32.7168 62.1251 33.0704 62.1251 33.4391V67.2195H10.9653V60.2438C10.9653 59.8751 10.8205 59.5214 10.5628 59.2607C10.305 59 9.95545 58.8536 9.59098 58.8536C9.22651 58.8536 8.87693 59 8.61921 59.2607C8.36149 59.5214 8.2168 59.8751 8.2168 60.2438V70H64.8737V33.4391C64.8737 33.0704 64.7289 32.7168 64.4712 32.4561C64.2135 32.1954 63.8639 32.049 63.4994 32.049Z" fill="#444444"/>
<path d="M51.0582 54.2254H48.5895C48.4128 54.2111 48.2352 54.2339 48.0676 54.2925C47.9001 54.351 47.7464 54.444 47.6161 54.5656C47.4859 54.6872 47.3819 54.8348 47.3108 54.999C47.2397 55.1632 47.2031 55.3406 47.2031 55.5199C47.2031 55.6992 47.2397 55.8765 47.3108 56.0408C47.3819 56.205 47.4859 56.3526 47.6161 56.4742C47.7464 56.5958 47.9001 56.6888 48.0676 56.7473C48.2352 56.8059 48.4128 56.8286 48.5895 56.8143H49.7086V59.0453C49.6945 59.2229 49.7168 59.4015 49.7743 59.5699C49.8318 59.7383 49.9232 59.8929 50.0426 60.0238C50.1621 60.1548 50.307 60.2592 50.4683 60.3307C50.6297 60.4022 50.8039 60.4391 50.98 60.4391C51.1562 60.4391 51.3304 60.4022 51.4918 60.3307C51.6531 60.2592 51.798 60.1548 51.9175 60.0238C52.0369 59.8929 52.1282 59.7383 52.1857 59.5699C52.2432 59.4015 52.2655 59.2229 52.2514 59.0453V56.5479C52.8499 56.27 53.3367 55.7935 53.6309 55.1974C53.925 54.6012 54.0089 53.9213 53.8686 53.2704C53.7284 52.6194 53.3725 52.0364 52.8598 51.6181C52.3472 51.1998 51.7086 50.9714 51.05 50.9706H50.2271C50.1789 50.9782 50.1297 50.9753 50.0828 50.9619C50.0359 50.9485 49.9924 50.9249 49.9553 50.8929C49.9183 50.8608 49.8885 50.8211 49.8681 50.7763C49.8477 50.7315 49.8371 50.6828 49.8371 50.6335C49.8371 50.5841 49.8477 50.5354 49.8681 50.4906C49.8885 50.4458 49.9183 50.406 49.9553 50.374C49.9924 50.3419 50.0359 50.3184 50.0828 50.305C50.1297 50.2916 50.1789 50.2886 50.2271 50.2963H52.6958C53.0174 50.2702 53.3176 50.1225 53.5365 49.8826C53.7553 49.6427 53.8768 49.3283 53.8768 49.0019C53.8768 48.6754 53.7553 48.361 53.5365 48.1211C53.3176 47.8812 53.0174 47.7335 52.6958 47.7074H52.2843V45.4848C52.2985 45.3072 52.2761 45.1286 52.2186 44.9602C52.1611 44.7918 52.0698 44.6372 51.9503 44.5062C51.8309 44.3753 51.6859 44.2708 51.5246 44.1993C51.3633 44.1278 51.189 44.0909 51.0129 44.0909C50.8368 44.0909 50.6626 44.1278 50.5013 44.1993C50.34 44.2708 50.195 44.3753 50.0756 44.5062C49.9561 44.6372 49.8648 44.7918 49.8073 44.9602C49.7498 45.1286 49.7274 45.3072 49.7416 45.4848V47.7574C49.3633 47.7902 48.9952 47.898 48.6582 48.0747C48.3212 48.2514 48.0218 48.4936 47.7772 48.7873C47.2834 49.3805 47.0428 50.1479 47.1082 50.9206C47.1737 51.6933 47.54 52.4081 48.1264 52.9077C48.7128 53.4072 49.4714 53.6507 50.2353 53.5844H51.0582C51.1064 53.5768 51.1555 53.5797 51.2025 53.5931C51.2494 53.6065 51.2929 53.6301 51.3299 53.6621C51.367 53.6942 51.3967 53.734 51.4171 53.7787C51.4375 53.8235 51.4482 53.8723 51.4482 53.9216C51.4482 53.9709 51.4375 54.0196 51.4171 54.0644C51.3967 54.1092 51.367 54.149 51.3299 54.181C51.2929 54.2131 51.2494 54.2366 51.2025 54.25C51.1555 54.2634 51.1064 54.2664 51.0582 54.2587V54.2254Z" fill="#444444"/>
<path d="M34.5324 26.6797V16.8403L35.2565 17.2399C35.4554 17.3512 35.6793 17.4085 35.9066 17.4063C36.2103 17.4044 36.5048 17.3007 36.7441 17.1114C36.9834 16.9222 37.154 16.6581 37.2292 16.3604C37.3044 16.0628 37.2801 15.7482 37.1599 15.4661C37.0397 15.1839 36.8305 14.9499 36.5649 14.8008L26.9698 9.50647L17.3666 14.8008C17.2024 14.8849 17.0566 15.0016 16.9378 15.1438C16.819 15.286 16.7297 15.4509 16.6751 15.6288C16.6205 15.8066 16.6018 15.9936 16.6201 16.1789C16.6383 16.3642 16.6932 16.5439 16.7814 16.7073C16.8696 16.8707 16.9894 17.0145 17.1336 17.1302C17.2778 17.2459 17.4435 17.3311 17.6209 17.3808C17.7982 17.4304 17.9837 17.4435 18.1662 17.4193C18.3487 17.3951 18.5245 17.3341 18.6832 17.2399L19.3992 16.8403V26.6797H34.5324ZM31.825 15.3252V23.8994H22.1888V15.3252L27.011 12.6697L31.825 15.3252Z" fill="#444444"/>
<path d="M2.01195 56.1479C1.70095 56.1491 1.39876 56.0434 1.15479 55.8483C0.910824 55.6532 0.739504 55.3801 0.668805 55.0738C0.598107 54.7674 0.632181 54.4459 0.765541 54.1617C0.8989 53.8774 1.12367 53.6474 1.40301 53.5091L70.5022 19.1709C70.6643 19.0905 70.8405 19.0433 71.0206 19.0318C71.2008 19.0203 71.3813 19.0448 71.5521 19.104C71.7229 19.1631 71.8806 19.2557 72.016 19.3764C72.1514 19.4972 72.2619 19.6437 72.3414 19.8077C72.4208 19.9717 72.4675 20.1499 72.4789 20.3321C72.4902 20.5144 72.466 20.6971 72.4076 20.8698C72.3491 21.0426 72.2575 21.202 72.1382 21.339C72.0188 21.476 71.8739 21.5878 71.7118 21.6682L2.62089 56.0314C2.42845 56.1137 2.22083 56.1535 2.01195 56.1479Z" fill="#F3C45A"/>
</svg>
