<svg width="614" height="17" viewBox="0 0 614 17" fill="none" xmlns="http://www.w3.org/2000/svg">
<path d="M613.97 13.5238C613.9 13.2585 613.74 13.1973 611.92 13.068C593.782 11.6735 575.004 10.4762 555.347 9.46939C555.217 9.28571 555.137 9.16326 551.507 8.94558C550.017 8.85714 548.537 8.78231 547.048 8.71429L547.088 8.68707L547.028 8.57823C550.567 8.72109 554.107 8.89116 557.556 9.05442C559.726 9.15646 561.896 9.26531 564.056 9.36054L584.613 10.3061C585.603 10.3673 586.093 10.3946 586.183 10.0476V9.71429L585.733 9.63265C585.393 9.57143 584.533 9.4966 583.773 9.45578C573.925 8.93197 564.136 8.40816 554.367 7.88435C551.097 7.70068 547.798 7.56463 544.618 7.43537H544.408C542.838 7.36054 541.278 7.29932 539.718 7.23129C534.839 7.02041 529.97 6.81633 525.1 6.61224C523.89 6.54422 522.68 6.46939 521.401 6.38775C518.791 6.23129 516.191 6.06803 513.591 5.93878C511.842 5.85034 510.082 5.7619 508.322 5.68027C509.002 5.70068 509.702 5.72109 510.412 5.7483C512.912 5.82313 515.401 5.90476 517.891 6.0068C521.691 6.16327 525.5 6.31973 529.33 6.47619L544.688 7.09524C547.778 7.21769 550.977 7.34014 554.117 7.51701L578.254 8.72789C582.274 8.91156 586.363 9.17007 590.313 9.42177L602.391 10.1701C609.361 10.6259 609.5 10.3605 609.62 10.1088L609.7 9.81633L609.371 9.67347C608.691 9.37415 603.861 8.96599 600.791 8.76871C569.205 6.46258 539.758 5.34694 509.872 4.30612L477.696 3.35374L450.999 2.7415L451.099 2.67347L450.979 2.46939C450.859 2.26531 450.759 2.21088 449.109 2.14966C444.069 1.96599 438.94 1.84354 433.971 1.72789L410.223 1.14966C404.934 1 399.614 0.911565 394.455 0.823129L371.418 0.414966C369.798 0.387755 369.578 0.455782 369.498 0.47619L369.378 0.510204L369.108 0.748299L369.238 0.938775C369.368 1.12925 369.478 1.18367 371.048 1.21088L380.627 1.38095L394.115 1.61905C398.875 1.70068 403.794 1.78231 408.653 1.91156L400.404 1.78231C390.006 1.63265 379.607 1.47619 368.998 1.32653L368.198 1.30612C367.218 1.28571 366.228 1.2585 365.228 1.2449C367.168 1.2381 367.208 1.12245 367.298 0.904762L367.398 0.585034L366.968 0.47619C366.498 0.360544 364.548 0.312925 363.349 0.306122L339.111 0.251701C337.022 0.251701 334.932 0.238095 332.842 0.231293H332.312C326.593 0.210884 320.693 0.190476 314.834 0.231293C310.705 0.251701 306.565 0.265306 302.436 0.278912C290.577 0.319728 278.318 0.360544 266.32 0.544218C262.13 0.312925 255.491 0.136054 247.112 0.047619L241.043 0L234.743 0.0272109C230.504 0.0612245 226.204 0.108844 222.025 0.176871C215.185 0.285714 208.996 0.47619 204.377 0.632653V0.761905C203.347 0.795918 202.287 0.829932 201.207 0.863946C198.657 0.959184 196.188 1.07483 193.658 1.19728L190.998 1.32653C190.408 1.34014 189.838 1.34694 189.218 1.35374C180.909 1.40136 172.02 1.56463 164.431 1.72109C160.362 1.79592 156.322 1.91156 151.503 2.06122C147.193 2.18367 142.914 2.29932 138.714 2.42177L138.684 2.61905C137.764 2.62585 136.944 2.61905 136.124 2.61905C134.775 2.61905 133.385 2.61905 131.545 2.65306V2.73469C128.715 2.76871 125.376 2.84354 121.596 2.96599C111.367 3.0068 98.8087 3.40136 86.7501 3.81633L85.1203 3.87755C83.3405 3.87075 80.8508 3.92517 78.1411 4.03401C77.6811 4.04762 77.2012 4.06122 76.7213 4.08163C75.8814 4.10884 75.0714 4.13605 74.4915 4.14286C66.8724 4.21769 57.2635 4.46258 45.1049 4.90476V5.0068C43.995 5.05442 42.8551 5.10884 41.6752 5.17007V5.27211C40.6854 5.29932 39.6755 5.33333 38.6156 5.36735C37.1358 5.44218 35.6059 5.52381 34.0661 5.59864C30.8465 5.77551 27.7268 5.97279 24.7872 6.18367C18.5879 6.62585 12.9285 7.12925 9.25894 7.57823C4.81945 8.12245 4.53948 8.39456 4.59948 8.78231C4.63947 9.02721 4.68947 9.29252 7.45915 9.35374C6.0993 9.5034 4.85945 9.65986 3.86956 9.80952C3.42961 9.87755 2.82968 9.97279 2.80968 10.3265C2.78968 10.6531 3.25963 10.7483 3.64958 10.8367C3.67958 10.8435 3.71958 10.8503 3.75957 10.8639C3.75957 10.8639 3.76957 10.8707 3.77957 10.8776C3.5396 10.898 3.26963 10.9184 2.97966 10.9456C2.97966 10.9456 2.44972 11.0136 2.05977 11.068L1.87979 11.0952L1.85979 11.1156C1.69981 11.1429 1.32985 11.2041 0.43995 11.3333L0.199977 11.3673L0 11.6803L0.0899897 11.8231C0.159982 11.9388 0.309965 12.0204 0.519941 12.068L0.649926 12.0816C0.869901 12.0816 0.969889 12.1088 0.959891 12.0952L1.08988 12.1905H1.29985C1.29985 12.1905 1.86979 12.2041 2.70969 12.1905H2.92967C3.43961 12.1633 3.81956 12.1497 5.36939 12.0884C5.54937 12.2993 6.1593 12.449 8.97898 12.6327C8.99897 12.6327 11.0487 12.6327 14.2884 12.517L22.4074 12.0952C22.4074 12.0952 22.5874 12.0884 22.9174 12.068C22.9174 12.0816 22.9174 12.0952 22.9174 12.1088C22.9274 12.1973 22.9674 12.2653 23.0374 12.3129C22.9774 12.3878 22.9574 12.4694 22.9774 12.5578C23.0274 12.8163 23.2773 12.9796 24.3472 13.0884C21.6975 13.5102 20.0277 13.8844 19.2578 14.2313L18.2979 15.0068L19.0578 15.1361C20.3177 15.3537 23.9873 15.3197 26.8469 15.2517L26.9069 15.5238C29.5966 15.6531 33.6962 15.6735 37.3157 15.6803C40.8753 15.6803 44.9549 15.7415 48.5345 15.8571L53.2539 15.898C56.6735 15.9524 62.0929 15.8435 68.4822 15.585L70.432 15.5102C69.0721 15.7959 69.0321 16 69.0021 16.1769C68.9821 16.3061 69.0221 16.551 69.5821 16.6939C70.372 16.898 72.3917 17 76.2313 17C77.8011 17 79.6809 16.9864 81.9007 16.9524C88.5399 16.8707 96.849 16.6054 105.288 16.1973C147.673 14.4286 191.558 13.1224 243.402 12.0884L270.029 11.6667C273.959 11.5986 277.858 11.5374 281.738 11.4762L319.184 11.2109C325.283 11.1769 331.562 11.2109 337.632 11.2449H337.741C340.001 11.2585 342.271 11.2721 344.561 11.2789C377.197 11.1156 408.863 11.3333 441.14 11.5918C455.848 11.8163 468.577 11.8639 478.015 11.8844L512.572 12.2449C513.151 12.2449 513.651 12.2585 513.691 11.9116C513.691 11.8639 513.691 11.8231 513.681 11.7823C518.531 11.9388 523.36 12.0952 528.15 12.2517L528.53 12.2653C534.029 12.449 539.458 12.6258 544.808 12.7959C545.938 12.8299 546.508 12.8367 546.808 12.7687C547.258 12.7959 547.808 12.8231 548.297 12.8367C550.877 12.8912 553.707 13.0136 556.717 13.1429L558.386 13.2177L558.646 13.1905C559.546 13.2177 559.896 13.2109 559.956 12.8844C559.976 12.7891 559.956 12.551 559.446 12.483C559.016 12.415 558.066 12.3537 557.396 12.3265C557.066 12.3129 556.727 12.2993 556.397 12.2857V12.2653C560.706 12.483 564.996 12.7007 569.285 12.9184L580.244 13.4762C583.273 13.6463 583.383 13.5578 583.553 13.415L583.703 13.2857L583.663 13.1293C583.593 12.898 583.553 12.7347 580.244 12.5578C578.964 12.4762 577.684 12.3946 576.404 12.3129C576.764 12.2857 577.014 12.2381 577.114 12.1769L577.204 12.1224L577.324 11.8639L577.194 11.7211C577.144 11.6667 577.064 11.5782 576.404 11.4558L581.304 11.7347C583.643 11.8776 585.983 12.0408 588.363 12.2109L611.93 13.8844C613.59 14 613.67 13.9388 613.83 13.8231L614 13.6939L613.95 13.5306L613.97 13.5238ZM484.355 9.39456C482.615 9.34694 480.865 9.30612 479.115 9.2585H480.815C481.995 9.31292 483.175 9.35374 484.355 9.39456ZM432.741 9.72109C433.141 9.72789 433.531 9.7415 433.931 9.7551C433.071 9.7415 432.221 9.73469 431.361 9.72109L424.412 9.62585C420.552 9.57823 416.672 9.5102 412.773 9.44218H412.453C406.574 9.33333 400.494 9.23129 394.435 9.19048L392.335 9.16326H406.584C409.653 9.21769 412.463 9.23809 414.893 9.22449L432.741 9.72789V9.72109Z" fill="#F4C65D"/>
</svg>
