<svg width="161" height="70" viewBox="0 0 161 70" fill="none" xmlns="http://www.w3.org/2000/svg">
<path d="M54.7228 45.9924H77.1827L58.6623 33.0556C54.3806 30.3013 49.5732 31.9122 47.8121 36.4776C46.3598 41.7024 50.0406 45.9924 54.7228 45.9924ZM56.4505 30.1344L76.1812 43.6638L66.6163 21.7297C64.6132 16.555 59.1046 15.4282 55.2486 18.7083C54.4361 19.4666 53.8107 20.4033 53.4218 21.4445C53.0329 22.4858 52.8912 23.6031 53.0077 24.7084C53.1242 25.8138 53.4958 26.8769 54.0933 27.8142C54.6907 28.7514 55.4977 29.5371 56.4505 30.1094V30.1344ZM102.589 33.0806L84.0684 46.0174H106.879C111.553 46.0174 114.557 41.1932 113.222 36.7614C112.781 35.3394 111.905 34.0915 110.718 33.1932C109.531 32.295 108.092 31.7915 106.603 31.7536C105.166 31.7795 103.768 32.2328 102.589 33.0556V33.0806ZM85.0783 43.597L104.801 29.9925C109.349 26.7625 108.615 21.6462 106.069 19.0589C105.408 18.3734 104.616 17.8281 103.74 17.4553C102.864 17.0824 101.922 16.8898 100.97 16.8888C98.5159 16.8888 95.8951 18.1825 94.3678 21.8966L85.0783 43.597ZM76.2479 41.0931L79.72 16.555C80.5546 10.4538 75.9141 7.64111 72.2083 8.05008C71.1096 8.15217 70.0502 8.51127 69.1159 9.09838C68.1815 9.68548 67.3984 10.4841 66.8297 11.4298C66.261 12.3754 65.9227 13.4416 65.8421 14.5422C65.7616 15.6427 65.941 16.7468 66.3659 17.7652L76.2479 41.0931ZM55.3822 51.9433C58.1532 51.9433 58.3869 53.479 58.3869 53.479H63.2945C63.2945 52.1436 61.8255 49.3059 54.9482 49.3059C48.0708 49.3059 46.2764 53.5708 46.2764 55.407C46.2764 57.6104 48.0708 61.625 54.9482 61.625C61.2914 61.625 63.2945 58.7121 63.2945 57.3767H58.3952C58.3952 57.3767 58.1615 59.1378 55.3905 59.1378C54.9079 59.1522 54.4277 59.0647 53.9811 58.8812C53.5345 58.6977 53.1316 58.4221 52.7985 58.0726C52.4655 57.723 52.2098 57.3072 52.0481 56.8522C51.8864 56.3973 51.8223 55.9134 51.86 55.432C51.8382 54.9645 51.9149 54.4976 52.0851 54.0616C52.2554 53.6257 52.5154 53.2304 52.8483 52.9014C53.1812 52.5724 53.5796 52.3171 54.0176 52.152C54.4555 51.987 54.9233 51.9159 55.3905 51.9433H55.3822ZM106.862 59.1128C106.386 59.1252 105.911 59.0384 105.47 58.8579C105.029 58.6773 104.63 58.4069 104.299 58.064C103.968 57.721 103.711 57.3128 103.546 56.8655C103.381 56.4181 103.311 55.9414 103.34 55.4654C103.313 54.9952 103.386 54.5246 103.554 54.0846C103.723 53.6446 103.982 53.2451 104.315 52.9125C104.649 52.5798 105.049 52.3215 105.489 52.1545C105.93 51.9874 106.4 51.9154 106.871 51.9433C109.642 51.9433 109.875 53.479 109.875 53.479H114.783C114.783 52.1436 113.314 49.3059 106.437 49.3059C99.5592 49.3059 97.7647 53.5124 97.7647 55.3486C97.7647 57.552 99.5675 61.5666 106.437 61.5666C112.78 61.5666 114.783 58.6537 114.783 57.3183H109.875C109.875 57.3183 109.642 59.0794 106.871 59.0794L106.862 59.1128ZM94.4262 54.9813C95.1054 54.9083 95.7345 54.5898 96.1955 54.0858C96.6565 53.5817 96.9177 52.9267 96.9301 52.2438C96.9301 49.6814 92.1477 49.4477 91.4132 49.4477H82.5911V61.2661H91.4048C95.6448 61.2661 97.3474 59.9224 97.3474 57.6855C97.3474 55.4487 94.4262 54.9813 94.4262 54.9813ZM87.1816 51.743H90.7204C90.8521 51.7141 90.9885 51.7152 91.1196 51.7461C91.2508 51.7769 91.3734 51.8368 91.4784 51.9213C91.5834 52.0057 91.6681 52.1127 91.7263 52.2342C91.7845 52.3557 91.8147 52.4888 91.8147 52.6235C91.8147 52.7583 91.7845 52.8913 91.7263 53.0128C91.6681 53.1344 91.5834 53.2413 91.4784 53.3258C91.3734 53.4103 91.2508 53.4701 91.1196 53.501C90.9885 53.5318 90.8521 53.5329 90.7204 53.504H87.1816V51.743ZM90.8206 58.42H87.1482V56.2834H90.8206C91.1504 56.2448 91.4823 56.3354 91.7468 56.5361C92.0112 56.7368 92.1878 57.0321 92.2395 57.36C92.2562 57.961 91.6218 58.4367 90.8373 58.4367L90.8206 58.42ZM76.7153 56.9511L71.0065 49.4394H64.5798V61.2661H68.9867V53.7544L74.5954 61.2661H81.1222V49.4394H76.7153V56.9511ZM94.7684 17.7234C95.1779 16.6955 95.3422 15.5863 95.2482 14.4838C95.1543 13.3813 94.8046 12.3158 94.227 11.3721C93.6494 10.4283 92.8597 9.63212 91.9207 9.04678C90.9817 8.46144 89.9192 8.10303 88.8175 8H88.2833C84.9448 8 81.0805 10.4371 81.2641 15.6619H83.1336C83.1336 15.6619 84.1352 15.6619 84.2687 16.1293C83.5343 16.7302 81.5312 16.8054 81.7649 20.0187L84.9448 41.0931L94.7684 17.7234Z" fill="#444444"/>
</svg>
