<svg width="161" height="70" viewBox="0 0 161 70" fill="none" xmlns="http://www.w3.org/2000/svg">
<path fill-rule="evenodd" clip-rule="evenodd" d="M14.7507 27.2826H15.029V23.7646H1.41406V24.0031C2.98425 25.2752 3.19294 25.6528 3.19294 27.0441V44.0379C3.19294 45.4292 2.98425 45.8068 1.41406 47.0789V47.3174H8.46996V47.0789C6.8799 45.8863 6.61158 45.4292 6.61158 44.0975V35.6702H8.14201C10.1296 35.6702 10.4973 35.8093 12.1967 37.9857H12.4352V32.4603H12.1967C10.4874 34.6367 10.1395 34.7758 8.14201 34.7758H6.61158V24.6292H8.94698C9.88114 24.6292 10.6861 24.9472 14.7507 27.2826ZM20.1172 37.2205H15.3967L17.6426 30.423C17.7519 30.6615 17.8513 30.9398 17.9606 31.2578L20.1172 37.2205ZM23.8439 39.2081L19.7395 28.0081H16.0327V28.2168C16.4613 28.5896 16.8389 29.0173 17.1557 29.4888L14.0948 38.7907C13.7321 40.1734 12.9256 41.3988 11.7992 42.2789V42.5174H16.0923V42.2888C14.9196 41.5634 14.5221 41.0863 14.5221 40.4006C14.5619 39.8687 14.6825 39.3459 14.8799 38.8503L15.1482 38.0255H20.3954L20.8824 39.3572C21.0838 39.8406 21.2015 40.3547 21.2302 40.8776C21.2302 41.3646 20.9023 41.7721 19.9979 42.2789V42.5174H25.9606V42.2888C24.9068 41.5866 24.1412 40.5282 23.8041 39.3075L23.8439 39.2081ZM32.8575 27.223H33.1358V23.8839C31.7693 23.6222 30.3828 23.4792 28.9917 23.4565C25.0165 23.4565 23.1085 26.0801 23.1085 28.8926C23.1085 32.1224 25.2054 34.0702 27.8985 36.3062C30.8004 38.7311 32.5495 40.2019 32.5495 43.0441C32.5875 43.5297 32.5226 44.0178 32.359 44.4765C32.1953 44.9353 31.9366 45.3543 31.5998 45.7061C31.263 46.0579 30.8557 46.3346 30.4045 46.5181C29.9534 46.7016 29.4685 46.7877 28.9818 46.7708C27.2029 46.7708 25.7917 46.0553 22.0252 43.1137H21.6178L22.9892 46.9398C24.6386 47.4061 26.3435 47.6468 28.0575 47.6553C32.5395 47.6553 35.1532 44.9224 35.1532 41.136C35.1532 37.6478 33.1656 35.859 30.1842 33.5037C27.5209 31.3472 25.6923 29.6081 25.6923 27.0938C25.6705 26.727 25.7268 26.3598 25.8575 26.0165C25.9883 25.6731 26.1905 25.3615 26.4508 25.1022C26.711 24.8428 27.0234 24.6418 27.3672 24.5123C27.711 24.3828 28.0784 24.3278 28.4451 24.3509C29.5979 24.3509 30.4327 24.7981 32.7979 27.3323L32.8575 27.223ZM50.1395 27.223H50.4377V23.7646H34.3681V27.2826H34.6464C38.4327 24.8876 39.1979 24.5696 40.0724 24.5696H40.6886V44.0876C40.6886 45.4193 40.4103 45.8764 38.8203 47.069V47.3075H45.9656V47.069C44.3756 45.8764 44.0973 45.4193 44.0973 44.0876V24.5696H44.7035C45.588 24.5696 46.3532 24.8876 50.1395 27.2826V27.223ZM70.6016 26.5969H70.8799V23.6155C69.0477 23.3351 67.1979 23.1857 65.3445 23.1683C57.0066 23.1683 52.0675 27.8193 52.0675 35.5311C52.0675 43.2429 56.788 47.7845 64.9867 47.7845C66.8755 47.7896 68.7567 47.5457 70.5818 47.059L71.3072 43.7398H71.0389C67.9582 46.3435 66.5867 46.9497 64.3507 46.9497C58.1892 46.9497 56.1221 42.3087 56.1221 35.4218C56.1221 28.5348 58.1495 24.1621 63.9731 24.1621C65.8315 24.1621 67.1532 24.5895 70.6016 26.6764V26.5969ZM69.8066 35.3621C69.8066 39.2478 69.4787 41.8118 66.6662 41.8118C63.8538 41.8118 63.5259 39.2478 63.5259 35.3621C63.5259 31.4764 63.8439 28.9025 66.6662 28.9025C69.4886 28.9025 69.8066 31.536 69.8066 35.4218V35.3621ZM73.1457 35.3621C73.1457 31.2578 70.711 28.177 66.6662 28.177C62.6215 28.177 60.1967 31.2777 60.1967 35.3621C60.1967 39.4466 62.6315 42.5373 66.6662 42.5373C70.701 42.5373 73.1457 39.4764 73.1457 35.4218V35.3621ZM87.5656 47.2081H94.5221V46.9696C92.9519 45.6975 92.7432 45.3199 92.7432 43.9286V27.0441C92.7432 25.6528 92.9519 25.2752 94.5221 24.0627V23.8242H89.5532L84.0675 41.2155L78.5122 23.7646H73.5432V24.0031C74.2628 24.5733 74.9282 25.2087 75.5308 25.9013V42.3584C75.5308 44.2665 75.2923 45.0317 73.5432 47.069V47.3075H79.1383V47.069C76.783 45.1311 76.4551 44.346 76.4551 42.3584V27.7199C76.4551 27.8292 76.5246 27.9385 76.5644 28.0677L82.865 47.5062H83.1433L89.4538 27.4913V44.0379C89.4538 45.4391 89.2352 45.8068 87.665 47.0193L87.5656 47.2081ZM107.789 30.9099C107.789 35.3224 106.746 37.1609 103.367 37.1609H101.429V24.6292H102.8C106.527 24.6292 107.789 26.2193 107.789 30.9696V30.9099ZM111.436 30.7509C111.436 25.4541 107.73 23.705 102.701 23.705H96.2314V23.9435C97.8016 25.2155 98.0103 25.5932 98.0103 26.9845V44.0379C98.0103 45.4292 97.8016 45.8068 96.2314 47.0789V47.3174H103.297V47.0789C101.707 45.8863 101.429 45.4292 101.429 44.0975V38.0752H103.267C107.71 38.0752 111.436 36.2068 111.436 30.8106V30.7509ZM120.053 38.7013H113.384L116.664 26.8454C116.737 27.0441 116.806 27.2627 116.872 27.5013L120.003 38.7211L120.053 38.7013ZM159.804 23.9932V23.7646H154.487V24.0031C155.918 25.2752 156.356 25.8913 156.356 26.8056C156.32 27.4332 156.144 28.0447 155.839 28.5944L152.798 35.7298L148.823 26.8851C148.579 26.452 148.437 25.9697 148.405 25.4739C148.405 24.8478 148.763 24.4801 149.717 24.0031V23.7646H137.891V24.0031C140.525 25.9907 140.872 26.7062 140.872 28.8528V42.3882L131.074 23.7646H126.194V24.0031C126.977 24.6377 127.687 25.3577 128.311 26.1497V42.418C128.311 44.1969 128.112 44.9621 126.711 47.069C125.762 45.9232 125.119 44.5555 124.843 43.0938L119.287 23.7646H114.517V24.0031C115.116 24.4787 115.648 25.0337 116.097 25.6528L111.486 42.269C111.088 44.1697 110.032 45.8693 108.505 47.069V47.3075H114.199V47.069C112.569 45.8367 112.062 45.2106 112.062 44.0876C112.091 43.4566 112.202 42.832 112.39 42.2292L113.136 39.5559H120.281L121.275 43.0739C121.508 43.7143 121.655 44.3826 121.712 45.0615C121.712 45.6677 121.454 46.0553 120.261 47.0491V47.2876H132.187V47.0491C129.553 45.1112 129.205 44.346 129.205 42.3981V27.5609L129.265 27.6702L139.64 47.3075H141.797V28.8528C141.797 26.8652 141.995 26.1199 143.347 24.0131C144.247 25.0974 144.981 26.3099 145.523 27.6106L149.817 36.9721V44.0876C149.817 45.4193 149.548 45.8764 147.958 47.069V47.3075H155.094V47.069C153.503 45.8764 153.235 45.4193 153.235 44.0876V36.8727L156.763 28.654C157.498 26.9287 158.542 25.3524 159.844 24.0031L159.804 23.9932Z" fill="#444444"/>
</svg>
