<svg width="161" height="70" viewBox="0 0 161 70" fill="none" xmlns="http://www.w3.org/2000/svg">
<path d="M16.7387 35.5911L11.1822 21H1.75V47.4534H8.51507V29.9663L15.1968 47.4534H18.239L24.8929 29.9663V47.4534H31.6997V21H22.2397L16.7387 35.5911ZM42.7016 27.8083C39.5538 27.7571 36.4874 28.8112 34.0334 30.7878L36.2838 34.9646C37.7676 33.6659 39.6623 32.9359 41.632 32.904C44.0907 32.904 45.5076 34.0596 45.5076 35.6886V37.596C44.7389 36.8147 43.8111 36.2087 42.7874 35.8195C41.7638 35.4302 40.6684 35.2669 39.5761 35.3405C36.645 35.3405 33.0055 36.886 33.0055 41.5223C33.0124 42.3722 33.1891 43.2122 33.5253 43.9925C33.8614 44.7729 34.3501 45.4778 34.9626 46.0657C35.5751 46.6536 36.2989 47.1126 37.0912 47.4155C37.8836 47.7184 38.7285 47.8591 39.5761 47.8293C40.6753 47.8655 41.7701 47.6726 42.7911 47.2628C43.8122 46.853 44.7372 46.2352 45.5076 45.4485V47.3559H51.5782V35.4658C51.5782 29.5208 47.2857 27.8083 42.7016 27.8083ZM45.4799 42.5386C45.0521 43.0104 44.5244 43.3803 43.9355 43.6212C43.3467 43.8621 42.7115 43.9679 42.0765 43.9309C40.4651 43.917 39.076 43.2069 39.076 41.7033C39.076 40.1996 40.4651 39.4478 42.1043 39.4478C42.74 39.4036 43.3774 39.5061 43.9674 39.7475C44.5574 39.9889 45.0843 40.3626 45.5076 40.8401L45.4799 42.5386ZM59.01 33.8786C59.01 33.1268 59.9546 32.5699 61.3715 32.5699C63.4163 32.5884 65.3871 33.339 66.9281 34.6862L69.2618 30.3562C66.9463 28.6803 64.1581 27.7879 61.3021 27.8083C56.0512 27.8083 53.1201 30.746 53.1201 34.1292C53.1201 41.8982 64.2331 39.4338 64.2331 41.8147C64.2331 42.65 63.483 43.2069 61.6633 43.2069C59.2106 43.0642 56.8621 42.1645 54.9398 40.6312L52.4255 45.0169C54.9898 47.0175 58.1644 48.0699 61.4132 47.9964C66.8725 47.9964 70.0814 45.3789 70.0814 41.7311C70.0814 33.8786 59.01 35.981 59.01 33.8786ZM84.0144 27.8222C82.7773 27.7829 81.5463 28.0113 80.4053 28.4918C79.2642 28.9723 78.2399 29.6937 77.4021 30.6068V21H71.3038V47.4534H77.4021V35.076C77.8328 34.5039 78.3885 34.0383 79.0266 33.7149C79.6648 33.3915 80.3683 33.2189 81.0833 33.2103C83.0281 33.2103 84.2505 33.9622 84.2505 36.3012V47.4395H90.3349V33.8786C90.2933 30.2726 88.3207 27.8222 83.9727 27.8222H84.0144ZM101.267 27.8222C98.1192 27.7687 95.052 28.823 92.5992 30.8017L94.8496 34.9785C96.3412 33.7 98.2351 32.99 100.198 32.9736C102.643 32.9736 104.073 34.1292 104.073 35.7582V37.6656C103.304 36.8858 102.376 36.2808 101.352 35.8917C100.329 35.5025 99.234 35.3383 98.1418 35.4101C95.2108 35.4101 91.5713 36.9556 91.5713 41.5919C91.5782 42.4418 91.7549 43.2818 92.091 44.0621C92.4272 44.8425 92.9159 45.5474 93.5284 46.1353C94.1409 46.7233 94.8647 47.1822 95.657 47.4851C96.4494 47.788 97.2943 47.9287 98.1418 47.8989C99.2413 47.9369 100.337 47.7448 101.358 47.3348C102.379 46.9249 103.304 46.3062 104.073 45.5181V47.4256H110.158V35.4658C110.116 29.5208 105.754 27.8083 101.226 27.8083L101.267 27.8222ZM104.046 42.5526C103.618 43.0251 103.091 43.3955 102.502 43.6365C101.913 43.8775 101.277 43.9828 100.642 43.9448C99.0587 43.9448 97.5862 43.2348 97.5862 41.7311C97.5862 40.2274 99.0587 39.5035 100.642 39.5035C101.278 39.4593 101.915 39.5618 102.505 39.8032C103.095 40.0445 103.622 40.4183 104.046 40.8957V42.5526ZM123.813 27.8222C122.717 27.8135 121.635 28.0606 120.651 28.544C119.667 29.0273 118.81 29.7335 118.145 30.6068V21H112.061V47.4534H118.256V45.2258C118.93 46.0545 119.777 46.7257 120.737 47.1923C121.696 47.6588 122.746 47.9095 123.813 47.9268C128.522 47.9268 132.245 44.3625 132.245 37.8466C132.287 31.5814 128.647 27.8222 123.813 27.8222ZM121.799 42.5386C121.123 42.5163 120.46 42.3538 119.85 42.0614C119.24 41.769 118.698 41.3532 118.256 40.8401V34.9507C118.706 34.4162 119.265 33.9843 119.895 33.6841C120.525 33.3839 121.212 33.2224 121.91 33.2103C122.498 33.2068 123.08 33.328 123.618 33.566C124.156 33.804 124.638 34.1535 125.031 34.5914C125.425 35.0293 125.722 35.5458 125.902 36.1068C126.082 36.6679 126.142 37.2608 126.077 37.8466C126.135 38.4397 126.069 39.0384 125.883 39.6043C125.696 40.1701 125.394 40.6907 124.995 41.1325C124.596 41.5744 124.109 41.9277 123.566 42.1698C123.023 42.412 122.435 42.5376 121.84 42.5386H121.799ZM133.467 47.4534H139.566V21H133.537L133.467 47.4534ZM160.694 38.4871C160.694 31.9712 156.527 27.8083 150.971 27.8083C149.639 27.7684 148.314 28 147.075 28.489C145.835 28.9779 144.708 29.714 143.761 30.6527C142.814 31.5914 142.067 32.713 141.566 33.9496C141.064 35.1862 140.819 36.512 140.844 37.8466C140.844 44.0841 145.358 47.9268 151.248 47.9268C154.122 48.028 156.943 47.1331 159.236 45.3928L156.597 41.383C155.247 42.4089 153.608 42.9792 151.915 43.012C149.137 43.012 147.567 41.6197 147.137 39.8794H160.75L160.694 38.4871ZM146.998 35.7025C147.145 34.7983 147.634 33.9858 148.364 33.4336C149.093 32.8814 150.007 32.6319 150.915 32.737C153.693 32.737 154.707 34.352 154.874 35.7025H146.998Z" fill="#444444"/>
</svg>
