<svg width="161" height="70" viewBox="0 0 161 70" fill="none" xmlns="http://www.w3.org/2000/svg">
<g clip-path="url(#clip0_546_8138)">
<path d="M74.8024 4.56819V14.1063C76.1726 13.3989 77.1927 12.2267 77.6478 10.8366L77.7588 10.8833C77.446 14.2931 74.9436 17.6936 71.0387 17.6936C67.1338 17.6936 64.2178 14.947 64.2178 10.6498C64.2178 7.40813 66.4981 5.36225 69.4243 3.53124C68.996 3.42838 68.555 3.37812 68.1126 3.38177C67.7222 3.3499 67.3289 3.39121 66.9562 3.50322C66.5834 3.61524 66.2389 3.79566 65.9432 4.03371C65.6474 4.27176 65.4066 4.56256 65.2349 4.88874C65.0633 5.21491 64.9644 5.56977 64.9443 5.93211H64.7727C64.7574 5.75178 64.7574 5.57061 64.7727 5.39028C64.7425 3.10151 66.0542 0.308283 69.2629 0.308283C71.2809 0.308283 72.855 2.03653 75.2261 2.03653C75.7509 2.05291 76.2702 1.93407 76.7263 1.69325C77.1824 1.45243 77.5573 1.09909 77.8092 0.672617H77.9C77.8395 2.35416 77.335 4.07307 74.8024 4.56819ZM76.326 14.3398C74.9335 15.7037 73.4301 16.8715 71.4827 16.8715C67.8603 16.8715 65.0754 14.2371 65.0754 10.4256C65.0754 8.17416 66.0845 6.96906 67.1944 5.54909H67.0632C66.2868 6.17836 65.66 6.94996 65.2223 7.81507C64.7846 8.68019 64.5456 9.61999 64.5205 10.575C64.5205 14.8069 67.3962 17.4133 71.1497 17.4133C72.2273 17.3784 73.2752 17.0777 74.1852 16.5423C75.0952 16.0069 75.8342 15.2562 76.326 14.3678V14.3398ZM77.4157 1.86838C77.0893 2.45958 76.585 2.95063 75.9636 3.28219C75.3423 3.61375 74.6306 3.77163 73.9144 3.73676C71.8964 3.73676 70.0095 2.44758 68.3648 2.44758C67.765 2.45288 67.1775 2.60633 66.6631 2.89208C66.1487 3.17784 65.726 3.58553 65.4387 4.07307V4.11978C65.7852 3.79072 66.2019 3.53194 66.6622 3.35987C67.1225 3.18779 67.6164 3.10617 68.1126 3.12019C70.2719 3.12019 71.6845 4.36267 73.8841 4.36267C74.7089 4.42611 75.5301 4.20723 76.1921 3.74751C76.8542 3.28778 77.3111 2.61917 77.4762 1.86838H77.4157ZM69.6766 3.61531C68.794 4.33509 68.092 5.22473 67.6197 6.22197C67.1474 7.21921 66.9161 8.29997 66.9421 9.38861C66.9113 10.1857 67.0646 10.9797 67.3917 11.7175C67.7188 12.4553 68.2123 13.12 68.8391 13.6672L69.6463 13.2842V6.37117L68.8996 6.73551L68.7583 6.47394L72.6531 4.51214C71.6038 4.30662 70.6553 3.86755 69.6766 3.61531ZM74.4996 4.6149C74.2948 4.6294 74.089 4.6294 73.8841 4.6149C73.5078 4.61943 73.1322 4.58496 72.7641 4.51214V12.0417L69.1216 13.9101C69.9409 14.4708 70.9384 14.7633 71.9569 14.7415C72.8327 14.7439 73.6991 14.5752 74.4996 14.2464V4.6149V4.6149ZM70.4636 5.93211L69.9389 6.2217V13.1254L70.4636 12.8731V5.93211ZM86.4968 6.913V15.8812C86.4968 18.3568 84.1358 20.0384 81.4518 20.5522L81.4013 20.4494C82.0175 20.1616 82.5336 19.7189 82.8906 19.172C83.2475 18.6251 83.4308 17.9961 83.4193 17.3572V8.05272L81.9159 6.78222L81.371 7.3801V14.5734L82.2085 15.274L79.9483 17.5441L77.3653 15.3487V15.246L78.3743 14.2651V2.91467L81.371 0V6.913L83.7927 4.48411L86.4161 6.63275L86.8904 6.16565L87.1123 6.34315L86.4968 6.913ZM78.6972 15.3207V15.2647L79.2824 14.7228V2.4756L78.6972 3.04546V14.4986L77.8092 15.3207V15.3768L79.9786 17.1798L80.362 16.8154L78.6972 15.3207ZM84.3981 7.63233L82.5819 6.19368L82.1984 6.5767L83.8129 7.92193V17.2078C83.8263 17.7715 83.6802 18.3287 83.3891 18.8239V18.8239C83.725 18.5938 83.9934 18.2894 84.1697 17.9386C84.3459 17.5877 84.4244 17.2016 84.3981 16.8154V7.66036V7.63233ZM90.9264 12.1445V13.4617L93.6306 15.4235L95.1946 13.826L95.4165 14.0315L91.7942 17.6188L88.1214 14.8816L87.5563 15.4235L87.3343 15.218L87.9801 14.6014V8.06206L93.2371 4.50279L96.0018 8.63191L90.9264 12.1445ZM88.9084 14.4145V7.87522L88.3232 8.25824V14.6855L91.774 17.2825L92.2281 16.8434L88.9084 14.4145ZM91.0273 6.47394H90.9668V11.7615L93.449 10.0893L91.0273 6.47394ZM91.7538 5.95079L91.2493 6.2871L93.7012 9.93044L94.2057 9.59413L91.7538 5.95079Z" fill="#444444"/>
<path d="M39.7966 39.9838L35.922 36.8916L32.9756 39.9838L28.9396 36.7889V31.7349H28.203C27.9126 31.7342 27.6309 31.827 27.4063 31.9974C27.1818 32.1679 27.0282 32.4053 26.972 32.6691H26.8913C26.8041 32.3482 26.7568 32.0191 26.75 31.6882C26.75 31.0249 26.9518 29.2686 28.9799 29.2686V24.7939C28.9799 23.9438 27.9003 23.6075 27.9003 22.4771C27.8801 21.0011 29.3835 19.5904 32.1381 18.6562L32.239 18.731C31.7762 18.9046 31.3819 19.2055 31.1095 19.593C30.837 19.9806 30.6995 20.4361 30.7154 20.8983C30.7154 22.5985 32.5014 22.1595 32.5014 24.8499V25.8775L35.7605 22.7013L39.1811 25.8215L42.42 22.7013L45.5379 25.5039V35.0793L39.7966 39.9838ZM29.8578 36.4059V30.9315H28.2938C27.9987 30.908 27.7053 30.9927 27.477 31.1674C27.2486 31.3422 27.1035 31.5929 27.0729 31.8657C27.2209 31.7094 27.4071 31.5881 27.6159 31.5117C27.8247 31.4354 28.0502 31.4062 28.2736 31.4266H29.2826V36.6394L32.9554 39.5821L33.3691 39.115L29.8578 36.4059ZM29.8578 24.5697C29.8578 23.514 28.8488 23.159 28.8488 22.4864C28.8694 21.5927 29.2263 20.7337 29.8578 20.0575H29.7972C29.3623 20.3341 28.9955 20.6926 28.7208 21.1095C28.446 21.5265 28.2696 21.9926 28.203 22.4771C28.203 23.4113 29.2927 23.841 29.2927 24.6631V29.2313H29.8779L29.8578 24.5697ZM35.7302 27.148L33.6113 25.2797L32.5014 26.3353V35.4717L35.034 37.3401L35.7302 36.6207V27.148ZM36.6182 36.3592V26.7557L34.2571 24.5884L33.8131 24.9994L36.0329 26.9892V36.602L39.7966 39.6195L40.2405 39.2365L36.6182 36.3592ZM42.0265 26.7837L40.3112 25.1956L39.3022 26.1298V35.3129L42.0265 37.5269V26.7837ZM42.9144 26.4194L40.8964 24.551L40.4726 24.962L42.3292 26.6529V37.4335L42.9144 36.9103V26.4194Z" fill="#444444"/>
<path d="M54.7485 39.9837L52.1049 37.7696L49.7337 39.9837L46.8378 37.6108L46.4544 37.9939L46.2324 37.7883L46.7268 37.3026V30.3895L51.9636 26.8863L54.9907 29.0537L55.5255 28.5305L55.7474 28.736L55.1319 29.3339V36.4805L56.6051 37.7416L57.0793 37.2745L57.3013 37.452L54.7687 39.9837H54.7485ZM47.6249 37.1251V30.156L47.0396 30.5484V37.3399L49.7135 39.5633L50.1575 39.1429L47.6249 37.0877V37.1251ZM52.1049 30.3428L49.8245 28.6893H49.7337V36.1628L51.6307 37.6856L52.1049 37.2465V30.3428ZM52.9928 37.3493V29.9505L50.6317 28.1755L50.0667 28.5305L52.4177 30.2307V37.6108L54.7586 39.5726L55.1824 39.1616L52.9928 37.3493ZM62.861 31.576H65.7266V37.097L61.297 39.9837C60.9951 39.6541 60.6195 39.389 60.1962 39.2068C59.7729 39.0245 59.3119 38.9294 58.8451 38.928C57.9468 38.9385 57.0886 39.2737 56.4538 39.8622L56.3125 39.8062L60.0963 34.7055H57.7554V29.9225L62.4069 26.933C62.865 27.3424 63.4755 27.5732 64.1122 27.5776C64.8355 27.6075 65.548 27.4063 66.1302 27.0078L66.2412 27.0638L62.861 31.576ZM59.7331 38.1807C59.0058 38.1773 58.2973 38.3938 57.715 38.7973V38.844C58.3293 38.6084 59.0077 38.5565 59.6554 38.6955C60.3031 38.8345 60.8877 39.1575 61.3273 39.6193L61.9731 39.1803C61.7063 38.8624 61.3631 38.6065 60.9707 38.4329C60.5783 38.2594 60.1476 38.173 59.7129 38.1807H59.7331ZM62.7601 33.8461H61.1558L57.8966 38.2087V38.2554C58.6251 37.6888 59.5388 37.3662 60.4898 37.3399C60.9124 37.3367 61.3307 37.4186 61.7158 37.5799C62.1008 37.7412 62.4434 37.9781 62.7197 38.2741V38.2741L62.7601 33.8461ZM58.724 33.8461V29.6982L58.1388 30.0813V34.4159H60.3889L60.8329 33.8461H58.724ZM64.5259 28.7921C64.0007 29.2099 63.32 29.4211 62.6289 29.3806C62.2969 29.3727 61.97 29.3023 61.6682 29.1738C61.3664 29.0454 61.0959 28.8615 60.8732 28.6333V28.6333V32.37H61.8823L64.5259 28.8201V28.7921ZM63.1839 28.5585C62.8809 28.55 62.5838 28.4784 62.3148 28.349C62.0458 28.2196 61.8117 28.0358 61.63 27.8112L60.9338 28.2503C61.1355 28.5191 61.4061 28.7375 61.7212 28.8859C62.0364 29.0342 62.3864 29.1079 62.7399 29.1004C63.4853 29.0988 64.2039 28.8427 64.758 28.381V28.297C64.2407 28.4835 63.6884 28.5724 63.1334 28.5585H63.1839ZM63.6581 32.9959H61.8015L61.3777 33.5378H63.0224V38.5357L63.6077 38.1527L63.6581 32.9959ZM75.3324 29.3059V38.2741C75.3324 40.7497 72.9713 42.4313 70.2874 42.9451V42.8423C70.9035 42.5545 71.4197 42.1118 71.7766 41.5649C72.1335 41.018 72.3168 40.389 72.3054 39.7501V30.4456L70.802 29.1751L70.2167 29.773V36.9662L71.0542 37.6669L68.794 39.937L66.2109 37.7416V37.6389L67.2199 36.658V25.3076L70.1865 22.3929V29.3059L72.6081 26.877L75.1407 28.9976L75.615 28.5305L75.8369 28.708L75.3324 29.3059ZM67.5327 37.7136V37.6575L68.118 37.1157V24.8685L67.5529 25.4383V36.8915L66.665 37.7136V37.7696L68.8344 39.5726L69.2279 39.1616L67.5327 37.7136ZM73.2135 29.9972L71.4074 28.5585L71.0138 28.9416L72.598 30.3148V39.6007C72.6234 40.161 72.4912 40.7179 72.2146 41.2168V41.2168C72.5487 40.9856 72.8151 40.6808 72.9896 40.33C73.164 39.9792 73.241 39.5936 73.2135 39.2083V30.0532V29.9972ZM80.4078 39.9557L78.0063 37.9191L77.4514 38.4609L77.2294 38.2741L77.8651 37.6295V30.156L76.6946 29.1284L76.2506 29.5861L76.0287 29.3806L78.5411 26.8583L80.7609 28.7267L81.326 28.1662L81.5782 28.3437L80.8719 29.0443V36.5739L82.2139 37.7323L82.8294 37.1344L83.0514 37.3399L80.4078 39.9743V39.9557ZM78.7631 37.424V29.773L77.3101 28.5305L76.9267 28.9416L78.1779 30.0532V37.7136L80.4078 39.582L80.8215 39.1709L78.7631 37.424ZM79.6006 26.6528L77.3101 24.747L79.3988 22.6825L81.6791 24.6163L79.6006 26.6528ZM78.1779 24.3267L77.7541 24.719L79.5703 26.2885L79.984 25.8494L78.1779 24.3267Z" fill="#444444"/>
<path d="M92.1882 39.985L89.7564 37.9485V30.4189L88.2732 29.1765L87.4963 29.9518V36.9115L88.364 37.6589V37.771L86.0735 39.985L83.5005 37.7897V37.715L84.5096 36.7808V30.2414L83.1978 29.1391L82.6732 29.6809L82.4512 29.4754L84.9838 26.9157L87.5164 29.0083V29.5221L90.1601 26.9157L92.6321 28.9336L93.1871 28.3917L93.4394 28.5973L92.7734 29.2418V36.6219L94.0246 37.7056L94.6401 37.089L94.8621 37.2946L92.1882 39.9477V39.985ZM84.8325 37.743V37.6869C84.8325 37.743 85.3874 37.1731 85.3874 37.1731V29.8678L83.8033 28.5038L83.4097 28.8962L84.8022 30.0826V36.8929L83.9445 37.715V37.7617L86.0836 39.574L86.5276 39.1349L84.8325 37.743ZM90.6545 37.5375V29.9799L88.9291 28.5319L88.4851 28.9709L90.0692 30.2881V37.7617L92.1579 39.574L92.6019 39.1349L90.6545 37.5094V37.5375ZM100.038 44.628C99.1201 43.6938 98.4844 43.3108 97.6167 43.3108C96.5471 43.3788 95.5099 43.6797 94.5896 44.1889L94.5089 44.1142L98.3533 39.985L95.6289 37.9765L95.0941 38.4903L94.8015 38.2755L95.417 37.6496V30.3909L100.704 26.8877L103.661 29.055L104.165 28.5319L104.387 28.7374L103.802 29.3353V38.154C103.802 39.4993 104.609 39.4432 104.609 40.4521C104.609 41.6105 102.793 42.6942 100.008 44.628H100.038ZM96.3352 37.4814V30.1854L95.75 30.5684V37.715L98.5046 39.7795L98.9284 39.3124L96.3352 37.4814ZM98.2826 42.6381C97.3758 42.6419 96.492 42.9027 95.75 43.3855V43.4415C96.3838 43.1742 97.0716 43.0341 97.768 43.0305C98.2255 43.0605 98.6701 43.1841 99.0697 43.3925C99.4693 43.6009 99.8139 43.8889 100.079 44.2356L100.634 43.8246C100.357 43.4842 100.005 43.2023 99.6013 42.9978C99.1977 42.7932 98.7516 42.6706 98.2927 42.6381H98.2826ZM101.683 40.1438C100.987 39.7328 100.825 39.2937 100.825 38.182V37.7243L96.194 42.6755C97.0879 42.1171 98.1427 41.8208 99.221 41.8254C100.257 41.8587 101.24 42.2602 101.966 42.9464C102.227 42.7832 102.444 42.5655 102.598 42.3108C102.752 42.0561 102.84 41.7714 102.853 41.4797C102.853 40.9659 102.379 40.5455 101.683 40.1625V40.1438ZM100.856 30.3442L98.5349 28.6626V28.7187V36.6313L100.321 37.9205L100.856 37.3413V30.3442ZM102.551 39.8075C101.824 39.2844 101.744 38.8733 101.744 37.743V29.8678L99.4026 28.1115L98.878 28.4478L101.158 30.12V38.0606C101.158 39.1723 101.158 39.4806 101.966 39.929C102.773 40.3774 103.166 40.7791 103.166 41.377C103.166 41.5264 103.166 41.788 103.166 41.788C103.265 41.7039 103.343 41.6012 103.395 41.4868C103.448 41.3724 103.473 41.2489 103.469 41.1247C103.439 40.8502 103.337 40.5866 103.172 40.357C103.006 40.1274 102.783 39.9388 102.521 39.8075H102.551ZM109.241 39.985L106.678 38.1167L106.143 38.6585L105.901 38.4623L106.516 37.8457V28.8215H104.892L104.831 28.7654L105.84 27.4295H106.536V25.7013L109.483 22.7866H109.543V27.4295H111.773L110.764 28.7748H109.452V36.5846L110.986 37.6682L111.571 37.0797L111.793 37.2852L109.241 39.985ZM107.424 25.2622L106.839 25.8507V27.4295H107.424V25.2622ZM107.424 37.5842V28.8215H106.839V37.8924L109.21 39.602L109.624 39.1816L107.424 37.5842V37.5842ZM120.986 29.5688V36.7901L116.283 40.0131L112.742 37.5375L112.328 37.9765L112.106 37.771L112.601 37.2479V30.1854L117.535 26.9064L120.824 29.2792L121.349 28.7654L121.571 28.9709L120.986 29.5688ZM113.499 37.0423V29.9518L112.913 30.3442V37.2759L116.253 39.6487L116.788 39.2844L113.499 36.9956V37.0423ZM117.979 30.503L115.638 28.8028V36.4071L117.999 38.0606V30.4002L117.979 30.503ZM118.877 30.0359L116.283 28.1675L115.749 28.5319L118.291 30.3348V38.2755L118.877 37.8644V29.9518V30.0359ZM131.631 40.0691L129.209 38.0326V30.4189L127.726 29.1765L126.949 29.9518V36.9115L127.817 37.6589V37.771L125.526 39.985L122.943 37.7897V37.715L123.952 36.7808V30.2414L122.64 29.1391L122.116 29.6809L121.894 29.4754L124.426 26.9157L126.959 29.0083V29.5221L129.603 26.9157L132.044 28.9336L132.599 28.3917L132.852 28.5973L132.186 29.2418V36.6219L133.437 37.7056L134.052 37.089L134.274 37.2946L131.631 40.0691ZM124.275 37.8271V37.771C124.275 37.8271 124.83 37.2572 124.83 37.2572V29.8678L123.246 28.5225L122.852 28.9149L124.245 30.1013V36.9115L123.387 37.7336V37.7803L125.526 39.5927L125.98 39.1536L124.275 37.7617V37.8271ZM130.097 37.6215V29.9799L128.372 28.5319L127.928 28.9709L129.512 30.2881V37.7617L131.6 39.574L132.044 39.1349L130.097 37.6215Z" fill="#444444"/>
<path d="M69.3799 64.386C68.8912 63.7562 68.1755 63.3089 67.3619 63.1248V68.1788H67.3114L66.1914 67.2446L62.9626 70.0004V63.0688C61.8091 63.3217 60.7584 63.8762 59.9355 64.6662V64.6662C59.9418 63.7905 60.2343 62.9372 60.7747 62.2184C61.315 61.4997 62.0778 60.9494 62.9626 60.6399V55.5952H62.3874C62.0251 55.5931 61.6713 55.6966 61.3761 55.8911C61.0809 56.0857 60.8593 56.3613 60.7428 56.6789H60.6519C60.5462 56.2914 60.502 55.8918 60.5208 55.4925C60.5114 55.2075 60.563 54.9237 60.6728 54.6573C60.7826 54.391 60.9483 54.1474 61.1603 53.9406C61.3723 53.7339 61.6265 53.5681 61.9081 53.4529C62.1898 53.3376 62.4933 53.2751 62.8011 53.2691H62.9626V50.5319L61.8224 49.5977L61.2674 50.1115L61.0757 49.934L63.8909 47.1315L66.5042 49.3549V51.6716L67.1197 51.0551V48.0844H67.4224V50.7935L71.1255 47.1035L74.2737 49.7659V60.9762L69.4001 64.3766L69.3799 64.386ZM62.9525 62.1159C62.428 62.21 61.9329 62.4115 61.5034 62.7057C61.0739 62.9999 60.7209 63.3793 60.4703 63.8161V63.8722C61.1668 63.307 62.013 62.9234 62.9222 62.7605V62.1159H62.9525ZM63.8404 54.7171H62.3067C62.1081 54.6964 61.907 54.7161 61.7175 54.7748C61.528 54.8335 61.3546 54.9299 61.2095 55.0571C61.0644 55.1844 60.9511 55.3394 60.8774 55.5114C60.8038 55.6834 60.7716 55.8683 60.7831 56.053C60.9105 55.8257 61.1011 55.634 61.3352 55.4977C61.5694 55.3614 61.8386 55.2854 62.115 55.2776H63.2047V69.3652L63.79 68.8514L63.8404 54.7171ZM63.8404 50.0462L62.448 48.8597L62.004 49.2988L63.2552 50.3264V53.2411H63.8102V50.0742L63.8404 50.0462ZM67.0995 51.5128L66.484 52.1107V67.0577L67.0995 67.5716V51.5128ZM70.7522 50.9243L69.1075 49.5977L67.4023 51.298V60.3409C68.0288 60.3564 68.6456 60.4884 69.2159 60.7291C69.7863 60.9699 70.2984 61.3144 70.7219 61.7422V61.7422L70.7522 50.9243ZM67.4023 62.1346V62.8072C68.2181 62.9397 68.9438 63.3664 69.4203 63.9936L70.0661 63.5265C69.7592 63.1303 69.3629 62.8005 68.9046 62.5602C68.4464 62.3198 67.9372 62.1746 67.4124 62.1346H67.4023ZM71.6401 50.5319L69.7432 48.9064L69.2992 49.3455L71.0549 50.8402V62.8352L71.6401 62.4242V50.5319ZM83.9905 53.9697V61.191L79.2784 64.414L75.7468 61.9384L75.323 62.3775L75.1011 62.1719L75.6056 61.6488V54.5863L80.5296 51.3073L83.8189 53.6802L84.3537 53.1663L84.5757 53.3719L83.9905 53.9697ZM76.4935 61.4433V54.3528L75.9083 54.7451V61.6768L79.2481 64.0497L79.7829 63.6853L76.4935 61.3966V61.4433ZM80.9836 54.9039L78.6427 53.2037V60.808L80.9634 62.4802V54.8199L80.9836 54.9039ZM81.8715 54.4368L79.2784 52.5685L78.7537 52.9328L81.2863 54.7358V62.6764L81.8715 62.2654V54.3528V54.4368ZM90.4482 56.0623H93.3138V61.5834L88.8943 64.47C88.5923 64.1404 88.2167 63.8754 87.7934 63.6931C87.3701 63.5109 86.9092 63.4158 86.4424 63.4144C85.5415 63.4263 84.6807 63.7612 84.0409 64.3486L83.8997 64.2925L87.6936 59.1919H85.3527V54.3247L90.0446 51.3353C90.499 51.7441 91.1061 51.975 91.7397 51.9799C92.4635 52.0129 93.177 51.8114 93.7577 51.4101L93.8687 51.4661L90.5289 55.9783L90.4482 56.0623ZM87.3202 62.583C86.5933 62.5816 85.8855 62.7979 85.3022 63.1995V63.2463C85.7182 63.0889 86.1647 63.0125 86.6139 63.022C87.0523 63.0341 87.4834 63.129 87.8807 63.3009C88.2781 63.4728 88.6333 63.7181 88.9246 64.0216L89.5703 63.5826C89.3046 63.2659 88.963 63.0108 88.5725 62.8373C88.182 62.6639 87.7533 62.5768 87.3202 62.583V62.583ZM90.2968 58.2483H88.743L85.4838 62.611V62.6577C86.1988 62.1008 87.093 61.7788 88.0265 61.7422C88.4491 61.739 88.8675 61.8209 89.2525 61.9822C89.6375 62.1435 89.9801 62.3804 90.2565 62.6764V62.6764V58.2483H90.2968ZM86.2608 58.2483V54.1005L85.6755 54.4836V58.8182H87.9357L88.3797 58.2483H86.2608ZM92.0626 53.1944C91.5405 53.6107 90.8635 53.8219 90.1758 53.7829C89.8435 53.776 89.5162 53.7062 89.2143 53.5776C88.9123 53.4491 88.642 53.2646 88.4201 53.0356H88.3595V56.7723H89.419L92.0626 53.2224V53.1944ZM90.7307 52.9608C90.426 52.9537 90.1269 52.8828 89.8561 52.7533C89.5852 52.6239 89.3495 52.4393 89.1667 52.2135L88.4705 52.6525C88.6738 52.9221 88.9461 53.1409 89.2631 53.2892C89.58 53.4376 89.9317 53.5109 90.2867 53.5027C91.0321 53.5011 91.7507 53.245 92.3048 52.7833V52.6993C91.8097 52.8778 91.2822 52.9666 90.7509 52.9608H90.7307ZM91.2049 57.3982H89.3887L88.975 57.9401H90.6197V62.938L91.2049 62.555V57.3982ZM97.9452 64.386L95.3823 62.5176L94.8475 63.0594L94.6255 62.8539L95.241 62.2373V53.2224H93.6266L93.566 53.1663L94.5751 51.8305H95.2713V50.1022L98.2277 47.1875H98.2781V51.8305H100.508L99.499 53.1757H98.1873V60.9855L99.721 62.0692L100.306 61.4806L100.528 61.6862L97.8846 64.3393L97.9452 64.386ZM96.0987 49.6631L95.5134 50.2517V51.8305H96.0987V49.6631ZM96.0987 61.9851V53.2224H95.5134V62.2934L97.8846 64.0029L98.2983 63.5826L96.0987 61.9851V61.9851Z" fill="#444444"/>
</g>
<defs>
<clipPath id="clip0_546_8138">
<rect width="160" height="70" fill="white" transform="translate(0.75)"/>
</clipPath>
</defs>
</svg>
