<svg width="100" height="36" viewBox="0 0 100 36" fill="none" xmlns="http://www.w3.org/2000/svg">
<g clip-path="url(#clip0_4628_39959)">
<path d="M86.15 15.6886H78.2015L79.7539 9.22266H76.9207L75.3683 15.6886H72.7679L72.6515 16.1931H75.2829L71.8675 30.4989C71.6179 31.329 71.4719 32.1868 71.4328 33.0527C71.42 33.3496 71.4714 33.6457 71.5835 33.921C71.6956 34.1962 71.8658 34.4439 72.0825 34.6473C72.2991 34.8507 72.5572 35.005 72.8389 35.0995C73.1206 35.194 73.4194 35.2266 73.7149 35.1951C76.5404 35.1951 77.9609 31.2053 78.1161 30.7473L77.7202 30.5765C77.4486 31.2518 76.3463 33.8522 75.0112 33.8522C74.4601 33.8522 74.235 33.5184 74.235 32.8431C74.2453 32.4046 74.3104 31.9691 74.4291 31.5468L78.0851 16.1931H83.2702L79.7772 30.4989C79.5317 31.3008 79.3857 32.1298 79.3425 32.9673C79.3239 33.2735 79.3723 33.58 79.4842 33.8656C79.5961 34.1512 79.7688 34.4089 79.9905 34.621C80.2121 34.833 80.4773 34.9942 80.7675 35.0933C81.0578 35.1925 81.3662 35.2272 81.6712 35.1951C84.4967 35.1951 85.9171 31.2053 86.0724 30.7473L85.6765 30.5765C85.4048 31.2053 84.2638 33.8522 83.0063 33.8522C82.2999 33.8522 82.1835 33.433 82.1835 32.8043C82.1939 32.3785 82.2592 31.9559 82.3776 31.5468L86.15 15.6886Z" fill="black" fill-opacity="0.55"/>
<path d="M67.2334 33.8524C66.527 33.8524 66.3718 33.4332 66.3718 32.8898C66.3819 32.436 66.4471 31.9851 66.5658 31.547L69.073 21.1378C69.3609 20.1853 69.5202 19.1985 69.5465 18.2037C69.558 17.8111 69.4861 17.4205 69.3355 17.0577C69.185 16.6949 68.9593 16.3681 68.6732 16.0989C68.3871 15.8297 68.0473 15.6242 67.676 15.496C67.3047 15.3678 66.9105 15.3197 66.5192 15.355C63.9655 15.355 62.5916 17.575 62.0404 18.5375L62.708 15.6888H57.321L57.1658 16.1933H59.7583L55.2795 34.8226H58.1127L61.2176 22.1935C61.924 19.3448 63.5463 16.4106 65.4558 16.4106C65.6614 16.3944 65.868 16.4239 66.0609 16.4969C66.2538 16.57 66.4281 16.6849 66.5713 16.8333C66.7145 16.9817 66.8231 17.16 66.8892 17.3553C66.9554 17.5506 66.9775 17.7582 66.9539 17.9631C66.902 18.7151 66.7692 19.4594 66.558 20.1831L64.0819 30.5068C63.8511 31.3702 63.7055 32.2542 63.6472 33.146C63.6472 34.2793 64.3613 35.203 65.9293 35.203C68.7625 35.203 70.1752 31.2132 70.3693 30.7552L69.9812 30.5845C69.5853 31.4228 68.5219 33.8601 67.3032 33.8601" fill="black" fill-opacity="0.55"/>
<path d="M51.119 31.5489L54.9302 15.6907H52.1048L51.6313 17.7477C51.5348 17.0352 51.174 16.385 50.6203 15.9263C50.0667 15.4676 49.3608 15.2338 48.6428 15.2715C45.3051 15.2715 43.6517 18.2056 42.5883 21.1398C41.9595 22.9018 40.6632 27.3495 40.5856 30.2914C40.4692 33.4739 41.9207 35.1971 44.2028 35.1971C46.4849 35.1971 47.7424 32.8685 48.2547 31.7119C48.1754 32.1264 48.1338 32.5473 48.1305 32.9694C48.1109 33.2744 48.158 33.5801 48.2685 33.8651C48.379 34.1501 48.5503 34.4076 48.7705 34.6196C48.9907 34.8317 49.2544 34.9932 49.5434 35.0929C49.8323 35.1927 50.1395 35.2282 50.4436 35.1971C53.3933 35.1971 54.6896 31.1685 54.8448 30.7494L54.4567 30.5786C54.1773 31.2539 53.1138 33.8543 51.7399 33.8543C51.15 33.8543 50.9171 33.4351 50.9637 32.721C50.9841 32.3242 51.0492 31.931 51.1578 31.5489H51.119ZM48.8912 28.7778C47.983 31.8361 46.5625 34.2113 44.8781 34.2113C43.6983 34.2113 43.1472 33.4351 43.186 31.7818C43.3102 28.0481 45.3516 21.3726 45.8251 19.9056C46.6013 17.4294 47.7113 16.0244 49.1241 16.0244C50.4204 16.0244 51.0491 17.2354 51.0103 18.6248C50.9327 20.6818 50.0245 24.788 48.8912 28.8166" fill="black" fill-opacity="0.55"/>
<path d="M36.2623 33.8549C35.6724 33.8549 35.4861 33.5212 35.4861 32.8459C35.4851 32.4091 35.5372 31.9738 35.6413 31.5496L42.9533 1.50977H37.5198L37.4034 2.01431H39.9571L33.0798 30.5017C32.834 31.3618 32.6881 32.2473 32.6451 33.1408C32.6279 33.4283 32.6743 33.7161 32.7812 33.9836C32.888 34.2511 33.0526 34.4917 33.2632 34.6882C33.4738 34.8847 33.7252 35.0323 33.9994 35.1204C34.2736 35.2085 34.564 35.2349 34.8496 35.1978C37.7604 35.1978 39.1731 31.3167 39.3672 30.7501L38.9791 30.5793C38.6997 31.2934 37.5198 33.8549 36.2623 33.8549Z" fill="black" fill-opacity="0.55"/>
<path d="M86.0256 8.55469C85.7898 8.56778 85.5592 8.62921 85.3482 8.73514C85.1371 8.84108 84.9501 8.98927 84.7987 9.17051C84.6473 9.35175 84.5347 9.56218 84.4681 9.78873C84.4014 10.0153 84.382 10.2531 84.4111 10.4875C84.3942 10.6939 84.4187 10.9017 84.4834 11.0985C84.548 11.2953 84.6513 11.4771 84.7873 11.6334C84.9233 11.7896 85.0892 11.9171 85.2752 12.0082C85.4612 12.0994 85.6636 12.1524 85.8704 12.1641C86.1007 12.1485 86.3257 12.087 86.5319 11.9832C86.7381 11.8794 86.9215 11.7353 87.0712 11.5596C87.2209 11.3838 87.334 11.1799 87.4037 10.9598C87.4734 10.7396 87.4984 10.5078 87.4772 10.2779C87.5007 10.0684 87.4813 9.8563 87.4202 9.65453C87.3591 9.45276 87.2576 9.26554 87.1218 9.1043C86.986 8.94306 86.8187 8.81118 86.6303 8.71668C86.4418 8.62219 86.2361 8.56707 86.0256 8.55469Z" fill="black" fill-opacity="0.55"/>
<path d="M95.3016 15.2715C91.9173 15.2715 90.1552 17.8253 89.1306 21.1009C88.0762 24.0817 87.4922 27.2085 87.3997 30.369C87.3997 32.3018 88.2302 35.1971 91.8008 35.1971C95.5345 35.1971 97.149 30.206 97.3819 29.6161L96.8773 29.3677C96.365 30.664 94.9834 34.1026 92.5926 34.1026C91.0401 34.1026 90.2639 32.8451 90.2639 30.501C90.3877 27.1948 90.9998 23.9252 92.0803 20.7982C93.1359 17.3983 93.8113 15.8071 95.3792 15.8071C96.4038 15.8071 97.0326 16.3116 97.0326 16.9792C97.0326 17.9495 96.4426 18.4074 96.4426 19.3078C96.4311 19.4823 96.4547 19.6573 96.5122 19.8224C96.5696 19.9875 96.6597 20.1394 96.777 20.269C96.8943 20.3986 97.0365 20.5033 97.1951 20.5769C97.3537 20.6505 97.5254 20.6914 97.7001 20.6973C98.5617 20.6973 99.1129 19.9211 99.1129 18.7257C99.1129 17.5303 98.4453 15.287 95.3016 15.287" fill="black" fill-opacity="0.55"/>
<path d="M28.205 33.8522C27.6927 33.8522 27.3822 33.5184 27.3822 32.8431C27.3985 32.4051 27.4636 31.9704 27.5762 31.5468L31.271 16.1931H34.2983L34.4147 15.6886H31.3875L32.9399 9.22266H30.13L28.5776 15.6886H26.2489L26.1325 16.1931H28.4611L25.0225 30.4989C24.7628 31.3558 24.6166 32.2431 24.5878 33.1381C24.5746 33.4245 24.6239 33.7104 24.7321 33.9759C24.8404 34.2415 25.005 34.4803 25.2147 34.676C25.4243 34.8716 25.674 35.0193 25.9464 35.109C26.2188 35.1986 26.5074 35.228 26.7922 35.195C29.7807 35.195 31.077 31.3139 31.3099 30.7473L30.914 30.5765C30.6423 31.2518 29.5013 33.8522 28.205 33.8522Z" fill="black" fill-opacity="0.55"/>
<path d="M3.99456 11.6249H3.04757L5.29085 2.26362H5.67896C6.70358 2.26362 6.93644 2.39557 6.62595 4.28179H6.85882L7.40994 1.95312H2.14715L1.59603 4.28179H1.8289C2.41883 2.68277 2.65946 2.26362 3.71512 2.26362H4.18861L1.94533 11.6249H1.08372L1.0061 11.9121H3.91694L3.99456 11.6249Z" fill="black" fill-opacity="0.55"/>
<path d="M6.11377 11.9102H7.09957L8.11642 7.7186C8.39586 6.62413 8.98579 5.66161 9.61453 5.66161C9.6823 5.65715 9.75025 5.66707 9.81391 5.69074C9.87757 5.71441 9.9355 5.75128 9.98389 5.79894C10.0323 5.8466 10.07 5.90396 10.0947 5.96725C10.1193 6.03054 10.1303 6.09833 10.1268 6.16616C10.1106 6.46434 10.0558 6.75917 9.96383 7.04329L9.18761 10.2801C9.10315 10.5948 9.05113 10.9174 9.03237 11.2427C9.02139 11.3473 9.03392 11.453 9.06905 11.5522C9.10417 11.6514 9.16101 11.7415 9.2354 11.8158C9.30979 11.8902 9.39986 11.9471 9.49903 11.9822C9.59819 12.0173 9.70396 12.0299 9.80859 12.0189C10.8332 12.0189 11.2601 10.7536 11.361 10.4664L11.1592 10.381C11.0428 10.676 10.6935 11.4678 10.2588 11.4678C10.1036 11.4678 10.0259 11.3824 10.0259 11.134C10.0441 10.8726 10.0831 10.613 10.1424 10.3578L10.9186 7.21406C11.0115 6.87211 11.0636 6.52036 11.0738 6.16616C11.0799 6.028 11.0564 5.89014 11.0048 5.76182C10.9533 5.63349 10.8749 5.51767 10.7749 5.42211C10.675 5.32656 10.5557 5.25347 10.4252 5.20776C10.2947 5.16205 10.1559 5.14477 10.0182 5.15707C9.69417 5.19391 9.38385 5.30841 9.11358 5.49084C8.8433 5.67328 8.62106 5.91826 8.46572 6.20497L9.49034 1.9668H7.84474L7.76712 2.26176H8.43468L6.11377 11.9102Z" fill="black" fill-opacity="0.55"/>
<path d="M13.348 12.0437C14.6443 12.0437 15.273 10.4446 15.3895 10.1109L15.1566 9.98668C14.9237 10.5688 14.3804 11.5391 13.5421 11.5391C13.0298 11.5391 12.7658 11.1588 12.7658 10.4912C12.7741 10.0525 12.8261 9.61561 12.9211 9.18717C14.1398 8.8922 16.189 7.80549 16.189 6.29186C16.2046 6.13508 16.1844 5.97679 16.13 5.82895C16.0755 5.68111 15.9881 5.54758 15.8745 5.43843C15.7609 5.32928 15.6239 5.24738 15.474 5.1989C15.3241 5.15042 15.1651 5.13663 15.0091 5.15857C13.4567 5.15857 11.8188 7.80549 11.8188 10.3205C11.8188 11.2442 12.1759 12.0437 13.3713 12.0437H13.348ZM15.0246 5.45354C15.3739 5.45354 15.4904 5.62431 15.4904 5.95808C15.406 6.62996 15.1265 7.26236 14.6864 7.77698C14.2463 8.2916 13.6649 8.66584 13.0142 8.85339C13.3713 7.09137 14.2717 5.45354 15.0246 5.45354Z" fill="black" fill-opacity="0.55"/>
<path d="M23.9589 0.841797L2.62055 34.3125H0.889576L0.765381 34.817H6.11355L6.22999 34.3125H3.24929L11.4307 21.4815H19.0687L17.7103 34.3125H15.1954L15.0789 34.817H22.8411L22.9653 34.3125H20.7764L24.316 0.841797H23.9589ZM19.1308 20.9304H11.78L20.5047 7.25339H20.5823L19.1308 20.9304Z" fill="black" fill-opacity="0.55"/>
</g>
<defs>
<clipPath id="clip0_4628_39959">
<rect width="98.5802" height="34.93" fill="white" transform="translate(0.765381 0.486328)"/>
</clipPath>
</defs>
</svg>
