<svg width="160" height="39" viewBox="0 0 160 39" fill="none" xmlns="http://www.w3.org/2000/svg">
<g clip-path="url(#clip0_1509_12656)">
<path d="M42.0473 13.8223H58.2479V16.8223H51.8778V33.6868H48.375V16.8223H42.0332V13.8223H42.0473ZM57.5558 19.3036H60.5502V22.0793H60.6067C60.7055 21.6868 60.8891 21.3082 61.1575 20.9438C61.4259 20.5793 61.7507 20.2288 62.1321 19.9344C62.5134 19.626 62.9372 19.3877 63.4033 19.1914C63.8694 19.0092 64.3496 18.911 64.8298 18.911C65.197 18.911 65.4654 18.9251 65.6067 18.9391C65.7479 18.9531 65.8891 18.9811 66.0445 18.9952V22.0512C65.8185 22.0092 65.5925 21.9811 65.3524 21.9531C65.1123 21.9251 64.8863 21.9111 64.6603 21.9111C64.1236 21.9111 63.6151 22.0232 63.1349 22.2335C62.6547 22.4438 62.2451 22.7662 61.892 23.1727C61.5389 23.5933 61.2564 24.098 61.0445 24.7148C60.8326 25.3316 60.7338 26.0325 60.7338 26.8316V33.6727H57.5417V19.3036H57.5558ZM80.7196 33.6868H77.5841V31.6821H77.5276C77.1321 32.411 76.553 32.9858 75.7761 33.4204C74.9993 33.855 74.2083 34.0793 73.4033 34.0793C71.4965 34.0793 70.1123 33.6167 69.2648 32.6774C68.4174 31.7382 67.9937 30.3223 67.9937 28.4297V19.3036H71.1857V28.1213C71.1857 29.383 71.4259 30.2802 71.9202 30.7989C72.4004 31.3176 73.0925 31.5839 73.9682 31.5839C74.6462 31.5839 75.197 31.4858 75.649 31.2755C76.101 31.0653 76.4682 30.7989 76.7366 30.4484C77.0191 30.112 77.2168 29.6914 77.3439 29.2148C77.4711 28.7382 77.5276 28.2195 77.5276 27.6587V19.3176H80.7196V33.6868ZM86.1575 29.0746C86.2564 29.9998 86.6095 30.6447 87.2168 31.0232C87.8383 31.3877 88.5728 31.5839 89.4343 31.5839C89.7309 31.5839 90.0699 31.5559 90.4513 31.5139C90.8326 31.4718 91.1999 31.3737 91.5247 31.2475C91.8637 31.1213 92.1321 30.9251 92.3581 30.6727C92.5699 30.4204 92.6688 30.098 92.6547 29.6914C92.6406 29.2849 92.4852 28.9484 92.2027 28.6961C91.9202 28.4297 91.5671 28.2335 91.1293 28.0653C90.6914 27.911 90.197 27.7709 89.6321 27.6587C89.0671 27.5466 88.5021 27.4204 87.923 27.2942C87.3298 27.1681 86.7507 26.9998 86.1999 26.8176C85.649 26.6353 85.1547 26.383 84.7168 26.0606C84.279 25.7522 83.9259 25.3456 83.6716 24.855C83.4033 24.3643 83.2761 23.7615 83.2761 23.0325C83.2761 22.2475 83.4739 21.6026 83.8552 21.0699C84.2366 20.5372 84.7309 20.1167 85.31 19.7942C85.9033 19.4718 86.553 19.2475 87.2733 19.1073C87.9937 18.9811 88.6857 18.911 89.3355 18.911C90.0841 18.911 90.8044 18.9952 91.4824 19.1494C92.1603 19.3036 92.7818 19.5559 93.3326 19.9204C93.8835 20.2709 94.3355 20.7335 94.7027 21.2942C95.0699 21.855 95.2959 22.5419 95.3948 23.341H92.0615C91.9061 22.5839 91.5671 22.0653 91.0163 21.8129C90.4654 21.5466 89.8298 21.4204 89.1236 21.4204C88.8976 21.4204 88.6292 21.4344 88.3185 21.4765C88.0078 21.5185 87.7253 21.5886 87.4428 21.6868C87.1744 21.7849 86.9485 21.9391 86.7507 22.1353C86.5671 22.3316 86.4682 22.5839 86.4682 22.9064C86.4682 23.2989 86.6095 23.6073 86.8778 23.8456C87.1462 24.0839 87.4993 24.2802 87.9372 24.4484C88.375 24.6026 88.8694 24.7428 89.4343 24.855C89.9993 24.9671 90.5784 25.0933 91.1716 25.2195C91.7507 25.3456 92.3157 25.5139 92.8807 25.6961C93.4456 25.8783 93.94 26.1307 94.3778 26.4531C94.8157 26.7755 95.1688 27.1681 95.4372 27.6447C95.7055 28.1213 95.8468 28.7241 95.8468 29.4251C95.8468 30.2802 95.649 30.9952 95.2536 31.598C94.8581 32.1868 94.3496 32.6774 93.7281 33.0419C93.1067 33.4064 92.4004 33.6867 91.6377 33.855C90.875 34.0232 90.1123 34.1073 89.3637 34.1073C88.4456 34.1073 87.5982 34.0092 86.8213 33.7989C86.0445 33.5886 85.3665 33.2802 84.8016 32.8737C84.2366 32.4531 83.7846 31.9344 83.4598 31.3176C83.1349 30.7008 82.9654 29.9578 82.9372 29.1026H86.1575V29.0746ZM96.6942 19.3036H99.1095V14.9858H102.302V19.3036H105.183V21.6727H102.302V29.355C102.302 29.6914 102.316 29.9718 102.344 30.2241C102.372 30.4625 102.443 30.6727 102.542 30.841C102.641 31.0092 102.796 31.1353 103.008 31.2195C103.22 31.3036 103.488 31.3456 103.855 31.3456C104.081 31.3456 104.307 31.3456 104.533 31.3316C104.759 31.3176 104.985 31.2896 105.211 31.2335V33.6868C104.858 33.7288 104.505 33.7568 104.18 33.7989C103.841 33.841 103.502 33.855 103.149 33.855C102.302 33.855 101.624 33.7709 101.115 33.6167C100.607 33.4625 100.197 33.2241 99.9146 32.9157C99.618 32.6073 99.4343 32.2288 99.3213 31.7662C99.2225 31.3036 99.1519 30.7709 99.1377 30.1821V21.7008H96.7225V19.3036H96.6942ZM107.443 19.3036H110.465V21.2522H110.522C110.974 20.4111 111.595 19.8223 112.4 19.4578C113.206 19.0933 114.067 18.911 115.013 18.911C116.157 18.911 117.146 19.1073 117.994 19.5139C118.841 19.9064 119.547 20.4531 120.112 21.154C120.677 21.855 121.087 22.6681 121.369 23.5933C121.652 24.5185 121.793 25.5139 121.793 26.5653C121.793 27.5325 121.666 28.4718 121.412 29.369C121.158 30.2802 120.776 31.0793 120.268 31.7802C119.759 32.4811 119.109 33.0279 118.319 33.4484C117.528 33.869 116.609 34.0793 115.536 34.0793C115.07 34.0793 114.604 34.0372 114.138 33.9531C113.672 33.869 113.22 33.7288 112.796 33.5466C112.372 33.3643 111.963 33.126 111.609 32.8316C111.242 32.5372 110.946 32.2008 110.691 31.8223H110.635V38.9998H107.443V19.3036ZM118.601 26.5092C118.601 25.8643 118.516 25.2335 118.347 24.6167C118.177 23.9998 117.923 23.4671 117.584 22.9905C117.245 22.5139 116.821 22.1353 116.327 21.855C115.819 21.5746 115.239 21.4204 114.59 21.4204C113.248 21.4204 112.231 21.883 111.553 22.8082C110.875 23.7335 110.536 24.9671 110.536 26.5092C110.536 27.2382 110.621 27.911 110.804 28.5279C110.988 29.1447 111.242 29.6774 111.609 30.126C111.963 30.5746 112.386 30.9251 112.881 31.1774C113.375 31.4438 113.954 31.5699 114.604 31.5699C115.338 31.5699 115.946 31.4157 116.454 31.1213C116.963 30.8269 117.372 30.4344 117.697 29.9718C118.022 29.4952 118.262 28.9625 118.403 28.3596C118.53 27.7568 118.601 27.14 118.601 26.5092ZM124.237 13.8223H127.429V16.8223H124.237V13.8223ZM124.237 19.3036H127.429V33.6868H124.237V19.3036ZM130.282 13.8223H133.474V33.6868H130.282V13.8223ZM143.262 34.0793C142.104 34.0793 141.073 33.883 140.169 33.5045C139.265 33.126 138.502 32.5933 137.867 31.9344C137.245 31.2615 136.765 30.4625 136.44 29.5372C136.115 28.612 135.946 27.5886 135.946 26.4811C135.946 25.3877 136.115 24.3783 136.44 23.4531C136.765 22.5279 137.245 21.7288 137.867 21.0559C138.488 20.383 139.265 19.8643 140.169 19.4858C141.073 19.1073 142.104 18.911 143.262 18.911C144.42 18.911 145.451 19.1073 146.355 19.4858C147.259 19.8643 148.022 20.397 148.658 21.0559C149.279 21.7288 149.759 22.5279 150.084 23.4531C150.409 24.3783 150.578 25.3877 150.578 26.4811C150.578 27.5886 150.409 28.612 150.084 29.5372C149.759 30.4625 149.279 31.2615 148.658 31.9344C148.036 32.6073 147.259 33.126 146.355 33.5045C145.451 33.883 144.42 34.0793 143.262 34.0793ZM143.262 31.5699C143.968 31.5699 144.59 31.4157 145.112 31.1213C145.635 30.8269 146.059 30.4344 146.398 29.9578C146.737 29.4811 146.977 28.9344 147.146 28.3316C147.302 27.7288 147.386 27.112 147.386 26.4811C147.386 25.8643 147.302 25.2615 147.146 24.6447C146.991 24.0279 146.737 23.4952 146.398 23.0185C146.059 22.5419 145.635 22.1634 145.112 21.869C144.59 21.5746 143.968 21.4204 143.262 21.4204C142.556 21.4204 141.934 21.5746 141.412 21.869C140.889 22.1634 140.465 22.5559 140.126 23.0185C139.787 23.4952 139.547 24.0279 139.378 24.6447C139.222 25.2615 139.138 25.8643 139.138 26.4811C139.138 27.112 139.222 27.7288 139.378 28.3316C139.533 28.9344 139.787 29.4811 140.126 29.9578C140.465 30.4344 140.889 30.8269 141.412 31.1213C141.934 31.4297 142.556 31.5699 143.262 31.5699ZM151.511 19.3036H153.926V14.9858H157.118V19.3036H159.999V21.6727H157.118V29.355C157.118 29.6914 157.132 29.9718 157.16 30.2241C157.189 30.4625 157.259 30.6727 157.358 30.841C157.457 31.0092 157.612 31.1353 157.824 31.2195C158.036 31.3036 158.304 31.3456 158.672 31.3456C158.898 31.3456 159.124 31.3456 159.35 31.3316C159.576 31.3176 159.802 31.2896 160.028 31.2335V33.6868C159.674 33.7288 159.321 33.7568 158.996 33.7989C158.658 33.841 158.319 33.855 157.965 33.855C157.118 33.855 156.44 33.7709 155.932 33.6167C155.423 33.4625 155.013 33.2241 154.731 32.9157C154.434 32.6073 154.251 32.2288 154.138 31.7662C154.039 31.3036 153.968 30.7709 153.954 30.1821V21.7008H151.539V19.3036H151.511Z" fill="#444444"/>
<path d="M38.3192 13.8224H23.6864L19.1667 0L14.6328 13.8224L0 13.8084L11.8503 22.3598L7.31638 36.1682L19.1667 27.6308L31.0028 36.1682L26.4831 22.3598L38.3192 13.8224Z" fill="#00B67A"/>
<path d="M27.4993 25.486L26.4824 22.3599L19.166 27.6309L27.4993 25.486Z" fill="#005128"/>
</g>
<defs>
<clipPath id="clip0_1509_12656">
<rect width="160" height="39" fill="white"/>
</clipPath>
</defs>
</svg>
