<svg width="141" height="26" viewBox="0 0 141 26" fill="none" xmlns="http://www.w3.org/2000/svg">
<path d="M26.325 0H0V26H26.325V0Z" fill="#00B67A"/>
<path d="M54.8445 0H28.5195V26H54.8445V0Z" fill="#00B67A"/>
<path d="M83.3602 0H57.0352V26H83.3602V0Z" fill="#00B67A"/>
<path d="M111.88 0H85.5547V26H111.88V0Z" fill="#00B67A"/>
<path d="M13.163 17.5229L17.1666 16.5208L18.8393 21.6125L13.163 17.5229ZM22.3767 10.9416H15.3293L13.163 4.38745L10.9966 10.9416H3.94922L9.65297 15.0041L7.48664 21.5583L13.1904 17.4958L16.7004 15.0041L22.3767 10.9416Z" fill="white"/>
<path d="M41.6824 17.5229L45.6861 16.5208L47.3588 21.6125L41.6824 17.5229ZM50.8962 10.9416H43.8489L41.6824 4.38745L39.5161 10.9416H32.4688L38.1725 15.0041L36.0061 21.5583L41.7099 17.4958L45.2199 15.0041L50.8962 10.9416Z" fill="white"/>
<path d="M70.1982 17.5229L74.2018 16.5208L75.8745 21.6125L70.1982 17.5229ZM79.4119 10.9416H72.3645L70.1982 4.38745L68.0319 10.9416H60.9844L66.6882 15.0041L64.5219 21.5583L70.2256 17.4958L73.7356 15.0041L79.4119 10.9416Z" fill="white"/>
<path d="M98.7215 17.5229L102.725 16.5208L104.398 21.6125L98.7215 17.5229ZM107.935 10.9416H100.888L98.7215 4.38745L96.5552 10.9416H89.5078L95.2115 15.0041L93.0452 21.5583L98.7489 17.4958L102.259 15.0041L107.935 10.9416Z" fill="white"/>
<path d="M140.399 0H114.074V26H140.399V0Z" fill="#DFDFDF"/>
<path d="M127.237 17.5229L131.241 16.5208L132.914 21.6125L127.237 17.5229ZM136.451 10.9416H129.404L127.237 4.38745L125.071 10.9416H118.023L123.727 15.0041L121.561 21.5583L127.265 17.4958L130.775 15.0041L136.451 10.9416Z" fill="white"/>
</svg>
