<svg width="74" height="46" viewBox="0 0 74 46" fill="none" xmlns="http://www.w3.org/2000/svg">
<path d="M61.7945 43.7765C61.5687 43.7765 61.3522 43.8699 61.1926 44.0361C61.0329 44.2024 60.9431 44.428 60.9431 44.6631C60.9431 44.8983 61.0329 45.1238 61.1926 45.2902C61.3522 45.4565 61.5687 45.5499 61.7945 45.5499C61.9039 45.5485 62.0118 45.5242 62.1121 45.4785C62.2123 45.4329 62.3027 45.3667 62.3779 45.2841C62.4532 45.2014 62.5117 45.1039 62.5501 44.9972C62.5886 44.8906 62.6061 44.777 62.6017 44.6631C62.6046 44.5497 62.5861 44.4368 62.5471 44.3308C62.5081 44.2249 62.4494 44.128 62.3745 44.0456C62.2996 43.9633 62.2097 43.8971 62.1102 43.851C62.0107 43.8047 61.9034 43.7795 61.7945 43.7765ZM32.6608 45.5154H36.3425V45.1699L35.9556 45.0777C35.5908 44.9741 35.4249 44.7783 35.4249 44.2256V39.0433H36.2762C36.807 39.0433 37.0833 39.1816 37.1054 40.3447L37.2049 42.786C37.2713 44.9741 37.8794 45.5844 38.9076 45.5844C39.9359 45.5844 40.2234 44.8359 40.2234 43.7995V43.3618H39.8032V43.6728C39.8032 44.3868 39.7148 44.8244 39.4605 44.8244C39.2062 44.8244 39.1951 44.6286 39.1619 43.7534L39.0514 42.0836C38.8966 39.838 38.6313 39.0433 37.0392 38.744C37.7489 38.595 38.3854 38.19 38.8365 37.6C39.2875 37.0102 39.5241 36.2734 39.5047 35.5195C39.5132 35.0878 39.4356 34.6591 39.2768 34.2603C39.118 33.8614 38.8815 33.5013 38.5822 33.2025C38.2829 32.9039 37.9274 32.673 37.538 32.5247C37.1487 32.3765 36.7342 32.314 36.3205 32.3411H30.1178V32.6751L30.4606 32.7557C31.1239 32.9169 31.146 33.2624 31.146 34.8055V42.3945C31.146 44.0873 30.6927 44.9166 29.6423 44.9166C28.592 44.9166 28.205 44.4443 28.205 42.6133V33.6539C28.205 33.1242 28.3819 32.963 28.78 32.8594L29.2665 32.7442V32.4102H25.4298V32.7442L25.8279 32.8594C26.1928 32.986 26.3255 33.1357 26.3255 33.677V42.5212C26.2796 42.9268 26.3196 43.3378 26.4425 43.7256C26.5655 44.1133 26.7684 44.4684 27.037 44.7657C27.3057 45.0631 27.6336 45.2957 27.9977 45.4471C28.3619 45.5985 28.7533 45.665 29.1449 45.642C30.8476 45.642 31.6768 44.4904 31.6768 42.4867V34.1722C31.6768 33.1472 31.8868 32.7672 32.6829 32.7672C33.479 32.7672 33.5895 33.0091 33.5895 33.6194V44.2256C33.5895 44.7668 33.4236 44.9626 33.0588 45.0547L32.6608 45.1699V45.5154ZM57.2061 33.6539C57.2061 33.1242 57.383 32.9399 57.7368 32.8594L58.2344 32.7442V32.3872H54.4309V32.7212L54.829 32.8479C55.1828 32.963 55.3596 33.1242 55.3596 33.6539V44.3176C55.3596 44.8359 55.1496 45.1238 54.5747 45.1238C53.9997 45.1238 53.8228 44.8934 53.5907 43.7649L51.2467 32.3526H50.5059L48.2946 43.408C48.0292 44.6516 47.9186 44.9281 47.4211 45.0892L47.1005 45.1699V45.5154H49.754V45.1699L49.3781 45.1008C48.8253 44.9741 48.6816 44.6862 48.958 43.2237L50.2848 36.1414L51.7221 43.6383C51.9543 44.7208 51.9321 44.9396 51.1361 45.0777L50.7602 45.1584V45.4923H60.4567V41.1508H60.1139C59.926 43.143 59.5501 45.0317 57.9912 45.0317H57.2504V33.6539H57.2061ZM51.4899 41.9684V41.4617H49.0354L48.958 41.9684H51.4899ZM41.2848 33.9073V43.0164C41.2848 44.3983 41.2848 45.0201 40.6214 45.1469L40.3008 45.2044V45.5384H42.9875V45.1699C41.8156 44.9856 41.8155 44.5711 41.8155 43.097V34.4255L41.3843 34.011L45.8732 45.5269H46.6472V34.9207C46.6472 33.366 46.6472 33.0091 47.388 32.8133L47.6534 32.7327V32.3987H44.8671V32.7327L45.1656 32.8133C46.0943 32.986 46.0943 33.366 46.0943 34.8055V41.4272H46.2823L42.877 32.4333H40.2676V32.7672L40.533 32.8479C40.8205 32.9514 40.9862 33.2854 41.2848 33.9188V33.9073ZM35.3806 32.8364H36.1103C36.8511 32.8364 37.5146 33.32 37.5146 35.8074C37.5146 38.2949 37.006 38.5943 35.9777 38.5943H35.3806V32.8364ZM23.2185 38.8015C23.2185 44.3061 22.7874 45.1008 21.8365 45.1008C20.8856 45.1008 20.4766 44.3061 20.4766 38.8476C20.4766 33.3891 20.9299 32.7902 21.8365 32.7902C22.7431 32.7902 23.2185 33.5619 23.2185 38.8015ZM25.2198 38.9282C25.2198 35.2777 24.1141 32.2836 21.8365 32.2836C19.5588 32.2836 18.4642 35.3008 18.4642 38.9282C18.4642 42.5557 19.5699 45.5844 21.8365 45.5844C24.1031 45.5844 25.2198 42.5903 25.2198 38.9282ZM17.4029 33.6539C17.4029 33.1242 17.5355 32.9399 17.8893 32.8479L18.2874 32.7212V32.3872H14.5061V32.7212L14.9594 32.8479C15.3132 32.9399 15.5232 33.0782 15.5232 33.6309V42.8437C15.5232 44.1334 15.4127 45.1469 14.5061 45.1469C14.2693 45.1644 14.0347 45.0891 13.8485 44.9356C13.6624 44.7822 13.538 44.5618 13.4999 44.3176C13.4999 43.7188 14.5061 43.7649 14.6056 42.8206C14.6413 42.6929 14.6483 42.5582 14.6259 42.427C14.6035 42.296 14.5522 42.1722 14.4762 42.0652C14.4003 41.9581 14.3015 41.8708 14.1878 41.8101C14.0741 41.7493 13.9483 41.7169 13.8205 41.7151C13.6431 41.7078 13.4662 41.74 13.3016 41.8095C13.1369 41.8791 12.9885 41.9845 12.8661 42.1185C12.7436 42.2525 12.6501 42.4122 12.5916 42.5869C12.5332 42.7616 12.5111 42.9473 12.527 43.1315C12.5088 43.4454 12.5526 43.7599 12.6557 44.0555C12.7586 44.3511 12.9186 44.6215 13.1258 44.8503C13.3329 45.0789 13.5829 45.2611 13.8602 45.3853C14.1376 45.5096 14.4364 45.5735 14.7383 45.5729C15.1193 45.581 15.4974 45.5035 15.8471 45.3457C16.1968 45.1879 16.5098 44.9536 16.7647 44.6586C17.0196 44.3636 17.2105 44.0147 17.3245 43.6361C17.4384 43.2572 17.4727 42.8574 17.425 42.4637V33.6079L17.4029 33.6539ZM19.7026 17.5317C19.7026 17.002 19.8795 16.8177 20.2333 16.7371L20.7309 16.6219V16.2649H16.9274V16.5989L17.3255 16.7255C17.6793 16.8407 17.8561 17.002 17.8561 17.5317V28.1954C17.8561 28.7136 17.6461 29.0015 17.0712 29.0015C16.4962 29.0015 16.2972 28.7712 16.0761 27.6426L13.7432 16.2304H13.0024L10.7911 27.2856C10.5036 28.4718 10.3931 28.7482 9.95082 28.9094L9.59701 29.0476V29.393H12.1621V29.0476L11.7862 28.9785C11.2334 28.8519 11.0896 28.5639 11.3661 27.1014L12.6928 20.0076L14.1302 27.539C14.3402 28.6215 14.3402 28.8404 13.5442 28.9785L13.2677 29.0476V29.393H22.9642V25.0055H22.6215C22.4336 26.9978 22.0576 28.8864 20.4987 28.8864H19.7579L19.7026 17.5317ZM70.6508 16.7255H71.0487C72.1544 16.7255 72.5635 18.6141 72.6962 20.6064H73.0389V16.2074H66.4051V20.5489H66.7479C66.8805 18.5566 67.2564 16.668 68.3952 16.668H68.7933V28.0572C68.7933 28.5869 68.6163 28.7942 68.2625 28.8864L67.7871 29.0015V29.347H71.7565V29.0476L71.1925 28.9094C70.8498 28.8172 70.6619 28.7021 70.6619 28.1033V16.668L70.6508 16.7255ZM62.281 22.7945H62.856C63.6631 22.7945 63.9616 23.1284 64.0833 25.2127H64.426V19.8349H64.1274C63.9174 21.4932 63.7073 22.1956 62.9112 22.2187H62.3252V16.668H63.5968C65.0009 16.668 65.3215 18.522 65.5095 20.5489H65.8522V16.2074H59.5501V16.5413L59.9482 16.668C60.3572 16.7832 60.4677 17.0365 60.4677 17.4856V28.0572C60.4677 28.5869 60.3019 28.7942 59.9482 28.8864L59.5501 29.0015V29.347H66.0403V25.0055H65.6974C65.4653 26.9978 65.2441 28.8864 63.5968 28.8864H62.281V22.7368V22.7945ZM55.3928 22.7945H55.9567C56.7749 22.7945 57.0623 23.1284 57.195 25.2127H57.4936V19.8349H57.1398C56.9297 21.4932 56.7196 22.1956 55.9236 22.2187H55.3375V16.668H56.6091C58.0132 16.668 58.3339 18.5566 58.5218 20.5489H58.8645V16.2074H52.3966V16.5413L52.9936 16.668C53.4026 16.7832 53.5132 17.0365 53.5132 17.4856V28.0572C53.5132 28.5869 53.3474 28.7942 52.9936 28.8864L52.5956 29.0015V29.347H59.0857V25.0055H58.7429C58.5218 26.9978 58.2896 28.8864 56.6423 28.8864H55.3707V22.7368L55.3928 22.7945ZM47.8634 16.7255H48.4051C49.1459 16.7255 49.8094 17.2092 49.8094 19.6966C49.8094 22.1841 49.3007 22.4835 48.2724 22.4835H47.8634V16.7255ZM45.0993 29.393H48.7811V29.0476L48.3831 28.9554C48.0292 28.8519 47.8634 28.6561 47.8634 28.1033V22.9211H48.5378C49.0686 22.9211 49.3561 23.1514 49.3781 24.2224L49.4666 26.6638C49.544 28.8519 50.1521 29.4622 51.1693 29.4622C52.1864 29.4622 52.4961 28.7136 52.4961 27.6772V27.2396H52.1201V27.5505C52.1201 28.2646 52.0207 28.7597 51.7774 28.7597C51.5342 28.7597 51.512 28.5639 51.4788 27.6887L51.3572 26.0189C51.2135 23.7157 50.9261 22.9788 49.3561 22.6793C50.0648 22.5301 50.7 22.1245 51.1492 21.5344C51.5985 20.9443 51.8328 20.2076 51.8105 19.4548C51.825 19.0214 51.7526 18.5897 51.5979 18.187C51.4433 17.7844 51.2097 17.4197 50.9122 17.1163C50.6147 16.8129 50.2597 16.5774 49.8699 16.4249C49.4801 16.2723 49.0641 16.2062 48.6484 16.2304H45.1324V16.5644L45.5305 16.6795C45.8843 16.8062 46.0612 16.9559 46.0612 17.4856V28.0572C46.0612 28.5869 45.8843 28.7942 45.5305 28.8864L45.1324 29.0015V29.347L45.0993 29.393ZM42.291 16.7255H42.6889C43.7946 16.7255 44.2037 18.6141 44.3364 20.6064H44.6791V16.2074H38.0452V20.5489H38.377C38.5097 18.5566 38.8966 16.668 40.0243 16.668H40.4224V28.0572C40.4224 28.5869 40.2565 28.7942 39.8917 28.8864L39.4273 29.0015V29.347H43.286V29.0476L42.8106 28.9324C42.3351 28.8172 42.2799 28.4372 42.2799 28.1033L42.291 16.7255ZM38.0673 25.9383C38.0673 22.0344 33.9654 21.0095 33.9654 18.1766C33.9654 17.5662 34.1865 16.6565 35.0711 16.6565C36.3979 16.6565 36.8954 18.4299 37.1054 20.5834H37.4482V16.2304H37.216C37.1165 16.6449 36.9506 16.8407 36.7184 16.8407C36.3094 16.8407 36.0773 16.1497 35.0711 16.1497C34.6994 16.1652 34.3345 16.2595 33.999 16.427C33.6635 16.5946 33.3644 16.8317 33.1201 17.1239C32.8757 17.4162 32.6913 17.7574 32.5781 18.1264C32.4649 18.4956 32.4253 18.8849 32.4617 19.2706C32.4617 22.4835 36.5748 23.8769 36.5748 26.8135C36.5748 28.1839 35.9667 28.9324 35.1484 28.9324C33.9212 28.9324 33.1252 27.4238 32.9371 25.0055H32.5944V29.347H32.8155C33.0035 28.7136 33.2357 28.6561 33.4458 28.6561C33.6559 28.6561 34.1644 29.4161 35.2259 29.4161C35.6329 29.39 36.0309 29.2794 36.3962 29.0903C36.7614 28.9014 37.0866 28.6382 37.3526 28.3161C37.6185 27.9941 37.8198 27.6197 37.9444 27.2152C38.0691 26.8109 38.1147 26.3845 38.0784 25.9613L38.0673 25.9383ZM26.0822 17.5317C26.0822 17.002 26.2591 16.8177 26.6128 16.7371L27.1104 16.6219V16.2649H23.3071V16.5989L23.705 16.7255C24.0588 16.8407 24.2358 17.002 24.2358 17.5317V28.1148C24.2358 28.6446 24.0588 28.8519 23.705 28.9439L23.3071 29.0591V29.4046H29.2885V25.0055H28.9458C28.7579 26.9978 28.3819 28.8864 26.823 28.8864H26.0822V17.5317ZM13.9753 25.7885V25.2819H11.5097L11.4324 25.7885H13.9753ZM3.40539 29.3815H4.16829L5.87098 20.0191H5.60563L7.47416 29.3815H8.13756L10.3488 18.3148C10.6031 17.1632 10.7137 16.7602 11.167 16.6449L11.5097 16.5413V16.2074H8.93362V16.5413L9.30953 16.6219C9.86236 16.7371 9.99504 17.0825 9.72968 18.499L8.29234 25.9153H8.52453L7.06508 18.1075C6.91028 17.359 6.81078 16.7371 7.41889 16.6449L7.81692 16.5644V16.2304H4.27884V16.5644L4.5221 16.6219C4.88696 16.7255 4.94224 16.9444 5.09702 17.6698L5.66091 20.5027L5.52823 18.7984L4.25673 25.708H4.42259L2.97419 18.1075C2.79728 17.3129 2.742 16.7255 3.328 16.6219L3.61546 16.5644V16.2304H0V16.5644L0.34275 16.668C0.663387 16.7602 0.851348 16.9444 1.08353 17.9808L3.40539 29.3815ZM44.4691 6.79885H45.0329C45.8511 6.79885 46.1386 7.13281 46.2713 9.22871H46.614V3.9429H46.2713C46.0612 5.60119 45.8511 6.31518 45.0551 6.3267H44.4691V0.706929H45.7405C47.1337 0.706929 47.4654 2.56099 47.6534 4.59931H47.9961V0.257812H41.6829V0.591771L42.0808 0.706929C42.501 0.833607 42.6116 1.08695 42.6116 1.53608V12.1077C42.6116 12.6374 42.4457 12.8332 42.0808 12.9368L41.6829 13.052V13.386H48.184V9.05597H47.8413C47.6091 11.0482 47.388 12.9368 45.7405 12.9368H44.4691V6.79885ZM32.9593 13.386H36.7074V13.052L36.2873 12.9253C35.9667 12.8447 35.7455 12.6259 35.7455 12.0732V6.90249H38.5097V12.1077C38.5368 12.296 38.495 12.4881 38.3926 12.646C38.2902 12.8038 38.1347 12.9158 37.9568 12.9599L37.5367 13.052V13.386H41.2848V13.052L40.9089 12.9253C40.5551 12.8217 40.3781 12.6259 40.3781 12.0732V1.52457C40.3781 0.983315 40.5551 0.810578 40.9089 0.706929L41.307 0.591771V0.257812H37.5919V0.591771L38.0121 0.706929C38.1843 0.740704 38.3375 0.841863 38.4403 0.989634C38.5431 1.13742 38.5877 1.32059 38.5649 1.50153V6.39579H35.8008V1.50153C35.7719 1.3214 35.8128 1.1367 35.9142 0.987797C36.0158 0.838908 36.1698 0.737926 36.3425 0.706929L36.7627 0.591771V0.257812H32.9593V0.591771L33.3573 0.706929C33.7111 0.833607 33.8881 0.983315 33.8881 1.52457V12.1077C33.8881 12.6374 33.7111 12.8332 33.3573 12.9368L32.9593 13.052V13.386ZM30.162 0.706929H30.56C31.6657 0.706929 32.0748 2.60706 32.2074 4.59931H32.5392V0.257812H25.9053V4.59931H26.248C26.3696 2.56099 26.7455 0.706929 27.8844 0.706929H28.2825V12.1077C28.2825 12.6374 28.1166 12.8332 27.7517 12.9368L27.2763 13.052V13.386H31.2344V13.052L30.6706 12.9253C30.3279 12.8332 30.1399 12.7065 30.1399 12.1192V0.718449L30.162 0.706929Z" fill="black" fill-opacity="0.55"/>
</svg>
