<svg width="100" height="23" viewBox="0 0 100 23" fill="none" xmlns="http://www.w3.org/2000/svg">
<path d="M61.76 10.6292C60.9409 10.6292 60.3183 10.2851 59.9907 9.67897L58.3688 10.4817C58.9422 11.6121 60.1217 12.3166 61.76 12.3166C63.5949 12.3166 65.0693 11.3991 65.0693 9.71173C65.0693 6.56626 60.4985 7.50008 60.4985 5.96011C60.4985 5.35395 61.0719 5.05906 61.7436 5.05906C62.3989 5.05906 62.9559 5.33757 63.2836 5.91096L64.8727 5.12459C64.2665 4.02695 63.1361 3.38803 61.76 3.38803C60.0234 3.38803 58.6473 4.38737 58.6473 5.97649C58.6473 9.00728 63.2181 8.17177 63.2181 9.67897C63.2017 10.3507 62.5791 10.6292 61.76 10.6292ZM53.4376 5.94372C53.4376 5.33756 54.011 5.04268 54.6827 5.04268C55.338 5.04268 55.895 5.32118 56.2227 5.89458L57.8118 5.10821C57.2056 4.01057 56.0752 3.37165 54.6991 3.37165C52.9625 3.37165 51.6027 4.37099 51.6027 5.96011C51.6027 8.9909 56.1735 8.15538 56.1735 9.66259C56.1735 10.3343 55.551 10.6128 54.7318 10.6128C53.9127 10.6128 53.2902 10.2687 52.9625 9.66259L51.3406 10.4653C51.914 11.5957 53.11 12.3002 54.7318 12.3002C56.5667 12.3002 58.0411 11.3828 58.0411 9.69536C58.0084 6.54988 53.4376 7.48369 53.4376 5.94372ZM26.0949 7.81135C26.0786 9.43323 24.5877 10.7111 22.9003 10.3507C21.9174 10.1377 21.1146 9.33494 20.9016 8.35198C20.8525 8.15538 20.8361 7.94241 20.8361 7.74581C20.8361 7.71305 20.8361 7.68029 20.8361 7.63114C20.8361 7.56561 20.8361 7.51646 20.8525 7.45093C20.8525 7.41816 20.8689 7.36901 20.8689 7.33625C20.8853 7.2871 20.8853 7.22157 20.9016 7.17242C20.918 7.13966 20.918 7.09051 20.9344 7.05775C20.9508 7.0086 20.9672 6.95945 20.9835 6.89392C20.9999 6.86115 21.0163 6.82839 21.0163 6.79562C21.0327 6.74647 21.0655 6.69733 21.0818 6.64818C21.0982 6.61541 21.1146 6.58265 21.131 6.54988C21.1638 6.50073 21.1965 6.45159 21.2129 6.40244C21.2293 6.36967 21.2457 6.35329 21.2621 6.32053C21.3112 6.255 21.3603 6.18946 21.4095 6.12393C21.4095 6.12393 21.4259 6.10755 21.4259 6.09117C21.4914 6.02564 21.5406 5.96011 21.6061 5.89458C21.6225 5.87819 21.6389 5.86181 21.6716 5.84543C21.7208 5.79628 21.7699 5.76351 21.8191 5.71437C21.8518 5.69798 21.8682 5.6816 21.901 5.64884C21.9501 5.61607 21.9829 5.5833 22.032 5.55054C22.0648 5.53416 22.0976 5.51778 22.1303 5.48501C22.1795 5.45224 22.2286 5.43586 22.2778 5.4031C22.3105 5.38671 22.3433 5.37033 22.3761 5.35395C22.4252 5.33757 22.4744 5.3048 22.5235 5.28842C22.5563 5.27203 22.5891 5.25565 22.6218 5.25565C22.671 5.23927 22.7365 5.22289 22.7856 5.2065C22.8184 5.19012 22.8512 5.19012 22.8839 5.17374C22.9495 5.15736 23.015 5.15736 23.0641 5.14097C23.0969 5.14097 23.1297 5.12459 23.1624 5.12459C23.2607 5.10821 23.359 5.10821 23.4573 5.10821C24.899 5.10821 26.0622 6.27138 26.0786 7.71305V7.81135H26.0949ZM26.0949 4.15801C25.3577 3.61739 24.4567 3.30612 23.4737 3.30612C23.3099 3.30612 23.1624 3.3225 22.9986 3.33888C22.9495 3.33888 22.9003 3.35526 22.8512 3.35526C22.7529 3.37165 22.6382 3.38803 22.5399 3.40441C22.4744 3.42079 22.4252 3.43718 22.3597 3.45356C22.2778 3.46994 22.1795 3.50271 22.0976 3.51909C22.032 3.53547 21.9829 3.56824 21.9174 3.58462C21.8354 3.61739 21.7535 3.65015 21.6716 3.68292C21.6061 3.71568 21.5569 3.73206 21.4914 3.76483C21.4095 3.7976 21.344 3.84675 21.2621 3.87951C21.1965 3.91228 21.1474 3.94504 21.0982 3.9778C21.0327 4.02695 20.9672 4.05972 20.8853 4.10887C20.8361 4.14163 20.7706 4.19078 20.7214 4.22354C20.6559 4.27269 20.5904 4.32184 20.5248 4.37099C20.4757 4.42014 20.4265 4.4529 20.3774 4.50205C20.3119 4.5512 20.2627 4.61673 20.1972 4.68226C20.148 4.73141 20.0989 4.78056 20.0661 4.8297C20.017 4.89523 19.9678 4.96077 19.9187 5.0263C19.8695 5.07545 19.8368 5.14098 19.804 5.19012C19.7548 5.25565 19.7057 5.32118 19.6729 5.4031C19.6402 5.45224 19.6074 5.51778 19.5746 5.56692C19.5255 5.63245 19.4927 5.71437 19.46 5.79628C19.4272 5.86181 19.3944 5.91096 19.378 5.97649C19.3453 6.0584 19.3125 6.14032 19.2798 6.22223C19.2634 6.28776 19.2306 6.33691 19.2142 6.40244C19.1815 6.48435 19.1651 6.58265 19.1487 6.66456C19.1323 6.73009 19.1159 6.77924 19.0995 6.84477C19.0832 6.94306 19.0668 7.04136 19.0504 7.15604C19.0504 7.20519 19.034 7.25434 19.034 7.30349C19.0176 7.45093 19.0176 7.59837 19.0012 7.74581C19.0012 7.7622 19.0012 7.7622 19.0012 7.77858C19.0012 7.94241 19.0176 8.10624 19.034 8.27006C19.2634 10.3507 20.9508 12.0217 23.0314 12.2347C24.1946 12.3493 25.2594 12.0217 26.1113 11.3992V12.0545H27.9789V0.160645L26.1113 0.717654V4.15801H26.0949ZM83.7292 22.4902H85.564V14.004H83.7292V22.4902ZM30.5183 5.0263V3.601H28.6834V12.0872H30.5183V7.81135C30.5183 5.91096 31.9272 5.35395 33.1231 5.43586V3.45356C32.0582 3.45356 31.0261 3.86313 30.5183 5.0263ZM66.5929 20.9339C65.1021 20.9339 63.9389 19.8035 63.9389 18.2471C63.9389 16.7071 65.0857 15.5603 66.5929 15.5603C68.0837 15.5603 69.2469 16.6907 69.2469 18.2471C69.2305 19.7871 68.0837 20.9339 66.5929 20.9339ZM66.5929 13.791C64.1191 13.791 62.1204 15.7242 62.1204 18.2471C62.1204 20.7536 64.1191 22.7032 66.5929 22.7032C69.083 22.7032 71.0654 20.7536 71.0654 18.2471C71.0654 15.7242 69.083 13.791 66.5929 13.791ZM52.5366 20.9339C51.0457 20.9339 49.8826 19.8035 49.8826 18.2471C49.8826 16.7071 51.0294 15.5603 52.5366 15.5603C54.0274 15.5603 55.1906 16.6907 55.1906 18.2471C55.1742 19.7871 54.0274 20.9339 52.5366 20.9339ZM52.5366 13.791C50.0628 13.791 48.0641 15.7242 48.0641 18.2471C48.0641 20.7536 50.0628 22.7032 52.5366 22.7032C55.0267 22.7032 57.009 20.7536 57.009 18.2471C57.009 15.7242 55.0267 13.791 52.5366 13.791ZM25.4888 7.77858V7.81135V7.79497V7.77858ZM79.5352 19.869L77.7659 14.0204H76.0129L74.2436 19.869L72.6053 14.0204H70.6722L73.3425 22.5066H75.1446L76.9303 16.789L78.6997 22.5066H80.5018L83.1721 14.0204H81.239L79.5352 19.869ZM37.6447 5.04268C38.7424 5.04268 39.8236 5.66522 40.0694 7.12328H35.089C35.3348 5.86181 36.2686 5.04268 37.6447 5.04268ZM44.1323 13.791C42.9855 13.791 42.068 14.217 41.511 15.1016V10.4653C41.511 10.4653 41.511 10.4653 41.5274 10.449H41.511L40.0038 9.56429C39.9055 9.69535 39.8072 9.82642 39.6762 9.9411C39.2338 10.3343 38.6113 10.6128 37.8249 10.6128C36.4652 10.6128 35.4003 9.94109 35.1054 8.6141H41.8551C41.8878 8.38474 41.9206 8.10623 41.9206 7.84411C41.9206 5.4031 40.184 3.37165 37.6611 3.37165C34.9907 3.37165 33.1886 5.32118 33.1886 7.82773C33.1886 10.367 35.0071 12.2838 37.8085 12.2838C38.513 12.2838 39.1355 12.1528 39.6762 11.9234V22.4738H41.511V17.9358C41.511 16.1993 42.4612 15.4948 43.6735 15.4948C44.8203 15.4948 45.5739 16.1665 45.5739 17.4607V22.4738H47.4088V17.2641C47.3924 15.0689 46.0326 13.791 44.1323 13.791ZM76.9467 12.0708V7.53284C76.9467 5.79628 77.8969 5.09183 79.0929 5.09183C80.2396 5.09183 80.9932 5.76352 80.9932 7.05775V12.0708H82.8281V6.86115C82.8281 4.64949 81.4683 3.37165 79.568 3.37165C78.4212 3.37165 77.5037 3.7976 76.9467 4.68226V3.58462H75.1119V12.0708H76.9467ZM69.9186 5.04268C71.0162 5.04268 72.0975 5.66522 72.3432 7.12328H67.3629C67.625 5.86181 68.5588 5.04268 69.9186 5.04268ZM70.0824 12.3002C71.737 12.3002 73.0149 11.6121 73.8013 10.449L72.2941 9.56429C71.8845 10.1541 71.1309 10.6128 70.0988 10.6128C68.739 10.6128 67.6741 9.94109 67.3792 8.6141H74.1289C74.1617 8.38474 74.1944 8.10623 74.1944 7.84411C74.1944 5.4031 72.4579 3.37165 69.935 3.37165C67.2646 3.37165 65.4625 5.32118 65.4625 7.82773C65.4625 10.3834 67.281 12.3002 70.0824 12.3002ZM94.9513 20.7864L99.1289 15.7406V14.0368H92.6741V15.7406H96.8517L92.6741 20.7864V22.4902H99.1452V20.7864H94.9513ZM15.0366 3.37165C13.8899 3.37165 12.9724 3.7976 12.4154 4.68226V3.71568V3.58462H10.5642V4.28908V12.0872H12.399V7.53284C12.399 5.79628 13.3492 5.09183 14.5452 5.09183C15.6919 5.09183 16.4456 5.76352 16.4456 7.05775V12.0708H18.2804V6.86115C18.2968 4.66588 16.937 3.37165 15.0366 3.37165ZM89.6597 11.6285L87.8248 12.1691V14.004H86.2685V15.7733H87.8248V19.8362C87.8248 22.0479 88.9388 22.8179 91.7567 22.4902V20.8519C90.3641 20.9175 89.6597 20.9339 89.6597 19.8526V15.7897H91.773V14.0204H89.6761V11.6285H89.6597ZM62.1696 13.8566C61.1047 13.8566 60.0726 14.2825 59.5647 15.4293V14.004H57.7299V22.4902H59.5647V18.2143C59.5647 16.314 60.9736 15.7569 62.1696 15.8389V13.8566ZM46.7699 5.04268C47.8675 5.04268 48.9488 5.66522 49.1945 7.12328H44.2142C44.4599 5.86181 45.3937 5.04268 46.7699 5.04268ZM46.9173 12.3002C48.572 12.3002 49.8498 11.6121 50.6362 10.449L49.129 9.56429C48.7194 10.1541 47.9658 10.6128 46.9337 10.6128C45.5739 10.6128 44.5091 9.94109 44.2142 8.6141H50.9802C51.013 8.38474 51.0457 8.10623 51.0457 7.84411C51.0457 5.4031 49.3092 3.37165 46.7862 3.37165C44.1159 3.37165 42.3138 5.32118 42.3138 7.82773C42.3138 10.3834 44.1323 12.3002 46.9173 12.3002ZM7.95933 7.81135C7.94295 9.43323 6.45213 10.7111 4.76471 10.3507C3.78175 10.1377 2.979 9.33494 2.76603 8.35198C2.40561 6.64818 3.69984 5.15736 5.33811 5.15736C6.77978 5.15736 7.94295 6.32052 7.95933 7.7622V7.81135ZM7.95933 4.15801C7.22211 3.61739 6.32107 3.30612 5.33811 3.30612C2.7005 3.30612 0.587135 5.58331 0.882022 8.28645C1.11138 10.367 2.79879 12.0381 4.87939 12.251C6.04256 12.3657 7.10743 12.0381 7.95933 11.4155V12.0708H9.82696V8.08985V7.77858V3.56824H7.95933V4.15801ZM7.45147 7.77858V7.81135V7.79497V7.77858ZM83.7292 12.0872H85.564V10.4326H83.7292V12.0872Z" fill="#717475"/>
</svg>
