<svg width="81" height="30" viewBox="0 0 81 30" fill="none" xmlns="http://www.w3.org/2000/svg">
<g clip-path="url(#clip0_4628_39981)">
<path d="M3.97118 22.3056C4.35441 21.4255 4.73757 20.5372 5.1124 19.6572C5.33737 19.1388 5.56225 18.6125 5.78722 18.1024C5.83704 17.9955 5.83704 17.8723 5.78722 17.7654C4.08786 13.85 2.39978 9.92933 0.722737 6.00317C0.691308 5.93889 0.663556 5.87303 0.639404 5.80574C0.696585 5.79042 0.757045 5.79042 0.814306 5.80574H5.12904C5.24884 5.79421 5.35888 5.87137 5.38735 5.98674L8.03615 12.6739C8.03615 12.7232 8.03615 12.7809 8.11109 12.8631L8.18618 12.7067C9.08572 10.4695 9.97983 8.23226 10.8683 5.99496C10.9266 5.8551 10.9849 5.80574 11.1348 5.80574H15.508L15.1581 6.6283L8.63587 22.1246C8.60061 22.1788 8.58037 22.2413 8.57765 22.3055L3.97118 22.3056Z" fill="black" fill-opacity="0.55"/>
<path d="M33.6083 6.95737C33.7907 6.74604 33.9882 6.54814 34.1997 6.36517C35.0692 5.70403 36.1679 5.40837 37.2569 5.54254C38.2693 5.59071 39.2189 6.04171 39.8891 6.79279C40.4377 7.44153 40.7951 8.22697 40.9219 9.06295C40.9967 9.52255 41.0302 9.98761 41.0219 10.4531C41.0219 12.8549 41.0219 15.2566 41.0219 17.6584C41.0219 17.8228 40.9719 17.8558 40.8136 17.8558C39.4975 17.8558 38.1897 17.8558 36.8736 17.8558C36.7237 17.8558 36.6903 17.8147 36.6903 17.6747V11.3331C36.7019 11.022 36.6625 10.7108 36.5737 10.4119C36.4424 9.87302 35.9755 9.47809 35.4159 9.43316C34.8526 9.34124 34.2873 9.58636 33.9748 10.0583C33.7792 10.3563 33.6645 10.6991 33.6416 11.0535C33.6416 11.2921 33.6416 11.5224 33.6416 11.7609C33.6416 13.7185 33.6416 15.6789 33.6416 17.6419C33.6416 17.7982 33.6416 17.8393 33.4334 17.8393C32.1256 17.8393 30.8094 17.8393 29.4934 17.8393C29.3601 17.8393 29.3185 17.8393 29.3185 17.6665C29.3185 11.9857 29.3185 6.30207 29.3185 0.615667C29.3185 0.484103 29.3185 0.451172 29.485 0.451172H33.4417C33.5834 0.451172 33.625 0.451172 33.625 0.623959C33.625 2.66384 33.625 4.73657 33.625 6.73522L33.6083 6.95737Z" fill="black" fill-opacity="0.55"/>
<path d="M27.8776 5.9704C27.8776 5.86347 27.8776 5.78118 27.7276 5.7894H23.846C23.7294 5.7894 23.696 5.7894 23.696 5.93746C23.696 6.24182 23.696 6.55438 23.696 6.85052C23.5711 6.7353 23.4545 6.62837 23.3295 6.52974C22.317 5.67994 20.9718 5.32371 19.6645 5.55912C18.1643 5.74375 16.811 6.54017 15.9327 7.75528C14.7319 9.33192 14.2933 11.3501 14.7333 13.2743C14.9986 14.8864 15.9271 16.3184 17.2988 17.2306C18.7185 18.2095 20.5368 18.4313 22.155 17.8229C22.7628 17.6133 23.2934 17.2295 23.6794 16.7207C23.6794 17.0662 23.6794 17.3623 23.6794 17.6585C23.6794 17.79 23.6794 17.8394 23.8544 17.8394C25.137 17.8394 26.4199 17.8394 27.7026 17.8394C27.8442 17.8394 27.8609 17.7983 27.8609 17.6666C27.8609 17.1813 27.8609 16.7043 27.8609 16.2191L27.8776 5.9704ZM21.2804 14.2942C19.9003 14.2942 18.7815 13.1895 18.7815 11.8267C18.7815 10.4639 19.9003 9.35908 21.2804 9.35908C22.6606 9.35908 23.7793 10.4639 23.7793 11.8267C23.7793 13.1895 22.6605 14.2942 21.2804 14.2942Z" fill="black" fill-opacity="0.55"/>
<path d="M54.9241 10.8891C54.7 8.96818 53.5443 7.27475 51.8255 6.34874C50.5074 5.61021 48.9735 5.33753 47.4774 5.57555C45.7285 5.77021 44.1454 6.68784 43.1208 8.1007C42.2099 9.34732 41.7978 10.8823 41.963 12.4107C42.0558 13.775 42.6137 15.068 43.5456 16.0792C44.8022 17.434 46.5919 18.1842 48.4519 18.1355C48.6185 18.1355 48.785 18.1355 48.9433 18.1355C49.1016 18.1355 49.3265 18.1355 49.5181 18.0779C52.9753 17.628 55.4086 14.4959 54.953 11.0821C54.9443 11.0175 54.9348 10.9532 54.9241 10.8891ZM48.4435 14.2532C47.0635 14.2532 45.9445 13.1484 45.9445 11.7856C45.9445 10.4227 47.0635 9.31794 48.4435 9.31794C49.8237 9.31794 50.9424 10.4227 50.9424 11.7856C50.9941 13.0975 49.9589 14.2022 48.6305 14.2532C48.5682 14.2556 48.5059 14.2556 48.4435 14.2532Z" fill="black" fill-opacity="0.55"/>
<path d="M68.7596 11.0782C68.6281 9.59442 67.9351 8.2141 66.8188 7.21228C65.305 5.81419 63.2112 5.20423 61.1713 5.56717C57.9896 5.98651 55.6401 8.70742 55.7236 11.8759C55.7236 11.9911 55.7236 12.1802 55.7236 12.3695C55.7236 12.5586 55.7236 12.5421 55.7236 12.6244C55.9206 14.5712 57.0682 16.3002 58.7973 17.2552C60.1398 18.0354 61.7168 18.3263 63.2538 18.0776C64.9558 17.8744 66.4951 16.9803 67.5019 15.6101C68.4982 14.3167 68.9488 12.6927 68.7596 11.0782ZM62.2792 14.2532C60.8994 14.28 59.7588 13.1974 59.7315 11.8347C59.7042 10.4722 60.8008 9.34582 62.1805 9.31897C63.5605 9.29212 64.7011 10.3749 64.7283 11.7374C64.7291 11.7727 64.729 11.808 64.7282 11.8432C64.7467 13.1559 63.6841 14.2349 62.3548 14.2533C62.3296 14.2536 62.3044 14.2536 62.2792 14.2532Z" fill="black" fill-opacity="0.55"/>
<path d="M70.9005 11.366L71.4419 10.0666L75.4153 0.607612C75.4153 0.517112 75.4819 0.45133 75.6152 0.45133H80.613C80.4047 0.944814 80.2049 1.43838 79.9966 1.92357C78.6972 5.01083 77.4005 8.1007 76.1066 11.1935C76.078 11.3078 75.9664 11.3823 75.8483 11.3661L70.9005 11.366Z" fill="black" fill-opacity="0.55"/>
<path d="M72.1416 18.0532C70.6052 18.0671 69.3482 16.8483 69.3342 15.3312C69.3339 15.3064 69.334 15.2814 69.3346 15.2566C69.3481 13.6804 70.653 12.4134 72.2493 12.4268C72.2578 12.4268 72.2663 12.4269 72.2749 12.4271C73.8021 12.4087 75.0552 13.6162 75.0739 15.1244C75.0742 15.1519 75.0742 15.1796 75.0737 15.2072C75.0739 16.779 73.7837 18.0532 72.1919 18.0535C72.1751 18.0535 72.1584 18.0534 72.1416 18.0532Z" fill="black" fill-opacity="0.55"/>
<path d="M71.8084 27.4709C71.7791 27.5301 71.7622 27.5946 71.7584 27.6603C71.6146 28.3076 71.1564 28.8432 70.5339 29.0913C70.1227 29.2773 69.6782 29.3806 69.226 29.3957C68.2886 29.4585 67.3494 29.3006 66.4856 28.935C66.3106 28.8528 66.144 28.7622 65.9775 28.6719C65.9775 28.6719 65.9275 28.6143 65.9775 28.5732C66.2357 28.0631 66.4938 27.545 66.7437 27.0349C66.7437 26.9692 66.8104 26.9855 66.852 27.0349C67.3341 27.2966 67.8583 27.4746 68.4014 27.5615C68.6609 27.5987 68.9247 27.5987 69.1844 27.5615C69.2488 27.5548 69.3111 27.5351 69.3677 27.5038C69.4733 27.4594 69.5227 27.3385 69.4776 27.2341C69.4564 27.1853 69.4171 27.1463 69.3677 27.1256C69.2348 27.0544 69.0914 27.0044 68.9428 26.9776C68.4966 26.8886 68.057 26.7703 67.6267 26.6238C67.3239 26.5158 67.0422 26.3573 66.7937 26.155C66.4161 25.816 66.2166 25.325 66.2523 24.8225C66.2478 23.9461 66.8219 23.1692 67.6683 22.9059C68.1221 22.7438 68.6021 22.6658 69.0844 22.6757C69.9854 22.6904 70.8711 22.9069 71.6749 23.309C71.7333 23.309 71.7333 23.3584 71.6749 23.4077C71.4583 23.9178 71.2335 24.4194 71.0169 24.9295C71.0169 24.9952 70.9669 25.0035 70.9003 24.9788C70.5122 24.7767 70.0971 24.6299 69.6674 24.5428C69.3945 24.4805 69.113 24.4639 68.8345 24.4935C68.7709 24.4981 68.71 24.521 68.6595 24.5593C68.5675 24.611 68.5352 24.7264 68.5876 24.8173C68.6046 24.847 68.6294 24.8714 68.6595 24.8885C68.7763 24.9456 68.8993 24.9898 69.026 25.0201C69.5041 25.1327 69.9743 25.2754 70.4338 25.4476C70.7348 25.5593 71.0161 25.7175 71.2668 25.9165C71.5687 26.159 71.7654 26.5062 71.8166 26.887C71.8166 26.887 71.8166 26.9281 71.8166 26.9446L71.8084 27.4709Z" fill="black" fill-opacity="0.55"/>
<path d="M60.8966 25.8507C60.7549 26.2538 60.6216 26.6731 60.4883 27.068C60.2634 27.7588 60.0302 28.4498 59.8053 29.1406C59.7928 29.2013 59.7339 29.2413 59.6722 29.2311H57.8395C57.7869 29.2415 57.7353 29.2088 57.7228 29.1571L55.6154 22.939C55.6154 22.8566 55.6154 22.8401 55.6821 22.8483H57.8812C57.9561 22.8483 57.9894 22.8483 58.0061 22.9307C58.3226 23.9835 58.6475 25.028 58.964 26.0726C58.964 26.0726 58.964 26.122 58.964 26.1385L59.2139 25.3818C59.4889 24.5593 59.7554 23.7367 60.0469 22.9142C60.0469 22.8483 60.0469 22.8154 60.1636 22.8154H61.7296C61.8046 22.8154 61.8294 22.8154 61.8546 22.9059C62.196 23.9423 62.5293 24.9788 62.8707 26.0151C62.8707 26.0151 62.8707 26.0726 62.8707 26.1138C62.8981 26.0748 62.9153 26.0295 62.9207 25.9822L63.8703 22.9141C63.8703 22.84 63.9203 22.8072 64.0119 22.8072H66.1361C66.2443 22.8072 66.2443 22.8072 66.211 22.9059L64.0869 29.157C64.0906 29.2068 64.0527 29.2503 64.0022 29.2539C63.9822 29.2553 63.9622 29.2502 63.9453 29.2392H62.1294C62.0628 29.2392 62.0295 29.2392 62.0128 29.157L60.9382 25.9493C60.9381 25.9495 60.9298 25.8753 60.8966 25.8507Z" fill="black" fill-opacity="0.55"/>
<path d="M44.2954 23.5805C44.4004 23.4221 44.5265 23.2784 44.6702 23.1528C44.9854 22.8641 45.3909 22.69 45.8197 22.6592C46.9566 22.4898 48.0235 23.2446 48.227 24.3619C48.2875 24.632 48.3154 24.9079 48.3103 25.1843V29.0997C48.3103 29.1737 48.3103 29.1984 48.2187 29.1984H46.0279C45.9529 29.1984 45.9363 29.1984 45.9363 29.1079V25.7766C45.9414 25.6089 45.9158 25.4419 45.8613 25.283C45.7698 24.9977 45.5064 24.8 45.2033 24.7898C44.9075 24.7538 44.6187 24.8964 44.4702 25.1515C44.3546 25.34 44.2941 25.5563 44.2953 25.7766V29.1407C44.2953 29.2149 44.2953 29.2312 44.212 29.2312H42.013C41.938 29.2312 41.9213 29.2312 41.9213 29.1407C41.9213 27.0736 41.9213 25.0036 41.9213 22.9307C41.9213 22.8567 41.9213 22.8484 42.013 22.8484H44.2038C44.2787 22.8484 44.3036 22.8484 44.2954 22.939V23.5805Z" fill="black" fill-opacity="0.55"/>
<path d="M55.6154 25.1269C55.415 24.1845 54.7714 23.3931 53.883 22.9964C53.2482 22.707 52.5401 22.6125 51.8504 22.725C50.7662 22.8668 49.8272 23.5374 49.3515 24.5099C48.9729 25.2522 48.8725 26.1031 49.0683 26.9117C49.25 28.0108 50.0474 28.913 51.1258 29.2394C52.0146 29.5352 52.9773 29.5352 53.8663 29.2394C54.5399 29.0152 55.1121 28.5639 55.4823 27.9644C55.4823 27.9233 55.5323 27.8987 55.4823 27.8657L53.5914 27.1585C53.5628 27.1289 53.5153 27.1279 53.4853 27.1562C53.4845 27.157 53.4837 27.1578 53.4832 27.1585C53.1673 27.5541 52.643 27.7257 52.1503 27.5944C51.7295 27.5124 51.4005 27.1875 51.3175 26.7719C51.3175 26.6978 51.3175 26.6649 51.4007 26.6649H55.6155C55.7571 26.6649 55.7571 26.6649 55.7655 26.5251C55.7924 26.0541 55.7419 25.5818 55.6154 25.1269ZM53.3498 25.3243H51.3673C51.2841 25.3243 51.2757 25.3243 51.2923 25.2337C51.378 24.8319 51.7125 24.5278 52.1253 24.4771C52.3911 24.4294 52.6655 24.4668 52.9082 24.5841C53.1707 24.7025 53.3596 24.938 53.4164 25.2174C53.4664 25.2668 53.4664 25.3079 53.3664 25.3079L53.3498 25.3243Z" fill="black" fill-opacity="0.55"/>
</g>
<defs>
<clipPath id="clip0_4628_39981">
<rect width="79.9735" height="29.01" fill="white" transform="translate(0.63916 0.447266)"/>
</clipPath>
</defs>
</svg>
