<svg width="76" height="48" viewBox="0 0 76 48" fill="none" xmlns="http://www.w3.org/2000/svg">
<g clip-path="url(#clip0_936_17092)">
<path d="M3.7076 38.6142L0.000976562 47.9398H1.51719L2.3832 45.7039H6.36626L7.22098 47.9398H8.78516L5.07854 38.6128H3.70619L3.7076 38.6142ZM2.92622 44.2631L4.3705 40.5583L5.82607 44.2631H2.9248H2.92622Z" fill="#717475"/>
<path d="M11.79 40.1876H14.4614V47.9399H15.9536V40.1876H18.625V38.6792H11.79V40.1876Z" fill="#717475"/>
<path d="M25.8179 38.6162L22.1113 47.9432H23.6275L24.4936 45.7073H28.4766L29.3313 47.9432H30.8955L27.1889 38.6162H25.8165H25.8179ZM25.0366 44.2651L26.4809 40.5603L27.9364 44.2651H25.0366Z" fill="#717475"/>
<path d="M36.2037 38.6792H34.7241V47.9399H40.631V46.4583H36.2037V38.6792Z" fill="#717475"/>
<path d="M48.2823 38.6162L44.5757 47.9432H46.0919L46.9579 45.7073H50.941L51.7957 47.9432H53.3599L49.6532 38.6162H48.2809H48.2823ZM47.5009 44.2651L48.9452 40.5603L50.4008 44.2651H47.5009Z" fill="#717475"/>
<path d="M60.2299 42.7675L57.8829 38.6792H56.127L59.4711 44.2886V47.9399H60.9633V44.2492L64.3089 38.6792H62.6121L60.2299 42.7675Z" fill="#717475"/>
<path d="M72.2938 38.6162H70.9215L67.2148 47.9432H68.7311L69.5971 45.7073H73.5801L74.4349 47.9432H75.999L72.2924 38.6162H72.2938ZM70.1401 44.2651L71.5844 40.5603L73.0399 44.2651H70.1401Z" fill="#717475"/>
<path d="M37.0423 18.4231V28.9808H38.3117V18.4231L48.9788 13.9584L56.5275 21.4696L57.8462 20.9931L37.677 0.922363L17.5078 20.9931L18.8266 21.4696L26.3752 13.9584L37.0423 18.4231ZM27.3484 12.9899L37.0423 3.34433V17.0472L27.3484 12.9899ZM38.3117 17.0472V3.34433L48.0056 12.9899L38.3117 17.0472Z" fill="#717475"/>
</g>
<defs>
<clipPath id="clip0_936_17092">
<rect width="75.9998" height="47.0183" fill="white" transform="translate(0 0.922852)"/>
</clipPath>
</defs>
</svg>
