<svg width="109" height="150" viewBox="0 0 109 150" fill="none" xmlns="http://www.w3.org/2000/svg">
<g clip-path="url(#clip0_500_9626)">
<path d="M108.124 0H0.69873V150H108.124V0Z" fill="white"/>
<path fill-rule="evenodd" clip-rule="evenodd" d="M0.69873 -0.00477643V-0.742554H3.66903H105.154H108.124V2.22774V147.03V150H105.154H3.66903H0.69873V147.03V32.2114V2.22774V-0.00477643ZM3.66903 32.2114V147.03H105.154V32.2114H3.66903Z" fill="#04003F"/>
<path fill-rule="evenodd" clip-rule="evenodd" d="M66.6802 15.4155C66.5225 14.4443 65.9488 13.9512 64.8577 13.9512H61.7136C60.6235 13.9512 60.0498 14.4443 59.8913 15.4155C59.877 15.5287 59.8626 15.6549 59.8626 15.7675V21.5553H61.8292V16.433C61.8292 16.0377 61.9708 15.8802 62.354 15.8802H64.2205C64.5646 15.8802 64.7431 16.0377 64.7431 16.433V21.5553H66.7094V15.7675C66.7094 15.6549 66.6946 15.5287 66.6802 15.4155ZM57.0356 21.5552H59.0015V13.9511H57.0356V21.5552ZM53.4302 11.2021H51.4636V21.561H53.4302V15.8862H55.3139V13.957H53.4302V11.2021ZM48.6512 21.5554H50.6173V11.1967H48.6512V21.5554ZM35.3097 16.4294C35.3097 16.0219 35.0899 15.8807 34.7928 15.8807H32.9275C32.5527 15.8807 32.3673 16.0462 32.3673 16.4155V19.6232H34.7854C35.1292 19.6232 35.3097 19.4111 35.3097 19.0737V16.4294ZM37.2468 15.5283C37.2616 15.6271 37.276 15.7396 37.276 15.8379V19.6402C37.276 20.0491 37.1896 20.3725 37.0176 20.6543C36.6438 21.3021 36.1993 21.5554 35.4819 21.5554L30.4057 21.5576L30.4017 11.1967H32.3671V13.9513H35.5106C35.6396 13.9513 35.7688 13.9653 35.8837 13.9935C36.6297 14.1485 37.1463 14.7117 37.2468 15.5283ZM43.0171 19.0736C43.0171 19.4689 42.8755 19.6263 42.4923 19.6263H40.6255C40.2817 19.6263 40.1032 19.4689 40.1032 19.0736V13.9512H38.1369V19.7391C38.1369 19.8517 38.1517 19.9779 38.1658 20.0912C38.3238 21.0623 38.8973 21.5553 39.9886 21.5553H43.1324C44.2228 21.5553 44.7965 21.0623 44.955 20.0912C44.9693 19.9779 44.9837 19.8517 44.9837 19.7391V13.9512H43.0171V19.0736ZM45.8448 21.5685H47.8106V13.9641H45.8448V21.5685Z" fill="white"/>
<path fill-rule="evenodd" clip-rule="evenodd" d="M57.5138 7.48779V11.1739H58.8336V8.79747H77.0012V26.859H58.8336V24.4473H57.5138V28.1686H78.321V7.48779H57.5138Z" fill="white"/>
<path fill-rule="evenodd" clip-rule="evenodd" d="M57.5138 7.48779V11.1739H58.8336V8.79747H77.0012V26.859H58.8336V24.4473H57.5138V28.1686H78.321V7.48779H57.5138Z" fill="white"/>
<path fill-rule="evenodd" clip-rule="evenodd" d="M93.2729 127.97H15.5502V126.98H93.2729V127.97Z" fill="#04003F"/>
<path d="M14.6595 137.871H15.5566V135.174L16.715 136.933H16.7388L17.9091 135.156V137.871H18.818V133.713H17.8318L16.7388 135.471L15.6457 133.713H14.6595V137.871ZM20.8313 137.871H21.7461V133.713H20.8313V137.871ZM23.7581 137.871H25.3798C26.6868 137.871 27.5898 136.962 27.5898 135.792V135.78C27.5898 134.61 26.6868 133.713 25.3798 133.713H23.7581V137.871ZM25.3798 134.539C26.1284 134.539 26.6333 135.055 26.6333 135.792V135.804C26.6333 136.541 26.1284 137.046 25.3798 137.046H24.6729V134.539H25.3798ZM30.7989 137.931C31.696 137.931 32.3257 137.467 32.3257 136.642V136.63C32.3257 135.905 31.8504 135.602 31.0068 135.382C30.288 135.198 30.1098 135.109 30.1098 134.836V134.824C30.1098 134.622 30.294 134.461 30.6445 134.461C30.995 134.461 31.3573 134.616 31.7257 134.871L32.2009 134.182C31.7791 133.844 31.2623 133.653 30.6564 133.653C29.8068 133.653 29.2009 134.152 29.2009 134.907V134.919C29.2009 135.745 29.7415 135.976 30.5791 136.19C31.2742 136.368 31.4167 136.487 31.4167 136.719V136.731C31.4167 136.974 31.191 137.123 30.8168 137.123C30.3415 137.123 29.9494 136.927 29.5752 136.618L29.0346 137.265C29.5336 137.711 30.1692 137.931 30.7989 137.931ZM34.1338 137.871H35.0487V133.713H34.1338V137.871ZM36.9358 137.871H40.3992V137.069H38.112L40.3992 134.408V133.713H37.0071V134.515H39.2229L36.9358 137.176V137.871ZM42.2393 137.871H45.4056V137.057H43.1482V136.184H45.1086V135.37H43.1482V134.527H45.3759V133.713H42.2393V137.871ZM51.894 137.943C52.696 137.943 53.1712 137.657 53.5989 137.2L53.0168 136.612C52.69 136.909 52.3989 137.099 51.9237 137.099C51.2108 137.099 50.7177 136.505 50.7177 135.792V135.78C50.7177 135.067 51.2227 134.485 51.9237 134.485C52.3395 134.485 52.6663 134.663 52.987 134.954L53.5692 134.283C53.1831 133.903 52.7138 133.642 51.9296 133.642C50.6524 133.642 49.7613 134.61 49.7613 135.792V135.804C49.7613 136.998 50.6702 137.943 51.894 137.943ZM57.2078 137.943C58.491 137.943 59.4237 136.974 59.4237 135.792V135.78C59.4237 134.598 58.5029 133.642 57.2197 133.642C55.9366 133.642 55.0039 134.61 55.0039 135.792V135.804C55.0039 136.986 55.9247 137.943 57.2078 137.943ZM57.2197 137.099C56.4831 137.099 55.9603 136.505 55.9603 135.792V135.78C55.9603 135.067 56.4712 134.485 57.2078 134.485C57.9445 134.485 58.4672 135.079 58.4672 135.792V135.804C58.4672 136.517 57.9564 137.099 57.2197 137.099ZM61.2081 137.871H62.1051V135.174L63.2635 136.933H63.2873L64.4576 135.156V137.871H65.3665V133.713H64.3804L63.2873 135.471L62.1942 133.713H61.2081V137.871ZM67.338 137.871H68.2529V136.624H68.9479C69.8806 136.624 70.6291 136.125 70.6291 135.162V135.151C70.6291 134.301 70.0291 133.713 69.0371 133.713H67.338V137.871ZM68.2529 135.81V134.539H68.9598C69.4172 134.539 69.7024 134.758 69.7024 135.168V135.18C69.7024 135.537 69.4351 135.81 68.9776 135.81H68.2529ZM71.5049 137.871H72.4375L72.8177 136.939H74.5762L74.9564 137.871H75.9128L74.1306 133.683H73.287L71.5049 137.871ZM73.1445 136.131L73.6969 134.782L74.2494 136.131H73.1445ZM77.5274 137.871H78.4304V135.228L80.4442 137.871H81.2225V133.713H80.3195V136.273L78.371 133.713H77.5274V137.871ZM83.2348 137.871H84.1497V133.713H83.2348V137.871ZM86.1618 137.871H89.3281V137.057H87.0707V136.184H89.0311V135.37H87.0707V134.527H89.2984V133.713H86.1618V137.871ZM92.5935 137.931C93.4905 137.931 94.1202 137.467 94.1202 136.642V136.63C94.1202 135.905 93.645 135.602 92.8014 135.382C92.0826 135.198 91.9044 135.109 91.9044 134.836V134.824C91.9044 134.622 92.0885 134.461 92.439 134.461C92.7895 134.461 93.1519 134.616 93.5202 134.871L93.9955 134.182C93.5737 133.844 93.0569 133.653 92.4509 133.653C91.6014 133.653 90.9955 134.152 90.9955 134.907V134.919C90.9955 135.745 91.5361 135.976 92.3737 136.19C93.0687 136.368 93.2113 136.487 93.2113 136.719V136.731C93.2113 136.974 92.9856 137.123 92.6113 137.123C92.1361 137.123 91.744 136.927 91.3697 136.618L90.8291 137.265C91.3281 137.711 91.9638 137.931 92.5935 137.931Z" fill="#04003F"/>
<path d="M15.6508 54.4017H21.2658V52.1099H18.1336L20.2918 47.717C21.0748 46.1319 21.3231 45.1198 21.3231 44.0693V43.9737C21.3231 41.9876 20.1199 40.8416 18.3055 40.8416C17.2933 40.8416 16.5484 41.1663 15.9182 41.4908V43.7445C16.4529 43.4007 17.0641 43.0953 17.7707 43.0953C18.6493 43.0953 19.0504 43.7064 19.0504 44.3747C19.0504 45.0052 18.8403 45.6925 18.0763 47.3161L15.6508 52.4346V54.4017Z" fill="#00B9FE"/>
<path d="M28.7151 54.5928C30.8351 54.5928 32.0193 52.7019 32.0193 48.0799V47.3542C32.0193 42.7324 30.8351 40.8416 28.7151 40.8416C26.5569 40.8416 25.411 42.7324 25.411 47.3542V48.0799C25.411 52.7019 26.5569 54.5928 28.7151 54.5928ZM28.7151 52.4537C28.1611 52.4537 27.703 51.8425 27.703 48.0609V47.3732C27.703 43.5918 28.1611 42.9807 28.7151 42.9807C29.25 42.9807 29.7082 43.5918 29.7082 47.3732V48.0609C29.7082 51.8425 29.25 52.4537 28.7151 52.4537Z" fill="#00B9FE"/>
<path d="M36.045 54.4017H41.6601V52.1099H38.528L40.6861 47.717C41.4693 46.1319 41.7176 45.1198 41.7176 44.0693V43.9737C41.7176 41.9876 40.5144 40.8416 38.7 40.8416C37.6876 40.8416 36.9428 41.1663 36.3126 41.4908V43.7445C36.8473 43.4007 37.4584 43.0953 38.1651 43.0953C39.0436 43.0953 39.4448 43.7064 39.4448 44.3747C39.4448 45.0052 39.2346 45.6925 38.4708 47.3161L36.045 52.4346V54.4017Z" fill="#00B9FE"/>
<path d="M45.748 54.4017H51.3632V52.1099H48.231L50.3891 47.717C51.1721 46.1319 51.4203 45.1198 51.4203 44.0693V43.9737C51.4203 41.9876 50.2171 40.8416 48.4028 40.8416C47.3906 40.8416 46.6458 41.1663 46.0154 41.4908V43.7445C46.5503 43.4007 47.1614 43.0953 47.8681 43.0953C48.7466 43.0953 49.1478 43.7064 49.1478 44.3747C49.1478 45.0052 48.9377 45.6925 48.1735 47.3161L45.748 52.4346V54.4017Z" fill="#00B9FE"/>
<path d="M58.1245 54.4018H60.2062C62.8037 54.4018 64.6371 53.0649 64.6371 50.6968V50.5248C64.6371 48.825 63.6631 48.0419 62.5364 47.5453C63.4913 47.0869 64.4654 46.2466 64.4654 44.5278V44.4322C64.4654 43.4582 64.1597 42.7325 63.5869 42.1594C62.8037 41.3765 61.4859 41.0327 60.1109 41.0327H58.1245V54.4018ZM62.1735 44.8906C62.1735 46.0557 61.4859 46.6478 60.4545 46.6478H60.4163V43.1909H60.4545C61.4859 43.1909 62.1735 43.6874 62.1735 44.8525V44.8906ZM62.3072 50.4102V50.5057C62.3072 51.6134 61.5431 52.2436 60.4738 52.2436H60.4163V48.6723H60.4738C61.5431 48.6723 62.3072 49.3025 62.3072 50.4102Z" fill="#04003F"/>
<path d="M68.9651 54.4018H74.1408V52.1864H71.2953V48.7869H73.7589V46.5713H71.2953V43.2481H74.0837V41.0327H68.9651V54.4018Z" fill="#04003F"/>
<path d="M80.7126 54.4973C82.546 54.4973 84.0166 53.1032 84.0166 51.0022C84.0166 49.5698 83.6156 48.6723 81.7822 46.5522C80.6742 45.2725 80.4834 44.8906 80.4834 44.3369C80.4834 43.5537 81.0371 43.1337 81.6866 43.1337C82.2978 43.1337 82.7369 43.3245 83.4629 43.7448V41.3574C82.947 41.1282 82.3359 40.9371 81.4574 40.9371C79.5475 40.9371 78.1532 42.2933 78.1532 44.4131C78.1532 45.9602 78.7643 46.896 80.4069 48.6913C81.553 49.9327 81.6866 50.5438 81.6866 50.9832C81.6866 51.8616 81.1517 52.301 80.4069 52.301C79.7002 52.301 79.1656 52.0337 78.3443 51.5562V53.9436C79.0126 54.2681 79.7958 54.4973 80.7126 54.4973Z" fill="#04003F"/>
<path d="M89.1648 54.4018H91.4947V43.2481H93.1373V41.0327H87.5222V43.2481H89.1648V54.4018Z" fill="#04003F"/>
<path d="M15.5502 78.0849H18.7704V72.2559H18.7968C22.0699 72.0173 24.3927 70.0302 24.3927 65.8438V65.7908C24.3927 61.4455 21.9379 59.5378 18.4273 59.5378H15.5502V78.0849ZM18.7704 69.2619V62.5319H18.876C20.275 62.5319 21.1724 63.5388 21.1724 65.8968V65.9497C21.1724 68.202 20.143 69.1824 18.7968 69.2619H18.7704Z" fill="#04003F"/>
<path d="M30.6062 78.0849H37.2314V75.0114H33.8265V59.5378H30.6062V78.0849Z" fill="#04003F"/>
<path d="M42.3668 78.0849H45.4817L46.0624 74.4019H48.9921L49.5992 78.0849H52.8195L49.3089 59.4849H45.8775L42.3668 78.0849ZM46.5374 71.4873L47.5403 65.367L48.5171 71.4873H46.5374Z" fill="#04003F"/>
<path d="M63.3329 78.2174C64.2569 78.2174 64.9696 78.085 65.7087 77.661V74.4815C65.0488 74.879 64.4154 75.0644 63.9139 75.0644C62.4357 75.0644 61.4062 74.0575 61.4062 69.156V68.4669C61.4062 63.8303 62.4357 62.5585 63.8609 62.5585C64.4681 62.5585 64.9961 62.7704 65.656 63.1679V59.8295C64.9696 59.5115 64.4416 59.4055 63.5443 59.4055C60.5352 59.4055 58.1332 61.9756 58.1332 68.4936V69.1295C58.1332 75.5944 60.3767 78.2174 63.3329 78.2174Z" fill="#04003F"/>
<path d="M72.217 78.0849H79.3703V75.0114H75.4371V70.295H78.8423V67.2218H75.4371V62.6114H79.2911V59.5378H72.217V78.0849Z" fill="#04003F"/>
<path d="M88.7067 78.2174C91.2406 78.2174 93.273 76.2832 93.273 73.3686C93.273 71.3815 92.7188 70.1362 90.1847 67.1951C88.6537 65.4201 88.3899 64.8902 88.3899 64.1219C88.3899 63.0355 89.1552 62.4525 90.0527 62.4525C90.8975 62.4525 91.5045 62.7174 92.5077 63.3003V59.9884C91.7948 59.6704 90.9502 59.4055 89.7359 59.4055C87.0965 59.4055 85.1696 61.2867 85.1696 64.2278C85.1696 66.3738 86.0141 67.6721 88.2842 70.1627C89.8681 71.885 90.0527 72.7327 90.0527 73.3422C90.0527 74.561 89.3136 75.1704 88.2842 75.1704C87.3077 75.1704 86.5686 74.7996 85.4334 74.1372V77.4491C86.3574 77.8996 87.4396 78.2174 88.7067 78.2174Z" fill="#04003F"/>
<path d="M34.6888 101.57H38.0416L39.5606 90.6996L41.0799 101.57H44.4326L47.2089 83.1823H44.0136L42.6515 94.4189L41.0799 83.1823H38.12L36.5225 94.4189L35.1866 83.1823H31.9126L34.6888 101.57Z" fill="#04003F"/>
<path d="M57.4414 101.779C60.3488 101.779 62.3134 98.8715 62.3134 92.821V91.8782C62.3134 85.8277 60.3488 82.9203 57.4414 82.9203C54.5342 82.9203 52.5696 85.8277 52.5696 91.8782V92.821C52.5696 98.8715 54.5342 101.779 57.4414 101.779ZM57.4414 98.8455C56.4723 98.8455 55.8176 97.5359 55.8176 92.821V91.8782C55.8176 87.1636 56.4723 85.854 57.4414 85.854C58.4107 85.854 59.0654 87.1636 59.0654 91.8782V92.821C59.0654 97.5359 58.4107 98.8455 57.4414 98.8455Z" fill="#04003F"/>
<path d="M68.7448 101.517H71.9403V95.1261H72.5428L74.6121 101.517H78.017L75.5549 94.0785C76.7598 93.1617 77.7027 91.6426 77.7027 89.259V89.0233C77.7027 87.0327 77.1527 85.6181 76.1836 84.6491C75.1883 83.6538 73.7477 83.1823 72.0452 83.1823H68.7448V101.517ZM71.9403 92.2449V86.1684H72.019C73.4071 86.1684 74.5074 86.7706 74.5074 89.0756V89.2852C74.5074 91.433 73.4858 92.2449 72.0975 92.2449H71.9403Z" fill="#04003F"/>
<path d="M84.0433 101.517H87.2386V96.5407L87.9721 94.4976L89.9889 101.517H93.4463L90.3295 90.9352L93.3941 83.1823H89.8842L87.2386 91.0402V83.1823H84.0433V101.517Z" fill="#04003F"/>
<path d="M16.5749 96.3933H18.2457V90.1891H19.2705V88.5963H15.5502V90.1891H16.5749V96.3933Z" fill="#04003F"/>
<path d="M23.5258 96.5382C24.9293 96.5382 25.8203 95.2684 25.8203 92.7399V92.2498C25.8203 89.7102 24.9293 88.4515 23.5258 88.4515C22.1112 88.4515 21.2201 89.7102 21.2201 92.2498V92.7399C21.2201 95.2684 22.1112 96.5382 23.5258 96.5382ZM23.5258 94.9899C23.1582 94.9899 22.9243 94.5889 22.9243 92.751V92.2275C22.9243 90.4008 23.1582 89.9887 23.5258 89.9887C23.8934 89.9887 24.1161 90.4008 24.1161 92.2275V92.751C24.1161 94.5889 23.8934 94.9899 23.5258 94.9899Z" fill="#04003F"/>
<path d="M25.6999 100.333H15.5502V101.569H25.6999V100.333Z" fill="#04003F"/>
<path d="M25.6999 83.2535H15.5502V84.4894H25.6999V83.2535Z" fill="#04003F"/>
<path d="M15.5502 121.287H17.8392C20.6951 121.287 22.7111 119.806 22.7111 117.182V116.992C22.7111 115.109 21.6401 114.242 20.4012 113.692C21.4512 113.184 22.5222 112.253 22.5222 110.349V110.243C22.5222 109.164 22.1862 108.36 21.5562 107.726C20.6951 106.858 19.2462 106.478 17.7342 106.478H15.5502V121.287ZM20.0022 110.751C20.0022 112.042 19.2462 112.697 18.1122 112.697H18.0702V108.868H18.1122C19.2462 108.868 20.0022 109.418 20.0022 110.709V110.751ZM20.1492 116.865V116.971C20.1492 118.198 19.3092 118.896 18.1332 118.896H18.0702V114.94H18.1332C19.3092 114.94 20.1492 115.638 20.1492 116.865Z" fill="#00B9FE"/>
<path d="M25.6819 121.287H28.1599L28.622 118.346H30.9529L31.4358 121.287H33.998L31.2049 106.435H28.475L25.6819 121.287ZM29 116.019L29.798 111.132L30.575 116.019H29Z" fill="#00B9FE"/>
<path d="M38.6628 121.287H41.2249V115.448L43.9549 106.478H41.372L39.9648 112.02L38.5789 106.478H35.9329L38.6628 115.448V121.287Z" fill="#00B9FE"/>
<path d="M52.8066 121.287H55.2846L55.7465 118.346H58.0774L58.5606 121.287H61.1225L58.3297 106.435H55.5995L52.8066 121.287ZM56.1245 116.019L56.9225 111.132L57.6995 116.019H56.1245Z" fill="#00B9FE"/>
<path d="M64.6544 121.287H67.2163V116.125H67.6995L69.3584 121.287H72.0883L70.1143 115.279C71.0804 114.538 71.8363 113.311 71.8363 111.386V111.195C71.8363 109.587 71.3953 108.445 70.6183 107.662C69.8203 106.858 68.6653 106.478 67.3005 106.478H64.6544V121.287ZM67.2163 113.798V108.889H67.2794C68.3923 108.889 69.2745 109.376 69.2745 111.238V111.407C69.2745 113.142 68.4554 113.798 67.3423 113.798H67.2163Z" fill="#00B9FE"/>
<path d="M75.7673 121.287H81.4582V118.833H78.3292V115.067H81.0381V112.613H78.3292V108.932H81.3953V106.478H75.7673V121.287Z" fill="#00B9FE"/>
<path d="M84.7096 121.287H87.1876L87.6494 118.346H89.9804L90.4636 121.287H93.0254L90.2324 106.435H87.5024L84.7096 121.287ZM88.0274 116.019L88.8254 111.132L89.6024 116.019H88.0274Z" fill="#00B9FE"/>
</g>
<defs>
<clipPath id="clip0_500_9626">
<rect width="107.426" height="150" fill="white" transform="translate(0.69873)"/>
</clipPath>
</defs>
</svg>
