<svg width="15" height="15" viewBox="0 0 15 15" fill="none" xmlns="http://www.w3.org/2000/svg">
<path d="M14.0615 10.3125C13.5438 10.3125 13.124 10.7322 13.124 11.25V13.125H1.87402V11.25C1.87402 10.7322 1.45429 10.3125 0.936523 10.3125V10.3125C0.418757 10.3125 -0.000976562 10.7322 -0.000976562 11.25V13.125C-0.000976562 14.1562 0.842773 15 1.87402 15H13.124C14.1553 15 14.999 14.1562 14.999 13.125V11.25C14.999 10.7322 14.5793 10.3125 14.0615 10.3125V10.3125ZM11.5249 7.22408C11.8903 6.8587 11.8903 6.2663 11.5249 5.90092V5.90092C11.1601 5.53604 10.5687 5.53547 10.2031 5.89964L8.43652 7.65938V0.9375C8.43652 0.419733 8.01679 0 7.49902 0V0C6.98126 0 6.56152 0.419733 6.56152 0.9375V7.65938L4.79497 5.89965C4.42939 5.53547 3.83798 5.53604 3.4731 5.90092V5.90092C3.10772 6.2663 3.10772 6.8587 3.4731 7.22408L7.49902 11.25L11.5249 7.22408Z" fill="black" fill-opacity="0.55"/>
</svg>
