<svg width="130" height="21" viewBox="0 0 130 21" fill="none" xmlns="http://www.w3.org/2000/svg">
<g clip-path="url(#clip0_4628_39985)">
<path fill-rule="evenodd" clip-rule="evenodd" d="M12.1779 4.4038H12.4019V1.5718H1.44189V1.7638C2.70589 2.7878 2.87389 3.0918 2.87389 4.2118V17.8918C2.87389 19.0118 2.70589 19.3158 1.44189 20.3398V20.5318H7.12189V20.3398C5.84189 19.3798 5.6259 19.0118 5.6259 17.9398V11.1558H6.85789C8.45789 11.1558 8.75389 11.2678 10.1219 13.0198H10.3139V8.5718H10.1219C8.74589 10.3238 8.46589 10.4358 6.85789 10.4358H5.6259V2.2678H7.50589C8.25789 2.2678 8.90589 2.5238 12.1779 4.4038ZM16.4979 12.4038H12.6979L14.5059 6.9318C14.5939 7.1238 14.6739 7.3478 14.7619 7.6038L16.4979 12.4038ZM19.4979 14.0038L16.1939 4.9878H13.2099V5.1558C13.5549 5.4559 13.8589 5.8002 14.1139 6.1798L11.6499 13.6678C11.3579 14.7809 10.7087 15.7673 9.80189 16.4758V16.6678H13.2579V16.4838C12.3139 15.8998 11.9939 15.5158 11.9939 14.9638C12.0259 14.5356 12.123 14.1147 12.2819 13.7158L12.4979 13.0518H16.7219L17.1139 14.1238C17.2761 14.5129 17.3707 14.9269 17.3939 15.3478C17.3939 15.7398 17.1299 16.0678 16.4019 16.4758V16.6678H21.2019V16.4838C20.3535 15.9185 19.7372 15.0665 19.4659 14.0838L19.4979 14.0038ZM26.7539 4.3558H26.9779V1.6678C25.8779 1.45713 24.7617 1.34203 23.6419 1.3238C20.4419 1.3238 18.9059 3.4358 18.9059 5.6998C18.9059 8.2998 20.5939 9.8678 22.7619 11.6678C25.0979 13.6198 26.5059 14.8038 26.5059 17.0918C26.5365 17.4827 26.4843 17.8756 26.3526 18.2449C26.2208 18.6142 26.0126 18.9515 25.7414 19.2347C25.4703 19.5179 25.1424 19.7407 24.7792 19.8884C24.416 20.0361 24.0257 20.1054 23.6339 20.0918C22.2019 20.0918 21.0659 19.5158 18.0339 17.1478H17.7059L18.8099 20.2278C20.1376 20.6032 21.5101 20.797 22.8899 20.8038C26.4979 20.8038 28.6019 18.6038 28.6019 15.5558C28.6019 12.7478 27.0019 11.3078 24.6019 9.4118C22.4579 7.6758 20.9859 6.2758 20.9859 4.2518C20.9683 3.95656 21.0136 3.66096 21.1189 3.38456C21.2242 3.10817 21.3869 2.85729 21.5964 2.64853C21.8059 2.43978 22.0574 2.27792 22.3342 2.17366C22.611 2.06941 22.9067 2.02514 23.2019 2.0438C24.1299 2.0438 24.8019 2.4038 26.7059 4.4438L26.7539 4.3558ZM40.6659 4.3558H40.9059V1.5718H27.9699V4.4038H28.1939C31.2419 2.4758 31.8579 2.2198 32.5619 2.2198H33.0579V17.9318C33.0579 19.0038 32.8339 19.3718 31.5539 20.3318V20.5238H37.3059V20.3318C36.0259 19.3718 35.8019 19.0038 35.8019 17.9318V2.2198H36.2899C37.0019 2.2198 37.6179 2.4758 40.6659 4.4038V4.3558ZM57.1379 3.8518H57.3619V1.4518C55.887 1.22605 54.3979 1.10575 52.9059 1.0918C46.1939 1.0918 42.2179 4.8358 42.2179 11.0438C42.2179 17.2518 46.0179 20.9078 52.6179 20.9078C54.1384 20.9119 55.6528 20.7156 57.1219 20.3238L57.7059 17.6518H57.4899C55.0099 19.7478 53.9059 20.2358 52.1059 20.2358C47.1459 20.2358 45.4819 16.4998 45.4819 10.9558C45.4819 5.4118 47.1139 1.8918 51.8019 1.8918C53.2979 1.8918 54.3619 2.2358 57.1379 3.9158V3.8518ZM56.4979 10.9078C56.4979 14.0358 56.2339 16.0998 53.9699 16.0998C51.7059 16.0998 51.4419 14.0358 51.4419 10.9078C51.4419 7.7798 51.6979 5.7078 53.9699 5.7078C56.2419 5.7078 56.4979 7.8278 56.4979 10.9558V10.9078ZM59.1859 10.9078C59.1859 7.6038 57.2259 5.1238 53.9699 5.1238C50.7139 5.1238 48.7619 7.6198 48.7619 10.9078C48.7619 14.1958 50.7219 16.6838 53.9699 16.6838C57.2179 16.6838 59.1859 14.2198 59.1859 10.9558V10.9078ZM70.7939 20.4438H76.3939V20.2518C75.1299 19.2278 74.9619 18.9238 74.9619 17.8038V4.2118C74.9619 3.0918 75.1299 2.7878 76.3939 1.8118V1.6198H72.3939L67.9779 15.6198L63.5059 1.5718H59.5059V1.7638C60.0851 2.22277 60.6208 2.73428 61.1059 3.2918V16.5398C61.1059 18.0758 60.9139 18.6918 59.5059 20.3318V20.5238H64.0099V20.3318C62.1139 18.7718 61.8499 18.1398 61.8499 16.5398V4.7558C61.8499 4.8438 61.9059 4.9318 61.9379 5.0358L67.0099 20.6838H67.2339L72.3139 4.5718V17.8918C72.3139 19.0198 72.1379 19.3158 70.8739 20.2918L70.7939 20.4438ZM87.0739 7.3238C87.0739 10.8758 86.2339 12.3558 83.5139 12.3558H81.9539V2.2678H83.0579C86.0579 2.2678 87.0739 3.5478 87.0739 7.3718V7.3238ZM90.0099 7.1958C90.0099 2.9318 87.0259 1.5238 82.9779 1.5238H77.7699V1.7158C79.0339 2.7398 79.2019 3.0438 79.2019 4.1638V17.8918C79.2019 19.0118 79.0339 19.3158 77.7699 20.3398V20.5318H83.4579V20.3398C82.1779 19.3798 81.9539 19.0118 81.9539 17.9398V13.0918H83.4339C87.0099 13.0918 90.0099 11.5878 90.0099 7.2438V7.1958ZM96.9459 13.5958H91.5779L94.2179 4.0518C94.2766 4.2118 94.3326 4.3878 94.3859 4.5798L96.9059 13.6118L96.9459 13.5958ZM128.946 1.7558V1.5718H124.666V1.7638C125.818 2.7878 126.17 3.2838 126.17 4.0198C126.141 4.525 125.999 5.01724 125.754 5.4598L123.306 11.2038L120.106 4.0838C119.91 3.73515 119.795 3.34688 119.77 2.9478C119.77 2.4438 120.058 2.1478 120.826 1.7638V1.5718H111.306V1.7638C113.426 3.3638 113.706 3.9398 113.706 5.6678V16.5638L105.818 1.5718H101.89V1.7638C102.52 2.27465 103.092 2.85423 103.594 3.4918V16.5878C103.594 18.0198 103.434 18.6358 102.306 20.3318C101.542 19.4095 101.025 18.3085 100.802 17.1318L96.3299 1.5718H92.4899V1.7638C92.9723 2.14661 93.4002 2.59339 93.7619 3.0918L90.0499 16.4678C89.7291 17.9979 88.8793 19.3661 87.6499 20.3318V20.5238H92.2339V20.3318C90.9219 19.3398 90.5139 18.8358 90.5139 17.9318C90.5372 17.4239 90.6259 16.921 90.7779 16.4358L91.3779 14.2838H97.1299L97.9299 17.1158C98.1171 17.6313 98.2355 18.1693 98.2819 18.7158C98.2819 19.2038 98.0739 19.5158 97.1139 20.3158V20.5078H106.714V20.3158C104.594 18.7558 104.314 18.1398 104.314 16.5718V4.6278L104.362 4.7158L112.714 20.5238H114.45V5.6678C114.45 4.0678 114.61 3.4678 115.698 1.7718C116.423 2.64471 117.013 3.62077 117.45 4.6678L120.906 12.2038V17.9318C120.906 19.0038 120.69 19.3718 119.41 20.3318V20.5238H125.154V20.3318C123.874 19.3718 123.658 19.0038 123.658 17.9318V12.1238L126.498 5.5078C127.089 4.11891 127.93 2.85 128.978 1.7638L128.946 1.7558Z" fill="black" fill-opacity="0.55"/>
</g>
<defs>
<clipPath id="clip0_4628_39985">
<rect width="128.8" height="20" fill="white" transform="translate(0.90625 0.951172)"/>
</clipPath>
</defs>
</svg>
