<svg width="87" height="34" viewBox="0 0 87 34" fill="none" xmlns="http://www.w3.org/2000/svg">
<g clip-path="url(#clip0_2191_517)">
<path fill-rule="evenodd" clip-rule="evenodd" d="M0 8.02563H10.5298V11.5462H0V8.02563ZM0 25.6055V15.0668H10.5298V18.5874H3.4947V25.6286H0V25.6055Z" fill="white"/>
<path d="M19.5294 7.68066H15.418V25.2836H19.5294V7.68066Z" fill="white"/>
<path d="M32.4111 15.136V18.6796H34.5582V19.4159C34.5582 21.2338 33.1192 22.7064 31.3604 22.7064C29.6017 22.7064 28.1627 21.2338 28.1627 19.4159V14.5377C28.1627 12.7199 29.6017 11.2473 31.3604 11.2473C32 11.2473 32.6167 11.4314 33.1649 11.7995C33.3019 11.8916 33.4618 12.0296 33.5989 12.1447L33.7131 12.2367L36.0885 9.70557L35.9743 9.61353C35.7459 9.38343 35.4718 9.15333 35.2206 8.96924C35.1749 8.94623 35.1292 8.90021 35.0835 8.8772H35.0607C35.0379 8.85419 34.9693 8.83118 34.9465 8.78516C33.873 8.04883 32.6395 7.68066 31.3376 7.68066C27.6602 7.68066 24.668 10.741 24.668 14.5377V19.462C24.668 23.2357 27.6602 26.319 31.3376 26.319C35.015 26.319 38.0072 23.2587 38.0072 19.462V15.136H32.4111Z" fill="white"/>
<path d="M50.9131 7.68066V19.3469V19.508C50.9131 21.2568 49.5198 22.6834 47.8067 22.6834C46.0936 22.6834 44.7003 21.2568 44.7003 19.508V19.3469V7.68066H41.1143V19.3469V19.508C41.1143 23.2587 44.1064 26.319 47.7839 26.319C51.4156 26.319 54.385 23.3507 54.4535 19.6691V19.508V19.3469V7.68066H50.9131Z" fill="white"/>
<path d="M68.2035 25.2606H71.9495L68.8659 18.5415C70.579 17.5291 71.7439 15.6422 71.7439 13.4793C71.7439 10.2808 69.2085 7.68066 66.1021 7.68066H65.9651H63.0414H61.6024H59.6152V25.2836H63.0186V19.2779H65.4169L68.2035 25.2606ZM63.0414 11.2012H65.9422H66.0793C67.2899 11.2012 68.2949 12.2137 68.2949 13.5023C68.2949 14.7679 67.3127 15.8033 66.0793 15.8033H65.9422H63.0414V11.2012Z" fill="white"/>
<path d="M87.3674 11.2012V7.68066H77.0889V25.2836H87.3674V21.763H80.515V18.2424H87.3674V14.7218H80.515V11.2012H87.3674Z" fill="white"/>
</g>
<defs>
<clipPath id="clip0_2191_517">
<rect width="87" height="34" fill="white"/>
</clipPath>
</defs>
</svg>
