<svg width="92" height="23" viewBox="0 0 92 23" fill="none" xmlns="http://www.w3.org/2000/svg">
<path fill-rule="evenodd" clip-rule="evenodd" d="M58.749 16.4888C56.0874 16.4888 53.9216 14.2478 53.9216 11.4883C53.9216 8.72874 56.0874 6.48422 58.749 6.48422C61.4106 6.48422 63.58 8.73222 63.58 11.4883C63.58 14.2443 61.4142 16.4888 58.7561 16.4888H58.749ZM58.749 5.00528C55.2577 5.00528 52.4203 7.91445 52.4203 11.4952C52.4203 15.076 55.2612 17.9852 58.749 17.9852C62.2369 17.9852 65.0778 15.0725 65.0778 11.4952C65.0778 7.91793 62.2369 5.00528 58.749 5.00528ZM45.6977 5.35326H47.3081L41.359 20.522C41.0757 21.2535 40.5741 21.8824 39.9209 22.3249C39.2677 22.7675 38.494 23.0029 37.7024 22.9997H36.8586V21.5103H37.7165C38.2048 21.5122 38.6823 21.3671 39.0854 21.0943C39.4885 20.8214 39.7983 20.4338 39.9737 19.9826L40.8914 17.6442L36.0569 5.35674H37.6672L41.6825 15.591L45.6977 5.35326ZM91.0046 17.5954H88.9759L83.5613 11.6797L82.9917 12.2121V17.5954H81.4904V0.728516H82.9917V10.4026L88.5083 5.38806H90.4702L84.6759 10.674L91.0046 17.5954ZM68.418 11.4883C68.418 14.2478 70.5803 16.4888 73.2454 16.4888C74.2058 16.4761 75.1407 16.1807 75.9309 15.6403C76.7211 15.1 77.3309 14.339 77.6826 13.4544H79.2753C78.8907 14.7472 78.0976 15.8841 77.0124 16.6982C75.9272 17.5124 74.607 17.961 73.2454 17.9782C69.7541 17.9782 66.9167 15.0656 66.9167 11.4883C66.9167 7.91097 69.7576 4.99832 73.2454 4.99832C74.6195 5.01612 75.951 5.47295 77.0415 6.30071C78.1319 7.12847 78.9228 8.28284 79.2964 9.59174H77.7072C77.3656 8.68967 76.7571 7.91053 75.9611 7.35614C75.1651 6.80174 74.2187 6.49787 73.2454 6.48422C70.5803 6.48422 68.418 8.72874 68.418 11.4883ZM48.7672 17.5954H50.272V0.728516H48.7672V17.5954ZM7.32436 16.4888C4.66277 16.4888 2.49693 14.2478 2.49693 11.4883C2.49693 8.72874 4.66277 6.48422 7.32436 6.48422C9.98596 6.48422 12.1518 8.73222 12.1518 11.4883C12.1518 14.2443 9.98596 16.4888 7.32436 16.4888ZM12.1518 7.29851C11.5707 6.58385 10.8358 6.00652 10.0007 5.6086C9.16553 5.21068 8.25122 5.00218 7.32436 4.99832C3.833 4.99832 0.995605 7.90749 0.995605 11.4883C0.995605 15.0691 3.833 17.9782 7.32436 17.9782C8.25009 17.976 9.16369 17.7697 9.99874 17.3742C10.8338 16.9787 11.5693 16.4041 12.1518 15.692V16.2557C12.1602 17.5728 11.6404 18.8393 10.7063 19.7775C9.7723 20.7156 8.50037 21.2487 7.16966 21.2597C6.45118 21.2596 5.74145 21.1037 5.09031 20.8031C4.43917 20.5025 3.86241 20.0645 3.40053 19.5198H1.57223C2.13674 20.4967 2.95131 21.3092 3.93394 21.8755C4.91657 22.4418 6.03259 22.7419 7.16966 22.7457C8.9007 22.7337 10.5561 22.0418 11.7719 20.8222C12.9877 19.6026 13.6644 17.955 13.6531 16.2418V5.35674H12.1518V7.29851ZM18.129 6.9888C18.6367 6.45099 19.25 6.02144 19.9314 5.72644C20.6128 5.43145 21.3478 5.27723 22.0915 5.27323V6.76261C21.0349 6.76721 20.0231 7.18562 19.2773 7.92637C18.5315 8.66713 18.1123 9.66999 18.1114 10.7157V17.5954H16.6101V5.35674H18.1114L18.129 6.9888ZM28.821 6.48422C29.9939 6.48123 31.131 6.88358 32.0361 7.62182C32.9411 8.36005 33.5574 9.38786 33.7786 10.5278H23.8495C24.0756 9.39027 24.6933 8.36551 25.5973 7.62818C26.5013 6.89085 27.6356 6.48656 28.807 6.48422H28.821ZM35.3959 12.0137L35.3678 11.2447C35.3121 9.5414 34.581 7.92831 33.3328 6.75447C32.0845 5.58064 30.4194 4.94047 28.6979 4.97249C26.9763 5.00451 25.3367 5.70614 24.1339 6.92556C22.9311 8.14499 22.2618 9.78412 22.2708 11.4883C22.2912 13.2244 23.0055 14.8818 24.2574 16.0981C25.5093 17.3143 27.1969 17.9903 28.9511 17.9782C30.2676 17.9805 31.5558 17.6002 32.6558 16.8845C33.7559 16.1687 34.6194 15.1491 35.1393 13.952H33.4586C32.9945 14.7266 32.3343 15.368 31.5432 15.8129C30.7521 16.2577 29.8575 16.4907 28.9476 16.4888C27.6815 16.5016 26.4549 16.0524 25.5022 15.2269C24.5494 14.4015 23.9373 13.2576 23.7827 12.0137H35.3854H35.3959Z" fill="#717475"/>
</svg>
