<svg width="99" height="28" viewBox="0 0 99 28" fill="none" xmlns="http://www.w3.org/2000/svg">
<g clip-path="url(#clip0_1937_4759)">
<path d="M26.5282 8.50635H36.4414V10.3525H32.5435V20.7306H30.4001V10.3525H26.5195V8.50635H26.5282ZM36.0179 11.8795H37.8501V13.5876H37.8847C37.9452 13.346 38.0576 13.1131 38.2218 12.8888C38.386 12.6645 38.5848 12.4488 38.8181 12.2677C39.0515 12.0779 39.3108 11.9312 39.596 11.8104C39.8812 11.6983 40.175 11.6379 40.4689 11.6379C40.6936 11.6379 40.8578 11.6465 40.9442 11.6552C41.0307 11.6638 41.1171 11.681 41.2122 11.6897V13.5703C41.0739 13.5444 40.9356 13.5272 40.7887 13.5099C40.6417 13.4927 40.5035 13.4841 40.3652 13.4841C40.0367 13.4841 39.7256 13.5531 39.4318 13.6825C39.1379 13.8119 38.8873 14.0103 38.6712 14.2605C38.4551 14.5193 38.2823 14.8299 38.1526 15.2094C38.023 15.589 37.9625 16.0204 37.9625 16.5121V20.722H36.0092V11.8795H36.0179ZM50.1919 20.7306H48.2733V19.497H48.2387C47.9967 19.9456 47.6423 20.2993 47.167 20.5667C46.6916 20.8342 46.2077 20.9722 45.715 20.9722C44.5483 20.9722 43.7013 20.6875 43.1827 20.1095C42.6641 19.5315 42.4049 18.6602 42.4049 17.4956V11.8795H44.3581V17.3058C44.3581 18.0822 44.505 18.6343 44.8075 18.9535C45.1014 19.2727 45.5249 19.4366 46.0607 19.4366C46.4756 19.4366 46.8126 19.3762 47.0892 19.2468C47.3658 19.1174 47.5905 18.9535 47.7547 18.7378C47.9276 18.5308 48.0486 18.272 48.1263 17.9787C48.2041 17.6854 48.2387 17.3662 48.2387 17.0211V11.8881H50.1919V20.7306ZM53.5194 17.8924C53.5799 18.4618 53.796 18.8586 54.1676 19.0915C54.5479 19.3158 54.9973 19.4366 55.5245 19.4366C55.706 19.4366 55.9134 19.4194 56.1468 19.3935C56.3801 19.3676 56.6048 19.3072 56.8036 19.2296C57.0111 19.1519 57.1753 19.0311 57.3136 18.8759C57.4432 18.7206 57.5037 18.5222 57.495 18.272C57.4864 18.0218 57.3913 17.8148 57.2185 17.6595C57.0456 17.4956 56.8296 17.3748 56.5616 17.2713C56.2937 17.1764 55.9912 17.0901 55.6455 17.0211C55.2998 16.9521 54.9541 16.8744 54.5997 16.7968C54.2367 16.7191 53.8824 16.6156 53.5453 16.5035C53.2083 16.3913 52.9058 16.236 52.6378 16.0376C52.3699 15.8478 52.1538 15.5976 51.9983 15.2957C51.8341 14.9938 51.7563 14.6228 51.7563 14.1742C51.7563 13.6911 51.8773 13.2943 52.1106 12.9664C52.344 12.6386 52.6465 12.3798 53.0008 12.1814C53.3638 11.983 53.7614 11.845 54.2022 11.7587C54.643 11.681 55.0664 11.6379 55.464 11.6379C55.9221 11.6379 56.3629 11.6897 56.7777 11.7846C57.1926 11.8795 57.5728 12.0347 57.9099 12.259C58.247 12.4747 58.5235 12.7594 58.7482 13.1045C58.973 13.4496 59.1112 13.8723 59.1717 14.364H57.1321C57.037 13.8982 56.8296 13.579 56.4925 13.4237C56.1554 13.2598 55.7665 13.1821 55.3344 13.1821C55.1961 13.1821 55.0319 13.1907 54.8417 13.2166C54.6516 13.2425 54.4787 13.2856 54.3059 13.346C54.1417 13.4064 54.0034 13.5013 53.8824 13.6221C53.77 13.7429 53.7095 13.8982 53.7095 14.0966C53.7095 14.3381 53.796 14.5279 53.9602 14.6746C54.1244 14.8212 54.3405 14.942 54.6084 15.0455C54.8763 15.1404 55.1788 15.2267 55.5245 15.2957C55.8702 15.3647 56.2246 15.4424 56.5876 15.52C56.9419 15.5976 57.2876 15.7012 57.6333 15.8133C57.979 15.9255 58.2815 16.0808 58.5495 16.2792C58.8174 16.4776 59.0335 16.7191 59.1977 17.0125C59.3619 17.3058 59.4483 17.6767 59.4483 18.1081C59.4483 18.6343 59.3273 19.0743 59.0853 19.4452C58.8433 19.8076 58.5322 20.1095 58.1519 20.3338C57.7716 20.5581 57.3395 20.7306 56.8728 20.8342C56.4061 20.9377 55.9394 20.9895 55.4813 20.9895C54.9195 20.9895 54.401 20.9291 53.9256 20.7997C53.4503 20.6703 53.0354 20.4805 52.6897 20.2303C52.344 19.9715 52.0674 19.6523 51.8686 19.2727C51.6699 18.8931 51.5661 18.4359 51.5489 17.9097H53.5194V17.8924ZM59.9669 11.8795H61.4448V9.22238H63.398V11.8795H65.1611V13.3374H63.398V18.0649C63.398 18.272 63.4067 18.4445 63.424 18.5998C63.4412 18.7465 63.4845 18.8759 63.545 18.9794C63.6055 19.0829 63.7005 19.1606 63.8302 19.2123C63.9598 19.2641 64.124 19.29 64.3487 19.29C64.487 19.29 64.6253 19.29 64.7636 19.2813C64.9019 19.2727 65.0401 19.2554 65.1784 19.2209V20.7306C64.9624 20.7565 64.7463 20.7738 64.5475 20.7997C64.3401 20.8255 64.1327 20.8342 63.9166 20.8342C63.398 20.8342 62.9832 20.7824 62.672 20.6875C62.3609 20.5926 62.1103 20.446 61.9374 20.2562C61.7559 20.0664 61.6436 19.8334 61.5744 19.5488C61.5139 19.2641 61.4707 18.9363 61.4621 18.5739V13.3547H59.9841V11.8795H59.9669ZM66.544 11.8795H68.3935V13.0786H68.4281C68.7047 12.561 69.0849 12.1987 69.5776 11.9744C70.0702 11.7501 70.5974 11.6379 71.1765 11.6379C71.8765 11.6379 72.4815 11.7587 73.0001 12.0089C73.5187 12.2504 73.9508 12.5869 74.2965 13.0182C74.6422 13.4496 74.8928 13.9499 75.0657 14.5193C75.2386 15.0887 75.325 15.7012 75.325 16.3482C75.325 16.9434 75.2472 17.5214 75.0916 18.0736C74.9361 18.6343 74.7027 19.126 74.3916 19.5574C74.0804 19.9887 73.6829 20.3252 73.1989 20.584C72.7149 20.8428 72.1531 20.9722 71.4963 20.9722C71.2111 20.9722 70.9258 20.9463 70.6406 20.8946C70.3554 20.8428 70.0788 20.7565 69.8196 20.6444C69.5603 20.5322 69.3097 20.3856 69.0936 20.2044C68.8689 20.0232 68.6874 19.8162 68.5318 19.5833H68.4972V24.0002H66.544V11.8795ZM73.3717 16.3137C73.3717 15.9168 73.3199 15.5286 73.2162 15.1491C73.1125 14.7695 72.9569 14.4416 72.7495 14.1483C72.542 13.855 72.2827 13.6221 71.9803 13.4496C71.6691 13.277 71.3148 13.1821 70.9172 13.1821C70.0961 13.1821 69.4739 13.4668 69.059 14.0362C68.6442 14.6056 68.4367 15.3647 68.4367 16.3137C68.4367 16.7623 68.4886 17.1764 68.6009 17.556C68.7133 17.9355 68.8689 18.2634 69.0936 18.5394C69.3097 18.8155 69.5689 19.0311 69.8714 19.1864C70.1739 19.3503 70.5283 19.428 70.9258 19.428C71.3753 19.428 71.7469 19.3331 72.058 19.1519C72.3692 18.9708 72.6198 18.7292 72.8186 18.4445C73.0174 18.1512 73.1643 17.8234 73.2507 17.4524C73.3285 17.0815 73.3717 16.7019 73.3717 16.3137ZM76.8202 8.50635H78.7734V10.3525H76.8202V8.50635ZM76.8202 11.8795H78.7734V20.7306H76.8202V11.8795ZM80.5193 8.50635H82.4725V20.7306H80.5193V8.50635ZM88.4619 20.9722C87.7532 20.9722 87.1223 20.8514 86.5692 20.6185C86.016 20.3856 85.5493 20.0577 85.1604 19.6523C84.7801 19.2382 84.4863 18.7465 84.2875 18.1771C84.0887 17.6077 83.985 16.978 83.985 16.2964C83.985 15.6235 84.0887 15.0024 84.2875 14.433C84.4863 13.8636 84.7801 13.3719 85.1604 12.9578C85.5407 12.5437 86.016 12.2245 86.5692 11.9916C87.1223 11.7587 87.7532 11.6379 88.4619 11.6379C89.1706 11.6379 89.8015 11.7587 90.3547 11.9916C90.9078 12.2245 91.3745 12.5524 91.7634 12.9578C92.1437 13.3719 92.4376 13.8636 92.6364 14.433C92.8351 15.0024 92.9389 15.6235 92.9389 16.2964C92.9389 16.978 92.8351 17.6077 92.6364 18.1771C92.4376 18.7465 92.1437 19.2382 91.7634 19.6523C91.3832 20.0664 90.9078 20.3856 90.3547 20.6185C89.8015 20.8514 89.1706 20.9722 88.4619 20.9722ZM88.4619 19.428C88.8941 19.428 89.2743 19.3331 89.5941 19.1519C89.9139 18.9708 90.1732 18.7292 90.3806 18.4359C90.588 18.1426 90.735 17.8061 90.8387 17.4352C90.9337 17.0642 90.9856 16.6846 90.9856 16.2964C90.9856 15.9168 90.9337 15.5459 90.8387 15.1663C90.7436 14.7867 90.588 14.4589 90.3806 14.1656C90.1732 13.8723 89.9139 13.6393 89.5941 13.4582C89.2743 13.277 88.8941 13.1821 88.4619 13.1821C88.0298 13.1821 87.6495 13.277 87.3297 13.4582C87.0099 13.6393 86.7507 13.8809 86.5432 14.1656C86.3358 14.4589 86.1889 14.7867 86.0852 15.1663C85.9901 15.5459 85.9382 15.9168 85.9382 16.2964C85.9382 16.6846 85.9901 17.0642 86.0852 17.4352C86.1802 17.8061 86.3358 18.1426 86.5432 18.4359C86.7507 18.7292 87.0099 18.9708 87.3297 19.1519C87.6495 19.3417 88.0298 19.428 88.4619 19.428ZM93.5093 11.8795H94.9872V9.22238H96.9404V11.8795H98.7036V13.3374H96.9404V18.0649C96.9404 18.272 96.9491 18.4445 96.9664 18.5998C96.9837 18.7465 97.0269 18.8759 97.0874 18.9794C97.1479 19.0829 97.2429 19.1606 97.3726 19.2123C97.5022 19.2641 97.6664 19.29 97.8911 19.29C98.0294 19.29 98.1677 19.29 98.306 19.2813C98.4443 19.2727 98.5826 19.2554 98.7208 19.2209V20.7306C98.5048 20.7565 98.2887 20.7738 98.0899 20.7997C97.8825 20.8255 97.6751 20.8342 97.459 20.8342C96.9404 20.8342 96.5256 20.7824 96.2144 20.6875C95.9033 20.5926 95.6527 20.446 95.4798 20.2562C95.2983 20.0664 95.186 19.8334 95.1168 19.5488C95.0563 19.2641 95.0131 18.9363 95.0045 18.5739V13.3547H93.5266V11.8795H93.5093Z" fill="black" fill-opacity="0.55"/>
<path fill-rule="evenodd" clip-rule="evenodd" d="M15.2927 8.50611H24.2465L17.0039 13.7599L19.7696 22.2574L12.527 17.0036L5.27576 22.2574L8.05007 13.7599L0.798828 8.49748L9.75269 8.50611L12.527 0L15.2927 8.50611ZM17.0039 13.7599L17.6262 15.6837L12.5269 17.0036L17.0039 13.7599Z" fill="black" fill-opacity="0.55"/>
</g>
<defs>
<clipPath id="clip0_1937_4759">
<rect width="97.9048" height="24" fill="white" transform="translate(0.798828)"/>
</clipPath>
</defs>
</svg>
