<svg width="39" height="39" viewBox="0 0 39 39" fill="none" xmlns="http://www.w3.org/2000/svg">
<rect x="0.0976562" width="38.57" height="38.57" rx="19.285" fill="#F5F5F5"/>
<g clip-path="url(#clip0_1155_5015)">
<path fill-rule="evenodd" clip-rule="evenodd" d="M16.6299 12.6472C17.342 12.6145 17.569 12.6072 19.383 12.6072C21.197 12.6072 21.424 12.6151 22.1355 12.6472C22.847 12.6794 23.3327 12.7929 23.7576 12.9575C24.2026 13.1256 24.6063 13.3885 24.9402 13.7285C25.2802 14.0617 25.5425 14.4649 25.71 14.9105C25.8751 15.3354 25.9881 15.8211 26.0208 16.5314C26.0536 17.2447 26.0609 17.4717 26.0609 19.2851C26.0609 21.0991 26.053 21.3261 26.0208 22.0382C25.9887 22.7485 25.8751 23.2342 25.71 23.6591C25.5425 24.1048 25.2798 24.5086 24.9402 24.8423C24.6063 25.1823 24.2026 25.4446 23.7576 25.6121C23.3327 25.7772 22.847 25.8902 22.1367 25.9229C21.424 25.9557 21.197 25.963 19.383 25.963C17.569 25.963 17.342 25.9551 16.6299 25.9229C15.9196 25.8908 15.4339 25.7772 15.009 25.6121C14.5633 25.4445 14.1595 25.1818 13.8258 24.8423C13.486 24.5088 13.2231 24.1053 13.0554 23.6597C12.8908 23.2348 12.7779 22.7491 12.7451 22.0388C12.7124 21.3255 12.7051 21.0985 12.7051 19.2851C12.7051 17.4711 12.713 17.2441 12.7451 16.5326C12.7773 15.8211 12.8908 15.3354 13.0554 14.9105C13.2234 14.4649 13.4865 14.0613 13.8264 13.7279C14.1597 13.3882 14.563 13.1253 15.0084 12.9575C15.4333 12.7929 15.919 12.68 16.6293 12.6472H16.6299ZM22.0815 13.8493C21.3773 13.8171 21.166 13.8104 19.383 13.8104C17.6 13.8104 17.3887 13.8171 16.6845 13.8493C16.0331 13.879 15.6798 13.9877 15.4442 14.0794C15.1328 14.2008 14.91 14.3447 14.6763 14.5784C14.4547 14.7939 14.2842 15.0563 14.1773 15.3463C14.0856 15.5819 13.9769 15.9352 13.9472 16.5866C13.915 17.2908 13.9083 17.5021 13.9083 19.2851C13.9083 21.0681 13.915 21.2794 13.9472 21.9836C13.9769 22.635 14.0856 22.9883 14.1773 23.2239C14.2841 23.5134 14.4547 23.7763 14.6763 23.9918C14.8918 24.2134 15.1547 24.384 15.4442 24.4908C15.6798 24.5825 16.0331 24.6912 16.6845 24.7209C17.3887 24.7531 17.5994 24.7598 19.383 24.7598C21.1666 24.7598 21.3773 24.7531 22.0815 24.7209C22.7329 24.6912 23.0862 24.5825 23.3218 24.4908C23.6332 24.3694 23.856 24.2255 24.0897 23.9918C24.3113 23.7763 24.4819 23.5134 24.5887 23.2239C24.6804 22.9883 24.7891 22.635 24.8188 21.9836C24.851 21.2794 24.8577 21.0681 24.8577 19.2851C24.8577 17.5021 24.851 17.2908 24.8188 16.5866C24.7891 15.9352 24.6804 15.5819 24.5887 15.3463C24.4673 15.0349 24.3234 14.8121 24.0897 14.5784C23.8742 14.3568 23.6118 14.1863 23.3218 14.0794C23.0862 13.9877 22.7329 13.879 22.0815 13.8493ZM18.53 21.3437C19.0064 21.542 19.5368 21.5688 20.0307 21.4194C20.5246 21.2701 20.9513 20.9539 21.238 20.5249C21.5247 20.0959 21.6535 19.5807 21.6025 19.0672C21.5515 18.5538 21.3238 18.0739 20.9584 17.7097C20.7254 17.4769 20.4437 17.2986 20.1336 17.1877C19.8234 17.0768 19.4925 17.0361 19.1647 17.0684C18.837 17.1007 18.5204 17.2053 18.2379 17.3747C17.9554 17.544 17.714 17.7739 17.531 18.0478C17.348 18.3216 17.228 18.6327 17.1796 18.9585C17.1312 19.2843 17.1557 19.6167 17.2512 19.932C17.3468 20.2472 17.511 20.5373 17.7322 20.7814C17.9533 21.0255 18.2258 21.2176 18.53 21.3437ZM16.9559 16.858C17.2746 16.5392 17.653 16.2864 18.0694 16.1139C18.4859 15.9414 18.9322 15.8526 19.383 15.8526C19.8338 15.8526 20.2801 15.9414 20.6965 16.1139C21.113 16.2864 21.4914 16.5392 21.8101 16.858C22.1288 17.1767 22.3817 17.5551 22.5542 17.9715C22.7267 18.388 22.8155 18.8343 22.8155 19.2851C22.8155 19.7359 22.7267 20.1822 22.5542 20.5986C22.3817 21.0151 22.1288 21.3935 21.8101 21.7122C21.1664 22.3559 20.2933 22.7176 19.383 22.7176C18.4726 22.7176 17.5996 22.3559 16.9559 21.7122C16.3122 21.0685 15.9505 20.1954 15.9505 19.2851C15.9505 18.3747 16.3122 17.5017 16.9559 16.858ZM23.5767 16.3638C23.6557 16.2893 23.7189 16.1997 23.7627 16.1003C23.8064 16.0009 23.8298 15.8938 23.8313 15.7852C23.8329 15.6766 23.8127 15.5689 23.7719 15.4682C23.7311 15.3676 23.6705 15.2762 23.5937 15.1994C23.5169 15.1227 23.4255 15.0621 23.3249 15.0213C23.2243 14.9804 23.1165 14.9602 23.0079 14.9618C22.8994 14.9634 22.7922 14.9867 22.6928 15.0305C22.5934 15.0742 22.5038 15.1374 22.4293 15.2164C22.2844 15.37 22.2051 15.5741 22.2082 15.7852C22.2113 15.9964 22.2965 16.198 22.4458 16.3473C22.5951 16.4966 22.7968 16.5819 23.0079 16.585C23.2191 16.588 23.4231 16.5087 23.5767 16.3638Z" fill="black" fill-opacity="0.55"/>
</g>
<rect x="0.597656" y="0.5" width="37.57" height="37.57" rx="18.785" stroke="#717475" stroke-opacity="0.2"/>
<defs>
<clipPath id="clip0_1155_5015">
<rect width="14.57" height="14.57" fill="white" transform="translate(12.0977 12)"/>
</clipPath>
</defs>
</svg>
