<svg width="99" height="28" viewBox="0 0 99 28" fill="none" xmlns="http://www.w3.org/2000/svg">
<g clip-path="url(#clip0_1898_18833)">
<path d="M26.3397 8.5061H36.2529V10.3523H32.355V20.7304H30.2116V10.3523H26.3311V8.5061H26.3397ZM35.8294 11.8792H37.6617V13.5873H37.6962C37.7567 13.3458 37.8691 13.1129 38.0333 12.8886C38.1975 12.6643 38.3963 12.4486 38.6296 12.2674C38.863 12.0776 39.1223 11.931 39.4075 11.8102C39.6927 11.6981 39.9866 11.6377 40.2804 11.6377C40.5051 11.6377 40.6693 11.6463 40.7558 11.6549C40.8422 11.6635 40.9286 11.6808 41.0237 11.6894V13.5701C40.8854 13.5442 40.7471 13.527 40.6002 13.5097C40.4533 13.4924 40.315 13.4838 40.1767 13.4838C39.8483 13.4838 39.5371 13.5528 39.2433 13.6822C38.9494 13.8116 38.6988 14.0101 38.4827 14.2602C38.2667 14.519 38.0938 14.8296 37.9642 15.2092C37.8345 15.5888 37.774 16.0201 37.774 16.5119V20.7218H35.8208V11.8792H35.8294ZM50.0035 20.7304H48.0848V19.4968H48.0502C47.8082 19.9454 47.4539 20.2991 46.9785 20.5665C46.5032 20.8339 46.0192 20.972 45.5265 20.972C44.3598 20.972 43.5128 20.6873 42.9942 20.1093C42.4757 19.5313 42.2164 18.6599 42.2164 17.4953V11.8792H44.1696V17.3055C44.1696 18.0819 44.3166 18.6341 44.6191 18.9533C44.9129 19.2725 45.3364 19.4364 45.8723 19.4364C46.2871 19.4364 46.6242 19.376 46.9007 19.2466C47.1773 19.1172 47.402 18.9533 47.5662 18.7376C47.7391 18.5305 47.8601 18.2717 47.9379 17.9784C48.0156 17.6851 48.0502 17.3659 48.0502 17.0208V11.8878H50.0035V20.7304ZM53.3309 17.8922C53.3914 18.4615 53.6075 18.8584 53.9791 19.0913C54.3594 19.3156 54.8088 19.4364 55.336 19.4364C55.5175 19.4364 55.725 19.4191 55.9583 19.3932C56.1917 19.3674 56.4164 19.307 56.6152 19.2293C56.8226 19.1517 56.9868 19.0309 57.1251 18.8756C57.2547 18.7203 57.3152 18.5219 57.3066 18.2717C57.2979 18.0216 57.2029 17.8145 57.03 17.6592C56.8571 17.4953 56.6411 17.3745 56.3732 17.271C56.1052 17.1761 55.8027 17.0899 55.457 17.0208C55.1113 16.9518 54.7656 16.8742 54.4113 16.7965C54.0483 16.7189 53.6939 16.6154 53.3568 16.5032C53.0198 16.3911 52.7173 16.2358 52.4494 16.0374C52.1814 15.8476 51.9654 15.5974 51.8098 15.2955C51.6456 14.9935 51.5678 14.6226 51.5678 14.174C51.5678 13.6909 51.6888 13.294 51.9222 12.9662C52.1555 12.6384 52.458 12.3796 52.8124 12.1812C53.1754 11.9827 53.5729 11.8447 54.0137 11.7584C54.4545 11.6808 54.878 11.6377 55.2755 11.6377C55.7336 11.6377 56.1744 11.6894 56.5892 11.7843C57.0041 11.8792 57.3844 12.0345 57.7214 12.2588C58.0585 12.4745 58.3351 12.7592 58.5598 13.1042C58.7845 13.4493 58.9228 13.872 58.9833 14.3638H56.9436C56.8485 13.8979 56.6411 13.5787 56.304 13.4234C55.967 13.2595 55.578 13.1819 55.1459 13.1819C55.0076 13.1819 54.8434 13.1905 54.6533 13.2164C54.4631 13.2423 54.2903 13.2854 54.1174 13.3458C53.9532 13.4062 53.8149 13.5011 53.6939 13.6218C53.5816 13.7426 53.5211 13.8979 53.5211 14.0963C53.5211 14.3379 53.6075 14.5277 53.7717 14.6743C53.9359 14.821 54.152 14.9418 54.4199 15.0453C54.6878 15.1402 54.9903 15.2264 55.336 15.2955C55.6817 15.3645 56.0361 15.4421 56.3991 15.5198C56.7534 15.5974 57.0991 15.7009 57.4449 15.8131C57.7906 15.9252 58.0931 16.0805 58.361 16.2789C58.6289 16.4773 58.845 16.7189 59.0092 17.0122C59.1734 17.3055 59.2598 17.6765 59.2598 18.1078C59.2598 18.6341 59.1388 19.074 58.8968 19.445C58.6548 19.8073 58.3437 20.1093 57.9634 20.3336C57.5831 20.5579 57.151 20.7304 56.6843 20.8339C56.2176 20.9374 55.7509 20.9892 55.2928 20.9892C54.731 20.9892 54.2125 20.9288 53.7371 20.7994C53.2618 20.67 52.8469 20.4802 52.5012 20.23C52.1555 19.9712 51.8789 19.652 51.6802 19.2725C51.4814 18.8929 51.3777 18.4357 51.3604 17.9094H53.3309V17.8922ZM59.7784 11.8792H61.2563V9.22214H63.2095V11.8792H64.9727V13.3372H63.2095V18.0647C63.2095 18.2717 63.2182 18.4443 63.2355 18.5996C63.2528 18.7462 63.296 18.8756 63.3565 18.9791C63.417 19.0827 63.512 19.1603 63.6417 19.2121C63.7713 19.2638 63.9355 19.2897 64.1603 19.2897C64.2985 19.2897 64.4368 19.2897 64.5751 19.2811C64.7134 19.2725 64.8517 19.2552 64.99 19.2207V20.7304C64.7739 20.7563 64.5578 20.7735 64.359 20.7994C64.1516 20.8253 63.9442 20.8339 63.7281 20.8339C63.2095 20.8339 62.7947 20.7822 62.4836 20.6873C62.1724 20.5924 61.9218 20.4457 61.7489 20.2559C61.5674 20.0661 61.4551 19.8332 61.3859 19.5485C61.3254 19.2638 61.2822 18.936 61.2736 18.5737V13.3544H59.7957V11.8792H59.7784ZM66.3555 11.8792H68.205V13.0784H68.2396C68.5162 12.5607 68.8965 12.1984 69.3891 11.9741C69.8817 11.7498 70.4089 11.6377 70.988 11.6377C71.6881 11.6377 72.2931 11.7584 72.8116 12.0086C73.3302 12.2502 73.7623 12.5866 74.108 13.018C74.4537 13.4493 74.7044 13.9497 74.8772 14.519C75.0501 15.0884 75.1365 15.7009 75.1365 16.3479C75.1365 16.9432 75.0587 17.5212 74.9032 18.0733C74.7476 18.6341 74.5142 19.1258 74.2031 19.5571C73.892 19.9885 73.4944 20.3249 73.0104 20.5837C72.5264 20.8426 71.9646 20.972 71.3078 20.972C71.0226 20.972 70.7374 20.9461 70.4522 20.8943C70.1669 20.8426 69.8904 20.7563 69.6311 20.6441C69.3718 20.532 69.1212 20.3853 68.9051 20.2042C68.6804 20.023 68.4989 19.816 68.3433 19.583H68.3088V24H66.3555V11.8792ZM73.1833 16.3134C73.1833 15.9166 73.1314 15.5284 73.0277 15.1488C72.924 14.7692 72.7684 14.4414 72.561 14.1481C72.3536 13.8548 72.0943 13.6218 71.7918 13.4493C71.4806 13.2768 71.1263 13.1819 70.7287 13.1819C69.9077 13.1819 69.2854 13.4666 68.8705 14.0359C68.4557 14.6053 68.2483 15.3645 68.2483 16.3134C68.2483 16.762 68.3001 17.1761 68.4125 17.5557C68.5248 17.9353 68.6804 18.2631 68.9051 18.5392C69.1212 18.8152 69.3805 19.0309 69.683 19.1862C69.9854 19.3501 70.3398 19.4277 70.7374 19.4277C71.1868 19.4277 71.5584 19.3328 71.8696 19.1517C72.1807 18.9705 72.4313 18.729 72.6301 18.4443C72.8289 18.151 72.9758 17.8231 73.0623 17.4522C73.14 17.0812 73.1833 16.7016 73.1833 16.3134ZM76.6317 8.5061H78.585V10.3523H76.6317V8.5061ZM76.6317 11.8792H78.585V20.7304H76.6317V11.8792ZM80.3308 8.5061H82.284V20.7304H80.3308V8.5061ZM88.2734 20.972C87.5647 20.972 86.9338 20.8512 86.3807 20.6183C85.8276 20.3853 85.3609 20.0575 84.9719 19.652C84.5916 19.238 84.2978 18.7462 84.099 18.1768C83.9002 17.6075 83.7965 16.9777 83.7965 16.2962C83.7965 15.6233 83.9002 15.0021 84.099 14.4328C84.2978 13.8634 84.5916 13.3717 84.9719 12.9576C85.3522 12.5435 85.8276 12.2243 86.3807 11.9914C86.9338 11.7584 87.5647 11.6377 88.2734 11.6377C88.9821 11.6377 89.6131 11.7584 90.1662 11.9914C90.7193 12.2243 91.1861 12.5521 91.575 12.9576C91.9553 13.3717 92.2491 13.8634 92.4479 14.4328C92.6467 15.0021 92.7504 15.6233 92.7504 16.2962C92.7504 16.9777 92.6467 17.6075 92.4479 18.1768C92.2491 18.7462 91.9553 19.238 91.575 19.652C91.1947 20.0661 90.7193 20.3853 90.1662 20.6183C89.6131 20.8512 88.9821 20.972 88.2734 20.972ZM88.2734 19.4277C88.7056 19.4277 89.0859 19.3328 89.4056 19.1517C89.7254 18.9705 89.9847 18.729 90.1921 18.4356C90.3996 18.1423 90.5465 17.8059 90.6502 17.4349C90.7453 17.064 90.7971 16.6844 90.7971 16.2962C90.7971 15.9166 90.7453 15.5456 90.6502 15.1661C90.5551 14.7865 90.3996 14.4587 90.1921 14.1653C89.9847 13.872 89.7254 13.6391 89.4056 13.4579C89.0859 13.2768 88.7056 13.1819 88.2734 13.1819C87.8413 13.1819 87.461 13.2768 87.1413 13.4579C86.8215 13.6391 86.5622 13.8807 86.3548 14.1653C86.1473 14.4587 86.0004 14.7865 85.8967 15.1661C85.8016 15.5456 85.7498 15.9166 85.7498 16.2962C85.7498 16.6844 85.8016 17.064 85.8967 17.4349C85.9918 17.8059 86.1473 18.1423 86.3548 18.4356C86.5622 18.729 86.8215 18.9705 87.1413 19.1517C87.461 19.3415 87.8413 19.4277 88.2734 19.4277ZM93.3208 11.8792H94.7987V9.22214H96.752V11.8792H98.5151V13.3372H96.752V18.0647C96.752 18.2717 96.7606 18.4443 96.7779 18.5996C96.7952 18.7462 96.8384 18.8756 96.8989 18.9791C96.9594 19.0827 97.0545 19.1603 97.1841 19.2121C97.3137 19.2638 97.478 19.2897 97.7027 19.2897C97.841 19.2897 97.9792 19.2897 98.1175 19.2811C98.2558 19.2725 98.3941 19.2552 98.5324 19.2207V20.7304C98.3163 20.7563 98.1002 20.7735 97.9014 20.7994C97.694 20.8253 97.4866 20.8339 97.2705 20.8339C96.752 20.8339 96.3371 20.7822 96.026 20.6873C95.7148 20.5924 95.4642 20.4457 95.2913 20.2559C95.1098 20.0661 94.9975 19.8332 94.9284 19.5485C94.8679 19.2638 94.8246 18.936 94.816 18.5737V13.3544H93.3381V11.8792H93.3208Z" fill="white"/>
<path fill-rule="evenodd" clip-rule="evenodd" d="M15.1042 8.50611H24.0581L16.8155 13.7599L19.5811 22.2574L12.3385 17.0036L5.08728 22.2574L7.8616 13.7599L0.610352 8.49748L9.56421 8.50611L12.3385 0L15.1042 8.50611ZM16.8154 13.7599L17.4377 15.6837L12.3385 17.0036L16.8154 13.7599Z" fill="white"/>
</g>
<defs>
<clipPath id="clip0_1898_18833">
<rect width="97.9048" height="24" fill="white" transform="translate(0.610352)"/>
</clipPath>
</defs>
</svg>
