<svg width="152" height="31" viewBox="0 0 152 31" fill="none" xmlns="http://www.w3.org/2000/svg">
<path d="M17.4198 7.10774H13.8306C13.627 7.10774 13.4605 7.27503 13.4605 7.47949V9.40328C12.554 7.91629 10.6391 6.70811 8.12285 6.70811C4.07102 6.70811 0.583496 9.77503 0.583496 15.2676C0.583496 20.7602 3.90451 23.7248 8.27086 23.7248C10.6205 23.7248 12.4614 22.749 13.5345 21.197V22.2379C13.5345 24.5984 12.3967 26.4851 8.7334 26.4851C6.8925 26.4851 5.41238 25.881 4.09878 24.7007C3.93226 24.5613 3.66399 24.5984 3.56223 24.7657L1.95261 27.4981C1.74909 27.8326 1.78609 28.0371 1.9156 28.1765C3.58999 29.6263 5.77316 30.5371 8.92766 30.5371C15.8102 30.5371 17.8176 26.6895 17.8176 22.4423V7.45161C17.7806 7.24715 17.6141 7.11704 17.4106 7.11704L17.4198 7.10774ZM9.29769 19.7193C6.84625 19.7193 5.00535 17.9628 5.00535 15.3048C5.00535 12.6468 6.84625 10.8903 9.29769 10.8903C11.7491 10.8903 13.5623 12.5724 13.5623 15.3048C13.5623 18.0371 11.7491 19.7193 9.29769 19.7193ZM25.7085 0.908857V23.1951C25.7085 23.3996 25.542 23.5669 25.3385 23.5669H21.7122C21.5087 23.5669 21.3422 23.3996 21.3422 23.1951V0.908857C21.3422 0.704396 21.5087 0.537109 21.7122 0.537109H25.3385C25.542 0.537109 25.7085 0.704396 25.7085 0.908857ZM36.3746 6.74529C32.9518 6.74529 30.3709 7.88841 29.196 10.184C29.1313 10.3512 29.159 10.5557 29.3348 10.6579L31.9528 12.5445C32.1193 12.684 32.3598 12.6096 32.4523 12.4423C33.1924 11.1319 34.802 10.6858 36.3746 10.6858C38.3173 10.6858 39.2238 11.3642 39.2238 12.3401V12.6096C39.2238 13.0185 38.9926 13.2137 38.382 13.288L33.8862 13.697C30.8704 14.0037 28.6502 15.8531 28.6502 18.855C28.6502 21.8568 30.9352 23.9758 34.1822 23.9758C36.7354 23.9758 38.3728 22.7304 39.2146 21.4107V23.2602C39.2146 23.4646 39.3811 23.6319 39.5846 23.6319H43.1739C43.3774 23.6319 43.5439 23.4646 43.5439 23.2602V13.446C43.5439 8.86425 41.1295 6.73599 36.3654 6.73599L36.3746 6.74529ZM39.2238 16.9219C39.2238 18.7434 37.7437 20.2955 35.468 20.2955C33.9602 20.2955 33.1554 19.617 33.1554 18.539C33.1554 17.6282 33.8584 16.9219 35.172 16.7174L39.2331 16.2155V16.9219H39.2238ZM60.7688 18.5761C60.7688 22.3215 58.0491 23.9386 53.692 23.9386C50.6763 23.9386 48.0861 23.13 46.6152 21.4479C46.5134 21.3085 46.5134 21.1133 46.6152 20.9739L48.6966 18.2787C48.8354 18.1115 49.1036 18.1115 49.2331 18.2416C50.3432 19.3568 52.0176 20.0631 54.136 20.0631C55.3479 20.0631 56.3192 19.7286 56.3192 18.8178C56.3192 17.907 55.4496 17.7397 52.6929 17.1356C50.2785 16.6338 47.2535 15.5185 47.2535 11.9405C47.2535 8.60402 49.8714 6.71741 54.1638 6.71741C56.9853 6.71741 58.9927 7.56313 60.4358 8.91072C60.5745 9.05012 60.5745 9.24529 60.4728 9.41257L58.4931 11.9776C58.3544 12.1449 58.1231 12.1821 57.9936 12.0427C57.0223 11.1691 55.4126 10.63 53.8308 10.63C52.4894 10.63 51.7493 11.0668 51.7493 11.7732C51.7493 12.5817 52.6189 12.7862 55.5421 13.4274C58.3636 14.0687 60.7781 15.1468 60.7781 18.5854L60.7688 18.5761ZM77.3739 18.5761C77.3739 22.3215 74.6542 23.9386 70.2971 23.9386C67.2813 23.9386 64.6911 23.13 63.2203 21.4479C63.1185 21.3085 63.1185 21.1133 63.2203 20.9739L65.3017 18.2787C65.4404 18.1115 65.7087 18.1115 65.8382 18.2416C66.9483 19.3568 68.6227 20.0631 70.7411 20.0631C71.953 20.0631 72.9243 19.7286 72.9243 18.8178C72.9243 17.907 72.0547 17.7397 69.298 17.1356C66.8836 16.6338 63.8586 15.5185 63.8586 11.9405C63.8586 8.60402 66.4765 6.71741 70.7689 6.71741C73.5903 6.71741 75.5977 7.56313 77.0409 8.91072C77.1796 9.05012 77.1796 9.24529 77.0779 9.41257L75.0982 11.9776C74.9594 12.1449 74.7282 12.1821 74.5987 12.0427C73.6273 11.1691 72.0177 10.63 70.4358 10.63C69.0945 10.63 68.3544 11.0668 68.3544 11.7732C68.3544 12.5817 69.224 12.7862 72.1472 13.4274C74.9687 14.0687 77.3831 15.1468 77.3831 18.5854L77.3739 18.5761ZM96.6154 0.537109H93.0261C92.8226 0.537109 92.6561 0.704396 92.6561 0.908857V9.46834C91.546 7.88841 89.7051 6.67094 87.1519 6.67094C83.1556 6.67094 79.7698 9.77503 79.7698 15.3326C79.7698 20.8903 83.1556 23.9665 87.2167 23.9665C89.6034 23.9665 91.4813 22.9256 92.6561 21.2341V23.1579C92.6561 23.3624 92.8226 23.5297 93.0261 23.5297H96.6154C96.8189 23.5297 96.9855 23.3624 96.9855 23.1579V0.871682C96.9855 0.704396 96.8189 0.537109 96.6154 0.537109ZM88.4933 19.7564C86.0418 19.7564 84.2009 17.9999 84.2009 15.3419C84.2009 12.684 86.0418 10.9274 88.4933 10.9274C90.9447 10.9274 92.7856 12.6096 92.7856 15.3419C92.7856 18.0371 90.9077 19.7564 88.4933 19.7564ZM108.456 6.70811C103.424 6.70811 99.6682 10.184 99.6682 15.3419C99.6682 20.4999 103.424 23.9758 108.456 23.9758C113.489 23.9758 117.245 20.4999 117.245 15.3419C117.245 10.184 113.489 6.70811 108.456 6.70811ZM108.456 19.6821C106.005 19.6821 104.09 17.9256 104.09 15.2955C104.09 12.6654 106.005 10.9089 108.456 10.9089C110.908 10.9089 112.823 12.6654 112.823 15.2955C112.786 17.9628 110.908 19.6821 108.456 19.6821ZM128.419 6.70811C123.387 6.70811 119.631 10.184 119.631 15.3419C119.631 20.4999 123.387 23.9758 128.419 23.9758C133.452 23.9758 137.208 20.4999 137.208 15.3419C137.245 10.2211 133.48 6.70811 128.419 6.70811ZM128.419 19.6821C125.968 19.6821 124.053 17.9256 124.053 15.2955C124.053 12.6654 125.968 10.9089 128.419 10.9089C130.871 10.9089 132.786 12.6654 132.786 15.2955C132.786 17.9256 130.908 19.6821 128.419 19.6821ZM151.408 7.47949C151.408 7.3122 151.269 7.14492 151.139 7.07057C150.806 6.90328 150.297 6.76388 149.298 6.76388C147.013 6.76388 144.969 7.907 144.099 9.79362V7.4702C144.099 7.26573 143.933 7.09845 143.729 7.09845H140.307C140.103 7.09845 139.937 7.26573 139.937 7.4702V23.1951C139.937 23.3996 140.103 23.5669 140.307 23.5669H143.896C144.099 23.5669 144.266 23.3996 144.266 23.1951V16.1133C144.266 12.9442 146.449 11.3921 149.298 11.3921C149.974 11.3921 150.64 11.5315 150.945 11.6616C151.176 11.7267 151.417 11.5594 151.417 11.3271V7.47949H151.408Z" fill="#444444"/>
</svg>
