<svg width="24" height="25" viewBox="0 0 24 25" fill="none" xmlns="http://www.w3.org/2000/svg">
<mask id="mask0_8568_5739" style="mask-type:luminance" maskUnits="userSpaceOnUse" x="0" y="1" width="24" height="23">
<path d="M23.9918 1.79102H0.00830078V23.2104H23.9918V1.79102Z" fill="white"/>
</mask>
<g mask="url(#mask0_8568_5739)">
<path d="M1.82149 20.149L2.87917 21.9752C3.09896 22.3596 3.41489 22.6617 3.78577 22.8813L7.56324 16.3457H0.00830078C0.00830078 16.7713 0.118191 17.197 0.337971 17.5814L1.82149 20.149Z" fill="#0066DA"/>
<path d="M12 8.65675L8.22258 2.12109C7.85172 2.34078 7.53577 2.64285 7.316 3.0273L0.337971 15.11C0.122233 15.4862 0.00858802 15.9121 0.00830078 16.3457H7.56324L12 8.65675Z" fill="#00AC47"/>
<path d="M20.2143 22.8813C20.5852 22.6617 20.9011 22.3596 21.1209 21.9752L21.5605 21.22L23.6622 17.5814C23.8818 17.197 23.9918 16.7713 23.9918 16.3457H16.4363L18.044 19.5037L20.2143 22.8813Z" fill="#EA4335"/>
<path d="M12.0001 8.6562L15.7776 2.12054C15.4067 1.90086 14.9809 1.79102 14.5413 1.79102H9.45893C9.01937 1.79102 8.59354 1.91459 8.22266 2.12054L12.0001 8.6562Z" fill="#00832D"/>
<path d="M16.437 16.3457H7.56336L3.78589 22.8813C4.15677 23.101 4.5826 23.2109 5.02215 23.2109H18.9782C19.4178 23.2109 19.8436 23.0873 20.2145 22.8813L16.437 16.3457Z" fill="#2684FC"/>
<path d="M20.1731 9.06866L16.6841 3.0273C16.4643 2.64285 16.1484 2.34078 15.7775 2.12109L12 8.65675L16.4368 16.3457H23.978C23.978 15.9201 23.8681 15.4945 23.6485 15.11L20.1731 9.06866Z" fill="#FFBA00"/>
</g>
</svg>
