<svg width="122" height="26" viewBox="0 0 122 26" fill="none" xmlns="http://www.w3.org/2000/svg">
<path d="M116.515 20.3994C116.973 20.3994 117.243 20.3248 117.413 20.174C117.544 20.0363 117.611 19.7165 117.611 19.1959V8.52998C117.611 7.98422 117.551 7.62207 117.437 7.44149C117.286 7.2125 116.967 7.098 116.483 7.098H116.113V6.32829L120.408 5.9959V19.2015C120.408 19.8794 120.589 20.2617 120.954 20.3434C121.098 20.3808 121.312 20.3994 121.588 20.3994V21.2281H116.515V20.3994ZM109.777 16.5605C110.172 16.225 110.882 15.9587 111.906 15.757V17.2757C111.906 18.1352 111.774 18.7874 111.517 19.2327C111.185 19.8289 110.751 20.1235 110.211 20.1235C109.891 20.1235 109.62 19.9863 109.401 19.7039C109.181 19.4209 109.069 19.0133 109.069 18.4741C109.068 17.5955 109.307 16.962 109.777 16.5605ZM107.953 12.5006C108.038 12.2761 108.258 12.0613 108.616 11.8575C109.028 11.6257 109.493 11.5048 109.966 11.5064C111.26 11.5064 111.907 12.0976 111.907 13.2829V14.9136C109.992 15.2864 108.622 15.7166 107.788 16.2028C106.702 16.8298 106.155 17.7085 106.155 18.8378C106.155 19.5026 106.359 20.0862 106.771 20.5815C107.308 21.2221 108.103 21.5409 109.157 21.5409C109.757 21.5409 110.331 21.3714 110.878 21.0264C111.387 20.7121 111.769 20.3111 112.027 19.8214V20.3233C112.041 20.75 112.041 21.0571 112.027 21.2266H115.74V20.3984H115.598C115.002 20.3984 114.704 19.9898 114.704 19.1687V14.2206C114.704 11.8328 113.351 10.6373 110.651 10.6373C109.559 10.6373 108.642 10.8679 107.898 11.3289C107.154 11.7884 106.783 12.3901 106.783 13.1386C106.783 13.6541 106.953 14.0622 107.299 14.3588C107.587 14.6056 107.955 14.7388 108.335 14.7335C108.771 14.7335 109.132 14.5969 109.421 14.324C109.713 14.0541 109.86 13.749 109.86 13.4151C109.86 12.5873 109.417 12.1717 108.542 12.1717C108.209 12.1717 107.94 12.2781 107.738 12.4885L107.955 12.5727C107.957 12.5258 107.957 12.5006 107.953 12.5006ZM36.0762 14.847C37.7687 14.847 39.1213 14.5161 40.1387 13.8589C41.2878 13.124 41.8594 12.0386 41.8594 10.597C41.8594 9.09944 41.2787 7.98422 40.1169 7.24881C39.1283 6.61983 37.7909 6.30459 36.1015 6.30459H30.4754V7.11868C31.1439 7.11868 31.5584 7.1671 31.7184 7.25991C31.9916 7.41375 32.1294 7.8324 32.1294 8.51939V19.1263C32.1294 19.6464 32.0163 19.9984 31.7871 20.18C31.5988 20.3243 31.2474 20.3934 30.7288 20.3934H30.4749V21.2221H37.1688V20.3934H36.4721C35.9354 20.3934 35.5708 20.3117 35.3764 20.1361C35.182 19.9666 35.0846 19.6342 35.0846 19.1263V14.847H36.0762ZM38.7886 10.6081C38.7886 12.8037 37.8908 13.9013 36.101 13.9013H35.1593V7.17215H36.101C37.8908 7.17215 38.7886 8.31864 38.7886 10.6081ZM46.1192 12.9243C46.5085 11.3985 47.334 10.6348 48.6023 10.6348C49.0668 10.6348 49.4374 10.7604 49.7171 11.0141C49.9963 11.2678 50.1377 11.6023 50.1377 12.0209C50.14 12.378 50.014 12.7241 49.7827 12.9964C49.5126 13.3101 49.1738 13.4695 48.7654 13.4695C48.3761 13.4695 48.0656 13.349 47.8364 13.1109C47.6167 12.9021 47.5193 12.6453 47.538 12.3407C47.538 12.3124 47.5536 12.2403 47.5789 12.1258C47.1956 12.6075 46.8947 13.4322 46.6685 14.5928C46.4863 15.5229 46.3923 16.3759 46.3923 17.1446V19.1954C46.3923 19.6781 46.4489 19.9919 46.5554 20.1361C46.6872 20.3117 47.0452 20.3934 47.6228 20.3934H47.9712V21.2221H42.3395V20.3934H42.5501C42.9363 20.3934 43.2155 20.3243 43.3852 20.1866C43.5543 20.0544 43.6361 19.716 43.6361 19.1954V14.7229C43.6361 13.1815 43.5952 12.3235 43.5104 12.1525C43.3912 11.8751 43.159 11.7369 42.8136 11.7369H42.5188V10.9107H46.0475L46.1192 12.9243ZM57.8071 19.5778C57.7632 19.6035 57.7193 19.6408 57.6627 19.6726L57.8071 19.5914C57.6314 20.0741 57.3078 20.5069 56.8306 20.8771C56.2901 21.3089 55.6173 21.5419 54.9252 21.5368C53.7321 21.5368 52.8909 21.2105 52.4012 20.5517C52.0119 20.0368 51.814 19.2282 51.814 18.1301V13.8105C51.814 12.838 51.77 12.2706 51.6852 12.1077C51.5661 11.8898 51.2863 11.7768 50.841 11.7768H50.7532V10.9127H54.6525V18.4943C54.6525 19.4976 55.0701 19.9999 55.9052 19.9999C56.5959 19.9999 57.0634 19.5233 57.3053 18.5508C57.4118 18.1619 57.4623 17.6288 57.4623 16.9509V13.8145C57.4623 12.7417 57.4123 12.1505 57.3083 12.036C57.1578 11.865 56.8438 11.7758 56.3631 11.7758H56.0683V10.9117H60.3256V18.6502C60.3256 19.4971 60.3761 19.9924 60.4796 20.1245C60.6113 20.3061 60.8658 20.3939 61.2394 20.3939H61.506V21.2221H57.7263L57.6632 19.5601L57.7263 19.6035L57.745 19.6484L57.8071 19.5778ZM66.1804 10.6752C64.7894 10.6752 63.666 11.2714 62.8117 12.4582C62.0584 13.5154 61.6817 14.7229 61.6817 16.0838C61.6817 17.5768 61.9579 18.7874 62.5229 19.7225C63.2388 20.9326 64.3466 21.5353 65.8512 21.5353C66.6232 21.5353 67.2947 21.2967 67.8668 20.8201C68.3126 20.4377 68.6044 20.0171 68.7397 19.5591L68.6675 19.6156L68.5827 19.5344L68.6549 21.2221H72.3563V20.4055H72.171C71.7474 20.4055 71.4672 20.2925 71.3329 20.0731C71.2264 19.9162 71.1754 19.6216 71.1754 19.201V5.99136L66.8433 6.32224V7.09397H67.1261C67.6724 7.09397 68.0238 7.24276 68.1848 7.53783C68.2793 7.71185 68.3358 8.10528 68.3545 8.72014C68.3545 10.3791 68.3828 11.3496 68.4393 11.626C68.0379 10.9904 67.2816 10.6752 66.1804 10.6752ZM68.3772 14.9676V17.0568C68.3772 17.6273 68.3338 18.1039 68.249 18.4802C67.9915 19.6221 67.4452 20.1987 66.6166 20.1987C65.4548 20.1987 64.8712 18.8247 64.8712 16.0838C64.8712 14.8642 64.9409 13.9653 65.0716 13.3833C65.3377 12.259 65.8684 11.6966 66.66 11.6966C67.8036 11.6961 68.3772 12.7876 68.3772 14.9676ZM75.5099 15.8301H81.7924C81.7823 14.2796 81.4344 13.0559 80.7503 12.1621C79.9783 11.1443 78.8352 10.6348 77.322 10.6348C75.931 10.6348 74.7793 11.1352 73.8619 12.1339C72.939 13.1629 72.481 14.4738 72.481 16.0651C72.481 17.7024 72.8829 19.0007 73.6923 19.9611C74.5592 21.0153 75.7922 21.5353 77.3902 21.5353C78.6302 21.5353 79.6754 21.0778 80.5231 20.1679C81.2648 19.371 81.65 18.518 81.6788 17.6025H80.6337C80.6236 18.2794 80.3666 18.914 79.8617 19.5036C79.2896 20.181 78.609 20.5134 77.8143 20.5134C76.6813 20.5134 75.9653 19.7044 75.6705 18.0858C75.5645 17.5455 75.5099 16.799 75.5099 15.8301ZM77.2912 11.4217C78.3768 11.4217 78.9231 12.6025 78.9231 14.964H75.5099C75.52 14.5958 75.5357 14.2897 75.5544 14.044C75.6983 12.2968 76.2769 11.4217 77.2912 11.4217ZM85.877 12.2529C86.1128 11.7748 86.4895 11.3874 87.0035 11.0863C87.519 10.7851 88.0895 10.6343 88.7206 10.6343C90.7897 10.6343 91.8248 11.7571 91.8248 14.0042V18.7001C91.8248 19.2201 91.8288 19.5334 91.8374 19.6408C91.8748 20.1422 92.1954 20.3929 92.7886 20.3929H93.0052V21.2211H88.9867V13.6425C88.9867 13.1185 88.9246 12.7422 88.7984 12.5132C88.6171 12.1793 88.2748 12.0113 87.7689 12.0113C87.2923 12.0113 86.9091 12.2433 86.6203 12.7109C86.3355 13.18 86.1901 13.8695 86.1901 14.7825V18.6683C86.1901 19.5404 86.2305 20.0292 86.3183 20.1235C86.491 20.3056 86.7985 20.3934 87.2383 20.3934H87.4109V21.2221H82.1746V20.3934H82.4543C82.9885 20.3934 83.2738 20.1432 83.3147 19.6408C83.3334 19.5223 83.3429 19.1828 83.3429 18.6244V13.4665C83.3429 12.665 83.2834 12.1773 83.1642 12.0017C83.0486 11.8247 82.7966 11.7369 82.4144 11.7369H82.1761V10.9107H85.877V12.2529ZM96.9005 21.5348C95.1834 21.5348 94.32 20.5618 94.32 18.6179V11.7748H92.4741V10.9481H92.7573C93.7681 10.9481 94.6214 10.3806 95.3252 9.23866C95.9276 8.28081 96.2361 7.30026 96.2548 6.30459H97.1212V10.9481H99.0923V11.7748H97.1212V18.9629C97.1212 19.8103 97.3827 20.2365 97.9063 20.2365C98.3678 20.2365 98.6667 19.8345 98.801 19.0315C98.8479 18.743 98.8732 18.1654 98.8732 17.3065H99.84C99.84 18.7248 99.7113 19.6958 99.4568 20.2042C99.0282 21.0955 98.1744 21.5348 96.9005 21.5348ZM13.328 0.962028C6.05538 0.962028 1.30427 6.93357 1.30427 12.4925C1.30427 15.6853 2.08282 17.2752 2.93661 18.799C4.01356 15.9083 6.16595 10.1572 6.16595 10.1572C6.16595 10.1572 7.16868 9.63965 7.16868 9.71531L8.61421 6.04432L9.54373 5.56262L10.6959 3.11479L13.2154 3.52284L18.3386 6.37671L24.0899 7.97212C22.608 4.19117 18.4138 0.962028 13.328 0.962028ZM13.2522 25.5806C10.0986 25.5806 6.24017 24.4704 3.45565 21.0582H23.016C20.7495 23.9877 16.8562 25.5806 13.2522 25.5806ZM17.1142 20.4685H15.3309L18.64 16.3506L18.9727 16.9806L17.1142 20.4685ZM18.8596 7.37744L13.1836 4.0797L11.1039 3.70796V5.2277L12.7004 6.71264L10.4727 6.5245C10.4727 6.5245 10.5449 6.63749 12.3989 8.60211L20.8626 10.0104L22.3445 10.9748L18.489 11.1599L16.8941 16.9806L11.6593 20.4685H8.24361L9.3958 18.2043L9.20898 18.1296L6.12758 20.4695H5.38689L8.5405 16.053C8.68944 14.7941 8.61421 15.3499 8.80102 13.0867L8.31884 12.4209L7.05659 17.3135L4.42102 20.469H3.75202L5.31065 18.2789L7.5004 11.5695L6.94299 11.8267L5.97762 14.497L5.31065 14.8667C5.31065 14.8667 3.75202 18.6492 2.9356 20.4993C1.74959 18.8005 0.412109 16.5009 0.412109 12.493C0.412109 6.48667 5.57168 0.148438 13.328 0.148438C20.7873 0.148438 24.7619 6.08063 25.4274 9.15593L18.8596 7.37744ZM22.5328 16.0525L21.4528 16.9806L19.3055 20.4685H17.8928L19.3055 17.9778L20.4168 17.0558L22.0178 12.5692L23.7193 13.2733L22.5328 16.0525ZM23.537 20.4685H20.6803L23.3866 16.2028L24.203 13.4211L25.9106 14.0153C25.7601 16.1655 25.0568 18.3485 23.537 20.4685ZM20.0462 15.3499L19.1924 15.5012L19.4186 13.7928L19.1924 13.4589L19.4186 11.5301L21.6038 12.4209L20.0462 15.3499ZM100.526 20.3994H100.799C101.207 20.3994 101.464 20.2673 101.567 20.0171C101.633 19.835 101.664 19.3831 101.664 18.6557V13.2642C101.664 12.5334 101.595 12.1051 101.444 11.975C101.3 11.8464 101.083 11.7823 100.798 11.7823H100.525V10.9556H104.464V18.6552C104.464 19.5026 104.515 19.9979 104.622 20.1417C104.754 20.3172 104.999 20.3989 105.369 20.3989H105.652V21.2276H100.526V20.3994ZM101.276 8.06745C101.276 7.60189 101.44 7.20796 101.77 6.8801C101.925 6.72171 102.11 6.59651 102.316 6.51213C102.521 6.42776 102.741 6.38597 102.962 6.38932C103.185 6.38611 103.406 6.42793 103.612 6.51227C103.818 6.59661 104.005 6.72173 104.161 6.8801C104.498 7.20796 104.664 7.60139 104.664 8.06745C104.664 8.53452 104.498 8.93451 104.161 9.26842C103.829 9.60686 103.43 9.77483 102.962 9.77483C102.495 9.77483 102.099 9.60686 101.77 9.26842C101.61 9.11216 101.484 8.92511 101.399 8.71865C101.314 8.51218 101.272 8.29062 101.276 8.06745Z" fill="#717475"/>
</svg>
