<svg width="67" height="68" viewBox="0 0 67 68" fill="none" xmlns="http://www.w3.org/2000/svg">
<path d="M34.7891 66.1614C34.7536 66.0815 34.7181 66.0105 34.6737 65.9394C34.6293 65.8595 34.567 65.7884 34.5049 65.7351C34.4516 65.6729 34.3805 65.6196 34.3095 65.5752C34.2295 65.5219 34.1585 65.4864 34.0785 65.4509C33.9986 65.4154 33.9187 65.3887 33.8299 65.3709C33.6523 65.3354 33.4835 65.3354 33.3147 65.3709C33.2348 65.3976 33.1459 65.4154 33.066 65.4509C32.986 65.4864 32.915 65.5219 32.835 65.5752C32.764 65.6196 32.693 65.6818 32.6397 65.7351C32.5775 65.7884 32.5243 65.8595 32.4799 65.9394C32.4266 66.0105 32.391 66.0904 32.3555 66.1614C32.32 66.2414 32.2934 66.3302 32.2756 66.4101C32.2667 66.499 32.2489 66.5789 32.2489 66.6766C32.2489 66.7565 32.2578 66.8454 32.2756 66.9342C32.3022 67.023 32.32 67.1029 32.3555 67.1829C32.391 67.2628 32.4266 67.3339 32.4799 67.4138C32.5243 67.4849 32.5864 67.5559 32.6397 67.6092C32.693 67.6803 32.764 67.7247 32.835 67.778C32.915 67.8224 32.986 67.8579 33.066 67.8934C33.1459 67.9289 33.2348 67.9467 33.3147 67.9734C33.3946 67.9822 33.4835 68 33.5812 68C33.9276 68 34.2739 67.8579 34.5137 67.6092C34.5848 67.5559 34.6293 67.4849 34.6826 67.4138C34.727 67.3339 34.7625 67.2628 34.798 67.1829C34.8336 67.1029 34.8513 67.023 34.8779 66.9342C34.8868 66.8542 34.9046 66.7654 34.9046 66.6766C34.9046 66.5878 34.8957 66.4901 34.8779 66.4101C34.8424 66.3302 34.8158 66.2414 34.7891 66.1614ZM66.1867 31.7351C65.6893 13.9446 51.3628 0 33.5545 0C15.7552 0 1.42863 13.9357 0.931247 31.7351C0.931247 31.8062 0.940146 31.8772 0.949028 31.9483C0.949028 31.9838 0.940129 32.0193 0.931247 32.0637C0.877956 32.8009 1.43753 33.4316 2.16585 33.476C2.19249 33.476 2.228 33.476 2.25464 33.476C2.94743 33.476 3.53363 32.9342 3.57804 32.2325C3.80897 28.8307 6.65122 26.175 10.053 26.175C13.4548 26.175 16.3058 28.8396 16.5278 32.2325C16.5723 32.9164 17.1319 33.4316 17.7891 33.4671C17.798 33.4671 17.8069 33.476 17.8247 33.476C17.8513 33.476 17.8868 33.476 17.9135 33.476C18.6063 33.476 19.1925 32.9342 19.2369 32.2325C19.4678 28.8307 22.3101 26.175 25.7118 26.175C29.1136 26.175 31.9646 28.8396 32.1867 32.2325C32.2311 32.9164 32.7996 33.4316 33.448 33.4671C33.4568 33.4671 33.4658 33.476 33.4835 33.476C33.5102 33.476 33.5457 33.476 33.5723 33.476C34.2651 33.476 34.8513 32.9342 34.8957 32.2325C35.1266 28.8307 37.9689 26.175 41.3707 26.175C44.7724 26.175 47.6235 28.8396 47.8455 32.2325C47.8899 32.9164 48.4584 33.4316 49.1068 33.4671C49.1157 33.4671 49.1246 33.476 49.1335 33.476C49.1601 33.476 49.1956 33.476 49.2223 33.476C49.9151 33.476 50.5012 32.9342 50.5457 32.2325C50.7766 28.8307 53.6188 26.175 57.0206 26.175C60.4224 26.175 63.2734 28.8396 63.4955 32.2325C63.5487 32.9697 64.1972 33.5204 64.9078 33.4671C65.645 33.4138 66.1955 32.7832 66.1423 32.0549C66.1423 32.0193 66.1335 31.9749 66.1335 31.9394C66.1779 31.8772 66.1867 31.8062 66.1867 31.7351ZM57.0561 23.5193C53.7609 23.5193 50.8388 25.2868 49.2223 27.9514C47.6146 25.2868 44.6835 23.5193 41.3883 23.5193C38.0931 23.5193 35.171 25.2868 33.5545 27.9514C31.938 25.2868 29.0159 23.5193 25.7207 23.5193C22.4255 23.5193 19.5033 25.2868 17.8868 27.9514C16.2703 25.2868 13.3482 23.5193 10.053 23.5193C7.9391 23.5193 5.98501 24.2477 4.43067 25.4645C7.61928 12.2659 19.3879 2.65569 33.5456 2.65569C47.7123 2.65569 59.4809 12.2659 62.6695 25.4645C61.124 24.2477 59.1611 23.5193 57.0561 23.5193Z" fill="#444444"/>
<path d="M63.5304 32.2414C63.5215 32.046 63.4949 31.8595 63.4683 31.6641L38.4657 56.7288L50.4474 32.7477C50.4474 32.7477 50.4474 32.7477 50.4474 32.7388C50.2253 33.1829 49.7724 33.476 49.2572 33.476C49.2306 33.476 49.195 33.476 49.1683 33.476C49.1594 33.476 49.1506 33.476 49.1417 33.4671C48.4845 33.4316 47.9249 32.9164 47.8805 32.2325C47.8716 32.1526 47.8627 32.0726 47.8538 31.9927L34.8862 57.9279V32.4013C34.7707 33.023 34.229 33.4849 33.5895 33.4849C33.5628 33.4849 33.5272 33.4849 33.5006 33.4849C33.4917 33.4849 33.4829 33.4849 33.4651 33.476C32.8434 33.4404 32.3193 32.9697 32.2305 32.3391V57.7947L19.2807 32.0016C19.2718 32.0815 19.254 32.1615 19.254 32.2414C19.2096 32.9431 18.6234 33.4849 17.9307 33.4849C17.904 33.4849 17.8685 33.4849 17.8419 33.4849C17.833 33.4849 17.8241 33.4849 17.8063 33.476C17.3178 33.4493 16.8825 33.1562 16.6694 32.721C16.6694 32.7299 16.6783 32.7388 16.6783 32.7477L28.7133 56.72L3.65734 31.6641C3.63069 31.8506 3.60409 32.046 3.58632 32.2414C3.54191 32.9431 2.95572 33.4849 2.26293 33.4849C2.23628 33.4849 2.20077 33.4849 2.17413 33.4849C1.82773 33.4582 1.53455 33.3072 1.3125 33.0763C1.32138 33.0852 1.32139 33.0852 1.32139 33.0941L33.5628 65.3354C33.5806 65.3354 33.5983 65.3443 33.6249 65.3443L65.7953 33.0941C65.8042 33.0852 65.8041 33.0763 65.813 33.0763C65.591 33.3072 65.289 33.4671 64.9426 33.4849C64.2321 33.5293 63.5748 32.9697 63.5304 32.2414Z" fill="#F3C45A"/>
</svg>
