<svg width="27" height="27" viewBox="0 0 27 27" fill="none" xmlns="http://www.w3.org/2000/svg">
<circle cx="13.668" cy="13.2817" r="13" fill="#4E6383"/>
<path fill-rule="evenodd" clip-rule="evenodd" d="M10.3465 10.7397C10.0625 10.7397 9.83251 10.5027 9.87651 10.2227C10.1515 8.52174 11.4475 7.28174 13.6965 7.28174C15.9465 7.28174 17.4635 8.64174 17.4635 10.4967C17.4635 11.8407 16.7985 12.7847 15.6735 13.4697C14.5735 14.1287 14.2595 14.4399 14.2595 15.3319V15.3619C14.2595 15.4945 14.2068 15.6217 14.1131 15.7154C14.0193 15.8092 13.8921 15.8619 13.7595 15.8619H12.9895C12.8578 15.8619 12.7313 15.8099 12.6377 15.7172C12.5441 15.6245 12.4908 15.4986 12.4895 15.3669L12.4865 15.1669C12.4435 13.9459 12.9635 13.3137 14.1315 12.6027C15.1615 11.9707 15.5285 11.4677 15.5285 10.5747C15.5285 9.59574 14.7705 8.87674 13.6025 8.87674C12.5935 8.87674 11.8925 9.40574 11.6645 10.2787C11.5985 10.5327 11.3865 10.7397 11.1245 10.7397H10.3475H10.3465ZM13.3675 19.2817C13.9895 19.2817 14.4625 18.8077 14.4625 18.1917C14.4625 17.5737 13.9895 17.0997 13.3675 17.0997C12.7615 17.0997 12.2805 17.5737 12.2805 18.1907C12.2805 18.8077 12.7615 19.2817 13.3675 19.2817Z" fill="white" stroke="white" stroke-width="0.25"/>
</svg>
