<svg width="86" height="28" viewBox="0 0 86 28" fill="none" xmlns="http://www.w3.org/2000/svg">
<g clip-path="url(#clip0_936_17096)">
<path d="M26.4266 27.3577C26.3782 27.1582 26.3078 26.9602 26.2858 26.7578C26.2609 26.5408 26.2799 26.3193 26.2799 26.0993V7.41093C26.2799 7.23932 26.2799 7.06919 26.2799 6.89759C26.2785 6.66292 26.4207 6.54119 26.6275 6.53532C27.1893 6.52065 27.751 6.52359 28.3127 6.53532C28.5005 6.53972 28.6149 6.66732 28.6251 6.85946C28.6339 7.02959 28.6266 7.20119 28.6266 7.37279C28.6266 10.9148 28.6266 14.4568 28.6281 17.9988C28.6281 18.2306 28.5665 18.4696 28.7953 18.6647C29.0387 18.8715 29.2851 19.0006 29.6122 19.0006C31.9325 18.9947 34.2542 18.9859 36.5745 19.0065C37.1172 19.0109 37.5836 18.5591 37.5792 18.0091C37.5616 15.2972 37.5748 12.5854 37.5689 9.87494C37.5689 9.1944 37.2272 8.88053 36.5085 8.88053C34.4317 8.8776 32.3564 8.88053 30.2795 8.88053C30.1813 8.88053 30.0845 8.87613 29.9862 8.88053C29.7427 8.89373 29.4479 8.92453 29.3731 8.64147C29.2969 8.3584 29.4773 8.1032 29.6841 7.90226C29.9158 7.67639 30.787 6.87999 31.1742 6.55145C31.6846 6.54559 32.195 6.53532 32.7054 6.53385C33.7072 6.53092 34.7089 6.54852 35.7106 6.52652C36.1492 6.51625 36.4909 6.65999 36.7725 6.97972C37.167 7.42706 39.7117 9.73267 39.8833 10.1492C40.0549 10.5672 39.9215 11.1113 39.9215 11.5997C39.9215 13.6516 39.9215 15.7035 39.9215 17.7554C39.5753 18.1015 39.2571 18.4799 38.8787 18.785C38.094 19.4157 37.4956 20.2238 36.7725 20.9117C36.4645 21.205 36.1418 21.359 35.7048 21.3546C34.0929 21.337 32.4796 21.3399 30.8677 21.3546C30.5787 21.3575 30.3822 21.2754 30.171 21.0745C29.7193 20.6477 28.7747 19.7457 28.6281 19.6034V20.0933C28.6281 22.2918 28.6281 24.4903 28.6281 26.6889C28.6281 26.925 28.6515 27.1641 28.4799 27.3606H26.4266V27.3577Z" fill="#717475"/>
<path d="M85.3874 21.198C85.2364 21.2464 85.0868 21.3315 84.9342 21.3373C84.4708 21.3564 84.0058 21.3491 83.5409 21.3432C83.1302 21.3373 83.0422 21.2523 83.0422 20.8372C83.0378 19.3221 83.0407 17.8056 83.0407 16.2905C83.0407 16.1189 83.0422 15.9488 83.0407 15.7772C83.0334 15.1421 82.7987 14.8942 82.1725 14.8928C79.7774 14.8884 77.3808 14.8913 74.9858 14.8928C74.7995 14.8928 74.6118 14.8488 74.4548 15.035C74.2862 15.2345 74.1087 15.4384 74.1028 15.695C74.0823 16.5252 74.0838 17.3568 74.0999 18.1884C74.1072 18.5771 74.5164 18.9643 74.9051 18.9965C75.0503 19.0083 75.1984 18.998 75.3451 18.998C77.4234 18.998 79.5002 19.0068 81.5785 18.9892C81.9481 18.9863 82.2443 19.0449 82.4453 19.3779C81.9935 20.1156 81.2822 20.6377 80.6853 21.2655C80.609 21.3461 80.4198 21.3417 80.2834 21.3417C78.7918 21.3461 77.3017 21.3417 75.81 21.3476C75.4815 21.3491 75.2131 21.2391 75.0004 21C74.5707 20.516 74.0779 20.1009 73.6834 19.5729C73.2492 18.9907 72.6626 18.5243 72.1478 18.0021C71.7019 17.5489 71.5963 16.8112 71.897 16.2509C71.9732 16.1086 72.0686 15.9708 72.1815 15.8564C73.1964 14.8326 74.2231 13.8192 75.2336 12.7896C75.4199 12.5989 75.6062 12.5358 75.8687 12.5373C77.507 12.5505 79.1438 12.5534 80.7821 12.5373C81.1957 12.5329 81.5051 12.681 81.7809 12.967C82.171 13.3704 82.5699 13.7649 83.0422 14.2416V13.5977C83.0422 12.3994 83.0437 11.2026 83.0422 10.0043C83.0407 9.1962 82.7415 8.88087 81.9613 8.8794C79.7363 8.87647 77.5129 8.8794 75.2879 8.8794C75.0738 8.8794 74.8728 8.85447 74.6998 9.06567C74.49 9.32234 74.2466 9.5482 74.2436 9.90607C74.2378 10.5177 74.2422 11.1278 74.2422 11.7761H72.0422C72.0422 11.3478 72.0319 10.9137 72.0466 10.4795C72.0554 10.217 72.1756 9.99261 72.3634 9.80487C73.4003 8.76793 74.4387 7.73246 75.4727 6.69259C75.5812 6.58406 75.6824 6.52686 75.8482 6.52686C77.7065 6.53566 79.5633 6.53419 81.4215 6.52979C81.7017 6.52979 81.9261 6.65886 82.0962 6.84219C82.5362 7.31446 83.007 7.75446 83.4192 8.26193C83.997 8.9718 84.726 9.55847 85.3904 10.1979V21.198H85.3874Z" fill="#717475"/>
<path d="M0.613281 16.358C0.809816 16.1365 0.99755 15.9048 1.20728 15.6951C2.15329 14.7402 3.11103 13.7972 4.0541 12.838C4.2521 12.637 4.43837 12.5314 4.74197 12.5344C6.37878 12.5549 8.01705 12.5534 9.65386 12.5373C10.0689 12.5329 10.3755 12.6869 10.6512 12.9714C11.0897 13.4202 11.5371 13.8602 12.0548 14.378V13.9453C12.0548 12.7236 12.0343 11.5004 12.0695 10.2801C12.0783 9.97649 11.9741 9.71396 11.8861 9.46902C11.7717 9.14929 11.5312 8.87062 11.0897 8.87355C8.81639 8.88675 6.54305 8.88382 4.27117 8.87355C3.99543 8.87355 3.76663 8.95715 3.5569 9.09942C3.3545 9.23729 3.22543 9.41915 3.24743 9.70516C3.27823 10.1188 3.24156 10.5368 3.26063 10.9504C3.27383 11.2672 3.21223 11.5517 3.03623 11.8128C2.47449 11.8128 1.91129 11.8172 1.34955 11.8113C1.03275 11.8069 0.92715 11.6984 0.909549 11.3918C0.906616 11.3434 0.909549 11.2936 0.909549 11.2452C0.909549 10.9269 0.823016 10.5749 0.934483 10.3021C1.04448 10.0308 1.34955 9.83716 1.57102 9.61275C1.98462 9.19622 2.45982 8.82662 2.80009 8.35728C3.22983 7.76328 3.7857 7.30568 4.26383 6.76741C4.42077 6.59141 4.58944 6.52687 4.8285 6.52687C6.66185 6.53714 8.49519 6.53861 10.3271 6.52687C10.5969 6.52541 10.7729 6.61781 10.9475 6.81141C11.6119 7.54328 12.2851 8.26635 12.97 8.97915C13.1636 9.18009 13.3719 9.36195 13.6183 9.52182C14.0407 9.79609 14.2724 10.2068 14.268 10.7832C14.2416 14.2782 14.2548 17.7733 14.2548 21.3183C13.9072 21.3828 13.5464 21.3373 13.1915 21.3461C12.8277 21.3535 12.4655 21.3476 12.0548 21.3476V18.5551C12.0548 17.7733 12.046 16.9901 12.0592 16.2084C12.0636 15.9195 12.0064 15.6555 11.9096 15.3885C11.782 15.0365 11.6089 14.8957 11.2349 14.8957C8.81492 14.8928 6.39638 14.8928 3.97637 14.8957C3.42636 14.8957 2.98929 15.2991 2.96729 15.8667C2.94089 16.5751 2.93063 17.2864 2.97609 17.9919C2.99369 18.2705 3.11836 18.5932 3.30463 18.7941C3.4513 18.9525 3.73583 19.0127 4.0145 19.0097C6.16464 18.9921 8.31625 18.9995 10.4664 19.0009C10.6996 19.0009 10.9475 18.9423 11.1396 19.1461C11.1939 19.2033 11.298 19.24 11.3127 19.3031C11.3317 19.3837 11.3141 19.5113 11.2613 19.5656C10.6981 20.1435 10.1305 20.7155 9.54973 21.2743C9.48079 21.3417 9.32973 21.3432 9.21679 21.3432C7.67678 21.3476 6.13678 21.3432 4.59824 21.3505C4.40757 21.3505 4.28877 21.2816 4.16263 21.154C3.09489 20.0789 2.02129 19.0097 0.952083 17.9361C0.824482 17.8129 0.724748 17.6663 0.613281 17.5313C0.613281 17.1397 0.613281 16.7496 0.613281 16.358Z" fill="#717475"/>
<path d="M17.6267 0.371094C18.0036 0.723096 18.3893 1.06776 18.756 1.43003C19.5216 2.1839 20.2608 2.96564 21.0455 3.69898C21.3608 3.99378 21.4503 4.29738 21.4488 4.71392C21.4342 9.06114 21.443 13.4098 21.4356 17.7585C21.4356 18.3115 21.641 18.706 22.1616 18.9099C22.2878 18.9597 22.43 18.992 22.565 18.9949C23.1018 19.0037 23.64 18.9935 24.1768 19.0008C24.5802 19.0067 24.6594 19.0932 24.6638 19.5185C24.6682 19.982 24.6711 20.4469 24.6638 20.9104C24.6579 21.2287 24.5523 21.3284 24.2384 21.3445C24.2135 21.3445 24.19 21.3445 24.1651 21.3445C23.7251 21.3445 23.2426 21.4575 22.8583 21.3108C22.5048 21.1759 22.2584 20.7608 21.9592 20.4748C21.8287 20.3501 21.685 20.2416 21.4518 20.0436V21.3445C19.7446 21.3445 18.0872 21.3475 16.4313 21.3416C16.1263 21.3416 16.0177 21.2199 16.0133 20.9031C16.006 20.4147 16.006 19.9263 16.0133 19.4379C16.0177 19.1211 16.1263 19.0052 16.4343 19.0008C16.996 18.992 17.5577 18.9993 18.1195 18.9979C18.382 18.9979 18.6152 19.0023 18.8381 18.7661C19.0479 18.5447 19.0963 18.3335 19.0948 18.0577C19.0875 16.4693 19.0919 14.8824 19.0919 13.294C19.0919 10.1435 19.0919 6.99166 19.0919 3.84124C19.0919 3.57871 19.1212 3.32791 18.8557 3.12697C18.5917 2.92604 18.3556 2.71191 17.9963 2.71631C17.4829 2.72364 16.9696 2.72364 16.4577 2.71631C16.1409 2.71191 16.0236 2.60337 16.0148 2.30124C16.0045 1.9595 16.0427 1.61337 16.0045 1.27603C15.962 0.912296 16.094 0.635095 16.3067 0.371094H17.6267V0.371094Z" fill="#717475"/>
<path d="M53.1204 14.378C53.1204 12.8204 53.1248 11.383 53.1175 9.9457C53.1146 9.44703 52.7068 8.88676 52.0424 8.88236C49.7706 8.86916 47.4987 8.87209 45.2268 8.88236C44.6753 8.88382 44.3351 9.24756 44.3219 9.81223C44.3101 10.3256 44.3248 10.8389 44.3175 11.3508C44.3116 11.7072 44.2104 11.8054 43.8452 11.8098C43.238 11.8172 42.6293 11.8113 41.9723 11.8113C41.9723 11.3816 41.984 10.9724 41.9679 10.5632C41.9561 10.2566 42.0867 10.0102 42.2876 9.8181C42.666 9.45583 43.0855 9.13756 43.4624 8.77382C44.1297 8.12849 44.7839 7.46995 45.4307 6.80408C45.6096 6.61928 45.7812 6.52248 46.0525 6.52395C47.836 6.53861 49.6195 6.53715 51.403 6.52395C51.6435 6.52248 51.8034 6.60168 51.9662 6.76741C52.9972 7.81022 54.0313 8.84862 55.077 9.8753C55.2691 10.063 55.3234 10.2522 55.3234 10.5118C55.3146 14.1023 55.3175 17.6912 55.3175 21.3124H53.1175V17.216C53.1175 16.776 53.116 16.336 53.1175 15.8975C53.1175 15.7068 53.0662 15.5455 52.984 15.3651C52.8212 15.0043 52.5866 14.884 52.2082 14.8869C50.303 14.8987 48.3978 14.8913 46.4911 14.8913C46.0511 14.8913 45.6111 14.8913 45.1725 14.8913C44.5331 14.8928 44.3571 15.1099 44.1532 15.7215C43.9288 16.3903 44.0667 17.0547 44.0329 17.7191C44.0197 17.964 44.0549 18.2603 44.1855 18.4539C44.3747 18.7355 44.5888 19.0141 45.0361 19.0083C47.1863 18.9848 49.335 18.998 51.4851 18.998C51.6318 18.998 51.7975 18.954 51.9207 19.0083C52.0864 19.0816 52.2478 19.2107 52.3519 19.3588C52.3886 19.4101 52.2756 19.6081 52.1891 19.6976C51.6787 20.2241 51.161 20.7434 50.633 21.2508C50.5611 21.3198 50.4188 21.3403 50.3088 21.3403C48.7703 21.3462 47.2303 21.3359 45.6917 21.352C45.4659 21.355 45.3368 21.267 45.1945 21.1247C44.1444 20.0672 43.1001 19.0039 42.0295 17.9669C41.5499 17.502 41.5557 16.3697 42.0368 15.9092C43.0591 14.9295 44.0476 13.9116 45.0493 12.9098C45.2913 12.6678 45.5685 12.5358 45.9235 12.5388C47.5353 12.5476 49.1487 12.549 50.7606 12.5388C51.117 12.5358 51.3971 12.6517 51.6406 12.8981C52.104 13.3674 52.5719 13.8324 53.1175 14.3765L53.1204 14.378Z" fill="#717475"/>
<path d="M67.9338 11.8114C67.9338 11.0707 67.9338 10.4107 67.9338 9.75217C67.9338 9.56444 67.8854 9.40017 67.8091 9.2183C67.6918 8.93963 67.5407 8.8751 67.2753 8.87657C65.0283 8.88243 62.7814 8.88097 60.533 8.8795C59.9243 8.8795 59.5723 9.32977 59.5737 9.8343C59.5767 11.9346 59.5781 14.0363 59.5708 16.1366C59.5708 16.3463 59.6207 16.4915 59.7761 16.6426C60.511 17.3583 61.234 18.0858 61.9542 18.8162C62.0818 18.9453 62.2064 19.004 62.3927 19.004C63.9796 18.9966 65.568 19.0039 67.1565 18.9966C67.6537 18.9937 67.9294 18.6915 67.9353 18.1723C67.9426 17.4903 67.9367 16.8083 67.9367 16.0955H70.1001C70.1162 16.1278 70.1367 16.1483 70.1353 16.1689C70.1309 16.7027 70.1235 17.2381 70.1162 17.7719C69.7701 18.1181 69.4181 18.4554 69.0822 18.8103C68.3694 19.5628 67.6581 20.3181 66.9599 21.0837C66.7824 21.2788 66.5991 21.3536 66.3336 21.3521C64.7467 21.3389 63.1583 21.3433 61.5699 21.3492C61.366 21.3492 61.2164 21.3125 61.0595 21.1541C59.9125 19.9866 58.7509 18.8338 57.5937 17.6766C57.3517 17.4346 57.2241 17.1574 57.2256 16.801C57.2344 14.7242 57.2329 12.6489 57.2256 10.572C57.2256 10.3638 57.2755 10.22 57.4265 10.0646C58.4723 8.9895 59.5107 7.90563 60.5359 6.80856C60.7383 6.59295 60.9422 6.52255 61.2311 6.52402C62.9163 6.53722 64.6015 6.53869 66.2867 6.52402C66.5786 6.52109 66.7898 6.58562 66.979 6.81295C67.4072 7.32922 67.9881 7.70176 68.3342 8.3031C68.4281 8.46736 68.6774 8.5363 68.8285 8.67563C69.1159 8.93963 69.3741 9.2359 69.663 9.49844C70.0003 9.80497 70.1807 10.1584 70.1411 10.6234C70.1206 10.8654 70.1426 11.1118 70.1367 11.3552C70.1265 11.7072 70.0282 11.804 69.6586 11.8084C69.0998 11.8158 68.5425 11.8099 67.9382 11.8099L67.9338 11.8114Z" fill="#717475"/>
</g>
<defs>
<clipPath id="clip0_936_17096">
<rect width="84.7738" height="26.9868" fill="white" transform="translate(0.613281 0.371094)"/>
</clipPath>
</defs>
</svg>
