<svg width="112" height="19" viewBox="0 0 112 19" fill="none" xmlns="http://www.w3.org/2000/svg">
<g clip-path="url(#clip0_936_17090)">
<path d="M9.35676 1.184C9.13226 0.781501 8.70306 0.530762 8.24085 0.530762H0.8125L10.5255 17.911C10.8424 18.4718 11.648 18.4784 11.9649 17.911L15.0881 12.4277C15.2532 12.144 15.2532 11.7876 15.0881 11.5039L9.35676 1.184Z" fill="#717475"/>
<path d="M20.0733 1.184C19.8488 0.781501 19.4196 0.530762 18.9574 0.530762H11.5225L21.2354 17.911C21.5524 18.4718 22.358 18.4784 22.6749 17.911L25.7981 12.4277C25.9632 12.144 25.9632 11.7876 25.7981 11.5039L20.0733 1.184Z" fill="#717475"/>
<path d="M26.1813 4.19288C27.1915 5.88207 26.0228 8.58081 27.0463 10.303L32.3286 0.530762H21.2158C22.2459 2.25294 25.1776 2.50368 26.1879 4.19288H26.1813Z" fill="#717475"/>
<path d="M50.6585 4.63502H49.2983C49.1464 4.63502 49.0672 4.7142 49.021 4.85276L48.1692 8.09918L47.2448 11.5765L46.1883 8.21795L45.0724 4.83297C45.0328 4.68121 44.9205 4.62842 44.7818 4.62842H43.9565C43.8178 4.62842 43.7056 4.68121 43.6659 4.83297L42.5632 8.21795L41.5596 11.6161L40.7342 8.15197L39.8692 4.85276C39.8296 4.7142 39.7306 4.63502 39.5787 4.63502H38.1062C37.9279 4.63502 37.8421 4.74719 37.8883 4.92535L40.721 14.0839C40.7474 14.2357 40.8597 14.3017 40.9983 14.3017H42.002C42.1407 14.3017 42.2331 14.2357 42.2793 14.0971L44.3592 7.52512L46.492 14.0971C46.5316 14.2357 46.6307 14.3017 46.7693 14.3017H47.7598C47.8984 14.3017 48.0107 14.2357 48.0503 14.0839L50.883 4.92535C50.9358 4.74719 50.8434 4.63502 50.6651 4.63502H50.6585Z" fill="#717475"/>
<path d="M60.2394 12.6386H55.7098V10.2566H59.6187C59.7838 10.2566 59.8828 10.1576 59.8828 10.0059V8.83796C59.8828 8.673 59.7838 8.57403 59.6187 8.57403H55.7098V6.30417H60.18C60.3451 6.30417 60.4441 6.2052 60.4441 6.04024V4.87232C60.4441 4.72056 60.3451 4.62158 60.18 4.62158H54.0722C53.9072 4.62158 53.8081 4.72056 53.8081 4.87232V14.0441C53.8081 14.1959 53.9072 14.2948 54.0722 14.2948H60.2394C60.3913 14.2948 60.4903 14.1959 60.4903 14.0441V12.8762C60.4903 12.7112 60.3913 12.6254 60.2394 12.6254V12.6386Z" fill="#717475"/>
<path d="M67.4896 8.52818C66.1558 8.13228 65.5219 7.90793 65.5219 7.2085C65.5219 6.50907 66.1822 6.16595 67.0604 6.16595C67.9386 6.16595 68.5989 6.3837 69.2063 6.773C69.345 6.87198 69.4969 6.83899 69.5761 6.69382L70.1704 5.71726C70.2562 5.59189 70.2562 5.45332 70.1175 5.36095C69.3912 4.85287 68.3678 4.52295 67.0736 4.52295C64.9936 4.52295 63.5938 5.63808 63.5938 7.34047C63.5938 9.04286 64.8748 9.66311 66.5123 10.1184C67.9584 10.5143 68.5064 10.864 68.5064 11.6294C68.5064 12.3948 67.8593 12.7842 66.9943 12.7842C66.0567 12.7842 65.1653 12.507 64.3531 11.9198C64.2145 11.8208 64.0758 11.8538 64.0098 11.9857L63.3495 13.0283C63.2703 13.1801 63.2967 13.3318 63.4155 13.4242C64.3069 14.0576 65.4691 14.4272 66.9679 14.4272C69.0347 14.4272 70.3949 13.2988 70.3949 11.4975C70.3949 9.6961 69.1271 9.00986 67.4896 8.52818V8.52818Z" fill="#717475"/>
<path d="M80.854 4.63502H73.0361C72.871 4.63502 72.7852 4.73399 72.7852 4.88576V6.05367C72.7852 6.21863 72.8644 6.31761 73.0361 6.31761H76.0074V14.0575C76.0074 14.2093 76.0866 14.3083 76.2583 14.3083H77.6516C77.8166 14.3083 77.9157 14.2093 77.9157 14.0575V6.31101H80.8606C81.0257 6.31101 81.1247 6.21203 81.1247 6.04707V4.87916C81.1247 4.72739 81.0257 4.62842 80.8606 4.62842L80.854 4.63502Z" fill="#717475"/>
<path d="M89.8471 12.2299C89.7679 12.0913 89.6425 12.0649 89.5038 12.1507C89.134 12.3553 88.4605 12.6588 87.4701 12.6588C85.4628 12.6588 84.1686 11.3919 84.1686 9.46515C84.1686 7.53842 85.476 6.29132 87.4701 6.29132C88.4605 6.29132 89.134 6.60804 89.5038 6.8126C89.6425 6.91157 89.7679 6.87858 89.8471 6.73341L90.4414 5.67767C90.5075 5.5391 90.4942 5.40054 90.3622 5.32136C89.8405 4.99144 88.8501 4.52295 87.3644 4.52295C84.2676 4.52295 82.2207 6.68063 82.2207 9.48495C82.2207 12.2893 84.2544 14.4338 87.3644 14.4338C88.9359 14.4338 89.9264 13.9389 90.3358 13.6617C90.5141 13.5496 90.5141 13.4308 90.448 13.2922L89.8538 12.2365L89.8471 12.2299Z" fill="#717475"/>
<path d="M97.7573 4.82612C97.7045 4.70075 97.5922 4.63477 97.4535 4.63477H96.6282C96.4895 4.63477 96.364 4.70075 96.3244 4.82612L92.29 14.0111C92.224 14.1893 92.3032 14.3014 92.4947 14.3014H93.9672C94.1058 14.3014 94.1983 14.2354 94.2577 14.0969L94.9444 12.4341H99.0845L99.7712 14.0969C99.824 14.2354 99.9231 14.3014 100.062 14.3014H101.534C101.726 14.3014 101.812 14.1893 101.739 14.0111L97.7507 4.82612H97.7573ZM95.5585 10.8241L97.0309 7.33351L98.4902 10.8241H95.5585V10.8241Z" fill="#717475"/>
<path d="M107.239 4.63477H104.09C103.925 4.63477 103.826 4.73374 103.826 4.8855V14.0573C103.826 14.209 103.925 14.308 104.09 14.308H105.476C105.628 14.308 105.727 14.209 105.727 14.0573V11.5301H107.16C109.557 11.5169 111.195 10.2236 111.195 8.13192C111.195 6.04023 109.583 4.64136 107.246 4.64136L107.239 4.63477ZM107.14 9.83431H105.721V6.31076H107.14C108.461 6.31076 109.234 7.12236 109.234 8.09893C109.234 9.07549 108.487 9.83431 107.14 9.83431V9.83431Z" fill="#717475"/>
</g>
<defs>
<clipPath id="clip0_936_17090">
<rect width="110.375" height="17.8025" fill="white" transform="translate(0.8125 0.530762)"/>
</clipPath>
</defs>
</svg>
