<svg width="48" height="48" viewBox="0 0 48 48" fill="none" xmlns="http://www.w3.org/2000/svg">
<path d="M24.7 31.3C24.8833 31.1167 24.9793 30.8834 24.988 30.6C24.996 30.3167 24.9083 30.0834 24.725 29.9L19.825 25H31C31.2833 25 31.521 24.904 31.713 24.712C31.9043 24.5207 32 24.2834 32 24C32 23.7167 31.9043 23.479 31.713 23.287C31.521 23.0957 31.2833 23 31 23H19.825L24.725 18.1C24.9083 17.9167 24.996 17.6834 24.988 17.4C24.9793 17.1167 24.8833 16.8834 24.7 16.7C24.5167 16.5167 24.2833 16.425 24 16.425C23.7167 16.425 23.4833 16.5167 23.3 16.7L16.7 23.3C16.6 23.3834 16.529 23.4874 16.487 23.612C16.4457 23.7374 16.425 23.8667 16.425 24C16.425 24.1334 16.4457 24.2584 16.487 24.375C16.529 24.4917 16.6 24.6 16.7 24.7L23.3 31.3C23.4833 31.4834 23.7167 31.575 24 31.575C24.2833 31.575 24.5167 31.4834 24.7 31.3V31.3Z" fill="#444444"/>
<rect x="0.5" y="0.5" width="47" height="47" rx="23.5" stroke="#717475" stroke-opacity="0.2"/>
</svg>
