<svg width="146" height="34" viewBox="0 0 146 34" fill="none" xmlns="http://www.w3.org/2000/svg">
<g clip-path="url(#clip0_2192_532)">
<path fill-rule="evenodd" clip-rule="evenodd" d="M11.9229 2.19733C11.4653 2.47021 11.0314 2.72784 10.6746 2.8753C10.2847 3.03631 9.77458 3.17021 9.2339 3.31174C7.87373 3.66767 6.18136 4.10919 4.86102 5.43038C3.53898 6.74987 3.09661 8.44055 2.74068 9.79902C2.6 10.3397 2.4661 10.8499 2.30424 11.2406C2.15678 11.5948 1.9 12.0278 1.62797 12.4846C0.901695 13.7067 0 15.2236 0 17.1558C0 19.0889 0.901695 20.605 1.62627 21.8253C1.89915 22.2838 2.15678 22.7168 2.30424 23.0728C2.4661 23.4626 2.6 23.9736 2.74068 24.5134C3.09661 25.8719 3.53898 27.5626 4.86017 28.8838C6.1822 30.2033 7.87288 30.6448 9.2322 31.0007C9.77627 31.1431 10.2856 31.2761 10.6746 31.438C11.0305 31.5855 11.4644 31.8422 11.9229 32.1143C13.1432 32.8389 14.6619 33.7405 16.5949 33.7405C18.5297 33.7405 20.0483 32.8389 21.2678 32.1143C21.7288 31.8414 22.1619 31.5846 22.5153 31.438C22.9051 31.2761 23.4144 31.1431 23.9534 31.0016C25.3178 30.6456 27.0093 30.2033 28.3297 28.8829C29.6517 27.5626 30.0941 25.8728 30.45 24.5143C30.5907 23.9736 30.7254 23.4634 30.8873 23.0736C31.0347 22.7177 31.2924 22.2838 31.5653 21.8261C32.289 20.6058 33.1907 19.0889 33.1907 17.1567C33.1907 15.2244 32.289 13.7075 31.5653 12.4889C31.2924 12.0295 31.0347 11.5956 30.8873 11.2406C30.7254 10.8507 30.5907 10.3397 30.45 9.79987C30.0941 8.4397 29.6508 6.74987 28.3297 5.43038C27.0093 4.10919 25.3178 3.66767 23.9576 3.31174C23.4169 3.17106 22.9068 3.03631 22.5161 2.8753C22.1602 2.72784 21.7263 2.47021 21.2678 2.19733C20.0475 1.4736 18.5297 0.572754 16.5949 0.572754C14.6619 0.572754 13.1441 1.4736 11.9229 2.19733ZM10.2729 11.3838C10.05 11.3278 9.82203 11.255 9.65 11.1007C8.93814 10.4643 10.1025 10.0228 10.5898 9.90411C13.0271 9.31597 15.5356 9.04225 18.0415 9.00835C19.4034 8.9914 20.778 9.04479 22.1008 9.36852C22.6949 9.51428 23.2898 9.72275 23.7661 10.1092C23.9975 10.2973 24.2051 10.5448 24.2432 10.8406C24.2797 11.1363 24.0839 11.4728 23.7881 11.5007C23.6845 11.5042 23.581 11.4913 23.4814 11.4626C23.322 11.4261 23.1661 11.3889 23.0373 11.477C22.8746 11.5872 22.8729 11.8244 22.9186 12.016C23.1915 13.1304 24.4398 13.7761 24.7839 14.8719C24.8297 15.016 24.8517 15.1872 24.7568 15.3041C24.678 15.3999 24.5449 15.427 24.4229 15.4482C23.8534 15.5439 23.2788 15.6414 22.7017 15.6177C22.1237 15.5948 21.5356 15.4414 21.0822 15.0838C20.4203 14.5626 20.1381 13.7007 19.6093 13.0456C19.039 12.338 18.1975 11.9016 17.3102 11.6761C17.1352 11.6315 16.9581 11.5953 16.7797 11.5677C15.7051 11.3956 14.6093 11.4812 13.522 11.5439C13.0907 11.5694 12.6568 11.5897 12.2237 11.5897C11.5653 11.5897 10.9102 11.5422 10.2729 11.3838ZM12.2703 17.1304C11.9585 17.0448 11.6314 16.9363 11.4212 16.6897C11.0085 16.2067 11.189 15.3092 11.5703 14.8609C11.9983 14.3592 12.7254 14.1744 13.3432 14.0533C14.4424 13.8372 15.5636 13.7397 16.6822 13.7617C17.1441 13.7719 17.6331 13.81 18.0102 14.0787C18.4466 14.3897 18.6339 14.938 18.7949 15.449C18.8246 15.5422 18.8542 15.6397 18.8602 15.7363C18.864 15.787 18.8597 15.8379 18.8475 15.8872C18.8119 16.0244 18.7059 16.1321 18.6008 16.2261C17.7729 16.9702 16.6771 17.3744 15.5695 17.4846C15.3373 17.5083 15.1051 17.5185 14.8729 17.5185C13.9958 17.5185 13.1178 17.3643 12.2703 17.1304ZM26.0636 21.077C25.9983 21.0634 25.9373 21.0343 25.8856 20.9922C25.5822 20.7804 25.2924 20.5363 25.0958 20.2219C24.5297 19.3151 24.5814 17.7516 25.4297 17.049C25.4736 17.0067 25.5285 16.9773 25.5881 16.9643C25.6737 16.9524 25.7551 17.0016 25.8237 17.0558C26.4593 17.549 26.683 18.4007 26.8068 19.1965C26.8458 19.4524 26.8797 19.7134 26.8653 19.9711C26.8602 20.0558 26.85 20.1406 26.8314 20.2253C26.7636 20.5626 26.5661 20.8914 26.2534 21.0363C26.2044 21.0621 26.1502 21.0766 26.0949 21.0787C26.0847 21.0787 26.0746 21.0787 26.0636 21.077ZM20.0347 21.4634C19.8139 21.4646 19.5937 21.4413 19.378 21.3939C18.8879 21.2803 18.4015 21.1514 17.9195 21.0075C17.7094 20.9421 17.5094 20.8477 17.3254 20.727C17.1441 20.6092 17.0695 20.416 17.0839 20.1939C17.0958 20.0295 17.1025 19.8643 17.1119 19.6905C17.1119 19.5346 17.1169 19.3694 17.111 19.2041C17.1025 18.9744 17.1703 18.7651 17.3373 18.6143C17.5097 18.4507 17.7015 18.309 17.9085 18.1922C18.4144 17.9228 18.9314 17.6753 19.4466 17.4253C19.9042 17.2033 20.378 17.1567 20.8644 17.3177C21.2441 17.4431 21.6212 17.5728 21.9975 17.7075C22.4449 17.8668 22.7144 18.1651 22.7263 18.6609C22.7314 18.9482 22.739 19.2346 22.7517 19.5211C22.772 20.01 22.5356 20.3507 22.1254 20.5795C21.7237 20.8033 21.3136 21.0117 20.9068 21.2261C20.6356 21.3702 20.3475 21.4634 20.0424 21.4634H20.0347ZM22.2263 25.7889C21.8763 25.616 21.5364 25.4211 21.1907 25.2397C20.8475 25.06 20.7161 24.7787 20.8153 24.4067C20.9288 23.9787 21.0441 23.5507 21.1653 23.1261C21.2703 22.755 21.5127 22.4821 21.8339 22.2906C22.3417 21.9892 22.8562 21.6993 23.3771 21.4211C23.6992 21.2482 24.0246 21.2431 24.3297 21.4838C24.5212 21.6346 24.7169 21.7787 24.9144 21.9211C25.2475 22.1583 25.3356 22.4965 25.289 22.8753C25.2328 23.3188 25.1667 23.761 25.0907 24.2016C25.0212 24.6083 24.8161 24.9304 24.45 25.1355C24.083 25.3422 23.7153 25.5473 23.3466 25.7499C23.146 25.8576 22.9264 25.9252 22.7 25.949C22.5415 25.8973 22.3737 25.8626 22.2263 25.788" fill="#333333"/>
<path d="M116.507 23.7111H119.314V12.6875H116.507V23.7111Z" fill="#333333"/>
<path d="M117.924 7.86792C116.893 7.87493 116.113 8.66533 116.146 9.66955C116.178 10.6571 116.949 11.3871 117.947 11.373C118.953 11.3599 119.672 10.6238 119.672 9.60909C119.671 8.6075 118.923 7.86179 117.924 7.86792Z" fill="#333333"/>
<path fill-rule="evenodd" clip-rule="evenodd" d="M144.409 9.65016V9.67382C144.605 9.74743 144.716 9.89464 144.777 10.1637C144.837 10.4695 144.874 10.5913 144.923 10.6649H144.421C144.372 10.606 144.339 10.4766 144.297 10.3089C144.286 10.2668 144.275 10.2223 144.263 10.1759C144.226 9.95511 144.103 9.85784 143.846 9.85784H143.626V10.6649H143.161V8.65909C143.345 8.62229 143.601 8.59775 143.932 8.59775C144.312 8.59775 144.483 8.65909 144.629 8.74497C144.693 8.79903 144.743 8.86671 144.777 8.94301C144.811 9.0193 144.828 9.10225 144.825 9.18573C144.825 9.4048 144.654 9.57568 144.409 9.65016ZM143.639 9.52836H143.859C144.115 9.52836 144.324 9.44161 144.324 9.23481C144.324 9.05079 144.189 8.92811 143.895 8.92811C143.773 8.92811 143.687 8.94038 143.639 8.95264V9.52836Z" fill="#333333"/>
<path fill-rule="evenodd" clip-rule="evenodd" d="M143.943 7.60767C142.793 7.60767 141.875 8.5006 141.875 9.61259C141.875 10.7509 142.793 11.6429 143.943 11.6429C145.107 11.6429 146 10.7509 146 9.61259C146 8.49972 145.106 7.60767 143.943 7.60767ZM143.956 11.2153C143.05 11.2153 142.39 10.5055 142.39 9.61259C142.39 8.73281 143.05 8.01163 143.943 8.01163C144.837 8.01163 145.485 8.73281 145.485 9.62486C145.485 10.5055 144.837 11.2153 143.956 11.2153Z" fill="#333333"/>
<path d="M52.6134 8.9212C52.9025 8.7109 53.2452 8.63466 53.6036 8.62327L53.6044 8.62414C53.9462 8.61363 54.3028 8.66445 54.6384 8.72054L54.6419 23.6821H51.6985L51.6547 15.4582C50.7735 16.3639 50.076 17.4211 49.3779 18.4791C48.7785 19.3875 48.1786 20.2967 47.4617 21.1111C47.2926 21.303 47.0989 21.4993 46.8474 21.5449C46.3997 21.6238 46.036 21.2066 45.7749 20.8351L41.8842 15.2883L41.8518 23.6935L38.9285 23.697L38.9267 23.2948C38.9138 19.4637 38.9106 15.6326 38.9171 11.8015L38.9206 9.64589C38.9206 9.57738 38.9176 9.5062 38.9145 9.43412C38.9078 9.27673 38.901 9.11484 38.925 8.96765C38.9758 8.66883 39.4289 8.60048 39.6777 8.59085C40.0562 8.58286 40.4281 8.69013 40.7442 8.89842C41.2638 9.23316 41.6283 9.75455 41.9797 10.2628L46.7791 17.2003L52.0263 9.59506C52.1962 9.34883 52.3706 9.09646 52.6134 8.9212Z" fill="#333333"/>
<path fill-rule="evenodd" clip-rule="evenodd" d="M82.6698 13.7793C84.3426 12.202 87.3149 11.8865 89.4215 12.9968C91.3668 14.0238 92.4525 16.2933 92.1327 18.6751C92.1181 18.7854 92.0856 18.8934 92.0477 19.0195C92.0287 19.0825 92.0082 19.1508 91.9881 19.2254H83.8317C84.1515 21.6816 86.9662 22.2179 90.5791 20.4951L91.6858 22.4632C90.0174 23.6077 88.2332 24.1001 86.2879 23.9704C83.8124 23.8057 81.9328 22.6832 81.1459 20.2638C80.3616 17.8514 80.7463 15.5906 82.6698 13.7793ZM86.6376 14.7318C85.1601 14.7248 83.9964 15.6668 83.8229 17.0294H89.2734C89.1358 15.6738 88.0519 14.7379 86.6376 14.7318Z" fill="#333333"/>
<path d="M101.559 12.6103C102.026 12.6181 102.494 12.6269 102.961 12.6374L103.749 12.6567L99.572 23.555C99.2241 24.4628 98.8736 25.3759 98.3566 26.1979C97.8387 27.0189 97.1377 27.7532 96.2509 28.152C95.0513 28.69 93.6028 28.5454 92.4531 27.9075L92.9359 25.5503C94.055 26.1514 95.5981 25.7764 96.3166 24.7292C96.512 24.4435 96.6522 24.1079 96.6496 23.7618C96.6479 23.413 96.5041 23.0836 96.3639 22.7646L92.5434 14.0912L92.2533 13.434C92.2224 13.3633 92.1869 13.2915 92.1511 13.2188C92.0795 13.0737 92.0062 12.925 91.9641 12.7768C91.9282 12.651 91.9557 12.6505 92.0801 12.6481L92.0895 12.6479C92.1654 12.645 92.2413 12.646 92.3173 12.647C92.3553 12.6475 92.3932 12.6479 92.4312 12.6479L94.5693 12.6488C94.7595 12.6488 94.9619 12.6523 95.1205 12.7575C95.2844 12.8644 95.3676 13.0589 95.4421 13.2412C96.3333 15.4371 97.2157 17.6392 98.0858 19.8448C98.8474 17.8003 99.558 15.7372 100.217 13.6574C100.328 13.3051 100.463 12.9213 100.784 12.7373C101.013 12.605 101.293 12.6059 101.559 12.6103Z" fill="#333333"/>
<path fill-rule="evenodd" clip-rule="evenodd" d="M55.9946 18.1519C55.9999 14.8097 58.5288 12.3491 61.9638 12.343C65.3209 12.3377 67.9006 14.8351 67.9146 18.108C67.9295 21.4975 65.3839 24.0369 61.9717 24.0369C58.5218 24.0369 55.9894 21.5431 55.9946 18.1519ZM58.882 18.1203C58.8618 19.9552 60.2262 21.3906 61.97 21.3678C63.6901 21.3459 65.0387 19.9298 65.0334 18.1483C65.0273 16.4247 63.6507 15.02 61.9638 15.0165C60.2551 15.0121 58.9004 16.3765 58.882 18.1203Z" fill="#333333"/>
<path fill-rule="evenodd" clip-rule="evenodd" d="M120.512 18.1115C120.529 14.7808 123.084 12.3272 126.519 12.343C129.876 12.3579 132.454 14.8886 132.432 18.1483C132.408 21.5562 129.871 24.0536 126.448 24.0369C123.004 24.0203 120.494 21.5141 120.512 18.1115ZM123.397 18.1326C123.383 19.9395 124.697 21.3415 126.426 21.3678C128.133 21.3941 129.525 19.9859 129.548 18.2071C129.571 16.4501 128.183 15.013 126.467 15.0165C124.759 15.02 123.41 16.3888 123.397 18.1326Z" fill="#333333"/>
<path d="M72.148 13.8493C73.4326 12.3132 75.094 12.0328 76.8948 12.5717C78.671 13.1027 79.6296 14.4662 79.7155 16.253C79.7976 17.9771 79.7794 19.7059 79.7611 21.45V21.4514C79.7532 22.2003 79.7453 22.9521 79.7453 23.7075H76.8825V22.9302C76.8812 22.3924 76.8824 21.8546 76.8835 21.3169V21.3118C76.8863 20.0305 76.8891 18.7494 76.8588 17.4692C76.8229 15.8875 75.9326 14.9902 74.5095 14.9937C73.1136 14.9972 72.0796 16.0023 72.0384 17.5025C72.0047 18.7587 72.007 20.0157 72.0093 21.273C72.0103 21.812 72.0113 22.3509 72.0095 22.8899V23.711H69.1502V12.6935H71.8903L71.9464 13.9431C71.9769 13.9291 72.0066 13.9187 72.0337 13.9092C72.083 13.892 72.1242 13.8776 72.148 13.8493Z" fill="#333333"/>
<path d="M141.525 12.598C143.301 13.2526 144.187 14.6301 144.254 16.4422C144.317 18.1139 144.303 19.7882 144.289 21.481V21.4827C144.283 22.2169 144.276 22.9553 144.276 23.6978H141.399L141.399 21.7797C141.399 20.595 141.399 19.4102 141.398 18.2255C141.397 17.9337 141.394 17.6419 141.377 17.3518C141.29 15.9095 140.443 15.0244 139.128 14.9955C137.729 14.9639 136.625 15.9059 136.569 17.3299C136.518 18.6087 136.522 19.8904 136.525 21.1722C136.527 21.7113 136.528 22.2503 136.526 22.7891V23.7005H133.688V12.6769H136.402L136.463 13.965C136.503 13.9341 136.54 13.9078 136.574 13.8835C136.637 13.8389 136.69 13.8012 136.733 13.7547C137.967 12.4175 139.795 11.9601 141.525 12.598Z" fill="#333333"/>
<path d="M104.749 8.72221H107.699V20.8175H115.34V23.7057H104.749V8.72221Z" fill="#333333"/>
</g>
<defs>
<clipPath id="clip0_2192_532">
<rect width="146" height="34" fill="white"/>
</clipPath>
</defs>
</svg>
