<svg width="89" height="150" viewBox="0 0 89 150" fill="none" xmlns="http://www.w3.org/2000/svg">
<path d="M88.4597 126.288V0H0.363525V126.288L44.4404 150L88.4597 126.288Z" fill="#002171"/>
<path d="M88.4597 0H0.363525V88.0962H88.4597V0Z" fill="#E50000"/>
<path d="M22.2866 13.5577V14.7692C22.2866 16.9615 21.5943 18.75 20.152 20.1346C18.7674 21.5192 16.9212 22.2115 14.6712 22.2115C12.3058 22.2115 10.2866 21.4615 8.7289 19.9038C7.17121 18.3461 6.36353 16.4423 6.36353 14.1923C6.36353 11.9423 7.11353 10.0384 8.67122 8.48074C10.2289 6.92305 12.1904 6.11536 14.4404 6.11536C17.3251 6.11536 19.8635 7.49997 21.1904 9.69228L18.5943 11.1923C17.8443 9.92305 16.2866 9.05767 14.4404 9.05767C12.9404 9.05767 11.7289 9.5192 10.8058 10.5C9.88275 11.423 9.42122 12.6923 9.42122 14.1346C9.42122 15.5769 9.88276 16.7884 10.8635 17.7692C11.8443 18.6923 13.1135 19.1538 14.7289 19.1538C17.0943 19.1538 18.7097 18.0577 19.2289 16.2115H14.5558V13.5L22.2866 13.5577Z" fill="white"/>
<path d="M26.8443 12.6922C27.3635 11.3076 28.6328 10.5576 30.0174 10.5576V13.7307C29.2097 13.6153 28.4597 13.7884 27.7674 14.2499C27.1328 14.7115 26.7866 15.4615 26.7866 16.5576V21.8076H24.0751V10.7884H26.7866V12.6922H26.8443Z" fill="white"/>
<path d="M34.6327 17.4808C34.9789 18.8654 36.0174 19.5577 37.7481 19.5577C38.8443 19.5577 39.652 19.2115 40.2289 18.4615L42.5366 19.7885C41.4404 21.3462 39.825 22.1538 37.7481 22.1538C35.902 22.1538 34.4597 21.5769 33.3635 20.4808C32.2673 19.3846 31.6904 18 31.6904 16.3269C31.6904 14.6538 32.2673 13.2692 33.3058 12.1731C34.402 11.0769 35.7866 10.5 37.5173 10.5C39.1327 10.5 40.4597 11.0769 41.4981 12.1731C42.5366 13.2692 43.0558 14.6538 43.0558 16.3269C43.0558 16.6731 42.9981 17.0769 42.9404 17.4808H34.6327ZM40.2289 15.2885C39.8827 13.7885 38.7866 13.0385 37.4597 13.0385C35.9597 13.0385 34.9212 13.8462 34.575 15.2885H40.2289Z" fill="white"/>
<path d="M53.3251 10.7884H56.152V21.8076H53.3251V20.4807C52.4597 21.5769 51.2482 22.0961 49.7482 22.0961C48.2482 22.0961 46.979 21.5192 45.9405 20.423C44.902 19.3269 44.3828 17.8846 44.3828 16.2692C44.3828 14.6538 44.902 13.2692 45.9405 12.1153C46.979 11.0192 48.2482 10.4423 49.7482 10.4423C51.3059 10.4423 52.5174 10.9615 53.3251 12.0576V10.7884ZM50.2674 19.4423C51.1328 19.4423 51.8828 19.1538 52.4597 18.5769C53.0367 18 53.3251 17.25 53.3251 16.3269C53.3251 15.4038 53.0367 14.6538 52.4597 14.0769C51.8828 13.5 51.1328 13.2115 50.2674 13.2115C49.402 13.2115 48.652 13.5 48.0751 14.0769C47.4982 14.6538 47.2097 15.4038 47.2097 16.3269C47.2097 17.25 47.4982 18 48.0751 18.5769C48.652 19.1538 49.402 19.4423 50.2674 19.4423Z" fill="white"/>
<path d="M65.5558 13.5577H63.0173V18.1731C63.0173 19.3846 63.8827 19.3846 65.4981 19.2693V21.8654C61.575 22.3269 60.1327 21.1731 60.1327 18.1731V13.5577H58.2289V10.7885H60.1327V8.53848L62.9596 7.6731V10.7885H65.4404L65.5558 13.5577Z" fill="white"/>
<path d="M14.2097 25.8461C15.7097 25.8461 16.9789 26.3653 17.9597 27.3461C18.9981 28.3268 19.4597 29.5961 19.4597 31.0384C19.4597 32.4807 18.9404 33.7499 17.9597 34.7307C16.9212 35.7115 15.652 36.2307 14.2097 36.2307H11.4981V41.3076H8.44043V25.8461H14.2097ZM14.2097 33.3461C15.5366 33.3461 16.4597 32.3076 16.4597 30.9807C16.4597 29.6538 15.5366 28.6153 14.2097 28.6153H11.4981V33.2884L14.2097 33.3461Z" fill="white"/>
<path d="M21.5366 41.3077V25.9615H24.3635V41.3077H21.5366Z" fill="white"/>
<path d="M35.8443 30.2308H38.6712V41.25H35.8443V39.9231C34.9789 41.0193 33.7674 41.5385 32.2674 41.5385C30.7674 41.5385 29.4981 40.9616 28.4597 39.8654C27.4212 38.7693 26.902 37.3269 26.902 35.7116C26.902 34.0962 27.4212 32.7116 28.4597 31.5577C29.4981 30.4616 30.7674 29.8846 32.2674 29.8846C33.8251 29.8846 35.0366 30.4039 35.8443 31.5V30.2308ZM32.7866 38.8846C33.652 38.8846 34.402 38.5962 34.9789 38.0193C35.5558 37.4423 35.8443 36.6923 35.8443 35.7693C35.8443 34.8462 35.5558 34.0962 34.9789 33.5193C34.402 32.9423 33.652 32.6539 32.7866 32.6539C31.9212 32.6539 31.1712 32.9423 30.5943 33.5193C30.0174 34.0962 29.7289 34.8462 29.7289 35.7693C29.7289 36.6923 30.0174 37.4423 30.5943 38.0193C31.1712 38.5962 31.9212 38.8846 32.7866 38.8846Z" fill="white"/>
<path d="M42.8251 39.923C41.7289 38.8269 41.152 37.4423 41.152 35.7692C41.152 34.0961 41.7289 32.7692 42.8251 31.6153C43.9212 30.5192 45.3635 29.9423 46.9789 29.9423C49.1135 29.9423 51.0174 31.0384 51.9404 32.7692L49.4597 34.2115C48.9981 33.2884 48.0751 32.7115 46.9212 32.7115C45.2481 32.7115 43.9789 33.9807 43.9789 35.7115C43.9789 36.5769 44.2674 37.2692 44.8443 37.9038C45.4212 38.4807 46.1135 38.7692 46.9789 38.7692C48.1328 38.7692 49.0558 38.1923 49.5174 37.3269L51.9981 38.7115C51.0174 40.4423 49.1712 41.5961 47.0366 41.5961C45.3635 41.5961 43.9212 41.0192 42.8251 39.923Z" fill="white"/>
<path d="M56.5558 36.923C56.902 38.3076 57.9404 39 59.6712 39C60.7674 39 61.5751 38.6538 62.152 37.9038L64.4597 39.2307C63.3635 40.7884 61.7481 41.5961 59.6712 41.5961C57.8251 41.5961 56.3828 41.0192 55.2866 39.923C54.1904 38.8269 53.6135 37.4423 53.6135 35.7692C53.6135 34.0961 54.1904 32.7115 55.2289 31.6153C56.3251 30.5192 57.7097 29.9423 59.4404 29.9423C61.0558 29.9423 62.3828 30.5192 63.4212 31.6153C64.4597 32.7115 64.9789 34.0961 64.9789 35.7692C64.9789 36.1153 64.9212 36.5192 64.8635 36.923H56.5558ZM62.152 34.7307C61.8058 33.2307 60.7097 32.4807 59.3828 32.4807C57.8828 32.4807 56.8443 33.2884 56.4981 34.7307H62.152Z" fill="white"/>
<path d="M17.7867 46.0385V48.8077H13.6328V60.75H10.5751V48.8077H6.42126V46.0385H17.7867Z" fill="white"/>
<path d="M22.5173 61.0385C20.902 61.0385 19.5173 60.4616 18.3635 59.3654C17.2673 58.2693 16.6904 56.8269 16.6904 55.2116C16.6904 53.5962 17.2673 52.2116 18.3635 51.0577C19.4597 49.9616 20.902 49.3846 22.5173 49.3846C24.1327 49.3846 25.5173 49.9616 26.6712 51.0577C27.7673 52.1539 28.3443 53.5385 28.3443 55.2116C28.3443 56.8846 27.7673 58.2116 26.6712 59.3654C25.575 60.5193 24.1904 61.0385 22.5173 61.0385ZM22.5173 58.2116C23.3827 58.2116 24.075 57.9231 24.652 57.3462C25.2289 56.7693 25.5173 56.0193 25.5173 55.1539C25.5173 54.2885 25.2289 53.5385 24.652 52.9616C24.075 52.3846 23.3827 52.0962 22.5173 52.0962C21.652 52.0962 20.9597 52.3846 20.3827 52.9616C19.8058 53.5385 19.5173 54.2885 19.5173 55.1539C19.5173 56.0193 19.8058 56.7693 20.3827 57.3462C20.9597 57.9231 21.652 58.2116 22.5173 58.2116Z" fill="white"/>
<path d="M11.152 81.0576L6.82507 65.5961H10.0558L12.9981 77.0768L16.2289 65.5961H18.8251L22.0558 77.0768L24.9981 65.5961H28.2289L23.902 81.0576H20.4405L17.4981 70.8461L14.6135 81.0576H11.152Z" fill="white"/>
<path d="M33.8251 81.3461C32.2097 81.3461 30.8251 80.7692 29.6713 79.673C28.5174 78.5769 27.9982 77.1346 27.9982 75.5192C27.9982 73.9038 28.5751 72.5192 29.6713 71.3653C30.7674 70.2115 32.2097 69.6923 33.8251 69.6923C35.4405 69.6923 36.8251 70.2692 37.9789 71.3653C39.1328 72.4615 39.652 73.8461 39.652 75.5192C39.652 77.1923 39.0751 78.5192 37.9789 79.673C36.8828 80.8269 35.4405 81.3461 33.8251 81.3461ZM33.8251 78.5769C34.6905 78.5769 35.3828 78.2884 35.9597 77.7115C36.5366 77.1346 36.8251 76.3846 36.8251 75.5192C36.8251 74.6538 36.5366 73.9038 35.9597 73.3269C35.3828 72.75 34.6905 72.4615 33.8251 72.4615C32.9597 72.4615 32.2674 72.75 31.6905 73.3269C31.1136 73.9038 30.8251 74.6538 30.8251 75.5192C30.8251 76.3846 31.1136 77.1346 31.6905 77.7115C32.2097 78.2884 32.9597 78.5769 33.8251 78.5769Z" fill="white"/>
<path d="M44.4982 71.8846C45.0174 70.5 46.3443 69.75 47.8443 69.75V72.9231C46.979 72.8077 46.1713 72.9808 45.479 73.4423C44.7867 73.9039 44.4405 74.6539 44.4405 75.75V81H41.6713V69.9808H44.4982V71.8846Z" fill="white"/>
<path d="M60.1905 81.0576H56.902L52.8635 76.0384V81.0576H50.0366V65.5961H52.8635V74.8845L56.6712 70.0384H60.0751L55.6328 75.4615L60.1905 81.0576Z" fill="white"/>
<path d="M61.1713 79.0384C61.1713 77.6538 62.2674 76.5576 63.652 76.5576C65.0944 76.5576 66.1328 77.6538 66.1328 79.0384C66.1328 80.423 65.0367 81.5192 63.652 81.5192C62.3251 81.5192 61.1713 80.423 61.1713 79.0384ZM65.729 79.0384C65.729 77.8268 64.8636 76.9615 63.652 76.9615C62.4405 76.9615 61.5751 77.8268 61.5751 79.0384C61.5751 80.2499 62.4982 81.1153 63.652 81.1153C64.8636 81.1153 65.729 80.2499 65.729 79.0384ZM62.8444 77.7692H63.7097C64.2867 77.7692 64.6328 77.9999 64.6328 78.5192C64.6328 78.8653 64.402 79.0961 64.1136 79.1538L64.7482 80.1922H64.1713L63.5943 79.2115H63.3059V80.1922H62.7867V77.7692H62.8444ZM63.7097 78.923C63.9982 78.923 64.1136 78.8076 64.1136 78.5768C64.1136 78.2884 63.9405 78.2307 63.7097 78.2307H63.3636V78.923H63.7097Z" fill="white"/>
<path d="M17.7866 97.5C18.9981 98.4231 19.6904 99.6923 19.9212 101.25L17.0366 101.481C16.6904 99.6346 15.3058 98.5962 13.4596 98.5962C12.2481 98.5962 11.325 99 10.6327 99.8077C9.94041 100.615 9.59425 101.712 9.59425 103.038C9.59425 104.481 9.94041 105.577 10.6904 106.327C11.4404 107.077 12.3635 107.481 13.5173 107.481C15.3635 107.481 16.6904 106.5 17.0943 104.654L19.9789 104.885C19.7481 106.442 18.9981 107.654 17.8443 108.577C16.6904 109.5 15.2481 109.962 13.6327 109.962C11.6135 109.962 9.9981 109.327 8.67118 108.115C7.40195 106.904 6.76733 105.173 6.76733 103.096C6.76733 100.962 7.40195 99.2885 8.67118 98.077C9.94041 96.8654 11.5558 96.2308 13.575 96.2308C15.1904 96.1154 16.6327 96.577 17.7866 97.5Z" fill="white"/>
<path d="M29.9596 105.923H23.5558C23.6135 107.077 24.3058 107.827 25.5173 107.827C26.4404 107.827 27.0173 107.481 27.2481 106.789L29.9019 106.904C29.7289 107.769 29.2673 108.519 28.4596 109.096C27.6519 109.673 26.7289 109.962 25.6327 109.962C24.1904 109.962 23.0366 109.558 22.1712 108.635C21.3058 107.769 20.8442 106.558 20.8442 105.115C20.8442 103.615 21.2481 102.462 22.1712 101.596C23.0366 100.731 24.1904 100.269 25.575 100.269C26.9019 100.269 27.9981 100.673 28.8058 101.481C29.6135 102.289 30.0173 103.442 30.0173 104.827V105.923H29.9596ZM23.6135 104.192H27.3635C27.3058 103.039 26.7289 102.346 25.575 102.346C24.3635 102.346 23.6712 103.039 23.6135 104.192Z" fill="white"/>
<path d="M36.3058 102.923C34.8058 102.923 33.825 103.788 33.825 105.058V109.788H31.2289V100.5H33.7673V101.538C34.2289 100.788 35.0943 100.385 36.3058 100.385V102.923Z" fill="white"/>
<path d="M41.7288 102.75V106.212C41.7288 107.135 42.3057 107.596 43.1134 107.596C43.2865 107.596 43.575 107.538 43.9211 107.481V109.788C43.4019 109.846 42.9404 109.904 42.4788 109.904C40.4019 109.904 39.075 108.865 39.1327 106.788V102.692H37.4596V100.442H39.1904V97.3846H41.7865V100.442H43.9788V102.692H41.7288V102.75Z" fill="white"/>
<path d="M48.1904 97.4423C48.1904 97.8462 48.0173 98.25 47.7289 98.5385C47.152 99.1154 46.1135 99.1154 45.4789 98.5385C44.4981 97.6731 45.3058 95.7693 46.575 95.827C47.4981 95.827 48.1904 96.577 48.1904 97.4423ZM47.9596 109.731H45.3635V100.442H47.9596V109.731Z" fill="white"/>
<path d="M55.3443 95.7692V98.0192C55.1135 98.0192 54.9404 97.9615 54.7674 97.9615C53.8443 97.9615 53.2097 98.5384 53.2097 99.4615V100.5H55.3443V102.75H53.2097V109.788H50.6135V102.75H48.9404V100.5H50.6135V99.5769C50.6135 98.4231 50.9596 97.5 51.652 96.8077C52.3443 96.1154 53.325 95.7692 54.4789 95.7692C54.7674 95.7115 55.1135 95.7115 55.3443 95.7692ZM59.7866 97.4423C59.7866 97.8461 59.6135 98.25 59.325 98.5385C58.7481 99.1154 57.7097 99.1154 57.075 98.5385C56.0943 97.6731 56.902 95.7692 58.1712 95.8269C59.0943 95.8269 59.7866 96.5769 59.7866 97.4423ZM59.5558 109.731H56.9597V100.442H59.5558V109.731Z" fill="white"/>
<path d="M69.9404 105.923H63.5942C63.6519 107.077 64.3442 107.827 65.5558 107.827C66.4788 107.827 67.0558 107.481 67.2865 106.789L69.9404 106.904C69.7673 107.769 69.3058 108.519 68.4981 109.096C67.6904 109.673 66.7673 109.962 65.6712 109.962C64.2289 109.962 63.075 109.558 62.2096 108.635C61.3442 107.712 60.8827 106.558 60.8827 105.115C60.8827 103.615 61.2865 102.462 62.2096 101.596C63.075 100.731 64.2289 100.269 65.6135 100.269C66.9404 100.269 68.0365 100.673 68.8442 101.481C69.6519 102.289 70.0558 103.442 70.0558 104.827V105.923H69.9404ZM63.5942 104.192H67.3442C67.2865 103.039 66.7096 102.346 65.5558 102.346C64.4019 102.346 63.6519 103.039 63.5942 104.192Z" fill="white"/>
<path d="M80.4404 109.731H77.9596V108.808C77.4404 109.442 76.4019 109.962 75.1904 109.962C73.8634 109.962 72.825 109.5 71.9596 108.635C71.1519 107.769 70.748 106.558 70.748 105.115C70.748 103.673 71.1519 102.519 71.9596 101.596C72.825 100.731 73.8634 100.269 75.1904 100.269C76.3442 100.269 77.2673 100.615 77.7865 101.25V95.7693H80.3827V109.731H80.4404ZM73.4019 105.115C73.4019 106.731 74.2673 107.654 75.6519 107.654C76.9788 107.654 77.8442 106.789 77.8442 105.289V104.885C77.8442 103.442 76.9788 102.519 75.6519 102.519C74.2673 102.519 73.4019 103.5 73.4019 105.115Z" fill="white"/>
<path d="M84.0173 133.788H83.152V135.75H82.3443V133.788H81.4789V132.981H84.075V133.788H84.0173ZM87.5943 135.692H86.7866V134.596L86.152 135.692H85.8058L85.1712 134.596V135.692H84.3635V132.981H85.0558L85.9789 134.596L86.902 132.981H87.5943V135.692Z" fill="#002171"/>
<path d="M12.9981 122.769H11.7289L11.2096 121.442H8.90196L8.44042 122.769H7.22888L9.47888 117H10.6904L12.9981 122.769ZM10.8635 120.462L10.0558 118.327L9.3058 120.462H10.8635Z" fill="white"/>
<path d="M13.4596 122.769V117H15.3057C15.9981 117 16.4596 117 16.6904 117.058C17.0365 117.115 17.325 117.346 17.4981 117.635C17.7288 117.923 17.8442 118.269 17.8442 118.731C17.8442 119.077 17.7865 119.365 17.6711 119.596C17.5557 119.827 17.3827 120 17.2096 120.173C17.0365 120.288 16.8057 120.404 16.6327 120.462C16.3442 120.519 15.9404 120.519 15.4211 120.519H14.6711V122.712H13.4596V122.769ZM14.6134 117.981V119.596H15.2481C15.7096 119.596 15.998 119.538 16.1711 119.481C16.3442 119.423 16.4596 119.308 16.5173 119.192C16.6327 119.077 16.6327 118.904 16.6327 118.731C16.6327 118.5 16.575 118.327 16.4596 118.212C16.3442 118.096 16.1711 117.981 15.9981 117.981C15.8827 117.981 15.5942 117.923 15.1904 117.923H14.6134V117.981Z" fill="white"/>
<path d="M18.652 122.769V117H21.075C21.7097 117 22.1135 117.058 22.402 117.173C22.6904 117.288 22.9212 117.462 23.0943 117.75C23.2674 118.038 23.3251 118.327 23.3251 118.673C23.3251 119.077 23.2097 119.481 22.9212 119.769C22.6904 120.058 22.2866 120.231 21.7674 120.288C21.9981 120.462 22.2289 120.577 22.402 120.75C22.5751 120.923 22.8058 121.212 23.0366 121.673L23.7289 122.769H22.3443L21.4789 121.5C21.1904 121.038 20.9597 120.75 20.8443 120.635C20.7289 120.519 20.6135 120.462 20.4981 120.404C20.3827 120.346 20.152 120.346 19.9212 120.346H19.6904V122.769H18.652ZM19.8058 119.423H20.6712C21.2481 119.423 21.5943 119.423 21.7097 119.365C21.825 119.308 21.9404 119.25 22.0558 119.135C22.1135 119.019 22.1712 118.904 22.1712 118.731C22.1712 118.558 22.1135 118.385 21.9981 118.269C21.8827 118.154 21.7674 118.096 21.5366 118.038C21.4212 118.038 21.1327 118.038 20.6712 118.038H19.7481V119.423H19.8058Z" fill="white"/>
<path d="M29.8443 121.731V122.769H25.9789C26.0366 122.365 26.152 122.019 26.3827 121.673C26.6135 121.327 27.0174 120.865 27.652 120.288C28.1712 119.827 28.4597 119.538 28.575 119.365C28.7481 119.135 28.8058 118.904 28.8058 118.673C28.8058 118.442 28.7481 118.212 28.6327 118.096C28.5173 117.981 28.3443 117.923 28.1135 117.923C27.8827 117.923 27.7097 117.981 27.5366 118.154C27.4212 118.269 27.3058 118.5 27.3058 118.846L26.2097 118.731C26.2674 118.096 26.4981 117.692 26.8443 117.404C27.1904 117.115 27.5943 117 28.1135 117C28.6904 117 29.152 117.173 29.4404 117.462C29.7866 117.75 29.902 118.154 29.902 118.615C29.902 118.846 29.8443 119.135 29.7866 119.365C29.6712 119.596 29.5558 119.827 29.325 120.115C29.2097 120.288 28.9789 120.519 28.575 120.865C28.2289 121.212 27.9981 121.385 27.9404 121.5C27.825 121.615 27.7673 121.731 27.7097 121.788H29.8443V121.731Z" fill="white"/>
<path d="M32.325 116.942C32.9019 116.942 33.3058 117.115 33.652 117.519C33.9981 117.981 34.2289 118.788 34.2289 119.885C34.2289 120.981 34.0558 121.731 33.652 122.25C33.3635 122.654 32.9019 122.827 32.325 122.827C31.7481 122.827 31.2866 122.596 30.9981 122.192C30.652 121.788 30.4789 120.981 30.4789 119.885C30.4789 118.788 30.652 118.038 31.0558 117.519C31.2866 117.173 31.7481 116.942 32.325 116.942ZM32.325 117.865C32.2096 117.865 32.0943 117.923 31.9789 117.981C31.8635 118.038 31.8058 118.211 31.7481 118.442C31.6904 118.731 31.6327 119.192 31.6327 119.885C31.6327 120.577 31.6904 121.038 31.7481 121.269C31.8058 121.5 31.9212 121.673 31.9789 121.788C32.0943 121.846 32.2096 121.904 32.325 121.904C32.4404 121.904 32.5558 121.846 32.6712 121.788C32.7866 121.731 32.8443 121.558 32.9019 121.327C32.9596 121.038 33.0173 120.577 33.0173 119.885C33.0173 119.192 32.9596 118.731 32.9019 118.5C32.8443 118.269 32.7289 118.096 32.6712 117.981C32.5558 117.923 32.4404 117.865 32.325 117.865Z" fill="white"/>
<path d="M38.4981 121.731V122.769H34.6327C34.6904 122.365 34.8058 122.019 35.0365 121.673C35.2673 121.327 35.6712 120.865 36.3058 120.288C36.825 119.827 37.1135 119.538 37.2288 119.365C37.4019 119.135 37.4596 118.904 37.4596 118.673C37.4596 118.442 37.4019 118.212 37.2865 118.096C37.1712 117.981 36.9981 117.923 36.7673 117.923C36.5365 117.923 36.3635 117.981 36.1904 118.154C36.075 118.269 35.9596 118.5 35.9596 118.846L34.8635 118.731C34.9212 118.096 35.1519 117.692 35.4981 117.404C35.8442 117.115 36.2481 117 36.7673 117C37.3442 117 37.8058 117.173 38.0942 117.462C38.4404 117.75 38.5558 118.154 38.5558 118.615C38.5558 118.846 38.4981 119.135 38.4404 119.365C38.325 119.596 38.2096 119.827 37.9789 120.115C37.8635 120.288 37.6327 120.519 37.2288 120.865C36.8827 121.212 36.6519 121.385 36.5942 121.5C36.4789 121.615 36.4212 121.731 36.3635 121.788H38.4981V121.731Z" fill="white"/>
<path d="M41.902 122.769H40.8058V118.615C40.402 119.019 39.9404 119.25 39.3635 119.423V118.442C39.652 118.327 39.9405 118.154 40.2866 117.923C40.6328 117.635 40.8635 117.346 40.9789 117H41.902V122.769Z" fill="white"/>
<path d="M43.1711 121.212V120.115H45.3634V121.212H43.1711Z" fill="white"/>
<path d="M51.3059 122.769H50.0366L49.5174 121.442H47.2097L46.7481 122.769H45.5366L47.7866 117H48.9982L51.3059 122.769ZM49.1712 120.462L48.3635 118.327L47.6135 120.462H49.1712Z" fill="white"/>
<path d="M51.7673 122.769V117H53.6135C54.3058 117 54.7673 117 54.9981 117.058C55.3443 117.115 55.6327 117.346 55.8058 117.635C56.0366 117.923 56.152 118.269 56.152 118.731C56.152 119.077 56.0942 119.365 55.9789 119.596C55.8635 119.827 55.6904 120 55.5173 120.173C55.3443 120.288 55.1135 120.404 54.9404 120.462C54.6519 120.519 54.2481 120.519 53.7289 120.519H52.9789V122.712H51.7673V122.769ZM52.9212 117.981V119.596H53.5558C54.0173 119.596 54.3058 119.538 54.4789 119.481C54.652 119.423 54.7673 119.308 54.825 119.192C54.9404 119.077 54.9404 118.904 54.9404 118.731C54.9404 118.5 54.8827 118.327 54.7673 118.212C54.652 118.096 54.4789 117.981 54.3058 117.981C54.1904 117.981 53.9019 117.923 53.4981 117.923H52.9212V117.981Z" fill="white"/>
<path d="M56.9596 122.769V117H59.3827C60.0173 117 60.4211 117.058 60.7096 117.173C60.9981 117.288 61.2288 117.462 61.4019 117.75C61.575 118.038 61.6327 118.327 61.6327 118.673C61.6327 119.077 61.5173 119.481 61.2288 119.769C60.9981 120.058 60.5942 120.231 60.075 120.288C60.3057 120.462 60.5365 120.577 60.7096 120.75C60.8827 120.923 61.1134 121.212 61.3442 121.673L62.0365 122.769H60.6519L59.7865 121.5C59.4981 121.038 59.2673 120.75 59.1519 120.635C59.0365 120.519 58.9211 120.462 58.8058 120.404C58.6904 120.346 58.4596 120.346 58.2288 120.346H57.998V122.769H56.9596ZM58.1711 119.423H59.0365C59.6134 119.423 59.9596 119.423 60.075 119.365C60.1904 119.308 60.3057 119.25 60.4211 119.135C60.4788 119.019 60.5365 118.904 60.5365 118.731C60.5365 118.558 60.4788 118.385 60.3634 118.269C60.2481 118.154 60.1327 118.096 59.9019 118.038C59.7865 118.038 59.4981 118.038 59.0365 118.038H58.1134V119.423H58.1711Z" fill="white"/>
<path d="M68.2096 121.731V122.769H64.3442C64.4019 122.365 64.5173 122.019 64.7481 121.673C64.9789 121.327 65.3827 120.865 66.0173 120.288C66.5366 119.827 66.825 119.538 66.9404 119.365C67.1135 119.135 67.1712 118.904 67.1712 118.673C67.1712 118.442 67.1135 118.212 66.9981 118.096C66.8827 117.981 66.7096 117.923 66.4789 117.923C66.2481 117.923 66.075 117.981 65.9019 118.154C65.7866 118.269 65.6712 118.5 65.6712 118.846L64.575 118.731C64.6327 118.096 64.8635 117.692 65.2096 117.404C65.5558 117.115 65.9596 117 66.4789 117C67.0558 117 67.5173 117.173 67.8058 117.462C68.1519 117.75 68.2673 118.154 68.2673 118.615C68.2673 118.846 68.2096 119.135 68.1519 119.365C68.0366 119.596 67.9212 119.827 67.6904 120.115C67.575 120.288 67.3442 120.519 66.9404 120.865C66.5942 121.212 66.3635 121.385 66.3058 121.5C66.1904 121.615 66.1327 121.731 66.075 121.788H68.2096V121.731Z" fill="white"/>
<path d="M70.6328 116.942C71.2097 116.942 71.6135 117.115 71.9597 117.519C72.3059 117.981 72.5366 118.788 72.5366 119.885C72.5366 120.981 72.3635 121.731 71.9597 122.25C71.6712 122.654 71.2097 122.827 70.6328 122.827C70.0559 122.827 69.5943 122.596 69.3058 122.192C68.9597 121.788 68.7866 120.981 68.7866 119.885C68.7866 118.788 68.9597 118.038 69.3635 117.519C69.652 117.173 70.0559 116.942 70.6328 116.942ZM70.6328 117.865C70.5174 117.865 70.402 117.923 70.2866 117.981C70.1712 118.038 70.1136 118.211 70.0559 118.442C69.9982 118.731 69.9405 119.192 69.9405 119.885C69.9405 120.577 69.9982 121.038 70.0559 121.269C70.1136 121.5 70.2289 121.673 70.2866 121.788C70.402 121.846 70.5174 121.904 70.6328 121.904C70.7482 121.904 70.8635 121.846 70.9789 121.788C71.0943 121.731 71.152 121.558 71.2097 121.327C71.2674 121.038 71.3251 120.577 71.3251 119.885C71.3251 119.192 71.2674 118.731 71.2097 118.5C71.152 118.269 71.0366 118.096 70.9789 117.981C70.8635 117.923 70.7482 117.865 70.6328 117.865Z" fill="white"/>
<path d="M76.8058 121.731V122.769H72.9404C72.9981 122.365 73.1135 122.019 73.3443 121.673C73.575 121.327 73.9789 120.865 74.6135 120.288C75.1327 119.827 75.4212 119.538 75.5366 119.365C75.7097 119.135 75.7673 118.904 75.7673 118.673C75.7673 118.442 75.7096 118.212 75.5943 118.096C75.4789 117.981 75.3058 117.923 75.075 117.923C74.8443 117.923 74.6712 117.981 74.4981 118.154C74.3827 118.269 74.2673 118.5 74.2673 118.846L73.1712 118.731C73.2289 118.096 73.4597 117.692 73.8058 117.404C74.152 117.115 74.5558 117 75.075 117C75.652 117 76.1135 117.173 76.402 117.462C76.7481 117.75 76.8635 118.154 76.8635 118.615C76.8635 118.846 76.8058 119.135 76.7481 119.365C76.6327 119.596 76.5173 119.827 76.2866 120.115C76.1712 120.288 75.9404 120.519 75.5366 120.865C75.1904 121.212 74.9597 121.385 74.902 121.5C74.7866 121.615 74.7289 121.731 74.6712 121.788H76.8058V121.731Z" fill="white"/>
<path d="M81.1327 121.731V122.769H77.2673C77.325 122.365 77.4404 122.019 77.6712 121.673C77.9019 121.327 78.3058 120.865 78.9404 120.288C79.4596 119.827 79.7481 119.538 79.8635 119.365C80.0366 119.135 80.0943 118.904 80.0943 118.673C80.0943 118.442 80.0366 118.212 79.9212 118.096C79.8058 117.981 79.6327 117.923 79.4019 117.923C79.1712 117.923 78.9981 117.981 78.825 118.154C78.7096 118.269 78.5943 118.5 78.5943 118.846L77.4981 118.731C77.5558 118.096 77.7866 117.692 78.1327 117.404C78.4789 117.115 78.8827 117 79.4019 117C79.9789 117 80.4404 117.173 80.7289 117.462C81.075 117.75 81.1904 118.154 81.1904 118.615C81.1904 118.846 81.1327 119.135 81.075 119.365C80.9596 119.596 80.8443 119.827 80.6135 120.115C80.4981 120.288 80.2673 120.519 79.8635 120.865C79.5173 121.212 79.2866 121.385 79.2289 121.5C79.1135 121.615 79.0558 121.731 78.9981 121.788H81.1327V121.731Z" fill="white"/>
<path d="M36.7674 130.212H37.9212V133.327C37.9212 133.846 37.9212 134.135 37.9789 134.308C38.0366 134.538 38.152 134.712 38.3251 134.885C38.4981 135 38.7866 135.115 39.0751 135.115C39.4212 135.115 39.652 135.058 39.8251 134.885C39.9981 134.769 40.1135 134.596 40.1135 134.365C40.1712 134.192 40.1712 133.846 40.1712 133.385V130.212H41.3251V133.212C41.3251 133.904 41.2674 134.365 41.2097 134.654C41.152 134.942 41.0366 135.173 40.8635 135.404C40.6904 135.577 40.4597 135.75 40.1712 135.865C39.8828 135.981 39.5366 136.038 39.0751 136.038C38.4981 136.038 38.0943 135.981 37.8058 135.865C37.5174 135.75 37.2866 135.577 37.1135 135.346C36.9404 135.115 36.8251 134.942 36.7674 134.712C36.7097 134.365 36.652 133.904 36.652 133.269V130.212H36.7674Z" fill="white"/>
<path d="M42.1327 134.077L43.2865 133.962C43.3442 134.365 43.5173 134.596 43.6904 134.769C43.9212 134.942 44.1519 135.058 44.5558 135.058C44.9019 135.058 45.1904 135 45.4212 134.827C45.5942 134.654 45.7096 134.481 45.7096 134.25C45.7096 134.135 45.6519 134.019 45.5942 133.904C45.5365 133.788 45.3635 133.731 45.1904 133.673C45.075 133.615 44.7288 133.558 44.2673 133.442C43.6327 133.269 43.2289 133.096 42.9404 132.865C42.5942 132.577 42.4212 132.173 42.4212 131.711C42.4212 131.423 42.4789 131.135 42.6519 130.904C42.825 130.673 43.0558 130.442 43.3442 130.327C43.6327 130.211 44.0365 130.154 44.4981 130.154C45.2481 130.154 45.7673 130.327 46.1135 130.615C46.4596 130.904 46.6904 131.365 46.6904 131.885L45.5365 131.942C45.4789 131.654 45.3635 131.423 45.1904 131.308C45.0173 131.192 44.7865 131.135 44.4404 131.135C44.0942 131.135 43.8635 131.192 43.6327 131.365C43.5173 131.481 43.4596 131.596 43.4596 131.711C43.4596 131.827 43.5173 131.942 43.6327 132.058C43.8058 132.173 44.1519 132.288 44.7288 132.462C45.3058 132.577 45.7096 132.75 45.9981 132.865C46.2865 132.981 46.4596 133.211 46.6327 133.442C46.8058 133.673 46.8635 134.019 46.8635 134.365C46.8635 134.711 46.7481 135 46.575 135.288C46.4019 135.577 46.1135 135.808 45.825 135.923C45.4789 136.038 45.075 136.154 44.5558 136.154C43.8058 136.154 43.2865 135.981 42.8827 135.635C42.4212 135.231 42.1904 134.711 42.1327 134.077Z" fill="white"/>
<path d="M52.8059 135.981H51.5366L51.0174 134.654H48.7097L48.2482 135.981H47.0366L49.2866 130.212H50.4982L52.8059 135.981ZM50.6712 133.673L49.8636 131.538L49.1135 133.673H50.6712Z" fill="white"/>
</svg>
