<svg width="109" height="150" viewBox="0 0 109 150" fill="none" xmlns="http://www.w3.org/2000/svg">
<g clip-path="url(#clip0_904_15254)">
<path d="M108.124 0H0.69873V150H108.124V0Z" fill="white"/>
<path fill-rule="evenodd" clip-rule="evenodd" d="M0.69873 -0.00477643V-0.742554H3.66903H105.154H108.124V2.22774V147.03V150H105.154H3.66903H0.69873V147.03V32.2114V2.22774V-0.00477643ZM3.66903 32.2114V147.03H105.154V32.2114H3.66903Z" fill="#04003F"/>
<path fill-rule="evenodd" clip-rule="evenodd" d="M66.6802 15.4155C66.5225 14.4443 65.9488 13.9512 64.8577 13.9512H61.7136C60.6235 13.9512 60.0498 14.4443 59.8913 15.4155C59.877 15.5287 59.8626 15.6549 59.8626 15.7675V21.5553H61.8292V16.433C61.8292 16.0377 61.9708 15.8802 62.354 15.8802H64.2205C64.5646 15.8802 64.7431 16.0377 64.7431 16.433V21.5553H66.7094V15.7675C66.7094 15.6549 66.6946 15.5287 66.6802 15.4155ZM57.0356 21.5552H59.0015V13.9511H57.0356V21.5552ZM53.4302 11.2021H51.4636V21.561H53.4302V15.8862H55.3139V13.957H53.4302V11.2021ZM48.6512 21.5554H50.6173V11.1967H48.6512V21.5554ZM35.3097 16.4294C35.3097 16.0219 35.0899 15.8807 34.7928 15.8807H32.9275C32.5527 15.8807 32.3673 16.0462 32.3673 16.4155V19.6232H34.7854C35.1292 19.6232 35.3097 19.4111 35.3097 19.0737V16.4294ZM37.2468 15.5283C37.2616 15.6271 37.276 15.7396 37.276 15.8379V19.6402C37.276 20.0491 37.1896 20.3725 37.0176 20.6543C36.6438 21.3021 36.1993 21.5554 35.4819 21.5554L30.4057 21.5576L30.4017 11.1967H32.3671V13.9513H35.5106C35.6396 13.9513 35.7688 13.9653 35.8837 13.9935C36.6297 14.1485 37.1463 14.7117 37.2468 15.5283ZM43.0171 19.0736C43.0171 19.4689 42.8755 19.6263 42.4923 19.6263H40.6255C40.2817 19.6263 40.1032 19.4689 40.1032 19.0736V13.9512H38.1369V19.7391C38.1369 19.8517 38.1517 19.9779 38.1658 20.0912C38.3238 21.0623 38.8973 21.5553 39.9886 21.5553H43.1324C44.2228 21.5553 44.7965 21.0623 44.955 20.0912C44.9693 19.9779 44.9837 19.8517 44.9837 19.7391V13.9512H43.0171V19.0736ZM45.8448 21.5685H47.8106V13.9641H45.8448V21.5685Z" fill="white"/>
<path fill-rule="evenodd" clip-rule="evenodd" d="M57.5138 7.48779V11.1739H58.8336V8.79747H77.0012V26.859H58.8336V24.4473H57.5138V28.1686H78.321V7.48779H57.5138Z" fill="white"/>
<path fill-rule="evenodd" clip-rule="evenodd" d="M57.5138 7.48779V11.1739H58.8336V8.79747H77.0012V26.859H58.8336V24.4473H57.5138V28.1686H78.321V7.48779H57.5138Z" fill="white"/>
<path fill-rule="evenodd" clip-rule="evenodd" d="M93.2731 127.97H15.5503V126.98H93.2731V127.97Z" fill="#04003F"/>
<path d="M51.3166 137.943C52.1186 137.943 52.5939 137.657 53.0216 137.2L52.4394 136.612C52.1127 136.909 51.8216 137.099 51.3463 137.099C50.6335 137.099 50.1404 136.505 50.1404 135.792V135.78C50.1404 135.067 50.6453 134.485 51.3463 134.485C51.7622 134.485 52.0889 134.663 52.4097 134.954L52.9919 134.283C52.6057 133.903 52.1364 133.642 51.3523 133.642C50.0751 133.642 49.184 134.61 49.184 135.792V135.804C49.184 136.998 50.0929 137.943 51.3166 137.943ZM56.6305 137.943C57.9137 137.943 58.8463 136.974 58.8463 135.792V135.78C58.8463 134.598 57.9255 133.642 56.6424 133.642C55.3592 133.642 54.4265 134.61 54.4265 135.792V135.804C54.4265 136.986 55.3473 137.943 56.6305 137.943ZM56.6424 137.099C55.9057 137.099 55.383 136.505 55.383 135.792V135.78C55.383 135.067 55.8939 134.485 56.6305 134.485C57.3671 134.485 57.8899 135.079 57.8899 135.792V135.804C57.8899 136.517 57.379 137.099 56.6424 137.099ZM60.6307 137.871H61.5278V135.174L62.6862 136.933H62.71L63.8802 135.156V137.871H64.7892V133.713H63.803L62.71 135.471L61.6169 133.713H60.6307V137.871ZM66.7607 137.871H67.6755V136.624H68.3706C69.3033 136.624 70.0518 136.125 70.0518 135.162V135.151C70.0518 134.301 69.4518 133.713 68.4597 133.713H66.7607V137.871ZM67.6755 135.81V134.539H68.3825C68.8399 134.539 69.125 134.758 69.125 135.168V135.18C69.125 135.537 68.8577 135.81 68.4003 135.81H67.6755ZM70.9275 137.871H71.8602L72.2404 136.939H73.9988L74.379 137.871H75.3354L73.5533 133.683H72.7097L70.9275 137.871ZM72.5671 136.131L73.1196 134.782L73.6721 136.131H72.5671ZM76.95 137.871H77.853V135.228L79.8669 137.871H80.6451V133.713H79.7421V136.273L77.7936 133.713H76.95V137.871ZM82.6575 137.871H83.5723V133.713H82.6575V137.871ZM85.5845 137.871H88.7508V137.057H86.4934V136.184H88.4538V135.37H86.4934V134.527H88.7211V133.713H85.5845V137.871ZM92.0161 137.931C92.9132 137.931 93.5429 137.467 93.5429 136.642V136.63C93.5429 135.905 93.0676 135.602 92.2241 135.382C91.5053 135.198 91.327 135.109 91.327 134.836V134.824C91.327 134.622 91.5112 134.461 91.8617 134.461C92.2122 134.461 92.5746 134.616 92.9429 134.871L93.4181 134.182C92.9963 133.844 92.4795 133.653 91.8736 133.653C91.0241 133.653 90.4181 134.152 90.4181 134.907V134.919C90.4181 135.745 90.9587 135.976 91.7963 136.19C92.4914 136.368 92.634 136.487 92.634 136.719V136.731C92.634 136.974 92.4082 137.123 92.034 137.123C91.5587 137.123 91.1666 136.927 90.7924 136.618L90.2518 137.265C90.7508 137.711 91.3864 137.931 92.0161 137.931Z" fill="#04003F"/>
<path d="M34.4084 137.872H33.4869V133.683H34.4084V137.872Z" fill="#04003F"/>
<path d="M33.487 137.872L33.487 136.95L36.0831 136.95L36.0831 137.872L33.487 137.872Z" fill="#04003F"/>
<path d="M39.2386 137.872H38.3171V133.683H39.2386V137.872Z" fill="#04003F"/>
<path d="M38.3177 137.872L38.3177 136.95L40.9138 136.95L40.9138 137.872L38.3177 137.872Z" fill="#04003F"/>
<path d="M18.8411 136.642C18.8411 137.467 18.2114 137.931 17.3144 137.931C16.6847 137.931 16.0491 137.711 15.55 137.265L16.0906 136.618C16.4649 136.927 16.857 137.123 17.3322 137.123C17.7065 137.123 17.9322 136.974 17.9322 136.731V136.719C17.9322 136.487 17.7897 136.368 17.0946 136.19C16.257 135.976 15.7164 135.745 15.7164 134.919V134.907C15.7164 134.152 16.3223 133.653 17.1718 133.653C17.7778 133.653 18.2946 133.844 18.7164 134.182L18.2411 134.871C17.8728 134.616 17.5104 134.461 17.16 134.461C16.8095 134.461 16.6253 134.622 16.6253 134.824V134.836C16.6253 135.109 16.8035 135.198 17.5223 135.382C18.3659 135.602 18.8411 135.905 18.8411 136.63V136.642Z" fill="#04003F"/>
<path fill-rule="evenodd" clip-rule="evenodd" d="M27.0829 137.871H28.0156L28.3958 136.939H30.1542L30.5344 137.871H31.4908L29.7086 133.683H28.8651L27.0829 137.871ZM28.7224 136.131L29.2749 134.782L29.8273 136.131H28.7224Z" fill="#04003F"/>
<path d="M21.826 137.871H20.929V133.713H21.9151L23.0082 135.471L24.1012 133.713H25.0874V137.871H24.1785V135.156L23.0082 136.933H22.9844L21.826 135.174V137.871Z" fill="#04003F"/>
<path d="M58.1245 54.4018H60.2062C62.8037 54.4018 64.6371 53.0649 64.6371 50.6968V50.5248C64.6371 48.825 63.6631 48.0419 62.5364 47.5453C63.4913 47.0869 64.4654 46.2466 64.4654 44.5278V44.4322C64.4654 43.4582 64.1597 42.7325 63.5869 42.1594C62.8037 41.3765 61.4859 41.0327 60.1109 41.0327H58.1245V54.4018ZM62.1735 44.8906C62.1735 46.0557 61.4859 46.6478 60.4545 46.6478H60.4163V43.1909H60.4545C61.4859 43.1909 62.1735 43.6874 62.1735 44.8525V44.8906ZM62.3072 50.4102V50.5057C62.3072 51.6134 61.5431 52.2436 60.4738 52.2436H60.4163V48.6723H60.4738C61.5431 48.6723 62.3072 49.3025 62.3072 50.4102Z" fill="#04003F"/>
<path d="M68.9651 54.4018H74.1408V52.1864H71.2953V48.7869H73.7589V46.5713H71.2953V43.2481H74.0837V41.0327H68.9651V54.4018Z" fill="#04003F"/>
<path d="M80.7126 54.4973C82.546 54.4973 84.0166 53.1032 84.0166 51.0022C84.0166 49.5698 83.6156 48.6723 81.7822 46.5522C80.6742 45.2725 80.4834 44.8906 80.4834 44.3369C80.4834 43.5537 81.0371 43.1337 81.6866 43.1337C82.2978 43.1337 82.7369 43.3245 83.4629 43.7448V41.3574C82.947 41.1282 82.3359 40.9371 81.4574 40.9371C79.5475 40.9371 78.1532 42.2933 78.1532 44.4131C78.1532 45.9602 78.7643 46.896 80.4069 48.6913C81.553 49.9327 81.6866 50.5438 81.6866 50.9832C81.6866 51.8616 81.1517 52.301 80.4069 52.301C79.7002 52.301 79.1656 52.0337 78.3443 51.5562V53.9436C79.0126 54.2681 79.7958 54.4973 80.7126 54.4973Z" fill="#04003F"/>
<path d="M89.1648 54.4018H91.4947V43.2481H93.1373V41.0327H87.5222V43.2481H89.1648V54.4018Z" fill="#04003F"/>
<path d="M15.5503 78.0849H18.7706V72.2559H18.797C22.07 72.0173 24.3928 70.0302 24.3928 65.8438V65.7908C24.3928 61.4455 21.938 59.5378 18.4274 59.5378H15.5503V78.0849ZM18.7706 69.2619V62.5319H18.8762C20.2751 62.5319 21.1726 63.5388 21.1726 65.8968V65.9497C21.1726 68.202 20.1431 69.1824 18.797 69.2619H18.7706Z" fill="#04003F"/>
<path d="M30.6062 78.0849H37.2314V75.0114H33.8265V59.5378H30.6062V78.0849Z" fill="#04003F"/>
<path d="M42.3668 78.0849H45.4817L46.0624 74.4019H48.9921L49.5992 78.0849H52.8195L49.3089 59.4849H45.8775L42.3668 78.0849ZM46.5374 71.4873L47.5403 65.367L48.5171 71.4873H46.5374Z" fill="#04003F"/>
<path d="M63.3329 78.2174C64.2569 78.2174 64.9696 78.085 65.7087 77.661V74.4815C65.0488 74.879 64.4154 75.0644 63.9139 75.0644C62.4357 75.0644 61.4062 74.0575 61.4062 69.156V68.4669C61.4062 63.8303 62.4357 62.5585 63.8609 62.5585C64.4681 62.5585 64.9961 62.7704 65.656 63.1679V59.8295C64.9696 59.5115 64.4416 59.4055 63.5443 59.4055C60.5352 59.4055 58.1332 61.9756 58.1332 68.4936V69.1295C58.1332 75.5944 60.3767 78.2174 63.3329 78.2174Z" fill="#04003F"/>
<path d="M72.217 78.0849H79.3703V75.0114H75.4371V70.295H78.8423V67.2218H75.4371V62.6114H79.2911V59.5378H72.217V78.0849Z" fill="#04003F"/>
<path d="M88.7067 78.2174C91.2406 78.2174 93.273 76.2832 93.273 73.3686C93.273 71.3815 92.7188 70.1362 90.1847 67.1951C88.6537 65.4201 88.3899 64.8902 88.3899 64.1219C88.3899 63.0355 89.1552 62.4525 90.0527 62.4525C90.8975 62.4525 91.5045 62.7174 92.5077 63.3003V59.9884C91.7948 59.6704 90.9502 59.4055 89.7359 59.4055C87.0965 59.4055 85.1696 61.2867 85.1696 64.2278C85.1696 66.3738 86.0141 67.6721 88.2842 70.1627C89.8681 71.885 90.0527 72.7327 90.0527 73.3422C90.0527 74.561 89.3136 75.1704 88.2842 75.1704C87.3077 75.1704 86.5686 74.7996 85.4334 74.1372V77.4491C86.3574 77.8996 87.4396 78.2174 88.7067 78.2174Z" fill="#04003F"/>
<path d="M34.6888 101.57H38.0416L39.5606 90.6996L41.0799 101.57H44.4326L47.2089 83.1823H44.0136L42.6515 94.4189L41.0799 83.1823H38.12L36.5225 94.4189L35.1866 83.1823H31.9126L34.6888 101.57Z" fill="#04003F"/>
<path d="M57.4414 101.779C60.3488 101.779 62.3134 98.8715 62.3134 92.821V91.8782C62.3134 85.8277 60.3488 82.9203 57.4414 82.9203C54.5342 82.9203 52.5696 85.8277 52.5696 91.8782V92.821C52.5696 98.8715 54.5342 101.779 57.4414 101.779ZM57.4414 98.8455C56.4723 98.8455 55.8176 97.5359 55.8176 92.821V91.8782C55.8176 87.1636 56.4723 85.854 57.4414 85.854C58.4107 85.854 59.0654 87.1636 59.0654 91.8782V92.821C59.0654 97.5359 58.4107 98.8455 57.4414 98.8455Z" fill="#04003F"/>
<path d="M68.7448 101.517H71.9403V95.1261H72.5428L74.6121 101.517H78.017L75.5549 94.0785C76.7598 93.1617 77.7027 91.6426 77.7027 89.259V89.0233C77.7027 87.0327 77.1527 85.6181 76.1836 84.6491C75.1883 83.6538 73.7477 83.1823 72.0452 83.1823H68.7448V101.517ZM71.9403 92.2449V86.1684H72.019C73.4071 86.1684 74.5074 86.7706 74.5074 89.0756V89.2852C74.5074 91.433 73.4858 92.2449 72.0975 92.2449H71.9403Z" fill="#04003F"/>
<path d="M84.0433 101.517H87.2386V96.5407L87.9721 94.4976L89.9889 101.517H93.4463L90.3295 90.9352L93.3941 83.1823H89.8842L87.2386 91.0402V83.1823H84.0433V101.517Z" fill="#04003F"/>
<path d="M16.575 96.3933H18.2458V90.1891H19.2706V88.5963H15.5503V90.1891H16.575V96.3933Z" fill="#04003F"/>
<path d="M23.5259 96.5382C24.9294 96.5382 25.8204 95.2684 25.8204 92.7399V92.2498C25.8204 89.7102 24.9294 88.4515 23.5259 88.4515C22.1113 88.4515 21.2202 89.7102 21.2202 92.2498V92.7399C21.2202 95.2684 22.1113 96.5382 23.5259 96.5382ZM23.5259 94.9899C23.1583 94.9899 22.9244 94.5889 22.9244 92.751V92.2275C22.9244 90.4008 23.1583 89.9887 23.5259 89.9887C23.8935 89.9887 24.1163 90.4008 24.1163 92.2275V92.751C24.1163 94.5889 23.8935 94.9899 23.5259 94.9899Z" fill="#04003F"/>
<path d="M25.7 100.333H15.5503V101.569H25.7V100.333Z" fill="#04003F"/>
<path d="M25.7 83.2535H15.5503V84.4894H25.7V83.2535Z" fill="#04003F"/>
<path d="M15.5503 121.287H17.8393C20.6953 121.287 22.7113 119.806 22.7113 117.182V116.992C22.7113 115.109 21.6403 114.242 20.4013 113.692C21.4513 113.184 22.5223 112.253 22.5223 110.349V110.243C22.5223 109.164 22.1863 108.36 21.5563 107.726C20.6953 106.858 19.2463 106.478 17.7343 106.478H15.5503V121.287ZM20.0023 110.751C20.0023 112.042 19.2463 112.697 18.1123 112.697H18.0703V108.868H18.1123C19.2463 108.868 20.0023 109.418 20.0023 110.709V110.751ZM20.1493 116.865V116.971C20.1493 118.198 19.3093 118.896 18.1333 118.896H18.0703V114.94H18.1333C19.3093 114.94 20.1493 115.638 20.1493 116.865Z" fill="#00B9FE"/>
<path d="M25.6819 121.287H28.1599L28.622 118.346H30.9529L31.4358 121.287H33.998L31.2049 106.435H28.475L25.6819 121.287ZM29 116.019L29.798 111.132L30.575 116.019H29Z" fill="#00B9FE"/>
<path d="M38.6628 121.287H41.2249V115.448L43.9549 106.478H41.372L39.9648 112.02L38.5789 106.478H35.9329L38.6628 115.448V121.287Z" fill="#00B9FE"/>
<path d="M52.8066 121.287H55.2846L55.7465 118.346H58.0774L58.5606 121.287H61.1225L58.3297 106.435H55.5995L52.8066 121.287ZM56.1245 116.019L56.9225 111.132L57.6995 116.019H56.1245Z" fill="#00B9FE"/>
<path d="M64.6544 121.287H67.2163V116.125H67.6995L69.3584 121.287H72.0883L70.1143 115.279C71.0804 114.538 71.8363 113.311 71.8363 111.386V111.195C71.8363 109.587 71.3953 108.445 70.6183 107.662C69.8203 106.858 68.6653 106.478 67.3005 106.478H64.6544V121.287ZM67.2163 113.798V108.889H67.2794C68.3923 108.889 69.2745 109.376 69.2745 111.238V111.407C69.2745 113.142 68.4554 113.798 67.3423 113.798H67.2163Z" fill="#00B9FE"/>
<path d="M75.7673 121.287H81.4582V118.833H78.3292V115.067H81.0381V112.613H78.3292V108.932H81.3953V106.478H75.7673V121.287Z" fill="#00B9FE"/>
<path d="M84.7096 121.287H87.1876L87.6494 118.346H89.9804L90.4636 121.287H93.0254L90.2324 106.435H87.5024L84.7096 121.287ZM88.0274 116.019L88.8254 111.132L89.6024 116.019H88.0274Z" fill="#00B9FE"/>
<path d="M15.6504 54.4017H21.2654V52.1099H18.1332L20.2914 47.717C21.0745 46.1319 21.3227 45.1198 21.3227 44.0693V43.9737C21.3227 41.9876 20.1195 40.8416 18.3051 40.8416C17.2929 40.8416 16.548 41.1663 15.9178 41.4908V43.7445C16.4525 43.4007 17.0637 43.0953 17.7704 43.0953C18.6489 43.0953 19.05 43.7064 19.05 44.3747C19.05 45.0052 18.8399 45.6925 18.076 47.3161L15.6504 52.4346V54.4017Z" fill="#00B9FE"/>
<path d="M28.7149 54.5928C30.8349 54.5928 32.0191 52.7019 32.0191 48.0799V47.3542C32.0191 42.7324 30.8349 40.8416 28.7149 40.8416C26.5567 40.8416 25.4108 42.7324 25.4108 47.3542V48.0799C25.4108 52.7019 26.5567 54.5928 28.7149 54.5928ZM28.7149 52.4537C28.1609 52.4537 27.7027 51.8425 27.7027 48.0609V47.3732C27.7027 43.5918 28.1609 42.9807 28.7149 42.9807C29.2498 42.9807 29.7079 43.5918 29.7079 47.3732V48.0609C29.7079 51.8425 29.2498 52.4537 28.7149 52.4537Z" fill="#00B9FE"/>
<path d="M36.0455 54.4017H41.6606V52.1099H38.5285L40.6866 47.717C41.4698 46.1319 41.7181 45.1198 41.7181 44.0693V43.9737C41.7181 41.9876 40.5148 40.8416 38.7005 40.8416C37.6881 40.8416 36.9433 41.1663 36.3131 41.4908V43.7445C36.8478 43.4007 37.4589 43.0953 38.1656 43.0953C39.044 43.0953 39.4453 43.7064 39.4453 44.3747C39.4453 45.0052 39.2351 45.6925 38.4713 47.3161L36.0455 52.4346V54.4017Z" fill="#00B9FE"/>
<path d="M48.2043 40.9805L50.1418 40.9805V54.4017H47.728V43.8333L46.2488 44.283L46.2488 41.7102L48.2043 40.9805Z" fill="#00B9FE"/>
</g>
<defs>
<clipPath id="clip0_904_15254">
<rect width="107.426" height="150" fill="white" transform="translate(0.69873)"/>
</clipPath>
</defs>
</svg>
