<svg width="91" height="36" viewBox="0 0 91 36" fill="none" xmlns="http://www.w3.org/2000/svg">
<g clip-path="url(#clip0_1308_10334)">
<path d="M17.7431 22.5732H4.17078L3.67383 24.225H7.2945L7.98356 26.5011H13.9345L14.6194 24.225H18.24L17.7431 22.5732Z" fill="white"/>
<path d="M6.3775 13.3036C5.33766 14.7643 5.65504 16.8025 7.08744 17.8641L10.3406 20.2632C10.6998 20.5307 10.7791 21.0403 10.516 21.4097L11.0046 21.7707L12.7544 19.3588C13.1511 18.8025 13.3641 18.1316 13.3641 17.4437C13.3641 17.2696 13.3516 17.0955 13.3223 16.9256C13.1887 16.0806 12.7293 15.3248 12.0486 14.8237L8.80381 12.4246C8.62842 12.2972 8.51149 12.1061 8.47808 11.8895C8.4739 11.8471 8.4739 11.8046 8.47808 11.7579C8.47808 11.5881 8.52819 11.4225 8.62842 11.2823L8.13981 10.9129L6.3775 13.3036Z" fill="white"/>
<path d="M8.34436 3.65181C7.76806 4.4586 7.45485 5.42675 7.45903 6.42463C7.45903 6.66667 7.47573 6.90871 7.51749 7.1465C7.70959 8.38641 8.38194 9.49894 9.38003 10.2378L13.4601 13.2696C13.9988 13.6645 14.3579 14.259 14.4582 14.9257C14.4707 15.0616 14.4707 15.1932 14.4582 15.3291C14.454 15.8641 14.2869 16.3822 13.9779 16.811L14.3663 17.1083L17.5902 12.586C19.0978 10.4671 18.6342 7.51168 16.5546 5.97452L11.5975 2.32696C10.9711 1.84713 10.85 0.942675 11.3177 0.309979C11.3219 0.301486 11.3261 0.29724 11.3344 0.288747L10.9461 0L8.34436 3.65181Z" fill="white"/>
<path d="M0 27.8811H3.7209C4.49765 27.8217 5.26188 28.0807 5.84653 28.603C6.20567 28.9682 6.39777 29.4692 6.37689 29.9873C6.40195 30.7346 5.98434 31.4225 5.32034 31.7452C6.22238 31.966 6.85297 32.8026 6.82374 33.7495C6.82374 35.2314 5.63355 35.983 3.82112 35.983H0V27.8811ZM3.34505 31.1762C4.12598 31.1762 4.61458 30.9257 4.61458 30.3185C4.61458 29.7834 4.20533 29.482 3.4578 29.482H1.71637V31.2017L3.34505 31.1762ZM3.81277 34.4586C4.5937 34.4586 5.0656 34.1783 5.0656 33.5796C5.0656 33.0319 4.66052 32.7006 3.75431 32.7006H1.71637V34.4926L3.81277 34.4586Z" fill="white"/>
<path d="M7.58008 27.8811H11.3344C12.1111 27.8217 12.8754 28.0807 13.46 28.603C13.8233 28.9682 14.0196 29.4692 14.0071 29.9873C14.028 30.7346 13.6145 31.4225 12.9505 31.7452C13.8526 31.966 14.479 32.8026 14.4456 33.7495C14.4456 35.2314 13.2554 35.983 11.4471 35.983H7.58008V27.8811ZM10.9251 31.1762C11.6977 31.1762 12.1947 30.9257 12.1947 30.3185C12.1947 29.7834 11.7854 29.482 11.0379 29.482H9.29645V31.2017L10.9251 31.1762ZM11.3929 34.4586C12.1738 34.4586 12.6415 34.1783 12.6415 33.5796C12.6415 33.0319 12.2448 32.7006 11.3386 32.7006H9.29645V34.4926L11.3929 34.4586Z" fill="white"/>
<path d="M15.1582 27.8811H18.8791C19.6559 27.8174 20.4201 28.0807 21.0047 28.603C21.3722 28.9639 21.5727 29.465 21.556 29.9873C21.5769 30.7346 21.1634 31.4225 20.4994 31.7453C21.3973 31.983 22.007 32.8281 21.9569 33.7707C21.9569 35.2527 20.7667 36.0043 18.9584 36.0043H15.1582V27.8811ZM18.4949 31.1762C19.2758 31.1762 19.7686 30.9257 19.7686 30.3185C19.7686 29.7835 19.3594 29.482 18.6118 29.482H16.8704V31.2017L18.4949 31.1762ZM18.971 34.4586C19.7519 34.4586 20.2196 34.1784 20.2196 33.5796C20.2196 33.0319 19.8145 32.7007 18.9167 32.7007H16.8746V34.4926L18.971 34.4586Z" fill="white"/>
<path d="M22.5469 35.2357C22.5469 34.828 22.8726 34.4968 23.2735 34.4968C23.6744 34.4968 24.0002 34.828 24.0002 35.2357C24.0002 35.6433 23.6744 35.9745 23.2735 35.9745C22.8726 35.9745 22.5469 35.6433 22.5469 35.2357ZM23.9166 35.2357C23.9542 34.8747 23.6953 34.552 23.3445 34.5138C22.9895 34.4756 22.6722 34.7389 22.6346 35.0956C22.6304 35.1423 22.6304 35.189 22.6346 35.2314C22.597 35.5924 22.8559 35.9151 23.2067 35.9533C23.5617 35.9915 23.879 35.7283 23.9166 35.3716C23.9208 35.3291 23.9208 35.2824 23.9166 35.2357ZM22.9728 34.828H23.3195C23.4071 34.8238 23.4907 34.8535 23.5533 34.913C23.5992 34.9597 23.6243 35.0234 23.616 35.0871C23.6201 35.1975 23.5533 35.2951 23.4531 35.3333L23.6368 35.6136H23.4406L23.2777 35.3631H23.1441V35.6136H22.9728V34.828ZM23.3195 35.2102C23.403 35.2102 23.4489 35.1677 23.4489 35.104C23.4489 35.0319 23.3988 34.9894 23.3153 34.9894H23.1441V35.2187L23.3195 35.2102Z" fill="white"/>
</g>
<line x1="39.5" y1="-2.18557e-08" x2="39.5" y2="36" stroke="white" stroke-opacity="0.23"/>
<g clip-path="url(#clip1_1308_10334)">
<path d="M68.669 23.2397H59.7172L57.75 28.5316H53.998L62.237 7.46832H66.3813L74.6092 28.5316H70.6748L68.669 23.2397ZM60.9716 19.9446H67.4202L64.1986 11.33L60.9716 19.9446Z" fill="white"/>
<path d="M81.4338 18.4594V12.6668H84.3846V18.4594H90.0098V21.2594H84.3846V27.1124H81.4338V21.3254H75.8086V18.5254L81.4338 18.4594Z" fill="white"/>
</g>
<defs>
<clipPath id="clip0_1308_10334">
<rect width="24" height="36" fill="white"/>
</clipPath>
<clipPath id="clip1_1308_10334">
<rect width="36.0115" height="21.0633" fill="white" transform="translate(54 7.46832)"/>
</clipPath>
</defs>
</svg>
