<svg width="68" height="68" viewBox="0 0 68 68" fill="none" xmlns="http://www.w3.org/2000/svg">
<path d="M33.5566 0C26.9205 0 20.4334 1.99408 14.9157 5.73005C9.39802 9.46602 5.09752 14.7761 2.558 20.9888C0.0184815 27.2015 -0.646023 34.0377 0.648613 40.6331C1.94325 47.2284 5.13882 53.2866 9.83124 58.0416C14.5237 62.7966 20.5022 66.0348 27.0108 67.3467C33.5194 68.6586 40.2657 67.9853 46.3966 65.412C52.5276 62.8386 57.7678 58.4807 61.4546 52.8894C65.1414 47.2981 67.1092 40.7246 67.1092 34C67.1092 24.9826 63.5742 16.3346 57.2818 9.95837C50.9895 3.58213 42.4553 0 33.5566 0ZM33.5566 65.0026C27.5034 65.0026 21.5862 63.1836 16.5533 59.7756C11.5204 56.3676 7.59774 51.5238 5.28169 45.8566C2.96565 40.1895 2.36018 33.9536 3.54174 27.9377C4.7233 21.9218 7.6389 16.3961 11.9198 12.0594C16.2006 7.72271 21.6544 4.76988 27.5915 3.57431C33.5286 2.37873 39.6823 2.99413 45.2742 5.3427C50.8661 7.69127 55.6451 11.6674 59.0068 16.7685C62.3685 21.8695 64.1618 27.8661 64.16 34C64.153 42.2218 60.9262 50.1047 55.1882 55.9175C49.4502 61.7303 41.6702 64.9979 33.5566 65.0026ZM18.9347 32.6042C19.848 32.6042 20.7408 32.3298 21.5002 31.8156C22.2596 31.3014 22.8515 30.5706 23.2011 29.7155C23.5506 28.8605 23.642 27.9196 23.4638 27.0118C23.2857 26.1041 22.8459 25.2703 22.2001 24.6159C21.5542 23.9614 20.7314 23.5157 19.8356 23.3352C18.9398 23.1546 18.0112 23.2473 17.1674 23.6015C16.3236 23.9556 15.6025 24.5554 15.0951 25.325C14.5877 26.0945 14.3168 26.9992 14.3168 27.9248C14.3191 29.1651 14.8064 30.354 15.6719 31.231C16.5375 32.1081 17.7106 32.6018 18.9347 32.6042ZM18.9347 26.2247C19.2668 26.223 19.5921 26.3212 19.8691 26.5069C20.1462 26.6926 20.3625 26.9575 20.4908 27.268C20.6192 27.5784 20.6537 27.9205 20.59 28.2509C20.5263 28.5812 20.3672 28.885 20.1329 29.1236C19.8986 29.3623 19.5997 29.5251 19.2741 29.5914C18.9484 29.6577 18.6106 29.6246 18.3036 29.4962C17.9965 29.3678 17.7339 29.1499 17.5492 28.8702C17.3645 28.5904 17.2658 28.2614 17.2658 27.9248C17.2658 27.4754 17.4414 27.0444 17.7541 26.7258C18.0668 26.4073 18.4913 26.2271 18.9347 26.2247ZM30.9254 35.3869C30.0095 35.3851 29.1137 35.6588 28.3515 36.1733C27.5893 36.6878 26.9949 37.4199 26.6437 38.277C26.2924 39.134 26.2 40.0774 26.3782 40.9877C26.5564 41.898 26.9973 42.7343 27.6449 43.3905C28.2925 44.0467 29.1177 44.4934 30.016 44.674C30.9143 44.8547 31.8454 44.7611 32.6912 44.4051C33.537 44.0491 34.2595 43.4468 34.7672 42.6744C35.2749 41.9021 35.545 40.9944 35.5433 40.0663C35.5409 38.826 35.0536 37.6371 34.1881 36.7601C33.3226 35.883 32.1494 35.3893 30.9254 35.3869ZM30.9254 41.7663C30.5932 41.7681 30.2679 41.6699 29.9909 41.4842C29.7138 41.2985 29.4974 41.0336 29.3691 40.7231C29.2408 40.4127 29.2063 40.0706 29.27 39.7402C29.3338 39.4099 29.4929 39.1061 29.7271 38.8675C29.9614 38.6288 30.2603 38.466 30.586 38.3997C30.9116 38.3334 31.2494 38.3665 31.5564 38.4949C31.8635 38.6233 32.1261 38.8412 32.3108 39.1209C32.4956 39.4007 32.5941 39.7297 32.5941 40.0663C32.5976 40.2911 32.5572 40.5143 32.475 40.7231C32.3928 40.9319 32.2705 41.122 32.1153 41.2826C31.9601 41.4432 31.775 41.571 31.5708 41.6587C31.3665 41.7463 31.1472 41.792 30.9254 41.7932V41.7663ZM34.21 24.5964C33.932 24.3161 33.5558 24.1587 33.1636 24.1587C32.7715 24.1587 32.3953 24.3161 32.1174 24.5964L15.6589 41.2832C15.5201 41.4207 15.4098 41.5849 15.3345 41.7662C15.2591 41.9475 15.2203 42.1422 15.2203 42.339C15.2203 42.5357 15.2591 42.7304 15.3345 42.9117C15.4098 43.093 15.5201 43.2572 15.6589 43.3947C15.7945 43.5352 15.9566 43.6464 16.1356 43.7217C16.3147 43.7971 16.5069 43.835 16.7007 43.8332C17.0916 43.8328 17.4665 43.6751 17.7427 43.3947L34.21 26.7079C34.486 26.4278 34.6411 26.0481 34.6411 25.6521C34.6411 25.2562 34.486 24.8765 34.21 24.5964Z" fill="#444444"/>
<path d="M52.3645 36.8986C52.0881 36.6189 51.7134 36.4618 51.3227 36.4618C50.932 36.4618 50.5572 36.6189 50.2807 36.8986L48.453 38.7776V25.6876C48.453 25.2913 48.2977 24.9112 48.0212 24.631C47.7446 24.3508 47.3695 24.1934 46.9785 24.1934C46.5874 24.1934 46.2123 24.3508 45.9358 24.631C45.6592 24.9112 45.5039 25.2913 45.5039 25.6876V38.8312L43.685 36.9523C43.5514 36.8039 43.3896 36.6842 43.2093 36.6006C43.029 36.517 42.834 36.4711 42.6357 36.4656C42.4375 36.4602 42.2403 36.4953 42.0558 36.5688C41.8713 36.6424 41.7032 36.753 41.5618 36.8938C41.4204 37.0347 41.3086 37.203 41.2328 37.3887C41.1571 37.5744 41.1191 37.7737 41.1212 37.9746C41.1232 38.1755 41.1651 38.3739 41.2446 38.558C41.324 38.7421 41.4394 38.9081 41.5836 39.046L46.9785 44.5933L52.3822 39.046C52.5242 38.9061 52.6369 38.7385 52.7132 38.5533C52.7895 38.3681 52.828 38.1691 52.8264 37.9685C52.8247 37.7678 52.783 37.5695 52.7036 37.3856C52.6242 37.2017 52.5088 37.0361 52.3645 36.8986Z" fill="#F4C65D"/>
</svg>
