<svg width="76" height="51" viewBox="0 0 76 51" fill="none" xmlns="http://www.w3.org/2000/svg">
<g clip-path="url(#clip0_2548_25141)">
<path d="M76.0009 42.9261H23.789C23.422 42.9261 23.07 42.7803 22.8104 42.5208C22.5509 42.2612 22.4051 41.9092 22.4051 41.5422C22.4051 41.1751 22.5509 40.8231 22.8104 40.5635C23.07 40.304 23.422 40.1582 23.789 40.1582H73.233V2.76779H15.5022V23.3027C15.5022 23.4845 15.4664 23.6644 15.3969 23.8323C15.3273 24.0002 15.2253 24.1528 15.0968 24.2813C14.9683 24.4098 14.8158 24.5118 14.6479 24.5813C14.48 24.6509 14.3 24.6866 14.1182 24.6866C13.9365 24.6866 13.7566 24.6509 13.5887 24.5813C13.4208 24.5118 13.2682 24.4098 13.1397 24.2813C13.0112 24.1528 12.9092 24.0002 12.8397 23.8323C12.7701 23.6644 12.7344 23.4845 12.7344 23.3027V0H76.0009V42.9261Z" fill="#F3C45A"/>
<path d="M32.4472 42.926V44.774C32.4582 44.9938 32.3815 45.2089 32.2339 45.3721C32.0862 45.5352 31.8798 45.6331 31.66 45.6441C31.4402 45.6551 31.225 45.5784 31.0618 45.4307C30.8987 45.2831 30.8008 45.0766 30.7898 44.8569C30.7935 44.8294 30.7935 44.8015 30.7898 44.774V42.926H27.9641V44.774C27.9641 44.774 27.9641 44.8237 27.9641 44.8569C27.9586 44.9684 27.9313 45.0778 27.8836 45.1787C27.8358 45.2797 27.7687 45.3703 27.686 45.4453C27.6033 45.5203 27.5066 45.5784 27.4014 45.616C27.2963 45.6537 27.1847 45.6702 27.0732 45.6648C26.9616 45.6594 26.8523 45.632 26.7513 45.5843C26.6503 45.5366 26.5598 45.4694 26.4847 45.3867C26.4097 45.304 26.3516 45.2073 26.314 45.1022C26.2763 44.997 26.2598 44.8856 26.2652 44.774V42.926H24.2515L26.1243 41.5338L26.2237 41.4758L31.66 38.0285C32.5583 37.4737 33.2361 36.6242 33.5776 35.6252C33.9192 34.6261 33.9034 33.5394 33.5328 32.5508C33.0889 31.4555 32.2303 30.5797 31.144 30.1142C30.0576 29.6486 28.8314 29.6308 27.732 30.0647L17.0087 34.2082C16.7937 34.2951 16.5566 34.3115 16.3317 34.2549C16.1068 34.1983 15.9057 34.0717 15.7574 33.8933C15.5793 33.6551 15.4913 33.3616 15.5089 33.0646V21.9271L14.2492 21.8027C12.2091 21.5896 10.1632 22.1484 8.51468 23.369L0.62555 29.1698C0.467665 29.2747 0.33276 29.4105 0.228909 29.569C0.125058 29.7276 0.0544781 29.9056 0.0214334 30.0922C-0.0116113 30.2788 -0.00639037 30.4703 0.0367083 30.6548C0.0798069 30.8394 0.159923 31.0133 0.272205 31.166C0.384486 31.3187 0.526557 31.447 0.689887 31.5432C0.853217 31.6394 1.03438 31.7014 1.22238 31.7255C1.41038 31.7496 1.6013 31.7353 1.78361 31.6834C1.96592 31.6316 2.13575 31.5432 2.28293 31.4238L10.1721 25.623C10.9028 25.0812 11.7574 24.7308 12.6581 24.6037V33.0315C12.6327 33.9573 12.9251 34.864 13.4868 35.6004C13.9748 36.2148 14.6374 36.6671 15.3873 36.8978C16.1372 37.1286 16.9394 37.127 17.6883 36.8932L28.6933 32.6088C29.099 32.4474 29.552 32.4527 29.9539 32.6233C30.3557 32.794 30.674 33.1164 30.8396 33.5204C30.9766 33.9001 30.978 34.3155 30.8435 34.6962C30.7091 35.0768 30.4472 35.3992 30.1021 35.6087L24.5001 39.1721L17.0999 44.6497C14.1927 46.6149 10.7641 47.6654 7.25506 47.6661H1.98461C1.61318 47.6661 1.25702 47.8137 0.994373 48.0763C0.731732 48.339 0.584177 48.6951 0.584177 49.0666C0.584177 49.438 0.731732 49.7943 0.994373 50.0569C1.25702 50.3195 1.61318 50.4671 1.98461 50.4671H7.25506C11.3443 50.4666 15.3394 49.2398 18.7242 46.9452L19.3208 46.4976C19.6331 47.0744 20.0949 47.5565 20.6577 47.8933C21.2205 48.2301 21.8636 48.4093 22.5195 48.412C23.1591 47.8925 23.9579 47.6089 24.7818 47.6089C25.6058 47.6089 26.4046 47.8925 27.0441 48.412C27.6798 47.898 28.4725 47.6176 29.29 47.6176C30.1074 47.6176 30.9 47.898 31.5357 48.412C32.5064 48.4098 33.4369 48.0231 34.1233 47.3366C34.8097 46.6502 35.1963 45.7199 35.1985 44.7491V42.9012L32.4472 42.926ZM22.5776 45.6275C22.3578 45.6275 22.147 45.5402 21.9916 45.3848C21.8362 45.2294 21.7489 45.0186 21.7489 44.7988L23.4643 43.531V44.7906C23.4556 45.0185 23.3579 45.2338 23.192 45.3904C23.0262 45.5469 22.8056 45.632 22.5776 45.6275V45.6275Z" fill="#444444"/>
<path d="M51.8772 15.3897C51.8772 15.0175 51.7299 14.6605 51.4675 14.3965C51.2051 14.1326 50.8488 13.9832 50.4766 13.981H24.6465C24.2926 14.0082 23.962 14.168 23.7208 14.4284C23.4796 14.6888 23.3457 15.0307 23.3457 15.3856C23.3457 15.7405 23.4796 16.0824 23.7208 16.3428C23.962 16.6032 24.2926 16.763 24.6465 16.7902H50.4766C50.8481 16.7902 51.2043 16.6427 51.467 16.38C51.7296 16.1174 51.8772 15.7612 51.8772 15.3897ZM61.9209 21.0662H59.1862C58.8103 21.0662 58.4499 21.2155 58.1842 21.4813C57.9184 21.747 57.7691 22.1075 57.7691 22.4833C57.7691 22.8591 57.9184 23.2196 58.1842 23.4853C58.4499 23.7511 58.8103 23.9003 59.1862 23.9003H60.4292V26.345C60.4292 26.7186 60.5776 27.0769 60.8418 27.3411C61.106 27.6053 61.4644 27.7538 61.838 27.7538C62.2117 27.7538 62.5699 27.6053 62.8341 27.3411C63.0983 27.0769 63.2468 26.7186 63.2468 26.345V23.602C63.9151 23.3013 64.4599 22.7801 64.79 22.1258C65.1201 21.4714 65.2155 20.7235 65.0602 20.0073C64.9049 19.291 64.5084 18.6498 63.937 18.1909C63.3655 17.732 62.6538 17.4833 61.9209 17.4863H60.9762C60.9231 17.4943 60.869 17.4907 60.8174 17.4758C60.7659 17.461 60.7181 17.4352 60.6774 17.4002C60.6368 17.3652 60.6041 17.3218 60.5817 17.273C60.5594 17.2242 60.5479 17.1712 60.5479 17.1175C60.5479 17.0639 60.5594 17.0109 60.5817 16.9621C60.6041 16.9133 60.6368 16.87 60.6774 16.8349C60.7181 16.7999 60.7659 16.7741 60.8174 16.7592C60.869 16.7444 60.9231 16.7408 60.9762 16.7488H63.7109C64.0867 16.7488 64.4471 16.5995 64.7128 16.3338C64.9786 16.068 65.1279 15.7076 65.1279 15.3317C65.1279 14.9559 64.9786 14.5955 64.7128 14.3297C64.4471 14.064 64.0867 13.9147 63.7109 13.9147H63.2468V11.4783C63.2468 11.1047 63.0983 10.7463 62.8341 10.4822C62.5699 10.218 62.2117 10.0696 61.838 10.0696C61.4644 10.0696 61.106 10.218 60.8418 10.4822C60.5776 10.7463 60.4292 11.1047 60.4292 11.4783V13.9644C59.6433 14.1045 58.9382 14.5335 58.4525 15.167C57.9667 15.8005 57.7354 16.5927 57.8039 17.388C57.8725 18.1834 58.2359 18.9244 58.8229 19.4654C59.4099 20.0065 60.1779 20.3085 60.9762 20.3122H61.9209C62.0198 20.3122 62.1147 20.3514 62.1846 20.4214C62.2545 20.4913 62.2938 20.5862 62.2938 20.6851C62.2938 20.784 62.2545 20.8788 62.1846 20.9487C62.1147 21.0187 62.0198 21.0579 61.9209 21.0579V21.0662Z" fill="#F3C45A"/>
</g>
<defs>
<clipPath id="clip0_2548_25141">
<rect width="76" height="51" fill="white"/>
</clipPath>
</defs>
</svg>
