<svg width="77" height="68" viewBox="0 0 77 68" fill="none" xmlns="http://www.w3.org/2000/svg">
<path d="M72.7837 45.9C72.4141 45.9304 72.0713 46.1075 71.8303 46.3926C71.5894 46.6776 71.4698 47.0476 71.4977 47.4215L72.7584 63.6395C72.7816 63.9629 72.6768 64.2825 72.4673 64.5279C72.2577 64.7733 71.9603 64.9246 71.6405 64.9485C71.3325 64.9655 71.0304 64.8586 70.8 64.6511C70.6768 64.5461 70.5765 64.4162 70.5056 64.2698C70.4347 64.1235 70.3947 63.9639 70.3882 63.8011L68.5392 40.8H64.4125L61.891 63.818C61.8835 63.9865 61.8415 64.1517 61.7679 64.303C61.6943 64.4544 61.5906 64.5888 61.4632 64.6977C61.3358 64.8067 61.1876 64.8878 61.0278 64.936C60.8679 64.9842 60.6998 64.9985 60.5343 64.9779C60.3687 64.9573 60.2092 64.9023 60.0656 64.8165C59.922 64.7306 59.7977 64.6156 59.7001 64.4787C59.6026 64.3419 59.534 64.1861 59.4988 64.0212C59.4637 63.8563 59.4625 63.6858 59.4956 63.5205L63.1349 30.668L72.3803 31.773C73.1031 32.623 74.7924 35.258 71.5398 39.542C71.353 39.8434 71.2849 40.2047 71.3489 40.5544C71.413 40.9041 71.6044 41.2167 71.8855 41.4304C72.1666 41.6442 72.5168 41.7434 72.8668 41.7085C73.2168 41.6736 73.541 41.5072 73.7754 41.242C79.2133 34 73.952 29.342 73.8932 29.342L73.5737 29.07L60.6387 27.5315C60.4505 27.5108 60.2599 27.5296 60.0791 27.5866C59.8984 27.6436 59.7313 27.7378 59.5881 27.863C59.5461 27.863 55.1672 31.637 51.4018 30.413C51.2258 30.3572 51.0406 30.337 50.8568 30.3536C50.673 30.3701 50.4942 30.4231 50.3307 30.5096C50.0005 30.6841 49.7523 30.9842 49.6408 31.3438C49.5294 31.7033 49.5638 32.0929 49.7364 32.4269C49.909 32.7609 50.2058 33.0118 50.5613 33.1245C51.3453 33.3692 52.1613 33.4925 52.9818 33.49C55.6048 33.3484 58.1317 32.4454 60.2603 30.889L56.8984 61.183H45.9721V36.363H29.8769V61.2H11.9241V11.1945L38.2481 2.99202L73.5484 13.9825C73.7245 14.0383 73.9097 14.0585 74.0934 14.042C74.2772 14.0254 74.4561 13.9723 74.6196 13.8859C74.7831 13.7995 74.928 13.6813 75.0464 13.5382C75.1647 13.3951 75.2541 13.2298 75.3092 13.0517C75.3644 12.8737 75.3845 12.6864 75.3681 12.5006C75.3517 12.3147 75.2993 12.1339 75.2138 11.9686C75.1284 11.8032 75.0114 11.6565 74.8699 11.5368C74.7284 11.4171 74.565 11.3268 74.3889 11.271L38.206 0L2.14091 11.271C1.78537 11.3837 1.48861 11.6346 1.31602 11.9686C1.14342 12.3025 1.10915 12.6922 1.2206 13.0517C1.33206 13.4113 1.58025 13.7114 1.91047 13.8859C2.24069 14.0605 2.62585 14.0952 2.98139 13.9825L9.11697 12.07V64.056H56.7303C56.8073 64.9359 57.167 65.7661 57.7543 66.42C58.3416 67.0738 59.1244 67.5153 59.9831 67.677C60.0737 67.7049 60.1663 67.7248 60.2603 67.7365H60.4873C61.5048 67.7913 62.5051 67.4532 63.2853 66.7904C64.0656 66.1275 64.5675 65.1896 64.6897 64.1665L66.3707 48.8665L67.5559 64.073C67.6301 65.093 68.0826 66.047 68.823 66.7437C69.5633 67.4404 70.5369 67.8285 71.5482 67.83H71.8506L72.1281 67.779C73.1306 67.6314 74.0409 67.1063 74.6768 66.3087C75.3127 65.5112 75.6272 64.5001 75.5573 63.4781L74.2966 47.2515C74.2893 47.0608 74.2439 46.8736 74.163 46.7011C74.0821 46.5287 73.9675 46.3748 73.8261 46.2484C73.6847 46.1221 73.5193 46.026 73.3402 45.9661C73.161 45.9062 72.9717 45.8838 72.7837 45.9ZM32.6926 39.253H43.1314V61.0725H32.6926V39.253Z" fill="#444444"/>
<path d="M62.3027 20.638C62.3011 21.7012 62.6113 22.741 63.1943 23.6257C63.7774 24.5104 64.6069 25.2003 65.5779 25.6079C66.5488 26.0156 67.6177 26.1226 68.6489 25.9156C69.68 25.7086 70.6272 25.1968 71.3706 24.445C72.114 23.6932 72.6201 22.7352 72.8248 21.6924C73.0295 20.6495 72.9236 19.5687 72.5205 18.5867C72.1174 17.6048 71.4353 16.7659 70.5605 16.1762C69.6856 15.5866 68.6573 15.2727 67.606 15.2744C66.2002 15.2767 64.8527 15.8425 63.8585 16.8479C62.8644 17.8533 62.305 19.2162 62.3027 20.638ZM70.1109 20.638C70.1109 21.1423 69.963 21.6353 69.6859 22.0547C69.4089 22.474 69.015 22.8008 68.5543 22.9938C68.0935 23.1868 67.5865 23.2373 67.0974 23.1389C66.6082 23.0406 66.1591 22.7977 65.8065 22.4411C65.4538 22.0844 65.2137 21.6301 65.1164 21.1354C65.0191 20.6408 65.069 20.1281 65.2598 19.6621C65.4507 19.1962 65.7739 18.7979 66.1885 18.5177C66.6032 18.2375 67.0907 18.088 67.5894 18.088C68.2582 18.088 68.8993 18.3566 69.3722 18.8348C69.845 19.3131 70.1109 19.9617 70.1109 20.638Z" fill="#444444"/>
<path d="M38.1312 32.1471L37.1393 30.9826L30.5416 24.1826C29.5152 23.1497 28.8259 21.8238 28.5663 20.3831C28.5104 20.0832 28.4824 19.7787 28.4824 19.4736C28.4829 18.3297 28.7917 17.2076 29.3758 16.228C29.96 15.2484 30.7974 14.4484 31.7976 13.9142C32.7978 13.3801 33.9231 13.1319 35.0524 13.1963C36.1817 13.2608 37.2723 13.6355 38.2067 14.2801C39.2375 13.5626 40.4603 13.1801 41.7116 13.1836C43.3605 13.1859 44.941 13.8493 46.107 15.0284C47.2729 16.2075 47.9289 17.8061 47.9311 19.4736C47.9296 19.7811 47.9043 20.0881 47.8554 20.3916C47.5869 21.8285 46.8957 23.1498 45.872 24.1826L38.1312 32.1471ZM34.7019 15.9971C33.7969 15.9971 32.929 16.3607 32.289 17.0079C31.6491 17.6551 31.2895 18.5329 31.2895 19.4481C31.2881 19.5909 31.3022 19.7334 31.3316 19.8731C31.4975 20.7481 31.9225 21.5515 32.5502 22.1766L38.2067 28.0331L43.8631 22.1766C44.4912 21.5539 44.919 20.7541 45.0904 19.8816C45.1153 19.7384 45.1292 19.5935 45.1323 19.4481C45.1289 18.7598 44.9223 18.0883 44.5386 17.5198C44.155 16.9513 43.6121 16.5118 42.9796 16.2578C42.347 16.0037 41.6539 15.9467 40.9891 16.0942C40.3244 16.2416 39.7182 16.5867 39.2489 17.0851L38.2235 18.1901L37.2066 17.0851C36.8862 16.7379 36.4983 16.4613 36.0673 16.2726C35.6363 16.0839 35.1715 15.9872 34.7019 15.9886V15.9971Z" fill="#F4C65D"/>
</svg>
