<svg width="91" height="36" viewBox="0 0 91 36" fill="none" xmlns="http://www.w3.org/2000/svg">
<g clip-path="url(#clip0_554_8404)">
<path d="M17.8114 22.5732H4.23914L3.74219 24.225H7.36286L8.05191 26.5011H14.0028L14.6877 24.225H18.3084L17.8114 22.5732Z" fill="black" fill-opacity="0.55"/>
<path d="M6.44391 13.3036C5.40406 14.7643 5.72145 16.8026 7.15384 17.8641L10.407 20.2633C10.7662 20.5308 10.8455 21.0404 10.5824 21.4098L11.071 21.7707L12.8208 19.3588C13.2175 18.8026 13.4305 18.1316 13.4305 17.4437C13.4305 17.2697 13.418 17.0956 13.3887 16.9257C13.2551 16.0807 12.7957 15.3249 12.115 14.8238L8.87022 12.4246C8.69482 12.2973 8.57789 12.1062 8.54448 11.8896C8.54031 11.8471 8.54031 11.8047 8.54448 11.758C8.54448 11.5881 8.5946 11.4225 8.69482 11.2824L8.20622 10.913L6.44391 13.3036Z" fill="black" fill-opacity="0.55"/>
<path d="M8.40881 3.65181C7.83251 4.4586 7.5193 5.42675 7.52348 6.42463C7.52348 6.66667 7.54018 6.90871 7.58194 7.1465C7.77404 8.38641 8.44639 9.49894 9.44448 10.2378L13.5245 13.2696C14.0632 13.6645 14.4224 14.259 14.5226 14.9257C14.5351 15.0616 14.5351 15.1932 14.5226 15.3291C14.5184 15.8641 14.3514 16.3822 14.0424 16.811L14.4307 17.1083L17.6547 12.586C19.1622 10.4671 18.6987 7.51168 16.619 5.97452L11.662 2.32696C11.0356 1.84713 10.9145 0.942675 11.3822 0.309979C11.3864 0.301486 11.3905 0.29724 11.3989 0.288747L11.0105 0L8.40881 3.65181Z" fill="black" fill-opacity="0.55"/>
<path d="M0.0664062 27.8812H3.7873C4.56406 27.8217 5.32828 28.0807 5.91294 28.603C6.27208 28.9682 6.46418 29.4693 6.4433 29.9873C6.46836 30.7347 6.05075 31.4226 5.38675 31.7453C6.28878 31.9661 6.91937 32.8026 6.89014 33.7495C6.89014 35.2315 5.69995 35.9831 3.88753 35.9831H0.0664062V27.8812ZM3.41146 31.1763C4.19239 31.1763 4.68099 30.9258 4.68099 30.3185C4.68099 29.7835 4.27173 29.482 3.52421 29.482H1.78278V31.2018L3.41146 31.1763ZM3.87918 34.4587C4.66011 34.4587 5.13201 34.1784 5.13201 33.5797C5.13201 33.0319 4.72693 32.7007 3.82071 32.7007H1.78278V34.4926L3.87918 34.4587Z" fill="black" fill-opacity="0.55"/>
<path d="M7.64844 27.8812H11.4027C12.1795 27.8217 12.9437 28.0807 13.5284 28.603C13.8917 28.9682 14.088 29.4693 14.0754 29.9873C14.0963 30.7347 13.6829 31.4226 13.0189 31.7453C13.9209 31.9661 14.5473 32.8026 14.5139 33.7495C14.5139 35.2315 13.3237 35.9831 11.5155 35.9831H7.64844V27.8812V27.8812ZM10.9935 31.1763C11.7661 31.1763 12.263 30.9258 12.263 30.3185C12.263 29.7835 11.8538 29.482 11.1062 29.482H9.36481V31.2018L10.9935 31.1763ZM11.4612 34.4587C12.2421 34.4587 12.7099 34.1784 12.7099 33.5797C12.7099 33.0319 12.3131 32.7007 11.4069 32.7007H9.36481V34.4926L11.4612 34.4587Z" fill="black" fill-opacity="0.55"/>
<path d="M15.2266 27.8811H18.9475C19.7242 27.8174 20.4884 28.0806 21.0731 28.6029C21.4406 28.9639 21.641 29.4649 21.6243 29.9872C21.6452 30.7346 21.2318 31.4225 20.5678 31.7452C21.4656 31.983 22.0754 32.828 22.0252 33.7707C22.0252 35.2526 20.8351 36.0042 19.0268 36.0042H15.2266V27.8811ZM18.5633 31.1762C19.3442 31.1762 19.837 30.9257 19.837 30.3184C19.837 29.7834 19.4277 29.4819 18.6802 29.4819H16.9388V31.2017L18.5633 31.1762ZM19.0393 34.4586C19.8203 34.4586 20.288 34.1783 20.288 33.5796C20.288 33.0318 19.8829 32.7006 18.985 32.7006H16.9429V34.4925L19.0393 34.4586Z" fill="black" fill-opacity="0.55"/>
<path d="M22.6133 35.2357C22.6133 34.828 22.939 34.4968 23.3399 34.4968C23.7408 34.4968 24.0666 34.828 24.0666 35.2357C24.0666 35.6433 23.7408 35.9745 23.3399 35.9745C22.939 35.9745 22.6133 35.6433 22.6133 35.2357ZM23.983 35.2357C24.0206 34.8747 23.7617 34.552 23.4109 34.5138C23.0559 34.4756 22.7386 34.7389 22.701 35.0956C22.6968 35.1423 22.6968 35.189 22.701 35.2314C22.6634 35.5924 22.9223 35.9151 23.2731 35.9533C23.6281 35.9915 23.9455 35.7283 23.983 35.3716C23.9872 35.3291 23.9872 35.2824 23.983 35.2357ZM23.0392 34.828H23.3859C23.4736 34.8238 23.5571 34.8535 23.6197 34.913C23.6657 34.9597 23.6907 35.0234 23.6824 35.0871C23.6865 35.1975 23.6197 35.2951 23.5195 35.3333L23.7032 35.6136H23.507L23.3441 35.3631H23.2105V35.6136H23.0392V34.828ZM23.3859 35.2102C23.4694 35.2102 23.5153 35.1677 23.5153 35.104C23.5153 35.0319 23.4652 34.9894 23.3817 34.9894H23.2105V35.2187L23.3859 35.2102Z" fill="black" fill-opacity="0.55"/>
</g>
<line x1="39.5664" y1="-2.18557e-08" x2="39.5664" y2="36" stroke="#717475" stroke-opacity="0.2"/>
<g clip-path="url(#clip1_554_8404)">
<path d="M68.7334 23.2397H59.7817L57.8145 28.5317H54.0625L62.3014 7.46838H66.4458L74.6736 28.5317H70.7393L68.7334 23.2397ZM61.036 19.9446H67.4846L64.2631 11.3301L61.036 19.9446Z" fill="black" fill-opacity="0.55"/>
<path d="M81.4963 18.4594V12.6669H84.4471V18.4594H90.0723V21.2594H84.4471V27.1125H81.4963V21.3254H75.8711V18.5254L81.4963 18.4594Z" fill="black" fill-opacity="0.55"/>
</g>
<defs>
<clipPath id="clip0_554_8404">
<rect width="24" height="36" fill="white" transform="translate(0.0664062)"/>
</clipPath>
<clipPath id="clip1_554_8404">
<rect width="36.0115" height="21.0633" fill="white" transform="translate(54.0664 7.46838)"/>
</clipPath>
</defs>
</svg>
