<svg width="56" height="77" viewBox="0 0 56 77" fill="none" xmlns="http://www.w3.org/2000/svg">
<g clip-path="url(#clip0_1635_18660)">
<path d="M44.4765 38.5285V31.004C44.4765 25.5072 37.3117 21.2067 28.1707 21.2067C19.0297 21.2067 11.8535 25.5072 11.8535 31.004V38.5001V45.9961C11.8535 51.4872 19.0183 55.7877 28.1707 55.7877C37.3231 55.7877 44.4765 51.4758 44.4765 45.9961V38.5285ZM28.1707 23.1092C35.979 23.1092 42.5799 26.7262 42.5799 31.004C42.5799 35.2818 35.979 38.8988 28.1707 38.8988C20.3624 38.8988 13.7558 35.2818 13.7558 31.004C13.7558 26.7262 20.3567 23.1092 28.1707 23.1092ZM28.1707 40.8013C34.4868 40.8013 39.8633 38.745 42.5799 35.6748V38.5228C42.5799 42.8006 35.979 46.4176 28.1707 46.4176C24.9403 46.4562 21.7407 45.7874 18.7962 44.4582C15.7321 43 13.7615 40.8582 13.7615 38.5228V35.6634C16.4724 38.745 21.8489 40.8013 28.1707 40.8013ZM28.1707 53.9023C20.3567 53.9023 13.7558 50.2853 13.7558 46.0075V43.1595C14.8832 44.3837 16.2371 45.3779 17.7425 46.0873C21.0094 47.6012 24.5763 48.3568 28.1764 48.2974C34.4925 48.2974 39.8633 46.2411 42.5856 43.1709V46.0189C42.5799 50.2739 35.979 53.8909 28.1707 53.8909V53.9023Z" fill="#717475" fill-opacity="0.2"/>
<path d="M28.1699 15.5561C28.4221 15.5561 28.6641 15.4559 28.8424 15.2775C29.0208 15.0991 29.121 14.8571 29.121 14.6048V0.95125C29.121 0.698963 29.0208 0.457009 28.8424 0.278615C28.6641 0.100221 28.4221 0 28.1699 0C27.9176 0 27.6757 0.100221 27.4973 0.278615C27.319 0.457009 27.2188 0.698963 27.2188 0.95125V14.6219C27.2232 14.8712 27.3254 15.1088 27.5033 15.2835C27.6812 15.4582 27.9206 15.5561 28.1699 15.5561Z" fill="#717475" fill-opacity="0.2"/>
<path d="M28.1699 61.4382C27.9176 61.4382 27.6757 61.5385 27.4973 61.7168C27.319 61.8952 27.2187 62.1372 27.2188 62.3895V76.0601C27.2188 76.3124 27.319 76.5544 27.4973 76.7328C27.6757 76.9112 27.9176 77.0114 28.1699 77.0114C28.4221 77.0114 28.6641 76.9112 28.8424 76.7328C29.0208 76.5544 29.121 76.3124 29.121 76.0601V62.3895C29.121 62.2646 29.0964 62.1409 29.0486 62.0255C29.0008 61.91 28.9307 61.8052 28.8424 61.7168C28.7541 61.6285 28.6492 61.5584 28.5339 61.5106C28.4185 61.4628 28.2948 61.4382 28.1699 61.4382Z" fill="#717475" fill-opacity="0.2"/>
<path d="M45.7349 54.7225C45.6479 54.6286 45.5429 54.5532 45.4262 54.5008C45.3094 54.4485 45.1833 54.4202 45.0553 54.4178C44.9274 54.4153 44.8002 54.4387 44.6815 54.4866C44.5628 54.5344 44.455 54.6057 44.3645 54.6962C44.274 54.7867 44.2027 54.8946 44.1549 55.0133C44.1071 55.132 44.0837 55.2591 44.0861 55.3871C44.0886 55.5151 44.1168 55.6412 44.1692 55.758C44.2215 55.8748 44.2969 55.9798 44.3908 56.0668L54.0444 65.7502C54.2227 65.9283 54.4644 66.0283 54.7165 66.0283C54.9685 66.0283 55.2102 65.9283 55.3885 65.7502C55.5666 65.5718 55.6666 65.3301 55.6666 65.078C55.6666 64.826 55.5666 64.5842 55.3885 64.4059L45.7349 54.7225Z" fill="#717475" fill-opacity="0.2"/>
<path d="M10.6016 22.2774C10.7809 22.4559 11.0235 22.5561 11.2765 22.5561C11.5294 22.5561 11.7721 22.4559 11.9514 22.2774C12.1294 22.0991 12.2294 21.8574 12.2294 21.6053C12.2294 21.3533 12.1294 21.1115 11.9514 20.9332L2.26926 11.2498C2.08882 11.0826 1.85066 10.9919 1.60477 10.9966C1.35887 11.0014 1.12436 11.1011 0.950456 11.2751C0.776551 11.449 0.676766 11.6835 0.67205 11.9295C0.667334 12.1754 0.758049 12.4136 0.925158 12.5941L10.6016 22.2774Z" fill="#717475" fill-opacity="0.2"/>
<path d="M10.6016 54.7225L0.948006 64.4059C0.769939 64.5842 0.669922 64.826 0.669922 65.078C0.669922 65.3301 0.769939 65.5718 0.948006 65.7502C1.03585 65.839 1.14053 65.9095 1.25593 65.9574C1.37132 66.0053 1.49511 66.0298 1.62005 66.0293C1.74509 66.0304 1.86908 66.0063 1.98456 65.9583C2.10005 65.9104 2.20466 65.8396 2.29211 65.7502L11.9742 56.0668C12.1524 55.8847 12.2511 55.6393 12.2484 55.3846C12.2457 55.1298 12.142 54.8865 11.96 54.7083C11.7779 54.53 11.5326 54.4313 11.2778 54.434C11.0231 54.4367 10.7799 54.5405 10.6016 54.7225Z" fill="#717475" fill-opacity="0.2"/>
<path d="M45.0634 22.5566C45.3151 22.5539 45.5559 22.4538 45.7355 22.2774L55.3891 12.5941C55.5562 12.4136 55.6469 12.1754 55.6422 11.9295C55.6375 11.6835 55.5377 11.449 55.3638 11.2751C55.1899 11.1011 54.9554 11.0014 54.7095 10.9966C54.4636 10.9919 54.2254 11.0826 54.045 11.2498L44.3914 20.9332C44.2585 21.0662 44.1681 21.2356 44.1315 21.42C44.0949 21.6044 44.1137 21.7955 44.1856 21.9692C44.2575 22.1429 44.3793 22.2914 44.5355 22.3959C44.6917 22.5005 44.8754 22.5564 45.0634 22.5566Z" fill="#717475" fill-opacity="0.2"/>
</g>
<defs>
<clipPath id="clip0_1635_18660">
<rect width="55" height="77" fill="white" transform="translate(0.667969)"/>
</clipPath>
</defs>
</svg>
