<svg width="68" height="54" viewBox="0 0 68 54" fill="none" xmlns="http://www.w3.org/2000/svg">
<path d="M61.2169 0.316534H6.53768C4.97813 0.318641 3.48318 0.939645 2.38116 2.04316C1.27914 3.14667 0.660155 4.64246 0.660156 6.20201V39.8765C0.660155 41.436 1.27914 42.9318 2.38116 44.0353C3.48318 45.1388 4.97813 45.7598 6.53768 45.7619H25.9041V51.0589H14.7694C14.4213 51.0589 14.0876 51.1971 13.8414 51.4432C13.5953 51.6893 13.4571 52.0231 13.4571 52.3712C13.4571 52.7192 13.5953 53.053 13.8414 53.2991C14.0876 53.5452 14.4213 53.6835 14.7694 53.6835H53.0011C53.3492 53.6835 53.6829 53.5452 53.9291 53.2991C54.1752 53.053 54.3134 52.7192 54.3134 52.3712C54.3134 52.0231 54.1752 51.6893 53.9291 51.4432C53.6829 51.1971 53.3492 51.0589 53.0011 51.0589H41.8664V45.7619H61.2328C62.7931 45.7598 64.2889 45.1391 65.3922 44.0358C66.4954 42.9325 67.1162 41.4367 67.1183 39.8765V6.20201C67.1173 5.42807 66.9638 4.66192 66.6666 3.94729C66.3695 3.23267 65.9345 2.58357 65.3865 2.03705C64.8385 1.49054 64.1883 1.05731 63.4728 0.762098C62.7574 0.466891 61.9909 0.315489 61.2169 0.316534ZM39.2259 51.0589H28.5287V45.7619H39.2259V51.0589ZM64.4778 39.8765C64.4757 40.7407 64.1315 41.5689 63.5204 42.1799C62.9093 42.791 62.0811 43.1352 61.2169 43.1373H6.53768C5.67422 43.1352 4.84684 42.7907 4.23703 42.1794C3.62722 41.5681 3.28476 40.7399 3.28476 39.8765V6.20201C3.28476 5.33855 3.62722 4.51033 4.23703 3.89903C4.84684 3.28773 5.67422 2.94324 6.53768 2.94114H61.2169C62.0811 2.94324 62.9093 3.28746 63.5204 3.89854C64.1315 4.50962 64.4757 5.33781 64.4778 6.20201V39.8765Z" fill="#444444"/>
<path d="M45.1187 36.8466L38.1833 29.9112C37.9724 29.6532 37.8641 29.3264 37.8793 28.9934C37.8946 28.6605 38.0323 28.3449 38.266 28.1073C38.4997 27.8696 38.8129 27.7267 39.1455 27.7059C39.4782 27.6851 39.8068 27.7878 40.0683 27.9945L45.0948 33.021L56.5476 21.592C56.8018 21.3389 57.1461 21.1971 57.5048 21.1979C57.8636 21.1986 58.2073 21.3418 58.4604 21.596C58.7135 21.8502 58.8553 22.1945 58.8546 22.5532C58.8538 22.9119 58.7106 23.2557 58.4564 23.5088L45.1187 36.8466Z" fill="#F4C65D"/>
<path d="M12.5015 13.519H30.0466C30.4051 13.519 30.7491 13.3765 31.0026 13.1229C31.2562 12.8694 31.3986 12.5255 31.3986 12.1669C31.3986 11.8083 31.2562 11.4644 31.0026 11.2108C30.7491 10.9573 30.4051 10.8148 30.0466 10.8148H12.5015C12.1429 10.8148 11.799 10.9573 11.5454 11.2108C11.2919 11.4644 11.1494 11.8083 11.1494 12.1669C11.1494 12.5255 11.2919 12.8694 11.5454 13.1229C11.799 13.3765 12.1429 13.519 12.5015 13.519Z" fill="#F4C65D"/>
<path d="M30.0475 17.1219H12.5025C12.1439 17.1219 11.8 17.2644 11.5464 17.518C11.2928 17.7715 11.1504 18.1154 11.1504 18.474C11.1504 18.8326 11.2928 19.1765 11.5464 19.4301C11.8 19.6836 12.1439 19.8261 12.5025 19.8261H30.0475C30.4061 19.8261 30.75 19.6836 31.0036 19.4301C31.2572 19.1765 31.3996 18.8326 31.3996 18.474C31.3996 18.1154 31.2572 17.7715 31.0036 17.518C30.75 17.2644 30.4061 17.1219 30.0475 17.1219Z" fill="#F4C65D"/>
<path d="M30.0482 23.4611H12.5032C12.1615 23.4872 11.8422 23.6415 11.6093 23.8929C11.3765 24.1443 11.2471 24.4744 11.2471 24.8171C11.2471 25.1598 11.3765 25.4899 11.6093 25.7413C11.8422 25.9927 12.1615 26.147 12.5032 26.1732H30.0482C30.3899 26.147 30.7092 25.9927 30.9421 25.7413C31.1749 25.4899 31.3043 25.1598 31.3043 24.8171C31.3043 24.4744 31.1749 24.1443 30.9421 23.8929C30.7092 23.6415 30.3899 23.4872 30.0482 23.4611Z" fill="#F4C65D"/>
</svg>
