<svg width="85" height="31" viewBox="0 0 85 31" fill="none" xmlns="http://www.w3.org/2000/svg">
<path d="M61.7281 7.80682C61.5631 8.4602 60.8479 8.84133 60.1877 8.62354L42.4175 3.1243L24.6473 8.62354C23.9871 8.84133 23.3269 8.4602 23.1068 7.80682C23.1068 7.80682 23.1068 7.80682 23.1068 7.75237C22.8867 7.099 23.2718 6.39118 23.932 6.17339L42.0324 0.619698C42.1974 0.56525 42.3074 0.56525 42.4175 0.56525C42.5275 0.56525 42.6926 0.56525 42.8026 0.619698L60.9029 6.22783C61.5631 6.44562 61.9482 7.15345 61.7281 7.80682Z" fill="#F3C55B"/>
<path d="M84.5599 17.4531H81.2589V29.5406C81.2589 29.7584 81.0388 29.9762 80.8188 29.9762H78.068C77.8479 29.9762 77.6278 29.7584 77.6278 29.5406V17.4531H74.3269C74.1068 17.4531 73.8867 17.2353 73.8867 17.0176V14.5674C73.8867 14.3496 74.1068 14.1318 74.3269 14.1318H84.5599C84.7799 14.1318 85 14.2952 85 14.5674V17.0176C85 17.2353 84.7799 17.4531 84.5599 17.4531ZM66.5146 30.194H66.1294C66.0194 30.194 65.9094 30.1395 65.8544 30.0851L56.7767 21.1011V29.5406C56.7767 29.7584 56.5566 29.9762 56.3366 29.9762H53.5858C53.3657 29.9762 53.1456 29.7584 53.1456 29.5406V14.2952C53.1456 14.0774 53.3657 13.8596 53.5858 13.8596H53.9964C54.086 13.8596 54.1722 13.8939 54.2372 13.9556L63.3236 22.5712V14.5674C63.3236 14.3496 63.5437 14.1318 63.7638 14.1318H66.5146C66.7346 14.1318 66.9547 14.3496 66.9547 14.5674V29.8128C66.9547 30.0306 66.7346 30.194 66.5146 30.194ZM41.3722 30.0306C41.1521 30.0306 40.932 29.8128 40.932 29.595V14.5674C40.932 14.3496 41.1521 14.1318 41.3722 14.1318H44.123C44.343 14.1318 44.5631 14.3496 44.5631 14.5674V29.595C44.5631 29.8128 44.343 30.0306 44.123 30.0306H41.3722ZM25.2524 30.194C20.6861 30.194 17 26.4915 17.055 21.9723C17.11 17.4531 20.7961 13.8051 25.3625 13.8596C29.9288 13.8596 33.5599 17.562 33.5599 22.0268C33.5599 26.4915 29.9288 30.1395 25.4175 30.194C25.3625 30.194 25.3074 30.194 25.2524 30.194ZM25.2524 17.5076C22.7217 17.5076 20.6861 19.5766 20.6861 22.0812C20.6861 24.5858 22.7767 26.6004 25.3074 26.6004C27.8382 26.6004 29.8738 24.5858 29.8738 22.0812C29.8738 19.5766 27.7832 17.5076 25.2524 17.5076ZM3.57605 24.2591L3.57605 29.5406C3.57605 29.7584 3.35599 29.9762 3.13592 29.9762H0.440129C0.220065 29.9762 0 29.7584 0 29.5406V14.5674C0 14.3496 0.220065 14.1318 0.440129 14.1318H5.99676C8.80259 14.0229 11.1683 16.2553 11.2783 19.0321C11.3883 21.809 9.13269 24.1502 6.32686 24.2591C5.5 24.2591 4.32971 24.2591 3.57605 24.2591ZM5.7767 17.4531H3.57605V20.9378H5.7767C6.76699 20.9378 7.59223 20.1755 7.59223 19.1955C7.59223 18.161 6.76699 17.3987 5.7767 17.4531Z" fill="white"/>
</svg>
