<svg width="261" height="190" viewBox="0 0 261 190" fill="none" xmlns="http://www.w3.org/2000/svg">
<g clip-path="url(#clip0_500_9514)">
<path d="M260.412 0H0.411621V190H260.412V0Z" fill="white"/>
<path d="M15.2517 50.62V43.05H19.7817V24.03H15.2517V15.89H39.4217V24.03H34.8917V43.05H39.4217V50.62H15.2517Z" fill="black"/>
<path d="M61.5917 50.62V43.05H65.1017V35.12C65.1017 32.74 63.4017 31.66 61.2017 31.66C60.5604 31.6409 59.9219 31.7525 59.325 31.9879C58.7281 32.2233 58.1854 32.5777 57.7298 33.0296C57.2743 33.4814 56.9154 34.0212 56.675 34.6161C56.4347 35.211 56.3179 35.8486 56.3317 36.4901V43.05H59.9317V50.62H41.0217V43.05H44.4117V31.63H41.0217V24.05H55.9417V29.2801C56.1912 29.059 56.4189 28.8146 56.6217 28.55C59.3517 25.43 62.4717 24.31 66.5617 24.31C72.3117 24.31 76.9917 26.65 76.9917 33.03V43.03H80.0617V50.6L61.5917 50.62Z" fill="black"/>
<path d="M110.142 35.26L99.9317 36.38C99.8117 33.55 99.2317 30.55 95.7717 30.55C91.3917 30.55 91.0417 34.21 91.0417 37.72V37.79C91.0417 41.3 91.3917 44.96 95.7717 44.96C98.0717 44.96 100.112 43.64 100.112 40.85H110.272L110.192 41.73C108.512 50 101.052 51.29 95.6717 51.29C87.2417 51.29 78.9617 47.15 78.9617 37.74C78.9617 28.33 87.2417 24.19 95.6717 24.19C95.6717 24.22 108.892 23.36 110.142 35.26Z" fill="black"/>
<path d="M118.042 46.45C118.042 47.3029 117.789 48.1366 117.315 48.8456C116.841 49.5546 116.167 50.107 115.379 50.4329C114.591 50.7588 113.723 50.8436 112.887 50.6765C112.051 50.5093 111.283 50.0979 110.68 49.4941C110.078 48.8903 109.668 48.1214 109.503 47.2847C109.338 46.448 109.425 45.5811 109.753 44.7937C110.08 44.0063 110.634 43.3339 111.344 42.8615C112.055 42.3891 112.889 42.138 113.742 42.14C114.307 42.14 114.867 42.2516 115.389 42.4683C115.912 42.685 116.386 43.0026 116.786 43.403C117.185 43.8034 117.502 44.2786 117.717 44.8014C117.933 45.3243 118.043 45.8845 118.042 46.45Z" fill="black"/>
<path d="M166.542 13.15C156.962 13.15 151.382 19.55 151.382 32.15C151.382 44.75 156.962 51.25 166.542 51.25C176.122 51.25 181.772 44.68 181.772 32.15C181.772 19.62 176.012 13.15 166.542 13.15ZM166.542 43.62C163.052 43.62 162.302 40.25 162.302 32.22C162.302 24.19 163.052 20.82 166.542 20.82C170.032 20.82 170.782 24.19 170.782 32.22C170.782 40.25 170.072 43.62 166.572 43.62H166.542Z" fill="black"/>
<path d="M198.112 13.15C188.532 13.15 182.952 19.55 182.952 32.15C182.952 44.75 188.532 51.25 198.112 51.25C207.692 51.25 213.332 44.68 213.332 32.15C213.332 19.62 207.582 13.15 198.112 13.15ZM198.112 43.62C194.622 43.62 193.872 40.25 193.872 32.22C193.872 24.19 194.622 20.82 198.112 20.82C201.602 20.82 202.412 24.19 202.412 32.22C202.412 40.25 201.632 43.62 198.142 43.62H198.112Z" fill="black"/>
<path d="M229.682 13.15C220.092 13.15 214.522 19.55 214.522 32.15C214.522 44.75 220.092 51.25 229.682 51.25C239.272 51.25 244.902 44.68 244.902 32.15C244.902 19.62 239.152 13.15 229.682 13.15ZM229.682 43.62C226.192 43.62 225.442 40.25 225.442 32.22C225.442 24.19 226.192 20.82 229.682 20.82C233.172 20.82 233.922 24.19 233.922 32.22C233.922 40.25 233.202 43.62 229.712 43.62H229.682Z" fill="black"/>
<path d="M147.012 28.39C145.092 26.59 142.262 25.5 138.292 25.5C135.695 25.4248 133.168 26.3482 131.232 28.08L132.022 22.19H147.652V13.46H124.972L122.562 30.78L129.192 34.22C130.836 32.698 132.955 31.7902 135.192 31.65C135.782 31.6287 136.372 31.7256 136.925 31.9351C137.478 32.1446 137.983 32.4624 138.412 32.87C139.003 33.5158 139.456 34.2755 139.743 35.1026C140.03 35.9297 140.145 36.8068 140.082 37.68C140.09 38.3724 140.02 39.0636 139.872 39.74C139.716 40.7613 139.18 41.6861 138.372 42.3295C137.563 42.9728 136.542 43.2873 135.512 43.21C131.232 43.21 131.592 37.88 132.512 36L132.452 35.94L121.822 41.46C122.602 48.22 129.432 51.29 135.232 51.29C139.077 51.3791 142.825 50.0718 145.782 47.61C146.886 46.6618 147.817 45.5281 148.532 44.26C149.728 42.2055 150.376 39.8774 150.412 37.5C150.412 33.88 149.412 30.6 147.012 28.39Z" fill="black"/>
<path d="M22.8017 85.67L17.6617 75.77V85.67H15.4917V72.46H18.3317L23.2817 82.36V72.46H25.4117V85.67H22.8017Z" fill="black"/>
<path d="M27.5816 75.2501C27.5614 74.8404 27.6293 74.4311 27.7806 74.0499C27.932 73.6687 28.1632 73.3243 28.4589 73.04C28.7546 72.7558 29.1077 72.5381 29.4946 72.4019C29.8815 72.2656 30.293 72.2138 30.7016 72.2501C31.0963 72.2058 31.4958 72.2507 31.8708 72.3817C32.2457 72.5126 32.5865 72.7261 32.8678 73.0065C33.1491 73.2868 33.3638 73.6268 33.496 74.0013C33.6282 74.3758 33.6745 74.7752 33.6316 75.1701C33.6864 75.5915 33.6443 76.0198 33.5083 76.4225C33.3724 76.8251 33.1463 77.1914 32.8472 77.4933C32.5482 77.7953 32.1841 78.0249 31.7828 78.1647C31.3815 78.3045 30.9535 78.3508 30.5316 78.3001C28.5516 78.2701 27.5816 77.1901 27.5816 75.2501ZM31.7816 75.2501C31.7816 74.1401 31.4516 73.52 30.6416 73.52C29.8316 73.52 29.4116 74.1101 29.4116 75.2501C29.4116 76.3901 29.7216 77.0001 30.6116 77.0001C31.5016 77.0001 31.7816 76.4001 31.7816 75.2101V75.2501Z" fill="black"/>
<path d="M245.56 185.15H15.1499V185.98H245.56V185.15Z" fill="#231F20"/>
<path d="M244.722 61.91H224.612V146.22H244.722V61.91Z" fill="black"/>
<path d="M216.202 62.13H14.9216V62.96H216.202V62.13Z" fill="#231F20"/>
<path d="M216.432 144.9H15.1516V145.73H216.432V144.9Z" fill="#231F20"/>
<path d="M84.2912 177.368H77.7678V153.321H87.5119C93.2984 153.321 95.7003 156.187 95.7003 160.8C95.7003 164.157 94.6358 169.207 86.4748 169.207H84.2912V177.368ZM85.574 164.348C87.6757 164.348 89.1223 163.802 89.1223 161.346C89.1223 159.763 88.631 158.425 86.3929 158.425H84.3731V164.348H85.574Z" fill="#EF4223"/>
<path d="M98.0474 165.577C98.0474 157.552 102.414 153.021 109.102 153.021C115.789 153.021 119.555 157.47 119.555 165.195C119.555 172.919 115.816 177.859 108.638 177.859C101.459 177.859 98.0474 173.329 98.0474 165.577ZM112.677 165.249C112.677 159.954 111.34 158.207 108.911 158.207C106.481 158.207 104.953 159.872 104.953 165.386C104.953 170.899 106.263 172.783 108.856 172.783C111.449 172.783 112.677 170.981 112.677 165.249Z" fill="#EF4223"/>
<path d="M130.849 173.437H133.251V177.368H121.951V173.328H124.299V157.361H121.978V153.321H133.251V157.361H130.849V173.437Z" fill="#EF4223"/>
<path d="M150.099 177.368L142.975 163.721V177.368H136.889V153.321H144.395L151.164 167.569V153.321H157.25V177.368H150.099Z" fill="#EF4223"/>
<path d="M165.653 158.726H159.566V153.431H178.29V158.726H172.176V177.368H165.653V158.726Z" fill="#EF4223"/>
<path d="M66.8616 82.8C72.6616 82.71 77.8616 79.8 78.8016 74.61H89.8016V134.29H77.8016V88.94C76.6138 90.3472 75.1238 91.4683 73.4426 92.2198C71.7614 92.9712 69.9323 93.3336 68.0916 93.28H66.8916L66.8616 82.8Z" fill="#EF4223"/>
<path d="M116.652 135.31C101.222 135.31 94.9116 121.42 94.9116 105.56C94.9116 82.4601 105.482 73.5601 117.502 73.5601C127.142 73.5601 134.132 78.6801 134.722 87.9701L124.412 90.0001C124.412 85.6601 121.852 82.3301 117.502 82.3301C110.002 82.3301 106.592 91.4501 106.762 102.71C108.228 100.606 110.197 98.9023 112.491 97.7547C114.784 96.6071 117.329 96.052 119.892 96.1401C128.502 96.1401 136.262 103.14 136.262 114.9C136.262 126.19 128.412 135.31 116.652 135.31ZM107.412 115.11C107.412 121.42 110.822 126.28 116.192 126.28C121.902 126.28 125.052 121.42 125.052 115.11C125.052 108.8 121.392 104.45 116.362 104.45C111.022 104.45 107.412 109.23 107.412 115.11Z" fill="#EF4223"/>
<path d="M157.142 135.31C140.522 135.31 136.772 123.12 137.962 115.11L148.962 113.49C147.512 121.25 150.752 126.1 156.892 126.1C162.342 126.1 166.012 122.1 166.012 114C166.012 107.78 162.512 103 157.012 103C153.262 103 150.702 105 148.572 107.35L139.882 105.13L142.352 74.61H174.832V84.61H150.152L148.872 98.85C150.451 97.3517 152.311 96.181 154.345 95.4052C156.379 94.6294 158.546 94.264 160.722 94.33C170.192 94.33 178.292 100.98 178.292 113.68C178.292 124.14 171.642 135.31 157.142 135.31Z" fill="#EF4223"/>
<path d="M231.572 86.09H229.132V79.16C229.392 79.16 229.712 79.16 230.042 79.16C230.564 79.1497 231.087 79.1899 231.602 79.28C233.972 79.82 235.602 83.48 237.392 83.48C237.493 83.4934 237.597 83.4842 237.695 83.4531C237.792 83.422 237.882 83.3697 237.958 83.3001C238.033 83.2304 238.092 83.1451 238.131 83.05C238.17 82.9549 238.187 82.8525 238.182 82.75C238.182 82.03 237.432 81.86 236.402 82.07L236.212 79.3C238.482 78.82 240.332 79.91 240.332 82.81C240.332 85.07 239.262 86.42 237.382 86.42C234.222 86.42 233.302 82.88 231.572 82.48V86.09Z" fill="white"/>
<path d="M234.572 93.0699C238.242 93.0699 240.332 94.8799 240.332 97.6999C240.332 100.52 238.332 102.02 234.752 102.02C231.062 102.02 228.952 100.49 228.952 97.5099C228.952 94.5299 231.012 93.0699 234.572 93.0699ZM234.722 99.0099C237.312 99.0099 238.062 98.5599 238.062 97.5999C238.062 96.6399 237.352 96.1099 234.662 96.1099C231.972 96.1099 231.092 96.5299 231.092 97.5699C231.092 98.6099 231.932 98.9999 234.722 98.9999V99.0099Z" fill="white"/>
<path d="M231.572 115.94H229.132V109C229.392 109 229.712 109 230.042 109C230.564 108.99 231.087 109.03 231.602 109.12C233.972 109.66 235.602 113.32 237.392 113.32C237.493 113.333 237.597 113.324 237.695 113.293C237.792 113.262 237.882 113.21 237.958 113.14C238.033 113.07 238.092 112.985 238.131 112.89C238.17 112.795 238.187 112.693 238.182 112.59C238.182 111.87 237.432 111.7 236.402 111.91L236.212 109.14C238.482 108.66 240.332 109.75 240.332 112.65C240.332 114.91 239.262 116.26 237.382 116.26C234.222 116.26 233.302 112.72 231.572 112.32V115.94Z" fill="white"/>
<path d="M231.572 130.14H229.132V123.21H230.042C230.564 123.197 231.086 123.234 231.602 123.32C233.972 123.86 235.602 127.52 237.392 127.52C237.493 127.533 237.597 127.524 237.695 127.493C237.792 127.462 237.882 127.41 237.958 127.34C238.033 127.27 238.092 127.185 238.131 127.09C238.17 126.995 238.187 126.893 238.182 126.79C238.182 126.07 237.432 125.9 236.402 126.11L236.212 123.34C238.482 122.86 240.332 123.96 240.332 126.85C240.332 129.11 239.262 130.47 237.382 130.47C234.222 130.47 233.302 126.93 231.572 126.52V130.14Z" fill="white"/>
</g>
<defs>
<clipPath id="clip0_500_9514">
<rect width="260" height="190" fill="white" transform="translate(0.411621)"/>
</clipPath>
</defs>
</svg>
