<svg width="68" height="64" viewBox="0 0 68 64" fill="none" xmlns="http://www.w3.org/2000/svg">
<path d="M61.3519 26.5083C60.8621 24.6947 60.1823 22.9379 59.3238 21.267V9.33701H58.1308C55.6645 9.33354 53.2823 10.2332 51.4341 11.8662C51.0841 11.5958 50.7262 11.3413 50.3524 11.0708V9.31315H49.1753C48.7041 9.31079 48.2334 9.34535 47.7676 9.41654H47.6244C47.2762 9.46637 46.9311 9.5354 46.5905 9.62333C46.336 9.69491 46.0656 9.77444 45.7952 9.86988L45.4452 10.0051C45.0612 10.1482 44.6889 10.321 44.3317 10.5221C42.8983 11.2969 41.6724 12.4052 40.7574 13.7535C39.8424 15.1017 39.2652 16.6504 39.0746 18.2686C39.0292 18.662 39.0079 19.0577 39.011 19.4537C39.0099 19.6093 39.0395 19.7636 39.0981 19.9078C39.1567 20.0519 39.2431 20.1832 39.3524 20.294C39.4617 20.4047 39.5918 20.4929 39.7352 20.5534C39.8785 20.6139 40.0324 20.6456 40.1881 20.6467C40.5045 20.6467 40.8079 20.521 41.0316 20.2972C41.2554 20.0735 41.3811 19.7701 41.3811 19.4537C41.3866 17.9865 41.807 16.5508 42.5937 15.3124C43.3804 14.074 44.5013 13.0833 45.827 12.4547C46.2047 12.27 46.5987 12.1209 47.0041 12.0093L47.2427 11.9378L47.4017 11.898C47.5926 11.8503 47.7835 11.8185 47.9823 11.7866V19.4696C47.9823 19.786 48.108 20.0894 48.3318 20.3131C48.5555 20.5369 48.8589 20.6626 49.1753 20.6626C49.2413 20.6709 49.3081 20.6709 49.3742 20.6626H49.4378C49.495 20.6488 49.5508 20.6302 49.6048 20.6069C49.6733 20.5788 49.7376 20.5414 49.7957 20.4956C49.8466 20.4657 49.8945 20.431 49.9389 20.3922L50.0184 20.3047C50.0508 20.2707 50.0752 20.2299 50.09 20.1854C50.146 20.0927 50.1914 19.994 50.2252 19.8911C50.2335 19.8411 50.2335 19.79 50.2252 19.74C50.233 19.6873 50.233 19.6336 50.2252 19.5809V14.0454C50.3842 14.1567 50.5115 14.276 50.6467 14.3874C50.9569 14.6339 51.2591 14.8964 51.5534 15.1827C53.604 17.0149 55.328 19.1826 56.6515 21.5931C56.7148 21.6867 56.7706 21.7851 56.8185 21.8874C57.0577 22.2206 57.2755 22.5686 57.4707 22.9293C57.7093 23.4303 57.9081 23.8996 57.9081 23.8996C58.4714 25.2197 58.9236 26.5844 59.2602 27.9796L59.467 28.8943H64.9866V38.2792L55.7687 47.5051V60.9701H47.5767V55.4903L45.8667 56.2856C42.4432 57.9729 38.6761 58.8466 34.8593 58.8386C31.4627 58.8442 28.1009 58.154 24.9813 56.8105L23.319 56.1027V60.9701H15.1589V49.2867L14.9123 48.9685C11.5814 44.6127 9.78603 39.2769 9.80629 33.7935C9.81034 29.0352 11.1664 24.376 13.7164 20.3587C16.2665 16.3414 19.9056 13.1314 24.2098 11.1027C24.2734 10.6176 24.3664 10.1369 24.4882 9.66309C24.6153 9.15835 24.7801 8.66386 24.9813 8.18377C20.6596 9.85572 16.8298 12.5913 13.8466 16.1371C13.7434 16.2069 13.6521 16.2928 13.5762 16.3916C13.5496 16.4241 13.5257 16.4587 13.5046 16.495C12.479 17.8016 10.9831 18.6553 9.33648 18.8738C7.68987 19.0922 6.02311 18.6581 4.69228 17.6642C4.18371 17.2852 3.75577 16.8087 3.43349 16.2625C3.11121 15.7162 2.90105 15.1112 2.81529 14.4828C2.72227 13.8547 2.7545 13.2143 2.91011 12.5987C3.06572 11.9831 3.34164 11.4044 3.72197 10.8959C4.29798 10.1247 5.15579 9.61289 6.10798 9.47222C6.58081 9.40431 7.0624 9.43047 7.52509 9.54922C7.98778 9.66796 8.42246 9.87695 8.80416 10.1642C9.08532 10.372 9.32226 10.6338 9.50115 10.9342C9.68003 11.2346 9.79728 11.5677 9.84605 11.9139C9.90052 12.2607 9.88421 12.615 9.7981 12.9553C9.71198 13.2957 9.55786 13.6151 9.34499 13.8943C9.15515 14.1474 9.07364 14.4656 9.11838 14.7788C9.16313 15.092 9.33046 15.3746 9.58358 15.5645C9.83744 15.7523 10.1551 15.8325 10.4676 15.7879C10.7802 15.7432 11.0627 15.5772 11.2538 15.3259C11.2829 15.2907 11.3095 15.2535 11.3333 15.2145C12.0799 14.1598 12.3931 12.8588 12.2082 11.5799C12.1142 10.9232 11.8917 10.2916 11.5532 9.72109C11.2147 9.15061 10.767 8.65252 10.2358 8.25535C9.60487 7.78179 8.88663 7.43753 8.1223 7.24235C7.35796 7.04717 6.5626 7.00492 5.78189 7.11803C4.99396 7.23225 4.23662 7.50201 3.55392 7.91163C2.87122 8.32125 2.27679 8.86255 1.80522 9.50403C0.675956 11.0381 0.198565 12.9563 0.477009 14.8407C0.60662 15.7839 0.923103 16.6918 1.40791 17.5112C1.89272 18.3306 2.53612 19.0451 3.30045 19.6127C4.80195 20.7432 6.63042 21.3545 8.50989 21.3545C8.92632 21.3313 9.34078 21.2808 9.75061 21.2034C10.0131 21.1636 10.2676 21.1159 10.5459 21.0523C8.48169 24.976 7.40604 29.3441 7.41233 33.7776C7.39108 39.6426 9.26887 45.3569 12.7649 50.0661V63.3561H25.713V59.6976C28.651 60.7474 31.7473 61.2854 34.8673 61.2882C38.4126 61.2971 41.9253 60.6108 45.2066 59.2681V63.3561H58.1547V48.4913L67.3805 39.2654V26.5401L61.3519 26.5083ZM56.9457 17.4176C55.8699 15.9716 54.6494 14.6392 53.3031 13.4409C54.355 12.5974 55.6121 12.0485 56.9457 11.8503V17.4176ZM48.2607 28.0512C48.2967 28.1091 48.3394 28.1625 48.388 28.2103C48.4371 28.2682 48.4964 28.3167 48.5629 28.3535C48.6186 28.3945 48.6803 28.4267 48.7458 28.4489C48.8158 28.4775 48.8875 28.5014 48.9606 28.5205H49.1753C49.3234 28.5253 49.4708 28.4988 49.6079 28.4426C49.745 28.3864 49.8686 28.3018 49.9707 28.1944C50.0264 28.1492 50.0747 28.0955 50.1138 28.0353C50.1566 27.9778 50.1889 27.9132 50.2093 27.8444C50.2378 27.7772 50.2618 27.7081 50.2808 27.6376C50.2848 27.5661 50.2848 27.4944 50.2808 27.4229C50.2851 27.3514 50.2851 27.2797 50.2808 27.2082C50.2606 27.1381 50.2367 27.069 50.2093 27.0014C50.1905 26.9344 50.158 26.8722 50.1138 26.8185C50.0775 26.7516 50.029 26.6923 49.9707 26.6435C49.9233 26.5944 49.8699 26.5517 49.8116 26.5162C49.7544 26.4711 49.6898 26.4361 49.6207 26.4128C49.5554 26.3796 49.4858 26.3555 49.4139 26.3413C49.2752 26.3096 49.1311 26.3096 48.9924 26.3413C48.9183 26.3567 48.8462 26.3807 48.7777 26.4128C48.7103 26.4344 48.648 26.4696 48.5947 26.5162C48.529 26.5473 48.4696 26.5905 48.4198 26.6435C48.3711 26.697 48.3284 26.7557 48.2925 26.8185C48.248 26.8746 48.2106 26.936 48.1812 27.0014C48.1812 27.065 48.1334 27.1445 48.1175 27.2082C48.1139 27.2797 48.1139 27.3514 48.1175 27.4229C48.1136 27.4944 48.1136 27.5661 48.1175 27.6376C48.1175 27.7092 48.1653 27.7808 48.1812 27.8444C48.1993 27.9163 48.226 27.9857 48.2607 28.0512Z" fill="#444444"/>
<path d="M36.1551 0.644008C33.7604 0.653876 31.4228 1.37613 29.4399 2.71882C27.4571 4.06151 25.9186 5.96389 25.0204 8.18377C24.8193 8.66386 24.6545 9.15835 24.5273 9.6631C24.4055 10.1369 24.3126 10.6176 24.2489 11.1027C24.1788 11.63 24.1443 12.1614 24.1455 12.6933C24.1454 14.6323 24.6148 16.5425 25.5135 18.2607H28.2972C27.1419 16.6338 26.5195 14.6887 26.5156 12.6933C26.5146 11.7857 26.6459 10.8828 26.9054 10.013C27.035 9.52298 27.2107 9.0463 27.4303 8.5894C27.6717 8.08073 27.9564 7.59378 28.2813 7.13393C29.1761 5.85632 30.3668 4.8143 31.7518 4.09687C33.1368 3.37945 34.6749 3.00794 36.2346 3.0141C37.9834 3.0159 39.6992 3.4907 41.2002 4.3882C42.7011 5.28569 43.9314 6.57246 44.7606 8.1122C45.0387 8.61844 45.2651 9.15134 45.4366 9.70287C45.4758 9.81199 45.5077 9.92358 45.5321 10.0369L45.882 9.9017C46.1445 9.80626 46.4149 9.72673 46.6774 9.65515C47.0179 9.56722 47.3631 9.49818 47.7113 9.44836H47.8545C47.1371 6.90245 45.604 4.66232 43.4906 3.07185C41.3771 1.48137 38.8001 0.628452 36.1551 0.644008Z" fill="#F4C65D"/>
<path d="M39.0196 19.4855C39.0166 19.0895 39.0378 18.6938 39.0832 18.3004H20.7905C20.4769 18.3025 20.1766 18.428 19.9549 18.6498C19.7331 18.8716 19.6076 19.1718 19.6055 19.4855C19.6055 19.8005 19.7301 20.1027 19.9521 20.3262C20.1741 20.5497 20.4755 20.6764 20.7905 20.6785H40.2126C40.0556 20.6795 39.9 20.6494 39.7548 20.5898C39.6096 20.5302 39.4776 20.4424 39.3666 20.3314C39.2557 20.2204 39.1678 20.0885 39.1082 19.9433C39.0487 19.798 39.0185 19.6424 39.0196 19.4855Z" fill="#444444"/>
</svg>
