<svg width="76" height="76" viewBox="0 0 76 76" fill="none" xmlns="http://www.w3.org/2000/svg">
<path d="M49.8007 75.175C46.3307 75.175 43.0406 73.595 39.1606 71.235C30.7806 66.115 24.7607 61.725 19.6707 57.015C13.8907 51.675 9.08065 45.725 4.54065 38.295C1.27065 32.945 -0.419391 28.665 1.25061 23.895C2.66061 19.875 7.59062 14.515 11.1406 12.235C12.8206 11.155 14.1306 10.625 15.1606 10.625C16.8106 10.625 17.9006 12.205 19.4006 14.405C19.8006 14.985 20.1906 15.555 20.6206 16.145C24.1706 20.985 26.5706 24.655 26.7606 26.825C27.0006 29.535 24.7106 31.535 22.5006 33.465C21.8106 34.075 21.1607 34.635 20.7307 35.115C20.3207 35.575 20.1106 36.195 20.1606 36.845C20.3006 38.935 23.0207 41.655 27.0507 45.095L27.1406 45.175C27.5106 45.485 27.8106 45.745 28.0006 45.915C28.1906 46.085 28.4907 46.375 28.8607 46.745L28.9607 46.845C35.4207 53.135 38.7607 55.595 40.8607 55.595C41.4507 55.595 41.9507 55.415 42.3507 55.055C42.8507 54.605 43.4606 53.905 44.0006 53.285C45.9406 51.065 47.9506 48.795 50.6406 49.025C52.9406 49.225 57.1307 52.095 61.3207 55.165C61.9107 55.595 62.4906 55.995 63.0406 56.375C67.7706 59.625 67.6707 60.845 65.2207 64.645C62.9307 68.195 57.5807 73.125 53.5607 74.535C52.3107 74.955 51.0707 75.175 49.8007 75.175ZM14.9507 13.965C14.6507 14.055 14.0107 14.295 12.9207 15.005C9.89065 16.955 5.49072 21.735 4.36072 24.985C3.11072 28.565 4.44071 31.825 7.35071 36.575C11.7307 43.735 16.3506 49.465 21.9006 54.585C26.8306 59.145 32.6806 63.405 40.8706 68.415C45.4106 71.185 48.8707 72.665 52.4607 71.405C55.7007 70.275 60.4907 65.865 62.4407 62.845C62.7507 62.375 63.4407 61.305 63.5507 60.885C63.2807 60.535 62.2207 59.805 61.1807 59.095C60.5907 58.685 59.9807 58.265 59.3607 57.815C53.3107 53.385 51.1107 52.365 50.3407 52.295H50.2307C49.2207 52.295 47.6907 54.045 46.4707 55.445C45.8707 56.135 45.1806 56.925 44.5306 57.505C43.5206 58.405 42.2507 58.885 40.8407 58.885C37.6507 58.885 34.0606 56.445 26.6306 49.205L26.5306 49.105C26.1806 48.765 25.9107 48.505 25.7407 48.335C25.5707 48.175 25.3007 47.955 24.9807 47.675L24.8906 47.595C19.8506 43.295 17.0807 40.345 16.8507 37.055C16.7507 35.505 17.2506 34.035 18.2506 32.905C18.8206 32.275 19.5407 31.635 20.3007 30.975C22.1407 29.365 23.5407 28.065 23.4507 27.095C23.3807 26.325 22.3707 24.135 17.9407 18.085C17.4907 17.465 17.0707 16.865 16.6807 16.295C16.1807 15.545 15.3907 14.385 14.9507 13.965Z" fill="#444444"/>
<path d="M53.0107 45.165C40.7907 45.165 30.8408 35.2249 30.8408 22.9949C30.8408 10.7649 40.7807 0.824951 53.0107 0.824951C65.2407 0.824951 75.1808 10.775 75.1808 23.005C75.1808 35.235 65.2307 45.165 53.0107 45.165ZM53.0107 4.13495C42.6107 4.13495 34.1508 12.595 34.1508 23.005C34.1508 33.415 42.6107 41.875 53.0107 41.875C63.4107 41.875 71.8807 33.415 71.8807 23.005C71.8807 12.595 63.4107 4.13495 53.0107 4.13495Z" fill="#F4C65D"/>
<path d="M61.9203 26.995H51.3604V12.265C51.3604 11.355 52.1003 10.615 53.0103 10.615C53.9203 10.615 54.6603 11.355 54.6603 12.265V23.695H61.9203C62.8303 23.695 63.5703 24.435 63.5703 25.345C63.5703 26.255 62.8303 26.995 61.9203 26.995Z" fill="#F4C65D"/>
</svg>
