<svg width="161" height="70" viewBox="0 0 161 70" fill="none" xmlns="http://www.w3.org/2000/svg">
<path d="M70.3543 42.4152C66.3377 42.4392 62.4293 41.2346 59.2602 38.9959C56.4019 37.0454 54.401 34.2366 53.615 31.0713C53.2645 29.6739 53.1799 28.2325 53.3649 26.8092C53.6976 23.9254 55.066 21.2207 57.2594 19.1115C59.7142 16.6855 62.9543 15.0286 66.5134 14.3795C68.2722 14.0307 70.0785 13.9215 71.8728 14.0554C76.1425 14.3121 80.1627 15.9714 83.1812 18.7226C85.2632 20.6193 86.6644 23.0428 87.2008 25.6748C87.629 27.5073 87.6144 29.4021 87.158 31.229C86.7015 33.0558 85.8141 34.7712 84.5568 36.2571C82.1111 39.1953 78.5771 41.2327 74.6061 41.9939C73.2121 42.286 71.7849 42.4274 70.3543 42.4152V42.4152ZM73.3556 27.9274C73.3556 25.9017 73.3556 23.876 73.3556 21.8665C73.3661 21.5214 73.2606 21.1816 73.0532 20.8921C72.8458 20.6027 72.5463 20.3773 72.1944 20.2459C71.6608 20.0178 71.0782 19.8995 70.4883 19.8995C69.8984 19.8995 69.3158 20.0178 68.7822 20.2459C68.4224 20.3671 68.1152 20.5901 67.9061 20.882C67.697 21.1739 67.597 21.5191 67.621 21.8665V34.831C67.6419 35.0629 67.728 35.2861 67.8711 35.4792C68.0796 35.7701 68.3968 35.9829 68.7643 36.0788C69.8385 36.3947 70.9952 36.3947 72.0693 36.0788C72.3946 36.0031 72.6861 35.8377 72.9036 35.6056C73.1212 35.3734 73.2541 35.0859 73.2841 34.7824C73.3018 34.5071 73.3018 34.2312 73.2841 33.9559C73.3556 31.9302 73.3556 29.9207 73.3556 27.9274V27.9274Z" fill="#444444"/>
<path d="M97.6338 36.0625C97.3301 36.4838 97.0443 36.8566 96.7763 37.2455L93.2034 42.1072C93.1739 42.1434 93.1364 42.1736 93.0934 42.1959C93.0503 42.2182 93.0026 42.2322 92.9533 42.2368H82.2344C82.2344 42.1396 82.3416 42.0586 82.3952 41.9938C85.6644 37.2131 88.9158 32.4162 92.1851 27.6518C92.2358 27.5943 92.2634 27.5228 92.2634 27.4492C92.2634 27.3756 92.2358 27.3041 92.1851 27.2466L83.0204 14.3956L82.7703 14.1201H93.4892C93.5592 14.1143 93.6294 14.1283 93.6902 14.1602C93.751 14.1922 93.7993 14.2404 93.8286 14.2983C95.0792 16.1458 96.3297 17.9932 97.5624 19.8407L97.741 20.0675L97.8661 19.8569C98.9737 18.0094 100.063 16.162 101.153 14.3145C101.174 14.2533 101.217 14.2004 101.275 14.1649C101.334 14.1294 101.405 14.1136 101.475 14.1201H112.426C112.386 14.1996 112.338 14.2755 112.283 14.347C109.21 18.6685 106.126 22.99 103.029 27.3115C102.961 27.3775 102.923 27.4643 102.923 27.5545C102.923 27.6448 102.961 27.7316 103.029 27.7976L113.14 42.0586L113.266 42.253H102.422C102.352 42.2546 102.284 42.2388 102.224 42.2074C102.164 42.1759 102.115 42.13 102.082 42.0748C100.635 40.1949 99.2417 38.3151 97.8482 36.3542C97.7686 36.2621 97.6969 36.1646 97.6338 36.0625V36.0625Z" fill="#444444"/>
<path d="M51.8832 33.4542H41.9325V42.2214H32.75V14.2667H53.4553L53.5625 21.851H42.0576V25.5945H51.8832V33.4542Z" fill="#444444"/>
<path d="M114.928 14.1196H124.736C126.248 24.6749 127.743 35.2248 129.22 45.7692H128.987C127.737 45.7692 126.504 45.7692 125.254 45.7692C125.075 45.7692 125.021 45.7692 124.968 45.5585C123.11 39.6489 121.228 33.7717 119.322 27.9268C117.846 23.3892 116.381 18.8517 114.928 14.3141C114.928 14.3141 114.928 14.2007 114.928 14.1196Z" fill="#444444"/>
<path d="M112.532 17.9761L123.626 45.7525H123.376C121.768 45.7525 120.142 45.7525 118.535 45.7525C118.464 45.7609 118.393 45.748 118.331 45.7158C118.27 45.6835 118.222 45.6338 118.195 45.5743L105.779 27.586C105.726 27.5325 105.697 27.4633 105.697 27.3915C105.697 27.3198 105.726 27.2506 105.779 27.1971L112.353 18.203L112.532 17.9761Z" fill="#444444"/>
<path d="M115.625 45.7686H32.75V43.9698H114.16C114.23 43.9615 114.302 43.9724 114.366 44.0013C114.43 44.0302 114.482 44.0757 114.517 44.1319C114.839 44.6342 115.196 45.1204 115.535 45.6228L115.625 45.7686Z" fill="#444444"/>
<path d="M32.75 47.3264H42.79C43.1505 47.3263 43.5074 47.391 43.8402 47.5166C44.1729 47.6422 44.4751 47.8263 44.7291 48.0583C44.9832 48.2903 45.1841 48.5655 45.3204 48.8682C45.4567 49.1709 45.5257 49.4951 45.5233 49.822C45.5495 50.2291 45.4674 50.6359 45.2839 51.0082C45.1005 51.3805 44.8211 51.7073 44.4693 51.9612C44.9021 52.1901 45.2455 52.5356 45.4519 52.9497C45.6467 53.3064 45.7489 53.6987 45.7508 54.0967C45.7527 54.4947 45.6542 54.8879 45.4628 55.246C45.2714 55.6042 44.9923 55.9179 44.6467 56.1631C44.3011 56.4083 43.8982 56.5786 43.4689 56.6608C43.2668 56.6776 43.0635 56.6776 42.8615 56.6608H32.75V47.3264ZM35.1617 50.924H42.6292C42.742 50.9288 42.8526 50.8947 42.9388 50.8286C43.0249 50.7624 43.0803 50.6692 43.0937 50.5675C43.1284 50.3852 43.1284 50.1988 43.0937 50.0165C43.0937 49.6113 42.8972 49.5141 42.4327 49.5141H35.2868L35.1617 50.924ZM35.1617 54.5054H42.5935C43.1473 54.5054 43.326 54.3596 43.326 53.841C43.3337 53.7493 43.3337 53.6572 43.326 53.5655C43.326 53.2252 43.1295 53.128 42.7543 53.128H35.2153L35.1617 54.5054Z" fill="#444444"/>
<path d="M129.219 47.3424V49.5301H120.519C120.072 49.5301 119.929 49.6436 119.876 50.0487C119.858 50.2104 119.858 50.3732 119.876 50.5349C119.876 50.8104 120.126 50.9238 120.465 50.9238C122.555 50.9238 124.663 50.9238 126.753 50.9238C127.475 50.9194 128.173 51.1568 128.714 51.5904C129.255 52.024 129.6 52.6234 129.683 53.2736C129.78 53.7329 129.761 54.206 129.628 54.6577C129.495 55.1094 129.251 55.5281 128.915 55.8827C128.67 56.1422 128.366 56.3505 128.023 56.4932C127.681 56.6358 127.309 56.7095 126.932 56.7092H118V54.5215H126.718C127.111 54.5215 127.325 54.4404 127.379 53.9381C127.397 53.8633 127.397 53.7859 127.379 53.7112C127.379 53.2736 127.182 53.1116 126.718 53.1278C124.663 53.1278 122.609 53.1278 120.554 53.1278C120.149 53.1344 119.746 53.0668 119.37 52.929C118.994 52.7913 118.652 52.5862 118.365 52.3261C118.079 52.0659 117.853 51.756 117.701 51.4148C117.549 51.0737 117.474 50.7083 117.482 50.3404C117.451 49.8454 117.556 49.3513 117.787 48.9019C118.017 48.4524 118.367 48.0615 118.804 47.7637C119.214 47.4901 119.706 47.3374 120.215 47.3262H129.219V47.3424Z" fill="#444444"/>
<path d="M115.681 47.3415V49.5293H106.927C106.498 49.5293 106.319 49.6751 106.302 50.064C106.284 50.1877 106.284 50.3131 106.302 50.4368C106.302 50.7771 106.516 50.9229 106.891 50.9229H113.269C113.609 50.9213 113.947 50.9706 114.269 51.0688C114.711 51.2065 115.107 51.4438 115.419 51.7585C115.732 52.0732 115.951 52.4549 116.056 52.8676C116.238 53.3731 116.275 53.9126 116.163 54.4346C116.05 54.9566 115.792 55.4437 115.413 55.8494C115.165 56.1161 114.856 56.3299 114.507 56.4756C114.158 56.6213 113.778 56.6952 113.394 56.6921H104.461V54.5206H113.144C113.519 54.5206 113.787 54.5206 113.805 53.921C113.823 53.819 113.823 53.7151 113.805 53.6131C113.808 53.5442 113.795 53.4754 113.766 53.4117C113.736 53.348 113.692 53.291 113.636 53.2446C113.579 53.1982 113.513 53.1636 113.44 53.1432C113.367 53.1229 113.291 53.1173 113.215 53.1269C111.161 53.1269 109.088 53.1269 107.034 53.1269C106.584 53.1315 106.137 53.0472 105.727 52.88C105.316 52.7127 104.95 52.4664 104.654 52.1581C104.358 51.8498 104.14 51.487 104.014 51.0946C103.888 50.7023 103.858 50.2898 103.926 49.8858C103.963 49.4435 104.109 49.0145 104.353 48.6303C104.597 48.246 104.934 47.9164 105.337 47.6656C105.719 47.4369 106.165 47.3131 106.623 47.3091H115.752L115.681 47.3415Z" fill="#444444"/>
<path d="M61.7264 56.7086V54.5208H70.4445C70.909 54.5208 71.034 54.5208 71.0876 54.0184C71.1138 53.8355 71.1138 53.6503 71.0876 53.4674C71.0876 53.2406 70.8732 53.1433 70.5874 53.1433C68.4972 53.1433 66.3892 53.1433 64.299 53.1433C63.8986 53.1455 63.5018 53.0758 63.1313 52.9383C62.7607 52.8008 62.4238 52.5982 62.1399 52.3422C61.856 52.0861 61.6307 51.7817 61.477 51.4464C61.3232 51.1111 61.2441 50.7515 61.2441 50.3884C61.2137 49.9195 61.3027 49.4505 61.504 49.0177C61.7054 48.585 62.0137 48.2001 62.4053 47.8927C62.8283 47.5503 63.3748 47.3601 63.9417 47.3579H73.0527V49.5457H64.299C63.8524 49.5457 63.7094 49.6429 63.6558 50.048C63.6297 50.2364 63.6297 50.4269 63.6558 50.6152C63.6558 50.8421 63.9059 50.9394 64.1918 50.9394H66.5142C67.8541 50.9394 69.1939 50.9394 70.5159 50.9394C71.1727 50.9171 71.8181 51.0995 72.3446 51.4563C72.8712 51.813 73.2472 52.3226 73.41 52.9002C73.5893 53.4344 73.6058 54.0027 73.458 54.5447C73.3102 55.0868 73.0035 55.5825 72.5704 55.9793C72.0683 56.4353 71.3872 56.6918 70.6767 56.6924H61.7443L61.7264 56.7086Z" fill="#444444"/>
<path d="M91.293 47.3418H102.316V49.5134H93.7226V50.9232H101.726V53.111H93.7226V54.5209H102.28V56.7249H91.293V47.3418Z" fill="#444444"/>
<path d="M89.7547 47.3405V56.7074H87.5752C87.5042 56.7133 87.4328 56.703 87.3673 56.6775C87.3018 56.6521 87.2443 56.6122 87.2001 56.5615L81.3047 50.533C81.295 50.4903 81.295 50.4462 81.3047 50.4034V50.4034V56.6426H78.75V47.3243C79.3217 47.3243 79.8755 47.3243 80.4472 47.3243C80.6775 47.3073 80.9088 47.3446 81.1185 47.4327C81.3282 47.5207 81.5093 47.6564 81.6441 47.8267C82.984 49.2204 84.3595 50.5979 85.7351 51.9753L87.3251 53.5959V47.3405H89.7547Z" fill="#444444"/>
<path d="M59.6697 47.3416V47.5361C59.6697 49.6266 59.6697 51.7333 59.6697 53.8239C59.6962 54.3455 59.5634 54.8636 59.286 55.3211C59.0086 55.7786 58.5974 56.1577 58.0976 56.4168C57.7014 56.6242 57.2508 56.7306 56.7934 56.7247H49.8619C49.1817 56.7143 48.527 56.4881 48.0114 56.0855C47.4958 55.683 47.1519 55.1293 47.0393 54.5207C47.013 54.2728 47.013 54.0232 47.0393 53.7753C47.0393 51.6685 47.0393 49.5456 47.0393 47.4226V47.3092H49.3974V53.7104C49.3886 53.7858 49.3886 53.8619 49.3974 53.9373C49.3974 54.3749 49.5939 54.4721 50.0763 54.4721H56.5612C57.0078 54.4721 57.1507 54.3587 57.1865 53.9535C57.1951 53.8618 57.1951 53.7697 57.1865 53.678V47.3416H59.6697Z" fill="#444444"/>
<path d="M77.1966 56.7086H74.8027V47.3417H77.1966V56.7086Z" fill="#444444"/>
</svg>
