<svg width="161" height="70" viewBox="0 0 161 70" fill="none" xmlns="http://www.w3.org/2000/svg">
<path d="M39.4832 33.6094L39.2206 34.9407C38.8764 34.1709 37.8802 33.1294 35.7701 33.1294C33.8916 33.2057 32.0973 33.929 30.6911 35.1768C29.2849 36.4246 28.3532 38.1201 28.054 39.9761C27.3657 43.5987 29.177 46.868 33.2252 46.868C34.0009 46.9015 34.7738 46.7555 35.4839 46.4413C36.1939 46.1272 36.8218 45.6533 37.3187 45.0568V45.0568L37.0651 46.4333H40.8507L43.2235 33.5913H39.4832V33.6094ZM38.2787 39.9489C38.1136 40.857 37.6426 41.6812 36.944 42.2842C36.2453 42.8873 35.3612 43.2329 34.4388 43.2636C34.0388 43.2744 33.6418 43.1924 33.2788 43.024C32.9159 42.8557 32.5968 42.6055 32.3468 42.2931C32.0967 41.9808 31.9224 41.6148 31.8376 41.2238C31.7527 40.8327 31.7596 40.4274 31.8577 40.0395C32.0097 39.1328 32.4705 38.3065 33.1621 37.7008C33.8537 37.095 34.7335 36.747 35.6523 36.7158C36.0615 36.6936 36.4702 36.7692 36.8444 36.9362C37.2186 37.1033 37.5477 37.3571 37.8043 37.6766C38.061 37.9961 38.2379 38.3721 38.3204 38.7736C38.4029 39.175 38.3886 39.5903 38.2787 39.9852V39.9489Z" fill="#444444"/>
<path d="M45.4246 33.6091H49.0472L48.7483 34.9404C49.1352 34.3552 49.6675 33.8805 50.293 33.563C50.9185 33.2455 51.6159 33.0959 52.3166 33.1291L51.6283 37.0052C49.817 37.0505 48.4857 37.3947 48.1869 39.369L46.9371 46.4511H43.0156L45.4246 33.6091Z" fill="#444444"/>
<path d="M54.9532 28.5648H58.8294L57.0181 38.2643H57.1087L61.5463 33.6093H66.0655L60.1697 39.2514L63.5659 46.4513H59.2188L56.7192 40.2476H56.674L55.5147 46.4513H51.6748L54.9532 28.5648Z" fill="#444444"/>
<path d="M72.2351 33.1384C68.3499 33.1384 64.8632 36.4983 64.2202 40.0756C64.0215 40.902 64.0165 41.7631 64.2056 42.5917C64.3946 43.4203 64.7726 44.194 65.31 44.8525C65.8475 45.5109 66.5298 46.0362 67.3038 46.3874C68.0777 46.7386 68.9224 46.9061 69.7718 46.877C71.149 46.8736 72.4967 46.4778 73.657 45.7359C74.9683 44.904 76.0713 43.7825 76.8811 42.4575H72.9596C72.6468 42.8384 72.2526 43.1444 71.8059 43.3529C71.3592 43.5613 70.8715 43.6669 70.3786 43.662C70.0435 43.6971 69.7049 43.6585 69.3863 43.5489C69.0678 43.4393 68.7771 43.2613 68.5346 43.0275C68.2921 42.7936 68.1037 42.5095 67.9826 42.1952C67.8616 41.8808 67.8107 41.5438 67.8337 41.2077H77.4426C77.5799 40.9014 77.6773 40.5788 77.7324 40.2477C78.4388 36.281 76.1566 33.1384 72.2351 33.1384ZM68.3499 38.5723C68.631 37.9135 69.1011 37.3528 69.7007 36.9611C70.3004 36.5694 71.0027 36.3642 71.7189 36.3715C72.0302 36.336 72.3455 36.3663 72.6444 36.4604C72.9433 36.5545 73.219 36.7103 73.4538 36.9178C73.6886 37.1253 73.8772 37.3797 74.0074 37.6648C74.1375 37.9498 74.2064 38.2589 74.2094 38.5723H68.3499Z" fill="#444444"/>
<path d="M22.893 28.5648L16.0916 38.7352H16.0463V28.5648H12.7679L0.75 46.4513H5.40501L12.1702 36.2809H12.2064V46.4513H15.5301L22.25 36.2809H22.3405V46.4513H26.1714V28.5648H22.893Z" fill="#444444"/>
<path d="M87.4828 33.6087H85.0647L85.753 29.814H82.3931L82.1395 31.2449C81.8406 32.9294 80.7991 33.4456 79.3773 33.5724L78.7705 36.4614H80.6271L78.8158 46.3692H82.6467L84.4579 36.4614H86.9122L87.4828 33.6087Z" fill="#444444"/>
<path d="M146.937 41.5787C146.294 43.1084 145.225 44.421 143.857 45.3603C142.489 46.2996 140.88 46.826 139.221 46.8768C135.345 46.8768 132.882 43.8157 133.624 39.9848C133.987 38.0961 134.983 36.3877 136.449 35.1426C137.915 33.8975 139.762 33.1904 141.685 33.1382C145.081 33.1382 147.408 35.4204 147.454 38.572H143.577C143.468 38.0186 143.155 37.5261 142.701 37.191C142.247 36.856 141.684 36.7025 141.123 36.7607C140.237 36.7874 139.388 37.125 138.726 37.7145C138.064 38.304 137.63 39.1077 137.5 39.9848C137.156 41.8414 138.107 43.2632 139.964 43.2632C140.585 43.2647 141.196 43.1064 141.739 42.8034C142.281 42.5005 142.737 42.0632 143.061 41.5335H146.983L146.937 41.5787ZM115.059 24.0002L107.614 28.5284H109.733L102.968 38.6988H102.878V28.5284H99.5631L92.7979 38.6988H92.7527V28.5284H88.8584V46.4511H92.2183L98.9835 36.2807V46.4511H102.298L114.325 28.5284H116.218L115.059 24.0002ZM122.376 46.4511H118.591L118.844 45.0655H118.799C118.299 45.6589 117.671 46.1305 116.962 46.4444C116.252 46.7582 115.481 46.9061 114.705 46.8768C110.612 46.8768 108.846 43.6436 109.543 39.9848C109.84 38.1286 110.77 36.4321 112.174 35.1827C113.579 33.9333 115.372 33.2078 117.25 33.1291C119.36 33.1291 120.357 34.1706 120.701 34.9404L120.963 33.6091H124.821L122.376 46.4511ZM115.919 43.2995C116.838 43.2603 117.717 42.9115 118.412 42.3097C119.108 41.7079 119.579 40.8885 119.75 39.9848C119.859 39.5919 119.873 39.1785 119.79 38.7793C119.706 38.38 119.529 38.0065 119.272 37.6899C119.015 37.3734 118.685 37.123 118.312 36.9598C117.938 36.7965 117.53 36.7252 117.124 36.7517C116.205 36.7846 115.326 37.1332 114.635 37.7386C113.944 38.3441 113.482 39.1694 113.329 40.0754C113.225 40.4645 113.213 40.8727 113.296 41.2669C113.379 41.6611 113.554 42.0302 113.806 42.3442C114.059 42.6583 114.381 42.9084 114.749 43.0744C115.116 43.2404 115.517 43.3175 115.919 43.2995V43.2995ZM134.403 33.6091H131.985L132.673 29.8144H129.35L129.06 31.2454C128.752 32.9299 127.72 33.4461 126.298 33.5729L125.727 36.4981H127.62L125.727 46.4058H129.567L131.378 36.4981H133.878L134.403 33.6091ZM150.56 28.5284H154.391L153.232 34.8679C153.622 34.3416 154.123 33.9076 154.7 33.5969C155.277 33.2861 155.916 33.1062 156.57 33.0699C157.225 33.0336 157.879 33.1418 158.487 33.3868C159.095 33.6318 159.641 34.0076 160.087 34.4876C160.902 35.7374 160.821 36.8513 160.386 39.1788L159.055 46.3334H155.251L156.519 39.3961C156.646 38.7984 156.99 36.6792 154.97 36.6792C152.951 36.6792 152.471 38.6264 152.335 39.2694L151.004 46.3787H147.209L150.56 28.5284Z" fill="#444444"/>
</svg>
