<svg width="161" height="70" viewBox="0 0 161 70" fill="none" xmlns="http://www.w3.org/2000/svg">
<path d="M97.9501 26.406H95.6351C95.5748 26.4035 95.5145 26.4133 95.4579 26.435C95.4013 26.4567 95.3495 26.4898 95.3055 26.5323C95.2616 26.5748 95.2263 26.6259 95.2018 26.6827C95.1773 26.7394 95.1641 26.8005 95.1629 26.8626V36.8881C95.1629 39.6275 93.9313 40.9307 91.4034 40.9307C88.8755 40.9307 87.6347 39.6275 87.6347 36.8881V26.8626C87.6348 26.8001 87.6224 26.7383 87.5984 26.681C87.5743 26.6237 87.5391 26.572 87.4948 26.5292C87.4505 26.4864 87.3982 26.4534 87.341 26.4322C87.2839 26.411 87.2231 26.4021 87.1624 26.406H84.8475C84.7871 26.4035 84.7269 26.4133 84.6703 26.435C84.6137 26.4567 84.5619 26.4898 84.5179 26.5323C84.4739 26.5748 84.4386 26.6259 84.4141 26.6827C84.3896 26.7394 84.3764 26.8005 84.3752 26.8626V36.8881C84.3752 42.015 87.6347 43.6986 91.4034 43.6986C95.1721 43.6986 98.4316 42.015 98.4223 36.8881V26.8626C98.4224 26.8001 98.4101 26.7383 98.386 26.681C98.362 26.6237 98.3267 26.572 98.2825 26.5292C98.2382 26.4864 98.1859 26.4534 98.1287 26.4322C98.0715 26.411 98.0107 26.4021 97.9501 26.406V26.406ZM80.3565 26.5487C78.6801 26.2918 76.986 26.1773 75.2914 26.2063C71.4022 26.2063 69.3373 26.2063 69.3373 31.1429V38.7524C69.3373 43.7176 71.4022 43.6891 75.2914 43.6891C77.0132 43.727 78.7352 43.6188 80.4398 43.3657C80.7917 43.3181 80.912 43.1945 80.912 42.8616V41.3206C80.9121 41.2574 80.8998 41.1948 80.8759 41.1364C80.8521 41.0781 80.8172 41.0252 80.7732 40.9809C80.7292 40.9367 80.6771 40.9018 80.6198 40.8785C80.5626 40.8552 80.5014 40.8438 80.4398 40.8451H74.5135C72.7356 40.8451 72.6616 40.788 72.6616 38.7715V36.0511H80.162C80.2872 36.0511 80.4074 36 80.4959 35.909C80.5845 35.818 80.6343 35.6946 80.6343 35.566V33.8348C80.6343 33.7061 80.5845 33.5827 80.4959 33.4918C80.4074 33.4008 80.2872 33.3497 80.162 33.3497H72.6616V31.1429C72.6616 29.1264 72.7356 29.0788 74.5135 29.0788H80.4398C80.5018 29.0788 80.5632 29.0663 80.6205 29.0419C80.6778 29.0175 80.7299 28.9818 80.7737 28.9368C80.8176 28.8917 80.8524 28.8382 80.8761 28.7794C80.8998 28.7205 80.912 28.6574 80.912 28.5937V27.0528C80.875 26.7199 80.7639 26.5962 80.4398 26.5487H80.3565ZM62.6517 36.5837C63.6249 36.2749 64.4676 35.6367 65.0426 34.7731C65.6177 33.9095 65.8912 32.8714 65.8186 31.8278V31.609C65.8186 27.4904 62.4851 26.1682 58.8737 26.1682C57.0176 26.1609 55.1627 26.2625 53.3179 26.4726C52.8456 26.5487 52.5678 26.7199 52.5678 27.205V43.0233C52.5678 43.1503 52.6163 43.2723 52.7028 43.363C52.7894 43.4537 52.9072 43.5059 53.0308 43.5084H55.3735C55.4343 43.5071 55.4943 43.4936 55.55 43.4686C55.6057 43.4435 55.6561 43.4074 55.6982 43.3624C55.7404 43.3173 55.7735 43.2642 55.7956 43.206C55.8177 43.1478 55.8285 43.0857 55.8273 43.0233V37.0974C56.3643 37.0974 58.2626 37.1925 58.8737 37.1925H59.3923L62.7629 43.0233C62.8832 43.2706 62.9758 43.5084 63.2351 43.5084H66.0964C66.1336 43.5112 66.1709 43.5058 66.2059 43.4925C66.2408 43.4791 66.2726 43.4582 66.2989 43.4311C66.3253 43.404 66.3457 43.3714 66.3587 43.3355C66.3716 43.2996 66.3769 43.2612 66.3742 43.223C66.3946 43.1614 66.3946 43.0945 66.3742 43.0328L62.6517 36.5837ZM62.5777 31.8278C62.5777 33.9489 61.2813 34.4245 58.8737 34.4245C58.4663 34.4245 56.1977 34.377 55.8273 34.3484V29.174C56.244 29.1264 58.3737 29.0788 58.8737 29.0788C61.2165 29.0788 62.5777 29.8493 62.5777 31.6566V31.8278ZM113.84 26.3584H101.219C101.159 26.3559 101.099 26.3658 101.043 26.3876C100.987 26.4094 100.936 26.4426 100.892 26.4853C100.849 26.5279 100.815 26.5791 100.791 26.6358C100.768 26.6925 100.756 26.7534 100.756 26.815V28.7174C100.757 28.7778 100.77 28.8373 100.794 28.8924C100.818 28.9474 100.853 28.9969 100.896 29.0378C100.94 29.0787 100.99 29.1102 101.046 29.1303C101.101 29.1504 101.16 29.1588 101.219 29.1549H105.895V43.0328C105.897 43.1598 105.948 43.2808 106.037 43.3697C106.125 43.4586 106.244 43.5084 106.367 43.5084H108.682C108.807 43.5085 108.926 43.459 109.016 43.3703C109.106 43.2816 109.159 43.1606 109.164 43.0328V29.2025H113.794C113.852 29.2064 113.911 29.198 113.967 29.1778C114.022 29.1577 114.073 29.1263 114.116 29.0854C114.159 29.0445 114.194 28.995 114.218 28.9399C114.242 28.8849 114.255 28.8253 114.257 28.765V26.8626C114.257 26.7463 114.214 26.6343 114.136 26.5494C114.059 26.4646 113.953 26.4133 113.84 26.406V26.3584ZM142.212 36.5362C143.187 36.2303 144.032 35.5929 144.607 34.7285C145.183 33.8642 145.455 32.8245 145.379 31.7802V31.5615C145.379 27.4428 142.045 26.1207 138.434 26.1207C136.578 26.1132 134.723 26.2148 132.878 26.425C132.406 26.5011 132.128 26.6723 132.128 27.1574V43.0233C132.128 43.1519 132.178 43.2753 132.266 43.3663C132.355 43.4573 132.475 43.5084 132.6 43.5084H134.943C135.003 43.5072 135.062 43.4936 135.117 43.4683C135.172 43.443 135.221 43.4066 135.261 43.3613C135.302 43.316 135.333 43.2627 135.353 43.2046C135.374 43.1465 135.382 43.0848 135.378 43.0233V37.0974C135.924 37.0974 137.823 37.1925 138.425 37.1925H138.952L142.332 43.0233C142.443 43.2706 142.536 43.5084 142.795 43.5084H145.657C145.694 43.513 145.732 43.5088 145.768 43.496C145.804 43.4833 145.836 43.4624 145.863 43.435C145.89 43.4075 145.91 43.3741 145.922 43.3374C145.935 43.3007 145.939 43.2616 145.934 43.223C145.94 43.156 145.924 43.0889 145.888 43.0328L142.212 36.5362ZM142.156 31.7802C142.156 33.9014 140.86 34.377 138.452 34.377C138.054 34.377 135.786 34.3294 135.406 34.3009V29.174C135.832 29.1264 137.962 29.0788 138.452 29.0788C140.795 29.0788 142.156 29.8493 142.156 31.6566V31.7802ZM157.528 34.2628C155.972 33.616 154.602 33.0643 153.564 32.6458C152.527 32.2273 151.638 31.4949 151.638 30.7434C151.638 29.6591 152.935 29.0313 154.676 29.0313C156.41 29.0852 158.141 29.2312 159.861 29.4688C159.916 29.469 159.97 29.4575 160.02 29.4352C160.07 29.4129 160.116 29.3802 160.153 29.3391C160.19 29.2981 160.219 29.2496 160.237 29.1966C160.256 29.1436 160.263 29.0874 160.259 29.0313V27.3096C160.255 27.1946 160.211 27.085 160.134 27.001C160.058 26.9171 159.954 26.8645 159.843 26.8531C158.179 26.4503 156.477 26.2398 154.768 26.2253C150.407 26.2253 148.333 28.1277 148.333 30.8005C148.301 31.7136 148.553 32.6133 149.052 33.3693C149.552 34.1252 150.273 34.6981 151.111 35.0048C153.166 35.8703 157.361 36.9071 157.361 38.6763C157.361 40.0746 156.722 40.8451 154.639 40.8451C152.863 40.8142 151.091 40.668 149.333 40.4075H149.286C149.169 40.4075 149.055 40.4556 148.972 40.5412C148.889 40.6269 148.842 40.743 148.842 40.8641V42.5952C148.85 42.7166 148.898 42.8313 148.979 42.9199C149.06 43.0084 149.169 43.0651 149.286 43.0804C151.026 43.4782 152.801 43.6886 154.583 43.7081C159.278 43.7081 160.75 41.1114 160.75 38.6763C160.75 36.2413 159.5 35.176 157.528 34.3579V34.2628ZM127.739 26.4536C126.062 26.1972 124.368 26.0827 122.674 26.1111C118.775 26.1111 116.71 26.1111 116.71 31.0478V38.6573C116.71 43.6225 118.775 43.594 122.674 43.594C124.368 43.6241 126.062 43.5127 127.739 43.2611C128.091 43.2135 128.202 43.0899 128.202 42.7569V41.3206C128.202 41.1945 128.153 41.0735 128.066 40.9844C127.979 40.8952 127.862 40.8451 127.739 40.8451H121.803C120.025 40.8451 119.951 40.788 119.951 38.7715V36.0511H127.452C127.513 36.0511 127.574 36.0385 127.631 36.014C127.688 35.9895 127.739 35.9536 127.782 35.9084C127.826 35.8632 127.86 35.8097 127.882 35.7509C127.905 35.6921 127.916 35.6292 127.915 35.566V33.8348C127.916 33.7715 127.905 33.7087 127.882 33.6499C127.86 33.5911 127.826 33.5375 127.782 33.4923C127.739 33.4472 127.688 33.4113 127.631 33.3868C127.574 33.3623 127.513 33.3497 127.452 33.3497H119.951V31.1429C119.951 29.1264 120.025 29.0788 121.803 29.0788H127.739C127.862 29.0764 127.98 29.0242 128.067 28.9334C128.153 28.8427 128.202 28.7208 128.202 28.5937V27.0528C128.202 26.7199 128.091 26.5962 127.739 26.5487V26.4536ZM24.881 39.6846C25.0403 39.596 25.159 39.4462 25.2111 39.2679C25.2631 39.0897 25.2443 38.8975 25.1588 38.7334C25.0982 38.6235 25.0109 38.5316 24.9054 38.4666C24.7999 38.4016 24.6799 38.3657 24.5569 38.3625C24.4436 38.3626 24.3322 38.3921 24.2328 38.4481C24.1472 38.4879 24.0705 38.5453 24.0074 38.6169C23.9444 38.6884 23.8963 38.7725 23.8662 38.8639C23.8361 38.9554 23.8247 39.0522 23.8326 39.1484C23.8404 39.2446 23.8675 39.3381 23.912 39.423C23.9566 39.508 24.0177 39.5827 24.0915 39.6424C24.1653 39.7021 24.2503 39.7456 24.3412 39.7701C24.4321 39.7946 24.5269 39.7997 24.6198 39.785C24.7126 39.7703 24.8016 39.7361 24.881 39.6846V39.6846ZM22.8994 29.1549C22.8116 29.1523 22.7249 29.1754 22.6494 29.2215C22.5876 29.2554 22.5329 29.3016 22.4886 29.3574C22.4443 29.4132 22.4113 29.4775 22.3915 29.5466C22.3716 29.6157 22.3654 29.6881 22.3731 29.7597C22.3809 29.8313 22.4024 29.9005 22.4364 29.9635C22.504 30.0896 22.6175 30.183 22.7521 30.2231C22.8867 30.2633 23.0313 30.2468 23.1541 30.1775C23.2769 30.1081 23.3678 29.9915 23.4069 29.8532C23.4459 29.715 23.43 29.5664 23.3624 29.4403C23.3174 29.3543 23.2506 29.2824 23.1691 29.2322C23.0876 29.182 22.9945 29.1553 22.8994 29.1549ZM14.6953 32.7599C14.7751 32.9024 14.9054 33.0076 15.0589 33.0537C15.2125 33.0998 15.3775 33.0831 15.5194 33.0073C15.6614 32.9286 15.7674 32.7955 15.8142 32.6369C15.861 32.4783 15.8449 32.3071 15.7694 32.1607C15.7148 32.0636 15.6366 31.9827 15.5425 31.926C15.4483 31.8694 15.3415 31.8388 15.2323 31.8373C15.1322 31.8399 15.0341 31.8659 14.9453 31.9134C14.8067 31.9955 14.7038 32.1287 14.6573 32.2859C14.6109 32.4431 14.6245 32.6126 14.6953 32.7599V32.7599ZM23.1217 39.4183C22.9909 39.4156 22.8623 39.452 22.7513 39.5229C22.6617 39.5707 22.5824 39.6367 22.5183 39.7167C22.4541 39.7968 22.4063 39.8893 22.3778 39.9888C22.3492 40.0882 22.3405 40.1926 22.3522 40.2956C22.3639 40.3986 22.3957 40.4982 22.4457 40.5882C22.4933 40.6804 22.5583 40.762 22.6368 40.8283C22.7153 40.8945 22.8059 40.9441 22.9032 40.9742C23.0005 41.0043 23.1026 41.0143 23.2037 41.0035C23.3048 40.9928 23.4028 40.9615 23.4921 40.9116C23.6691 40.811 23.8011 40.6435 23.8598 40.4446C23.9186 40.2457 23.8996 40.0311 23.8069 39.8463C23.7475 39.7129 23.6543 39.5984 23.537 39.5147C23.4197 39.431 23.2826 39.3813 23.1402 39.3707L23.1217 39.4183ZM22.029 40.4931C21.9694 40.3831 21.882 40.2915 21.7762 40.2279C21.6703 40.1643 21.5498 40.1311 21.4271 40.1317C21.3146 40.1285 21.2031 40.1547 21.103 40.2078C20.9453 40.298 20.8286 40.4485 20.7784 40.6266C20.7281 40.8047 20.7483 40.996 20.8345 41.1589C20.8753 41.2418 20.9321 41.3153 21.0015 41.375C21.0708 41.4346 21.1512 41.4791 21.2379 41.5058C21.3245 41.5325 21.4155 41.5408 21.5053 41.5302C21.5952 41.5197 21.682 41.4904 21.7605 41.4443C21.8438 41.4014 21.9178 41.3414 21.9778 41.2681C22.0378 41.1948 22.0826 41.1097 22.1095 41.018C22.1363 40.9262 22.1447 40.8299 22.1341 40.7347C22.1234 40.6396 22.094 40.5476 22.0475 40.4646L22.029 40.4931ZM18.0658 30.5247C18.1568 30.4784 18.2379 30.4138 18.3042 30.3347C18.3705 30.2556 18.4206 30.1637 18.4517 30.0644C18.4828 29.965 18.4942 29.8603 18.4851 29.7564C18.4761 29.6525 18.4469 29.5514 18.3992 29.4593C18.3368 29.3301 18.2404 29.2215 18.1209 29.1459C18.0014 29.0702 17.8636 29.0305 17.7232 29.0313C17.5933 29.0346 17.4661 29.0705 17.3528 29.1359C17.1735 29.2368 17.0406 29.4068 16.9833 29.6083C16.926 29.8099 16.949 30.0266 17.0472 30.2108C17.1455 30.3949 17.3109 30.5315 17.5071 30.5903C17.7034 30.6492 17.9143 30.6256 18.0936 30.5247H18.0658ZM15.9453 30.3249C15.8257 30.3907 15.7278 30.4915 15.664 30.6144C15.6002 30.7374 15.5734 30.8771 15.587 31.0158C15.6005 31.1544 15.6538 31.2858 15.7401 31.3933C15.8265 31.5008 15.9419 31.5796 16.0719 31.6196C16.2018 31.6597 16.3404 31.6592 16.4701 31.6183C16.5997 31.5773 16.7147 31.4978 16.8003 31.3897C16.8859 31.2816 16.9384 31.1498 16.951 31.011C16.9636 30.8723 16.9359 30.7328 16.8713 30.6103C16.8121 30.4991 16.7251 30.4061 16.6193 30.3409C16.5136 30.2757 16.3928 30.2406 16.2694 30.2393C16.1561 30.2395 16.0447 30.2689 15.9453 30.3249ZM20.1956 40.5407C20.1425 40.4423 20.0646 40.3604 19.9701 40.3035C19.8756 40.2466 19.768 40.2168 19.6585 40.2173C19.5492 40.2148 19.4412 40.2425 19.3459 40.2975C19.2506 40.3525 19.1714 40.4328 19.1165 40.5299C19.0616 40.6271 19.0332 40.7376 19.034 40.8499C19.0349 40.9622 19.0651 41.0722 19.1214 41.1685C19.1549 41.2483 19.2041 41.3201 19.266 41.3794C19.3278 41.4387 19.401 41.4841 19.4809 41.5128C19.5607 41.5415 19.6455 41.5529 19.7298 41.5462C19.8142 41.5395 19.8963 41.5149 19.9709 41.474C20.0455 41.433 20.111 41.3766 20.1633 41.3082C20.2156 41.2399 20.2535 41.1612 20.2746 41.077C20.2957 40.9929 20.2996 40.9051 20.286 40.8194C20.2724 40.7336 20.2416 40.6516 20.1956 40.5787V40.5407ZM17.9362 39.7702C17.8486 39.7695 17.7624 39.7925 17.6862 39.8368C17.6246 39.8697 17.5701 39.915 17.526 39.97C17.4818 40.0249 17.4488 40.0884 17.4289 40.1567C17.409 40.225 17.4027 40.2967 17.4103 40.3676C17.4179 40.4384 17.4393 40.507 17.4732 40.5692C17.54 40.6973 17.6534 40.7932 17.7886 40.8359C17.9239 40.8787 18.0701 40.8649 18.1955 40.7975C18.3168 40.7255 18.4066 40.6083 18.4463 40.4702C18.4859 40.3322 18.4724 40.1837 18.4084 40.0556C18.3604 39.9701 18.2917 39.8989 18.2089 39.8489C18.1262 39.7989 18.0322 39.7718 17.9362 39.7702V39.7702ZM19.7141 29.8588C19.8734 29.7702 19.992 29.6204 20.0441 29.4421C20.0962 29.2639 20.0774 29.0717 19.9919 28.9076C19.9312 28.7977 19.8439 28.7058 19.7384 28.6408C19.633 28.5758 19.5129 28.5399 19.39 28.5367C19.2767 28.5448 19.1663 28.5772 19.0659 28.6318C18.9861 28.6747 18.9155 28.7336 18.8582 28.805C18.8009 28.8763 18.758 28.9587 18.7321 29.0473C18.7062 29.1359 18.6979 29.229 18.7075 29.321C18.7171 29.4129 18.7445 29.502 18.7881 29.583C18.8759 29.745 19.0225 29.8648 19.1959 29.9165C19.3692 29.9681 19.5555 29.9474 19.7141 29.8588V29.8588ZM20.64 29.4974C20.6769 29.5694 20.7275 29.6331 20.7887 29.6847C20.85 29.7363 20.9207 29.7748 20.9966 29.7978C21.0726 29.8209 21.1523 29.828 21.231 29.8189C21.3097 29.8098 21.3858 29.7845 21.4549 29.7447C21.5713 29.6792 21.6633 29.5761 21.7168 29.4513C21.7702 29.3265 21.782 29.1871 21.7503 29.0548C21.7186 28.9224 21.6452 28.8045 21.5416 28.7194C21.4379 28.6343 21.3098 28.5868 21.1771 28.5842C21.073 28.5766 20.9692 28.6032 20.8808 28.6603C20.7481 28.7384 20.65 28.8661 20.6068 29.0168C20.5637 29.1675 20.5789 29.3294 20.6493 29.4688L20.64 29.4974ZM26.1126 37.2876C26.0599 37.1881 25.9824 37.1048 25.888 37.0463C25.7936 36.9878 25.6858 36.9562 25.5755 36.9547C25.4754 36.9573 25.3773 36.9833 25.2885 37.0308C25.16 37.1164 25.0674 37.2484 25.0292 37.4008C24.9909 37.5531 25.0098 37.7147 25.082 37.8534C25.1542 37.9922 25.2745 38.098 25.419 38.15C25.5636 38.202 25.7219 38.1964 25.8626 38.1342C25.9364 38.0952 26.0019 38.0413 26.0551 37.9758C26.1083 37.9104 26.1482 37.8346 26.1724 37.753C26.1966 37.6713 26.2046 37.5856 26.1959 37.5007C26.1872 37.4159 26.162 37.3337 26.1218 37.2591L26.1126 37.2876ZM25.4459 31.8468C25.388 31.8327 25.3278 31.8327 25.2699 31.8468C25.183 31.8987 25.119 31.9832 25.0914 32.0825C25.0638 32.1818 25.0747 32.2882 25.1218 32.3795C25.1546 32.4397 25.2023 32.4899 25.2602 32.525C25.318 32.5601 25.3839 32.5788 25.4511 32.5791C25.5182 32.5795 25.5843 32.5616 25.6425 32.5272C25.7007 32.4928 25.749 32.4431 25.7825 32.3832C25.8159 32.3234 25.8333 32.2555 25.8328 32.1865C25.8323 32.1175 25.8141 32.0499 25.7799 31.9905C25.7456 31.9311 25.6967 31.8821 25.638 31.8485C25.5793 31.8149 25.513 31.7979 25.4459 31.7992V31.8468ZM14.2693 34.5101C14.3135 34.5946 14.3788 34.6656 14.4585 34.7157C14.5381 34.7658 14.6293 34.7933 14.7227 34.7954C14.8161 34.7974 14.9083 34.774 14.99 34.7275C15.0717 34.681 15.1399 34.6131 15.1877 34.5306C15.2355 34.4482 15.2611 34.3542 15.2619 34.2583C15.2628 34.1623 15.2388 34.0679 15.1925 33.9845C15.1462 33.9012 15.0792 33.832 14.9984 33.784C14.9175 33.7359 14.8257 33.7108 14.7323 33.7111C14.6418 33.7105 14.5526 33.7334 14.473 33.7777C14.3609 33.8489 14.2788 33.9606 14.2428 34.0909C14.2068 34.2211 14.2196 34.3605 14.2786 34.4816L14.2693 34.5101ZM24.3625 30.3059C24.2841 30.3081 24.2076 30.3308 24.14 30.3717C24.0725 30.4126 24.0162 30.4705 23.9764 30.5399C23.9366 30.6093 23.9146 30.688 23.9125 30.7685C23.9104 30.849 23.9282 30.9287 23.9643 31.0003C24.022 31.11 24.1198 31.1917 24.2362 31.2274C24.3525 31.263 24.4779 31.2498 24.5847 31.1905C24.6915 31.1312 24.7711 31.0308 24.8058 30.9112C24.8405 30.7917 24.8276 30.6629 24.7699 30.5532C24.7353 30.4736 24.6797 30.4055 24.6093 30.3567C24.5389 30.308 24.4566 30.2805 24.3717 30.2773L24.3625 30.3059ZM25.6496 34.1962C25.7067 34.3041 25.8021 34.3852 25.916 34.4224C26.03 34.4597 26.1535 34.4502 26.2607 34.396C26.3671 34.3338 26.4464 34.2323 26.4826 34.1121C26.5187 33.992 26.5089 33.8622 26.4552 33.7492C26.414 33.6759 26.3545 33.6152 26.2829 33.5734C26.2113 33.5316 26.1301 33.5102 26.0478 33.5114C25.9731 33.5109 25.8997 33.5306 25.8348 33.5685C25.7367 33.6265 25.6638 33.7209 25.6311 33.8322C25.5984 33.9436 25.6083 34.0636 25.6589 34.1677L25.6496 34.1962ZM26.5756 35.5564C26.5298 35.4711 26.4628 35.3998 26.3815 35.3497C26.3002 35.2995 26.2074 35.2724 26.1126 35.2711C26.0219 35.2692 25.9324 35.2922 25.8533 35.3377C25.7914 35.3715 25.7368 35.4177 25.6925 35.4736C25.6482 35.5294 25.6152 35.5937 25.5954 35.6628C25.5755 35.7318 25.5693 35.8043 25.577 35.8758C25.5847 35.9474 25.6063 36.0167 25.6403 36.0796C25.7104 36.2043 25.8245 36.2965 25.9589 36.3372C26.0933 36.3779 26.2379 36.364 26.3626 36.2984C26.4817 36.2266 26.5693 36.1105 26.6073 35.9741C26.6452 35.8377 26.6305 35.6915 26.5663 35.566L26.5756 35.5564ZM15.1953 35.8703C15.1538 35.7966 15.0946 35.735 15.0232 35.6917C14.9518 35.6484 14.8707 35.6247 14.7878 35.623C14.7132 35.6226 14.6398 35.6422 14.5749 35.6801C14.5216 35.709 14.4744 35.7486 14.4362 35.7964C14.398 35.8443 14.3694 35.8995 14.3521 35.9588C14.3349 36.0182 14.3293 36.0804 14.3358 36.142C14.3422 36.2036 14.3605 36.2632 14.3897 36.3174C14.4168 36.372 14.4545 36.4203 14.5005 36.4592C14.5464 36.4982 14.5998 36.5271 14.6571 36.544C14.7144 36.561 14.7745 36.5657 14.8336 36.5578C14.8927 36.5499 14.9496 36.5296 15.0008 36.4981C15.0576 36.4704 15.1081 36.4307 15.1488 36.3815C15.1895 36.3323 15.2196 36.2748 15.2372 36.2128C15.2547 36.1507 15.2591 36.0856 15.2503 36.0216C15.2415 35.9577 15.2196 35.8964 15.186 35.8418L15.1953 35.8703ZM16.8713 39.0758C16.8329 39.0015 16.7755 38.9393 16.7054 38.8958C16.6353 38.8522 16.5551 38.829 16.4731 38.8285C16.3985 38.8281 16.3251 38.8477 16.2602 38.8856C16.1807 38.9288 16.1154 38.9953 16.0728 39.0766C16.0301 39.1579 16.012 39.2504 16.0206 39.3423C16.0292 39.4343 16.0643 39.5215 16.1212 39.593C16.1782 39.6644 16.2546 39.7169 16.3407 39.7437C16.4267 39.7705 16.5186 39.7704 16.6046 39.7435C16.6906 39.7165 16.7669 39.6639 16.8238 39.5923C16.8806 39.5208 16.9155 39.4335 16.924 39.3415C16.9324 39.2496 16.9141 39.1571 16.8713 39.0758V39.0758ZM15.5657 38.1817C15.6455 38.143 15.7097 38.077 15.7472 37.9949C15.7847 37.9129 15.7933 37.82 15.7714 37.7322C15.7494 37.6444 15.6984 37.5672 15.6271 37.5138C15.5558 37.4604 15.4686 37.4343 15.3805 37.4398C15.3191 37.4421 15.2591 37.4584 15.2045 37.4874C15.1602 37.5117 15.1209 37.5448 15.0889 37.5848C15.057 37.6247 15.0331 37.6707 15.0184 37.7202C15.0038 37.7697 14.9988 37.8216 15.0038 37.873C15.0087 37.9245 15.0234 37.9744 15.0471 38.02C15.0708 38.0656 15.1031 38.106 15.142 38.1388C15.1808 38.1716 15.2256 38.1962 15.2738 38.2112C15.3219 38.2262 15.3725 38.2313 15.4226 38.2263C15.4727 38.2212 15.5213 38.2061 15.5657 38.1817V38.1817ZM15.7509 42.5572C15.8597 42.5897 15.9737 42.5998 16.0863 42.587C16.199 42.5743 16.3081 42.5388 16.4074 42.4827C16.5067 42.4266 16.5943 42.351 16.6652 42.2602C16.736 42.1693 16.7888 42.065 16.8204 41.9532C16.852 41.8414 16.8619 41.7243 16.8494 41.6086C16.837 41.4929 16.8025 41.3808 16.7479 41.2788C16.6933 41.1768 16.6197 41.0868 16.5312 41.014C16.4428 40.9412 16.3412 40.887 16.2324 40.8546C16.1526 40.8414 16.0714 40.8414 15.9916 40.8546C15.78 40.8482 15.5734 40.9222 15.4115 41.0623C15.2496 41.2025 15.1436 41.399 15.1138 41.6144C15.084 41.8297 15.1325 42.0488 15.25 42.2297C15.3676 42.4107 15.5459 42.5408 15.7509 42.5952V42.5572ZM12.8433 38.3244C12.9199 38.3476 13.0002 38.3549 13.0796 38.3458C13.159 38.3368 13.2358 38.3116 13.3056 38.2718C13.3754 38.2319 13.4368 38.1782 13.4862 38.1138C13.5356 38.0493 13.572 37.9754 13.5933 37.8964C13.6173 37.804 13.6204 37.7072 13.6025 37.6134C13.5845 37.5196 13.5459 37.4312 13.4896 37.3551C13.4333 37.2789 13.3609 37.217 13.2778 37.174C13.1946 37.1309 13.103 37.108 13.01 37.1069C12.8798 37.1063 12.753 37.1497 12.6492 37.2305C12.5454 37.3113 12.4705 37.425 12.4359 37.5539C12.4131 37.632 12.4057 37.7139 12.4139 37.795C12.4221 37.876 12.4458 37.9546 12.4836 38.0262C12.5215 38.0978 12.5728 38.161 12.6345 38.2122C12.6962 38.2634 12.7672 38.3015 12.8433 38.3244ZM15.6212 27.9564C15.4898 27.9553 15.3617 27.9984 15.2563 28.0791C15.151 28.1599 15.0743 28.2738 15.0379 28.4035C14.9942 28.5624 15.0123 28.7325 15.0882 28.878C15.1642 29.0235 15.2923 29.133 15.4453 29.1835C15.5245 29.2166 15.6095 29.2324 15.6949 29.2296C15.7804 29.2269 15.8643 29.2058 15.9413 29.1677C16.0183 29.1296 16.0867 29.0753 16.142 29.0084C16.1973 28.9414 16.2383 28.8633 16.2624 28.779C16.2865 28.6948 16.2931 28.6063 16.2818 28.5192C16.2705 28.4322 16.2416 28.3486 16.1969 28.2737C16.1522 28.1989 16.0927 28.1345 16.0222 28.0848C15.9518 28.0351 15.8719 28.0011 15.7879 27.985C15.7342 27.9663 15.6779 27.9567 15.6212 27.9564ZM13.973 40.7024C14.1643 40.7505 14.3663 40.7223 14.5382 40.6235C14.71 40.5246 14.839 40.3624 14.899 40.1697C14.9432 39.9721 14.9134 39.7646 14.8157 39.5884C14.7179 39.4122 14.5592 39.2802 14.3712 39.2185H14.1582C13.9707 39.2139 13.788 39.28 13.6446 39.4042C13.5011 39.5284 13.4069 39.7022 13.3796 39.8928C13.3522 40.0834 13.3937 40.2777 13.4962 40.4391C13.5987 40.6005 13.7551 40.7178 13.936 40.769L13.973 40.7024ZM12.7692 33.0929C12.8625 33.1195 12.9623 33.1075 13.0471 33.0595C13.1319 33.0115 13.195 32.9313 13.2229 32.836C13.2384 32.7886 13.2442 32.7384 13.2398 32.6886C13.2354 32.6388 13.221 32.5904 13.1975 32.5466C13.174 32.5028 13.1419 32.4645 13.1033 32.4341C13.0646 32.4037 13.0202 32.3818 12.9729 32.37H12.8711C12.7933 32.3692 12.7176 32.395 12.6556 32.4432C12.5936 32.4914 12.5489 32.5593 12.5285 32.6363C12.5021 32.7309 12.5125 32.8323 12.5574 32.9192C12.6023 33.0061 12.6782 33.0717 12.7692 33.1024V33.0929ZM27.3812 30.2964C27.4324 30.0984 27.4058 29.8876 27.307 29.7097C27.2083 29.5317 27.0453 29.4008 26.8534 29.3452C26.7831 29.3308 26.7107 29.3308 26.6404 29.3452C26.4748 29.3505 26.3148 29.4082 26.1822 29.5103C26.0496 29.6124 25.9509 29.7541 25.8996 29.9159C25.8716 30.0158 25.8631 30.1204 25.8745 30.2238C25.8859 30.3271 25.917 30.4271 25.966 30.518C26.015 30.609 26.081 30.6892 26.1601 30.754C26.2393 30.8188 26.3301 30.8669 26.4274 30.8956C26.5247 30.9243 26.6265 30.9331 26.7271 30.9214C26.8277 30.9097 26.925 30.8778 27.0136 30.8274C27.1022 30.7771 27.1802 30.7093 27.2433 30.628C27.3063 30.5467 27.3532 30.4534 27.3812 30.3534V30.2964ZM27.659 32.8931C27.7349 32.9178 27.815 32.9265 27.8943 32.9187C27.9736 32.9109 28.0506 32.8867 28.1206 32.8476C28.1906 32.8086 28.2523 32.7554 28.3018 32.6913C28.3514 32.6272 28.3878 32.5535 28.409 32.4746C28.4317 32.3965 28.4392 32.3146 28.431 32.2336C28.4228 32.1525 28.3991 32.0739 28.3612 32.0023C28.3234 31.9307 28.2721 31.8675 28.2104 31.8164C28.1487 31.7652 28.0777 31.727 28.0016 31.7041C27.9433 31.695 27.884 31.695 27.8256 31.7041C27.6958 31.7051 27.5698 31.7491 27.4663 31.8297C27.3628 31.9103 27.2875 32.023 27.2515 32.1512C27.2115 32.305 27.2317 32.4689 27.3079 32.6075C27.384 32.7462 27.5101 32.8488 27.659 32.8931V32.8931ZM25.6959 28.5937C25.7285 28.482 25.7393 28.3646 25.7277 28.2485C25.716 28.1324 25.6821 28.0199 25.6278 27.9173C25.5736 27.8147 25.5001 27.7242 25.4117 27.6509C25.3233 27.5777 25.2216 27.5231 25.1125 27.4904H24.8718C24.7117 27.4898 24.5547 27.5352 24.4183 27.6212C24.2819 27.7073 24.1716 27.8307 24.0997 27.9776C24.0278 28.1245 23.9972 28.289 24.0113 28.4528C24.0253 28.6166 24.0836 28.7731 24.1794 28.9048C24.2753 29.0364 24.405 29.1381 24.554 29.1982C24.7029 29.2584 24.8652 29.2747 25.0227 29.2454C25.1802 29.216 25.3266 29.1422 25.4455 29.0321C25.5645 28.9221 25.6511 28.7801 25.6959 28.6223V28.5937ZM25.807 41.5775C25.8297 41.4994 25.8372 41.4175 25.829 41.3364C25.8208 41.2554 25.7971 41.1768 25.7592 41.1052C25.7214 41.0336 25.6701 40.9704 25.6084 40.9192C25.5467 40.8681 25.4757 40.8299 25.3996 40.807C25.3413 40.7979 25.2819 40.7979 25.2236 40.807C25.0752 40.802 24.9302 40.8535 24.8165 40.9517C24.7028 41.0499 24.6285 41.1878 24.6078 41.3389C24.5871 41.4899 24.6216 41.6435 24.7045 41.7701C24.7874 41.8967 24.9129 41.9873 25.057 42.0245C25.1348 42.0488 25.2167 42.0564 25.2975 42.0468C25.3783 42.0371 25.4563 42.0105 25.5267 41.9686C25.597 41.9267 25.6582 41.8703 25.7064 41.803C25.7547 41.7357 25.7889 41.6589 25.807 41.5775V41.5775ZM27.8627 37.6491C27.956 37.6757 28.0557 37.6637 28.1405 37.6157C28.2253 37.5677 28.2885 37.4875 28.3164 37.3922C28.3305 37.3448 28.3352 37.2949 28.3302 37.2455C28.3252 37.1962 28.3106 37.1484 28.2873 37.1049C28.264 37.0615 28.2324 37.0232 28.1945 36.9925C28.1565 36.9618 28.113 36.9393 28.0664 36.9262H27.9645C27.8776 36.9293 27.7945 36.9638 27.7298 37.0236C27.6651 37.0835 27.623 37.1647 27.6109 37.2533C27.5987 37.3418 27.6173 37.4319 27.6633 37.5077C27.7094 37.5836 27.78 37.6403 27.8627 37.6681V37.6491ZM13.7693 30.9337C13.8945 30.9694 14.0283 30.9536 14.1424 30.8896C14.2565 30.8257 14.3418 30.7187 14.3804 30.5912C14.3987 30.5282 14.4046 30.462 14.3977 30.3965C14.3908 30.3311 14.3713 30.2677 14.3402 30.2101C14.3092 30.1526 14.2673 30.1019 14.2169 30.0612C14.1666 30.0205 14.1088 29.9905 14.0471 29.973C14.0043 29.9637 13.9602 29.9637 13.9174 29.973C13.8097 29.9705 13.7041 30.0046 13.6171 30.0699C13.5301 30.1353 13.4664 30.2282 13.4359 30.3344C13.4045 30.4592 13.4218 30.5917 13.484 30.7036C13.5463 30.8156 13.6486 30.8981 13.7693 30.9337V30.9337ZM21.6771 27.0053C21.6229 27.1985 21.6256 27.4038 21.6848 27.5955C21.7441 27.7871 21.8573 27.9564 22.0101 28.082C22.163 28.2076 22.3486 28.2839 22.5436 28.3013C22.7386 28.3186 22.9343 28.2763 23.1059 28.1795C23.2775 28.0828 23.4173 27.936 23.5078 27.7577C23.5982 27.5794 23.6353 27.3775 23.6142 27.1776C23.5931 26.9777 23.5148 26.7887 23.3893 26.6345C23.2637 26.4802 23.0965 26.3676 22.9087 26.3109C22.8166 26.2965 22.723 26.2965 22.6309 26.3109C22.4211 26.3092 22.2161 26.3754 22.045 26.5C21.8738 26.6246 21.7451 26.8014 21.6771 27.0053V27.0053ZM17.5658 28.1657C17.7572 28.2163 17.9602 28.1891 18.1327 28.0899C18.3051 27.9907 18.4337 27.8271 18.4918 27.633C18.5382 27.4353 18.5095 27.2267 18.4114 27.05C18.3133 26.8732 18.1533 26.7416 17.964 26.6819C17.8937 26.6672 17.8213 26.6672 17.751 26.6819C17.5847 26.6792 17.4222 26.7326 17.2884 26.834C17.1545 26.9354 17.0568 27.0791 17.0102 27.2431C16.9705 27.4406 17.006 27.6464 17.1093 27.8179C17.2126 27.9895 17.3759 28.114 17.5658 28.1657ZM28.7516 34.9191C28.7861 34.7918 28.7704 34.6556 28.7081 34.54C28.6457 34.4243 28.5417 34.3385 28.4183 34.3009H28.2794C28.1732 34.3005 28.0698 34.3356 27.9846 34.4007C27.8995 34.4659 27.8372 34.5577 27.8071 34.6623C27.7874 34.7254 27.7805 34.7919 27.7868 34.8578C27.7931 34.9237 27.8125 34.9876 27.8437 35.0455C27.8749 35.1034 27.9174 35.1541 27.9684 35.1946C28.0194 35.235 28.078 35.2643 28.1405 35.2806C28.2037 35.3006 28.2703 35.3071 28.336 35.2995C28.4018 35.2919 28.4653 35.2705 28.5227 35.2366C28.58 35.2027 28.63 35.157 28.6694 35.1024C28.7087 35.0478 28.7367 34.9854 28.7516 34.9191V34.9191ZM19.9456 27.7947C20.1703 27.8616 20.4116 27.834 20.6165 27.7181C20.8215 27.6021 20.9731 27.4073 21.0382 27.1765C21.1033 26.9456 21.0764 26.6977 20.9636 26.4872C20.8507 26.2767 20.661 26.1209 20.4363 26.0541H20.1956C20.0081 26.0526 19.8252 26.114 19.6748 26.2291C19.5244 26.3441 19.4146 26.5064 19.3622 26.6914C19.3124 26.9167 19.3441 27.1529 19.4515 27.356C19.5588 27.559 19.7344 27.715 19.9456 27.7947ZM13.0285 35.4043C13.0484 35.3412 13.0558 35.2747 13.0502 35.2087C13.0446 35.1426 13.0261 35.0784 12.9959 35.0198C12.9657 34.9613 12.9243 34.9096 12.8742 34.8678C12.8241 34.8259 12.7664 34.7949 12.7044 34.7765H12.5655C12.4588 34.7785 12.3553 34.8143 12.2691 34.879C12.1829 34.9437 12.1183 35.0341 12.084 35.1379C12.0658 35.2016 12.0603 35.2684 12.0678 35.3344C12.0753 35.4003 12.0956 35.464 12.1276 35.5217C12.1596 35.5794 12.2025 35.6299 12.2539 35.6702C12.3053 35.7105 12.364 35.7397 12.4266 35.7562C12.4899 35.7761 12.5565 35.7821 12.6222 35.7739C12.6879 35.7657 12.7512 35.7433 12.8079 35.7084C12.8647 35.6734 12.9137 35.6265 12.9516 35.5709C12.9896 35.5152 13.0158 35.452 13.0285 35.3852V35.4043ZM27.0478 39.0854H26.9089C26.786 39.1034 26.6744 39.1686 26.5964 39.2678C26.5185 39.3671 26.48 39.493 26.4888 39.6202C26.4976 39.7474 26.553 39.8664 26.6439 39.9533C26.7347 40.0402 26.8542 40.0885 26.9784 40.0885C27.1025 40.0885 27.222 40.0402 27.3129 39.9533C27.4037 39.8664 27.4591 39.7474 27.4679 39.6202C27.4767 39.493 27.4383 39.3671 27.3603 39.2678C27.2824 39.1686 27.1707 39.1034 27.0478 39.0854V39.0854ZM20.8901 42.2243C20.8073 42.2104 20.7228 42.2104 20.64 42.2243C20.4529 42.2244 20.2708 42.2864 20.1206 42.4012C19.9705 42.516 19.8604 42.6774 19.8067 42.8616C19.7574 43.0881 19.7904 43.3253 19.8996 43.5285C20.0087 43.7318 20.1865 43.887 20.3993 43.965C20.5106 43.9981 20.6271 44.0083 20.7422 43.9952C20.8573 43.982 20.9688 43.9457 21.0703 43.8883C21.1717 43.8309 21.2612 43.7535 21.3335 43.6606C21.4059 43.5676 21.4597 43.461 21.4919 43.3467C21.5242 43.2324 21.5342 43.1127 21.5214 42.9944C21.5085 42.8762 21.4732 42.7617 21.4173 42.6574C21.3614 42.5532 21.2861 42.4613 21.1956 42.387C21.1052 42.3127 21.0013 42.2574 20.8901 42.2243V42.2243ZM23.2698 41.8533C23.1995 41.839 23.1272 41.839 23.0568 41.8533C22.8901 41.8543 22.7282 41.9103 22.5948 42.0131C22.4614 42.1159 22.3637 42.2599 22.3161 42.424C22.271 42.5748 22.2708 42.736 22.3157 42.8868C22.3606 43.0376 22.4484 43.1712 22.5679 43.2702C22.6873 43.3693 22.8329 43.4294 22.9859 43.4427C23.1389 43.456 23.2923 43.4219 23.4262 43.3448C23.5602 43.2678 23.6686 43.1513 23.7375 43.0103C23.8064 42.8694 23.8327 42.7105 23.8128 42.5541C23.793 42.3977 23.7281 42.251 23.6263 42.1329C23.5246 42.0147 23.3907 41.9306 23.242 41.8914L23.2698 41.8533ZM19.1585 43.0328C19.2303 42.773 19.1997 42.4946 19.0732 42.2578C18.9467 42.021 18.7345 41.845 18.4825 41.7677C18.3904 41.7534 18.2968 41.7534 18.2047 41.7677C17.9646 41.7653 17.7318 41.8526 17.5496 42.0133C17.3674 42.1741 17.2483 42.3973 17.2143 42.6415C17.1803 42.8857 17.2339 43.1343 17.365 43.341C17.496 43.5477 17.6957 43.6984 17.9269 43.7652C18.054 43.8012 18.1868 43.8111 18.3175 43.7942C18.4483 43.7773 18.5746 43.734 18.6891 43.6669C18.8035 43.5997 18.9039 43.5099 18.9845 43.4027C19.065 43.2955 19.1242 43.173 19.1585 43.0423V43.0328ZM15.9453 43.594C15.7928 43.5946 15.6419 43.6269 15.5019 43.6891C15.3618 43.7512 15.2355 43.8418 15.1305 43.9554C14.956 44.1469 14.851 44.3943 14.8333 44.656C14.8155 44.9177 14.886 45.1776 15.0329 45.3922C15.1798 45.6067 15.3942 45.7627 15.64 45.8339C15.8857 45.9052 16.1478 45.8873 16.3823 45.7833C16.6167 45.6793 16.8091 45.4956 16.9271 45.263C17.0451 45.0304 17.0816 44.7631 17.0303 44.5062C16.979 44.2492 16.8431 44.0183 16.6455 43.8521C16.4479 43.686 16.2007 43.5948 15.9453 43.594V43.594ZM19.0381 24.9697C19.1817 24.8202 19.2623 24.6186 19.2623 24.4085C19.2623 24.1984 19.1817 23.9968 19.0381 23.8473C18.8949 23.7093 18.7066 23.6313 18.5103 23.6285C18.3808 23.6274 18.2531 23.6595 18.1388 23.722C18.0244 23.7844 17.9271 23.8752 17.8555 23.986C17.784 24.0969 17.7405 24.2244 17.729 24.3569C17.7176 24.4893 17.7385 24.6227 17.7899 24.7448C17.8414 24.8668 17.9216 24.9738 18.0235 25.0559C18.1253 25.1381 18.2455 25.1928 18.3732 25.2152C18.5008 25.2375 18.6319 25.2268 18.7545 25.1839C18.877 25.141 18.9873 25.0674 19.0751 24.9697H19.0381ZM14.1119 41.8914C13.8736 41.6612 13.5593 41.5321 13.2322 41.5299C12.9327 41.5288 12.6422 41.635 12.4107 41.8303C12.1792 42.0256 12.0213 42.2977 11.9641 42.5997C11.907 42.9017 11.9541 43.2148 12.0975 43.4849C12.2409 43.7551 12.4715 43.9654 12.7496 44.0796C13.0277 44.1939 13.3358 44.205 13.621 44.1109C13.9062 44.0169 14.1505 43.8236 14.3119 43.5644C14.4733 43.3052 14.5416 42.9963 14.5051 42.6909C14.4686 42.3855 14.3295 42.1028 14.1119 41.8914V41.8914ZM10.5932 34.1962C10.7374 34.0451 10.8182 33.8419 10.8182 33.6303C10.8182 33.4187 10.7374 33.2155 10.5932 33.0643C10.4457 32.9272 10.255 32.8495 10.0561 32.8456C9.9495 32.8441 9.84385 32.8663 9.74637 32.9106C9.64889 32.9549 9.56186 33.0203 9.49125 33.1024C9.41902 33.1758 9.36167 33.2632 9.32254 33.3595C9.28341 33.4559 9.26325 33.5592 9.26325 33.6636C9.26325 33.768 9.28341 33.8713 9.32254 33.9676C9.36167 34.064 9.41902 34.1514 9.49125 34.2248C9.64198 34.3692 9.84184 34.4471 10.0479 34.4417C10.2539 34.4364 10.4497 34.3483 10.5932 34.1962V34.1962ZM10.8432 37.7061C11.0221 37.5092 11.1176 37.2474 11.109 36.9782C11.1003 36.7089 10.9881 36.4542 10.7969 36.2698C10.7093 36.1805 10.6051 36.1101 10.4906 36.0628C10.3762 36.0154 10.2536 35.992 10.1302 35.994C9.93294 35.9946 9.74035 36.0556 9.57708 36.1692C9.4138 36.2829 9.28727 36.444 9.21368 36.632C9.14008 36.82 9.12278 37.0262 9.16398 37.2244C9.20518 37.4225 9.30301 37.6035 9.44495 37.7442C9.5387 37.8369 9.64948 37.9096 9.77084 37.958C9.89219 38.0063 10.0217 38.0294 10.1518 38.0259C10.2819 38.0223 10.4101 37.9922 10.5288 37.9373C10.6475 37.8824 10.7543 37.8039 10.8432 37.7061V37.7061ZM29.8906 38.9617C29.8057 38.9613 29.7216 38.9789 29.6435 39.0132C29.5655 39.0476 29.4951 39.098 29.4368 39.1615C29.3342 39.2704 29.2714 39.4125 29.2591 39.5636C29.2469 39.7147 29.286 39.8655 29.3697 39.9903C29.4534 40.1152 29.5767 40.2064 29.7185 40.2485C29.8603 40.2906 30.0119 40.281 30.1475 40.2213C30.2832 40.1615 30.3946 40.0554 30.4627 39.9209C30.5308 39.7864 30.5515 39.6318 30.5212 39.4834C30.4909 39.335 30.4116 39.2019 30.2966 39.1068C30.1816 39.0117 30.0382 38.9604 29.8906 38.9617V38.9617ZM12.0284 40.9592C12.1317 40.854 12.2137 40.7288 12.2697 40.5908C12.3257 40.4529 12.3545 40.3049 12.3545 40.1554C12.3545 40.006 12.3257 39.858 12.2697 39.7201C12.2137 39.5821 12.1317 39.4569 12.0284 39.3517C11.8264 39.154 11.5574 39.0448 11.2784 39.0473C11.1274 39.0434 10.9774 39.0727 10.8384 39.1334C10.6994 39.1942 10.5747 39.2848 10.4728 39.3992C10.3731 39.5073 10.2951 39.6345 10.2432 39.7735C10.1913 39.9125 10.1666 40.0607 10.1705 40.2095C10.1743 40.3583 10.2067 40.5049 10.2657 40.6409C10.3248 40.7769 10.4093 40.8996 10.5145 41.002C10.6196 41.1044 10.7434 41.1846 10.8788 41.2379C11.0141 41.2911 11.1583 41.3165 11.3032 41.3125C11.4481 41.3086 11.5908 41.2753 11.7232 41.2147C11.8556 41.1541 11.975 41.0672 12.0747 40.9592H12.0284ZM25.6959 26.0541C25.8968 25.8325 26.0046 25.5385 25.996 25.2358C25.9873 24.9331 25.8628 24.6461 25.6496 24.437C25.439 24.2434 25.1635 24.1411 24.881 24.1517C24.7301 24.1484 24.5803 24.178 24.4414 24.2387C24.3025 24.2994 24.1778 24.3897 24.0754 24.5036C23.9034 24.7286 23.8198 25.0118 23.8414 25.2971C23.863 25.5824 23.9881 25.8489 24.1919 26.044C24.3957 26.239 24.6634 26.3483 24.942 26.3501C25.2205 26.352 25.4896 26.2463 25.6959 26.0541V26.0541ZM18.3992 44.9827C18.2602 45.1249 18.1654 45.3062 18.1268 45.5038C18.0883 45.7013 18.1076 45.9062 18.1825 46.0924C18.2574 46.2786 18.3844 46.4378 18.5474 46.5499C18.7104 46.6619 18.9021 46.7217 19.0983 46.7217C19.2944 46.7217 19.4862 46.6619 19.6492 46.5499C19.8122 46.4378 19.9392 46.2786 20.0141 46.0924C20.0889 45.9062 20.1083 45.7013 20.0697 45.5038C20.0312 45.3062 19.9364 45.1249 19.7974 44.9827C19.6133 44.8077 19.3723 44.7093 19.1214 44.7069C18.9892 44.701 18.8572 44.7223 18.7331 44.7697C18.6091 44.8171 18.4955 44.8895 18.3992 44.9827ZM30.4369 30.6198C30.5823 30.4591 30.6791 30.2584 30.7155 30.0422C30.7519 29.8261 30.7264 29.6037 30.642 29.4021C30.5576 29.2006 30.4181 29.0286 30.2403 28.907C30.0625 28.7854 29.8541 28.7196 29.6406 28.7174C29.488 28.718 29.3372 28.7504 29.1971 28.8125C29.0571 28.8746 28.9307 28.9652 28.8257 29.0788C28.6715 29.3044 28.6019 29.5797 28.6299 29.8538C28.6578 30.128 28.7814 30.3825 28.9778 30.5703C29.1742 30.7582 29.4301 30.8666 29.6983 30.8757C29.9665 30.8848 30.2289 30.7939 30.4369 30.6198V30.6198ZM26.733 28.1277C26.8513 28.2617 26.9953 28.3692 27.1559 28.4434C27.3166 28.5176 27.4904 28.5568 27.6665 28.5587C27.8426 28.5606 28.0172 28.5251 28.1794 28.4543C28.3415 28.3836 28.4876 28.2792 28.6086 28.1477C28.7295 28.0162 28.8228 27.8605 28.8823 27.6902C28.9419 27.5199 28.9666 27.3389 28.9548 27.1583C28.943 26.9778 28.895 26.8017 28.8139 26.6412C28.7327 26.4806 28.6201 26.339 28.4831 26.2253C28.2476 25.9965 27.9368 25.8674 27.6127 25.8638C27.3573 25.864 27.1078 25.9428 26.8964 26.09C26.685 26.2373 26.5215 26.4462 26.4268 26.6899C26.3321 26.9335 26.3107 27.2007 26.3653 27.457C26.4198 27.7133 26.5479 27.9469 26.733 28.1277V28.1277ZM22.3809 44.783C22.1997 44.7813 22.0237 44.8447 21.8831 44.9621C21.7426 45.0795 21.6463 45.2436 21.611 45.4262C21.5757 45.6087 21.6035 45.7981 21.6896 45.9619C21.7758 46.1256 21.9148 46.2533 22.0829 46.3229C22.2509 46.3925 22.4373 46.3997 22.6099 46.3433C22.7825 46.2868 22.9305 46.1702 23.0284 46.0137C23.1263 45.8571 23.1679 45.6703 23.1461 45.4855C23.1242 45.3008 23.0402 45.1297 22.9087 45.0018C22.7637 44.8607 22.5714 44.7824 22.3716 44.783H22.3809ZM28.372 42.0436C28.3298 41.9996 28.2793 41.965 28.2235 41.9421C28.1677 41.9192 28.1079 41.9084 28.0479 41.9104V41.9104C27.9848 41.9088 27.9222 41.9217 27.8645 41.948C27.8069 41.9743 27.7557 42.0134 27.7145 42.0626C27.6298 42.1547 27.5842 42.2775 27.5876 42.4042C27.5911 42.5308 27.6434 42.6509 27.733 42.7379C27.8227 42.825 27.9423 42.8718 28.0656 42.8683C28.1889 42.8647 28.3058 42.811 28.3905 42.7189C28.4321 42.6728 28.4644 42.6187 28.4856 42.5598C28.5067 42.5008 28.5163 42.4381 28.5137 42.3753C28.5111 42.3125 28.4965 42.2508 28.4705 42.1939C28.4446 42.1369 28.408 42.0859 28.3627 42.0436H28.372ZM22.4642 25.0363C22.6491 24.8456 22.7529 24.5873 22.7529 24.3181C22.7529 24.049 22.6491 23.7907 22.4642 23.6C22.2702 23.4095 22.0105 23.306 21.7422 23.3123C21.4739 23.3185 21.219 23.434 21.0336 23.6333C20.8482 23.8326 20.7474 24.0994 20.7535 24.375C20.7596 24.6506 20.872 24.9124 21.066 25.1029C21.2612 25.2819 21.5169 25.3752 21.7783 25.3628C22.0397 25.3503 22.286 25.2331 22.4642 25.0363V25.0363ZM25.9089 44.8876C25.968 44.8291 26.015 44.7589 26.0471 44.6812C26.0792 44.6036 26.0957 44.5201 26.0957 44.4358C26.0957 44.3515 26.0792 44.268 26.0471 44.1903C26.015 44.1127 25.968 44.0425 25.9089 43.984C25.8529 43.9266 25.7865 43.8811 25.7134 43.8501C25.6403 43.8191 25.562 43.8032 25.4829 43.8033C25.3967 43.8032 25.3113 43.8209 25.2318 43.8552C25.1523 43.8895 25.0803 43.9397 25.0199 44.003C24.956 44.0636 24.9049 44.1371 24.87 44.219C24.835 44.3008 24.817 44.3892 24.817 44.4786C24.817 44.568 24.835 44.6564 24.87 44.7382C24.9049 44.8201 24.956 44.8936 25.0199 44.9542C25.082 45.0111 25.1545 45.0545 25.2332 45.082C25.3119 45.1095 25.3952 45.1205 25.4781 45.1143C25.561 45.1081 25.6419 45.0848 25.7159 45.0459C25.7899 45.0069 25.8555 44.9531 25.9089 44.8876V44.8876ZM12.4636 27.9564C12.5557 28.0371 12.6745 28.0783 12.7953 28.0716C12.9161 28.0649 13.0299 28.0109 13.113 27.9206C13.1962 27.8303 13.2424 27.7106 13.2422 27.5863C13.242 27.462 13.1953 27.3426 13.1118 27.2526C13.022 27.1723 12.9068 27.1284 12.7877 27.1289C12.7254 27.1262 12.6632 27.1375 12.6056 27.1622C12.548 27.1868 12.4964 27.2242 12.4544 27.2716C12.3674 27.3638 12.3195 27.4876 12.3213 27.616C12.323 27.7444 12.3742 27.8668 12.4636 27.9564ZM31.3629 32.2748C31.176 32.0872 30.9251 31.9821 30.6638 31.9821C30.4025 31.9821 30.1515 32.0872 29.9647 32.2748C29.8288 32.4164 29.7368 32.5961 29.7001 32.7913C29.6633 32.9865 29.6836 33.1884 29.7583 33.3718C29.833 33.5552 29.9589 33.7118 30.12 33.8219C30.2811 33.9321 30.4703 33.9908 30.6638 33.9908C30.8573 33.9908 31.0465 33.9321 31.2076 33.8219C31.3687 33.7118 31.4945 33.5552 31.5692 33.3718C31.6439 33.1884 31.6642 32.9865 31.6275 32.7913C31.5908 32.5961 31.4987 32.4164 31.3629 32.2748V32.2748ZM15.3805 24.9222C15.2946 24.9212 15.2096 24.9394 15.1312 24.9755C15.0529 25.0117 14.9831 25.0648 14.9267 25.1314C14.8615 25.1912 14.8093 25.2645 14.7735 25.3464C14.7378 25.4284 14.7193 25.5172 14.7193 25.607C14.7193 25.6968 14.7378 25.7856 14.7735 25.8676C14.8093 25.9495 14.8615 26.0228 14.9267 26.0826C15.0495 26.1999 15.2127 26.2623 15.3802 26.2561C15.4632 26.253 15.5448 26.2331 15.6203 26.1976C15.6958 26.1622 15.7638 26.1118 15.8203 26.0493C15.8769 25.9869 15.9209 25.9136 15.9499 25.8336C15.9788 25.7537 15.9922 25.6687 15.9892 25.5835C15.9862 25.4982 15.9668 25.4144 15.9323 25.3369C15.8978 25.2593 15.8487 25.1895 15.7879 25.1314C15.6812 25.0133 15.5365 24.939 15.3805 24.9222ZM30.8073 35.566C30.7018 35.5662 30.5975 35.5882 30.5004 35.6307C30.4034 35.6732 30.3157 35.7353 30.2425 35.8133C30.1699 35.8875 30.1124 35.9757 30.0731 36.0728C30.0339 36.1699 30.0137 36.2741 30.0137 36.3792C30.0137 36.4844 30.0339 36.5885 30.0731 36.6856C30.1124 36.7827 30.1699 36.871 30.2425 36.9452C30.391 37.0978 30.5925 37.1835 30.8027 37.1835C31.0128 37.1835 31.2143 37.0978 31.3629 36.9452C31.5115 36.7926 31.5949 36.5856 31.5949 36.3697C31.5949 36.1539 31.5115 35.9469 31.3629 35.7942C31.2142 35.646 31.0145 35.5639 30.8073 35.566V35.566ZM11.3617 30.81C11.4257 30.7494 11.4768 30.6759 11.5117 30.5941C11.5466 30.5122 11.5646 30.4238 11.5646 30.3344C11.5646 30.245 11.5466 30.1566 11.5117 30.0748C11.4768 29.9929 11.4257 29.9194 11.3617 29.8588C11.2389 29.7415 11.0758 29.6791 10.9082 29.6854C10.7407 29.6916 10.5824 29.766 10.4682 29.8921C10.354 30.0183 10.2932 30.1858 10.2993 30.358C10.3054 30.5301 10.3778 30.6927 10.5006 30.81C10.556 30.8745 10.6235 30.9269 10.6989 30.9643C10.7744 31.0016 10.8563 31.0232 10.9399 31.0276C11.0236 31.032 11.1072 31.0193 11.186 30.9901C11.2648 30.9609 11.3371 30.9158 11.3988 30.8576L11.3617 30.81ZM12.1673 45.0778C12.0388 45.0781 11.9109 45.0973 11.7877 45.1349C11.4745 45.2323 11.2088 45.4476 11.0438 45.7378C10.8787 46.028 10.8266 46.3716 10.8979 46.6996C10.9692 47.0276 11.1585 47.3158 11.428 47.5063C11.6975 47.6969 12.0271 47.7758 12.3509 47.7271C12.6746 47.6785 12.9684 47.5059 13.1734 47.244C13.3784 46.9821 13.4795 46.6502 13.4563 46.315C13.433 45.9798 13.2873 45.6659 13.0482 45.4365C12.8092 45.207 12.4945 45.0789 12.1673 45.0778ZM15.1953 22.5822C15.3238 22.5223 15.4286 22.419 15.4924 22.2896C15.5561 22.1602 15.5749 22.0123 15.5458 21.8704C15.5166 21.7285 15.4413 21.6011 15.3321 21.5091C15.2229 21.4172 15.0864 21.3662 14.9453 21.3647C14.8623 21.358 14.7791 21.3745 14.7045 21.4123C14.5586 21.4825 14.4451 21.6084 14.3879 21.7631C14.3307 21.9179 14.3344 22.0894 14.3982 22.2415C14.4619 22.3935 14.5808 22.514 14.7296 22.5776C14.8783 22.6412 15.0454 22.6429 15.1953 22.5822ZM8.63935 27.0053C8.76866 27.1836 8.9592 27.3046 9.17226 27.3438C9.38532 27.3831 9.60493 27.3375 9.78647 27.2164C9.96801 27.0953 10.0979 26.9078 10.1497 26.6919C10.2015 26.476 10.1713 26.2479 10.0654 26.0541C9.986 25.9384 9.88051 25.8442 9.75794 25.7796C9.63537 25.715 9.49937 25.6819 9.36161 25.6831C9.1855 25.6824 9.01369 25.739 8.87084 25.8448C8.69767 25.9732 8.57777 26.1638 8.53489 26.3787C8.49202 26.5936 8.5293 26.8172 8.63935 27.0053V27.0053ZM28.4553 46.5237C28.51 46.5942 28.5777 46.653 28.6546 46.6967C28.7314 46.7404 28.8159 46.7681 28.9032 46.7783C28.9905 46.7885 29.0788 46.7809 29.1632 46.7559C29.2477 46.731 29.3265 46.6892 29.3952 46.633C29.4639 46.5768 29.5211 46.5073 29.5637 46.4283C29.6062 46.3494 29.6332 46.2626 29.6431 46.173C29.653 46.0833 29.6456 45.9925 29.6213 45.9058C29.597 45.8191 29.5564 45.7382 29.5017 45.6676C29.4399 45.5872 29.3611 45.5223 29.2712 45.4778C29.1814 45.4333 29.0829 45.4104 28.9831 45.4108C28.831 45.4089 28.6833 45.4629 28.5664 45.563C28.4935 45.6197 28.4325 45.691 28.3871 45.7726C28.3418 45.8543 28.313 45.9445 28.3026 46.0379C28.2922 46.1313 28.3004 46.2258 28.3267 46.3159C28.3529 46.4059 28.3967 46.4895 28.4553 46.5617V46.5237ZM22.4179 48.3214H22.3161C22.1419 48.3495 21.9856 48.4474 21.8815 48.5935C21.7774 48.7397 21.7339 48.9223 21.7605 49.1014C21.7981 49.2692 21.8959 49.4163 22.0344 49.5134C22.1729 49.6104 22.3419 49.6503 22.5077 49.6251C22.6736 49.5999 22.8241 49.5115 22.9293 49.3774C23.0345 49.2433 23.0866 49.0734 23.0754 48.9016C23.0434 48.7473 22.9605 48.609 22.8407 48.5102C22.7209 48.4114 22.5715 48.3582 22.4179 48.3594V48.3214ZM33.7056 30.81C34.0303 30.6641 34.2964 30.4081 34.4593 30.0847C34.6222 29.7614 34.672 29.3904 34.6004 29.0338C34.5288 28.6772 34.3401 28.3568 34.066 28.126C33.7919 27.8952 33.4489 27.7682 33.0945 27.7662C32.8842 27.7692 32.6766 27.8144 32.4833 27.8994C32.1343 28.0833 31.8664 28.3966 31.7338 28.7759C31.6012 29.1551 31.6139 29.5719 31.7692 29.9419C31.9246 30.3119 32.2111 30.6074 32.5706 30.7686C32.9301 30.9298 33.3359 30.9446 33.7056 30.81V30.81ZM33.7982 41.1114C33.9854 40.9868 34.1286 40.8036 34.2064 40.5888C34.2842 40.3741 34.2925 40.1393 34.2301 39.9193C34.1677 39.6993 34.038 39.5059 33.8601 39.3676C33.6822 39.2294 33.4657 39.1538 33.2426 39.1519C33.049 39.1493 32.8589 39.2056 32.6963 39.3136C32.5699 39.3821 32.4587 39.4767 32.3695 39.5914C32.2804 39.7061 32.2153 39.8385 32.1783 39.9802C32.1413 40.122 32.1333 40.2701 32.1546 40.4152C32.176 40.5604 32.2263 40.6994 32.3025 40.8236C32.3786 40.9478 32.4789 41.0545 32.597 41.137C32.7152 41.2195 32.8487 41.2761 32.9891 41.3031C33.1296 41.3301 33.2739 41.327 33.4132 41.294C33.5524 41.2611 33.6835 41.1989 33.7982 41.1114ZM25.2607 20.8035C24.9934 20.8362 24.7485 20.9726 24.5758 21.1847C24.4032 21.3968 24.316 21.6686 24.3319 21.9445C24.3479 22.2205 24.4659 22.4798 24.6617 22.6694C24.8576 22.859 25.1166 22.9646 25.3857 22.9646C25.6548 22.9646 25.9138 22.859 26.1096 22.6694C26.3055 22.4798 26.4235 22.2205 26.4394 21.9445C26.4554 21.6686 26.3682 21.3968 26.1955 21.1847C26.0229 20.9726 25.7779 20.8362 25.5107 20.8035C25.4279 20.79 25.3435 20.79 25.2607 20.8035ZM21.1864 21.0889C21.218 21.2515 21.2939 21.4016 21.4053 21.5216C21.5167 21.6416 21.659 21.7266 21.8157 21.7667C21.9723 21.8069 22.1368 21.8004 22.2901 21.7482C22.4433 21.696 22.5789 21.6001 22.6811 21.4718C22.7834 21.3434 22.848 21.1879 22.8675 21.0233C22.887 20.8586 22.8605 20.6917 22.7912 20.5419C22.7219 20.3922 22.6126 20.2657 22.476 20.1773C22.3394 20.0889 22.1812 20.0422 22.0198 20.0426H21.8531C21.7404 20.0628 21.633 20.1064 21.5372 20.1707C21.4415 20.235 21.3595 20.3187 21.2963 20.4165C21.233 20.5144 21.1899 20.6245 21.1694 20.7401C21.1489 20.8557 21.1515 20.9744 21.1771 21.0889H21.1864ZM35.252 36.013C35.1275 35.7847 34.9399 35.5995 34.7129 35.4808C34.4859 35.3621 34.2297 35.3153 33.9768 35.3462C33.7238 35.3772 33.4855 35.4845 33.292 35.6547C33.0985 35.8248 32.9585 36.0502 32.8897 36.3021C32.8209 36.554 32.8265 36.8213 32.9056 37.07C32.9848 37.3187 33.134 37.5377 33.3344 37.6992C33.5348 37.8607 33.7774 37.9576 34.0313 37.9774C34.2853 37.9973 34.5393 37.9393 34.7612 37.8108C35.058 37.6389 35.2763 37.3531 35.3683 37.0161C35.4603 36.6791 35.4185 36.3184 35.252 36.013V36.013ZM29.0479 24.8936C29.3367 24.7959 29.5825 24.5963 29.7417 24.3303C29.901 24.0642 29.9634 23.7489 29.9179 23.4401C29.8724 23.1313 29.722 22.849 29.4933 22.6432C29.2645 22.4374 28.9723 22.3215 28.6683 22.3159C28.5367 22.3161 28.4058 22.3354 28.2794 22.373C28.111 22.4184 27.9533 22.4984 27.8158 22.6082C27.6784 22.718 27.5641 22.8553 27.4798 23.0118C27.3955 23.1683 27.343 23.3407 27.3255 23.5186C27.3079 23.6966 27.3257 23.8763 27.3778 24.047C27.4298 24.2177 27.515 24.3757 27.6282 24.5116C27.7415 24.6475 27.8803 24.7583 28.0365 24.8375C28.1926 24.9166 28.3627 24.9624 28.5366 24.9721C28.7105 24.9817 28.8844 24.955 29.0479 24.8936V24.8936ZM35.3539 32.3129C35.2364 32.0677 35.0544 31.8611 34.8286 31.7165C34.6028 31.572 34.3421 31.4952 34.076 31.4949C33.8574 31.4943 33.6418 31.5465 33.4463 31.6471C33.1931 31.7749 32.9825 31.9771 32.8412 32.2279C32.6998 32.4788 32.6341 32.7671 32.6523 33.0563C32.6705 33.3455 32.7719 33.6227 32.9435 33.8528C33.1152 34.0828 33.3494 34.2554 33.6165 34.3486C33.8837 34.4419 34.1718 34.4516 34.4443 34.3766C34.7169 34.3016 34.9617 34.1453 35.1477 33.9273C35.3337 33.7094 35.4525 33.4396 35.4892 33.1522C35.5259 32.8649 35.4788 32.5728 35.3539 32.3129V32.3129ZM29.9184 26.7199C30.0082 26.9716 30.1635 27.1931 30.3674 27.3604C30.5714 27.5277 30.8161 27.6343 31.0749 27.6686C31.3337 27.7028 31.5967 27.6635 31.8353 27.5548C32.0739 27.4462 32.2788 27.2723 32.4279 27.0523C32.5769 26.8322 32.6643 26.5744 32.6805 26.3068C32.6967 26.0392 32.6412 25.7722 32.5199 25.5349C32.3986 25.2975 32.2162 25.0989 31.9926 24.9607C31.769 24.8225 31.5127 24.7499 31.2518 24.7509C31.0837 24.7494 30.917 24.7817 30.761 24.8461C30.5848 24.9107 30.4229 25.0108 30.2848 25.1405C30.1468 25.2702 30.0352 25.4268 29.9568 25.6013C29.8783 25.7758 29.8345 25.9646 29.8279 26.1566C29.8213 26.3487 29.8521 26.5402 29.9184 26.7199V26.7199ZM25.8811 47.3987C25.7988 47.4008 25.7175 47.4168 25.6403 47.4463C25.4894 47.5132 25.3704 47.639 25.3096 47.7959C25.2489 47.9529 25.2512 48.1282 25.3162 48.2834C25.3847 48.4332 25.5072 48.5499 25.6578 48.6086C25.8085 48.6673 25.9755 48.6635 26.1235 48.598C26.2714 48.5325 26.3888 48.4105 26.4507 48.2576C26.5126 48.1048 26.5142 47.9332 26.4552 47.7792C26.4053 47.6658 26.3246 47.5695 26.2227 47.502C26.1209 47.4346 26.0023 47.3987 25.8811 47.3987V47.3987ZM5.57435 34.0155C5.74521 34.3192 6.02506 34.542 6.35393 34.6362C6.6828 34.7304 7.03452 34.6886 7.33372 34.5197C7.5547 34.3906 7.73356 34.1973 7.84772 33.964C7.96188 33.7307 8.00625 33.4679 7.97521 33.2088C7.94418 32.9496 7.83914 32.7057 7.67334 32.5078C7.50754 32.3099 7.2884 32.1668 7.04356 32.0966C6.79872 32.0265 6.53914 32.0324 6.29755 32.1136C6.05596 32.1947 5.84318 32.3476 5.68604 32.5528C5.5289 32.758 5.43443 33.0065 5.41456 33.2668C5.39468 33.5271 5.45029 33.7876 5.57435 34.0155V34.0155ZM8.35229 42.0911C8.72645 41.92 9.02038 41.605 9.17099 41.2138C9.32161 40.8225 9.31691 40.3862 9.1579 39.9985C9.03828 39.7149 8.84028 39.4736 8.58845 39.3046C8.33661 39.1355 8.042 39.046 7.74115 39.0473C7.53102 39.0414 7.32226 39.0837 7.13 39.171C6.94334 39.2534 6.77432 39.3728 6.63258 39.5223C6.49085 39.6719 6.37917 39.8486 6.30393 40.0425C6.2287 40.2364 6.19137 40.4436 6.19409 40.6523C6.1968 40.861 6.23951 41.0671 6.31977 41.2588C6.40003 41.4506 6.51626 41.6242 6.66184 41.7698C6.80742 41.9154 6.97949 42.0301 7.16823 42.1074C7.35696 42.1847 7.55867 42.223 7.76183 42.2202C7.965 42.2174 8.16563 42.1736 8.35229 42.0911V42.0911ZM8.13006 30.6768C8.24561 30.6031 8.34576 30.5066 8.42471 30.3928C8.50365 30.279 8.55983 30.1502 8.58998 30.014C8.62012 29.8777 8.62364 29.7367 8.60033 29.599C8.57701 29.4613 8.52733 29.3298 8.45415 29.212C8.36233 29.06 8.2341 28.9347 8.08172 28.8481C7.92933 28.7615 7.75788 28.7165 7.58373 28.7174C7.38653 28.7195 7.19393 28.7789 7.02814 28.8886C6.79729 29.0387 6.63395 29.2769 6.57403 29.5507C6.51412 29.8245 6.56256 30.1116 6.70868 30.3487C6.8548 30.5858 7.08665 30.7536 7.35321 30.8152C7.61977 30.8767 7.89921 30.8269 8.13006 30.6768ZM10.908 43.3086C10.8052 43.0304 10.6228 42.7906 10.3848 42.6208C10.1468 42.451 9.86434 42.3592 9.57459 42.3574C9.40357 42.3566 9.23394 42.3889 9.07456 42.4526C8.81549 42.5577 8.59234 42.739 8.43301 42.9737C8.27367 43.2084 8.18523 43.4861 8.17874 43.7722C8.17225 44.0582 8.24799 44.3399 8.3965 44.582C8.54501 44.8241 8.7597 45.0158 9.01372 45.1332C9.26774 45.2506 9.54982 45.2885 9.82469 45.2422C10.0996 45.1958 10.355 45.0672 10.5592 44.8725C10.7633 44.6778 10.907 44.4256 10.9723 44.1475C11.0377 43.8693 11.0217 43.5775 10.9265 43.3086H10.908ZM15.5379 49.2345C15.8026 49.1629 16.0289 48.9868 16.1677 48.7445C16.3065 48.5022 16.3463 48.2133 16.2787 47.9409C16.2243 47.7113 16.0959 47.5074 15.9143 47.3623C15.7327 47.2172 15.5087 47.1395 15.2786 47.1419C15.1958 47.1281 15.1114 47.1281 15.0286 47.1419C14.8955 47.1819 14.7713 47.2484 14.6631 47.3377C14.555 47.427 14.4651 47.5372 14.3984 47.6622C14.3318 47.7872 14.2898 47.9244 14.2748 48.0661C14.2598 48.2078 14.2721 48.3511 14.311 48.4879C14.3499 48.6246 14.4146 48.7522 14.5015 48.8633C14.5885 48.9743 14.6958 49.0667 14.8175 49.1352C14.9391 49.2036 15.0727 49.2468 15.2107 49.2622C15.3486 49.2776 15.4881 49.265 15.6212 49.225L15.5379 49.2345ZM32.15 42.9852C32.052 42.845 31.9158 42.7376 31.7586 42.6766C31.6013 42.6156 31.4301 42.6038 31.2663 42.6426C31.1025 42.6814 30.9536 42.7691 30.8382 42.8947C30.7229 43.0202 30.6462 43.178 30.618 43.3482C30.5897 43.5184 30.6111 43.6934 30.6794 43.8511C30.7478 44.0088 30.86 44.1423 31.002 44.2346C31.144 44.327 31.3094 44.3742 31.4774 44.3702C31.6454 44.3662 31.8086 44.3113 31.9463 44.2123C32.0428 44.1488 32.1259 44.0661 32.1906 43.9689C32.2553 43.8717 32.3002 43.7621 32.3227 43.6466C32.3452 43.5312 32.3448 43.4122 32.3214 43.297C32.2981 43.1817 32.2524 43.0724 32.187 42.9757L32.15 42.9852ZM12.3803 23.4573C12.3171 23.3762 12.2367 23.3109 12.1452 23.2664C12.0538 23.2219 11.9537 23.1994 11.8525 23.2005C11.7023 23.2012 11.5563 23.2512 11.4358 23.3432C11.3033 23.4581 11.2189 23.6208 11.1999 23.7979C11.1809 23.9749 11.2289 24.1527 11.3339 24.2944C11.4444 24.4325 11.6032 24.5208 11.7762 24.5404C11.9492 24.5599 12.1228 24.5092 12.2599 24.399C12.3927 24.2871 12.479 24.1275 12.5014 23.9526C12.5237 23.7777 12.4804 23.6006 12.3803 23.4573V23.4573ZM5.48176 37.7252C5.6075 37.9818 5.80439 38.1945 6.04762 38.3364C6.29084 38.4783 6.56952 38.5431 6.84852 38.5225C7.12753 38.502 7.39437 38.3971 7.61542 38.221C7.83647 38.045 8.00184 37.8056 8.09068 37.5332C8.17952 37.2607 8.18786 36.9673 8.11464 36.69C8.04143 36.4127 7.88994 36.1639 7.67926 35.9748C7.46859 35.7858 7.20816 35.6651 6.9308 35.6279C6.65343 35.5907 6.37155 35.6386 6.12068 35.7657C5.95328 35.8497 5.80378 35.967 5.68086 36.1109C5.55793 36.2547 5.46403 36.4222 5.4046 36.6035C5.34516 36.7849 5.32138 36.9766 5.33462 37.1675C5.34787 37.3584 5.39788 37.5447 5.48176 37.7156V37.7252ZM18.5103 21.6501C18.6739 21.6221 18.8215 21.5325 18.9242 21.3987C19.027 21.265 19.0775 21.0967 19.0659 20.9267C19.0543 20.7568 18.9815 20.5973 18.8617 20.4796C18.7418 20.3618 18.5835 20.2942 18.4177 20.2899H18.3158C18.141 20.3181 17.984 20.4155 17.8784 20.5614C17.7728 20.7072 17.727 20.8898 17.751 21.0698C17.7634 21.1593 17.793 21.2453 17.838 21.323C17.883 21.4006 17.9425 21.4684 18.013 21.5223C18.0836 21.5763 18.1639 21.6153 18.2492 21.6372C18.3346 21.6592 18.4233 21.6635 18.5103 21.6501V21.6501ZM19.6492 48.9302C19.6108 48.7321 19.5068 48.5537 19.3549 48.4254C19.203 48.2971 19.0125 48.2268 18.8159 48.2263C18.7575 48.2174 18.6983 48.2174 18.6399 48.2263C18.4753 48.2616 18.3245 48.3461 18.2065 48.4693C18.0886 48.5925 18.0088 48.7488 17.9772 48.9185C17.9456 49.0882 17.9636 49.2637 18.0289 49.4229C18.0943 49.5821 18.204 49.7179 18.3444 49.8131C18.4847 49.9083 18.6494 49.9588 18.8176 49.958C18.9858 49.9573 19.15 49.9054 19.2895 49.809C19.4291 49.7125 19.5377 49.5758 19.6017 49.416C19.6657 49.2562 19.6823 49.0806 19.6492 48.9111V48.9302ZM37.5021 37.8488H37.4003C36.9137 37.8626 36.452 38.0725 36.1149 38.4333C35.7779 38.7941 35.5927 39.2767 35.5994 39.7766C35.6061 40.2766 35.8042 40.7537 36.1507 41.1049C36.4973 41.456 36.9644 41.6528 37.4512 41.6528C37.938 41.6528 38.4052 41.456 38.7517 41.1049C39.0982 40.7537 39.2963 40.2766 39.303 39.7766C39.3097 39.2767 39.1245 38.7941 38.7875 38.4333C38.4504 38.0725 37.9887 37.8626 37.5021 37.8488ZM38.104 32.9787C37.7117 32.9768 37.3277 33.0946 37.0006 33.3171C36.6735 33.5397 36.4181 33.8569 36.2667 34.2287C36.1153 34.6005 36.0747 35.01 36.1501 35.4055C36.2255 35.801 36.4135 36.1646 36.6903 36.4502C36.967 36.7358 37.3201 36.9307 37.7047 37.01C38.0894 37.0893 38.4883 37.0495 38.8509 36.8958C39.2136 36.742 39.5236 36.4811 39.7417 36.1461C39.9599 35.8112 40.0763 35.4173 40.0764 35.0143C40.0776 34.7474 40.0275 34.4829 39.9289 34.236C39.8303 33.9891 39.6852 33.7646 39.502 33.5755C39.3187 33.3864 39.1008 33.2363 38.8609 33.1339C38.621 33.0314 38.3638 32.9787 38.104 32.9787V32.9787ZM35.6872 30.2108C35.6617 30.5887 35.7465 30.9659 35.931 31.2939C36.1154 31.622 36.391 31.886 36.7224 32.0522C37.0538 32.2184 37.426 32.2791 37.7913 32.2266C38.1565 32.1742 38.4982 32.0109 38.7725 31.7576C39.0468 31.5044 39.2413 31.1729 39.331 30.8054C39.4208 30.4379 39.4016 30.0513 39.2761 29.6951C39.1506 29.3389 38.9244 29.0293 38.6265 28.8059C38.3286 28.5826 37.9725 28.4557 37.604 28.4415H37.5021C37.039 28.4499 36.5958 28.6362 36.2598 28.9637C35.9239 29.2912 35.7196 29.7361 35.6872 30.2108V30.2108ZM35.6872 42.405H35.5113C35.0553 42.4286 34.6264 42.6342 34.316 42.9781C34.0055 43.322 33.8382 43.7769 33.8497 44.2457C33.8612 44.7145 34.0505 45.1601 34.3774 45.4876C34.7042 45.815 35.1427 45.9982 35.5992 45.9982C36.0558 45.9982 36.4942 45.815 36.8211 45.4876C37.148 45.1601 37.3373 44.7145 37.3488 44.2457C37.3603 43.7769 37.193 43.322 36.8825 42.9781C36.5721 42.6342 36.1432 42.4286 35.6872 42.405V42.405ZM24.9458 51.6791H24.7236C24.5062 51.7414 24.3212 51.889 24.2086 52.0901C24.0961 52.2911 24.0649 52.5295 24.1217 52.7539C24.1632 52.9115 24.2467 53.054 24.3628 53.1653C24.4789 53.2767 24.623 53.3525 24.7788 53.3841C24.9347 53.4158 25.096 53.4021 25.2447 53.3445C25.3933 53.2869 25.5233 53.1878 25.62 53.0583C25.7167 52.9289 25.7762 52.7742 25.7919 52.6118C25.8075 52.4494 25.7787 52.2858 25.7085 52.1394C25.6384 51.993 25.5298 51.8696 25.3951 51.7832C25.2603 51.6968 25.1047 51.6509 24.9458 51.6506V51.6791ZM29.2146 49.6245H28.9831C28.7099 49.655 28.4584 49.7918 28.2804 50.0069C28.1024 50.2221 28.0115 50.4991 28.0263 50.781C28.0411 51.0629 28.1606 51.3283 28.3601 51.5225C28.5596 51.7166 28.824 51.8249 29.0989 51.8249C29.3737 51.8249 29.6381 51.7166 29.8376 51.5225C30.0371 51.3283 30.1566 51.0629 30.1714 50.781C30.1863 50.4991 30.0953 50.2221 29.9173 50.0069C29.7394 49.7918 29.4879 49.655 29.2146 49.6245V49.6245ZM32.9185 46.4951H32.7148C32.3784 46.5222 32.0652 46.682 31.841 46.941C31.6168 47.2 31.4989 47.5382 31.512 47.8846C31.5252 48.2309 31.6684 48.5586 31.9117 48.7989C32.1549 49.0392 32.4792 49.1734 32.8167 49.1734C33.1541 49.1734 33.4785 49.0392 33.7217 48.7989C33.9649 48.5586 34.1081 48.2309 34.1213 47.8846C34.1345 47.5382 34.0166 47.2 33.7924 46.941C33.5681 46.682 33.255 46.5222 32.9185 46.4951V46.4951ZM35.5576 27.614C35.7734 27.6371 35.9916 27.6163 36.1996 27.5528C36.4076 27.4893 36.6014 27.3844 36.77 27.2439C36.9385 27.1035 37.0784 26.9303 37.1818 26.7343C37.2852 26.5383 37.35 26.3233 37.3725 26.1016C37.395 25.8799 37.3748 25.6558 37.3129 25.4421C37.2511 25.2284 37.1489 25.0294 37.0122 24.8562C36.8755 24.6831 36.7069 24.5394 36.5161 24.4332C36.3253 24.327 36.116 24.2604 35.9002 24.2373H35.7242C35.3029 24.2393 34.8983 24.407 34.5935 24.7059C34.2888 25.0049 34.1071 25.4124 34.0857 25.8447C34.0644 26.2769 34.2051 26.7012 34.4788 27.0303C34.7525 27.3594 35.1386 27.5682 35.5576 27.614ZM3.42608 32.1797C3.84836 32.0868 4.22574 31.8452 4.49296 31.4966C4.76017 31.1481 4.90041 30.7147 4.88942 30.2712C4.87844 29.8277 4.71692 29.4021 4.4328 29.068C4.14868 28.7339 3.75982 28.5123 3.33348 28.4415H3.23163C2.80959 28.5445 2.43611 28.7963 2.17631 29.1531C1.91651 29.5099 1.78688 29.9491 1.81003 30.394C1.83317 30.8389 2.00762 31.2614 2.30296 31.5878C2.59829 31.9141 2.99577 32.1236 3.42608 32.1797V32.1797ZM4.71319 35.0333C4.71319 34.6307 4.59697 34.2371 4.37923 33.9024C4.16149 33.5677 3.85201 33.3068 3.48992 33.1527C3.12783 32.9986 2.7294 32.9583 2.34501 33.0369C1.96061 33.1154 1.60753 33.3093 1.3304 33.5939C1.05327 33.8786 0.864537 34.2413 0.788077 34.6362C0.711616 35.031 0.750859 35.4403 0.900841 35.8123C1.05082 36.1842 1.30481 36.5021 1.63068 36.7258C1.95655 36.9495 2.33967 37.0688 2.7316 37.0688C2.99453 37.0702 3.25507 37.0175 3.49789 36.9138C3.74071 36.8102 3.9609 36.6578 4.14553 36.4654C4.33016 36.2731 4.47549 36.0448 4.57297 35.794C4.67046 35.5431 4.71813 35.2748 4.71319 35.0048V35.0333ZM5.1484 39.8368C5.16394 39.3447 4.99317 38.8656 4.67198 38.5002C4.35079 38.1348 3.9042 37.9116 3.42608 37.8773H3.33348C2.9696 37.8775 2.61383 37.9878 2.3106 38.1944C2.00736 38.401 1.77011 38.6948 1.62845 39.0391C1.4868 39.3834 1.44702 39.763 1.51409 40.1304C1.58116 40.4978 1.7521 40.8367 2.00558 41.1049C2.25905 41.3731 2.58382 41.5586 2.93933 41.6383C3.29484 41.7181 3.66533 41.6884 4.00455 41.5531C4.34376 41.4179 4.63667 41.1829 4.84669 40.8777C5.0567 40.5725 5.17453 40.2104 5.18544 39.8368H5.1484ZM5.27804 27.6426C5.69782 27.5967 6.08445 27.3871 6.35822 27.057C6.63199 26.7269 6.77203 26.3015 6.74947 25.8685C6.72691 25.4354 6.54346 25.0278 6.23696 24.7296C5.93045 24.4315 5.52425 24.2654 5.1021 24.2658H4.92617C4.51449 24.3429 4.14643 24.5771 3.89588 24.9214C3.64534 25.2657 3.53084 25.6946 3.57538 26.1221C3.61992 26.5495 3.8202 26.9438 4.13601 27.2258C4.45183 27.5078 4.8598 27.6567 5.27804 27.6426V27.6426ZM11.7599 20.404C12.0424 20.3401 12.2891 20.1646 12.4468 19.9155C12.6044 19.6663 12.6604 19.3635 12.6025 19.0723C12.5514 18.8215 12.4174 18.5965 12.2234 18.4353C12.0294 18.2741 11.7872 18.1867 11.5377 18.1877C11.4608 18.1784 11.3831 18.1784 11.3062 18.1877C11.0651 18.2884 10.8669 18.4742 10.7473 18.7115C10.6277 18.9489 10.5945 19.2224 10.6537 19.4827C10.7128 19.743 10.8605 19.9731 11.0701 20.1315C11.2797 20.2899 11.5374 20.3663 11.7969 20.3469L11.7599 20.404ZM5.27804 42.4335H5.1021C4.67074 42.4571 4.26536 42.6527 3.97231 42.9787C3.67926 43.3047 3.52169 43.7354 3.53315 44.179C3.54462 44.6225 3.72422 45.044 4.0337 45.3536C4.34318 45.6632 4.7581 45.8364 5.19007 45.8364C5.62205 45.8364 6.03696 45.6632 6.34644 45.3536C6.65593 45.044 6.83552 44.6225 6.84699 44.179C6.85846 43.7354 6.70089 43.3047 6.40784 42.9787C6.11479 42.6527 5.70941 42.4571 5.27804 42.4335V42.4335ZM8.1208 23.5049C8.44686 23.4484 8.74056 23.2687 8.94414 23.0011C9.14772 22.7334 9.24645 22.3972 9.22091 22.0585C9.19537 21.7199 9.04741 21.4033 8.80613 21.1711C8.56486 20.9388 8.24772 20.8077 7.91708 20.8035H7.70411C7.52505 20.8226 7.35165 20.8789 7.19452 20.9692C7.03738 21.0594 6.89981 21.1816 6.7902 21.3283C6.68059 21.4749 6.60125 21.6431 6.55702 21.8223C6.5128 22.0016 6.50462 22.1882 6.53299 22.3708C6.56136 22.5534 6.62567 22.7282 6.72201 22.8844C6.81835 23.0406 6.94468 23.175 7.09329 23.2793C7.2419 23.3837 7.40966 23.4558 7.58633 23.4913C7.763 23.5269 7.94486 23.525 8.1208 23.4859V23.5049ZM16.0564 18.3114C16.2756 18.2511 16.4628 18.1043 16.5772 17.9031C16.6916 17.7018 16.7241 17.4623 16.6676 17.2365C16.6187 17.0506 16.5114 16.8864 16.3624 16.7695C16.2134 16.6525 16.031 16.5893 15.8435 16.5897C15.7697 16.5806 15.695 16.5806 15.6212 16.5897C15.4027 16.649 15.216 16.7951 15.1022 16.9957C14.9885 17.1964 14.957 17.4353 15.0147 17.6598C15.0724 17.8843 15.2146 18.0761 15.41 18.193C15.6053 18.3098 15.8379 18.3421 16.0564 18.2829V18.3114ZM20.4178 52.364C20.2599 52.364 20.1056 52.4122 19.9744 52.5025C19.8433 52.5928 19.7412 52.7211 19.6812 52.8712C19.6212 53.0212 19.606 53.1862 19.6375 53.3451C19.669 53.504 19.7458 53.6498 19.8581 53.7638C19.9704 53.8778 20.1131 53.9549 20.2682 53.9854C20.4233 54.0159 20.5837 53.9983 20.729 53.935C20.8744 53.8716 20.9981 53.7653 21.0845 53.6295C21.1708 53.4937 21.216 53.3346 21.2142 53.1725C21.2142 53.0655 21.1935 52.9596 21.1534 52.8608C21.1132 52.7621 21.0544 52.6726 20.9804 52.5974C20.9063 52.5222 20.8184 52.4628 20.7219 52.4227C20.6253 52.3827 20.5219 52.3627 20.4178 52.364V52.364ZM24.7699 18.3114C24.8781 18.3414 24.991 18.3492 25.1022 18.3343C25.2134 18.3195 25.3206 18.2823 25.4177 18.2249C25.5149 18.1674 25.6001 18.0909 25.6685 17.9997C25.7369 17.9085 25.7871 17.8043 25.8163 17.6931C25.8455 17.5819 25.853 17.466 25.8386 17.3518C25.8241 17.2376 25.7879 17.1275 25.732 17.0276C25.6761 16.9278 25.6017 16.8403 25.5128 16.7701C25.424 16.6998 25.3226 16.6483 25.2144 16.6183C25.1406 16.6091 25.066 16.6091 24.9921 16.6183C24.7845 16.6166 24.5834 16.693 24.4267 16.8329C24.2699 16.9729 24.1684 17.1668 24.1411 17.3783C24.1138 17.5898 24.1626 17.8042 24.2784 17.9813C24.3942 18.1584 24.569 18.2859 24.7699 18.3399V18.3114ZM8.10228 46.5141H7.8893C7.54599 46.5424 7.22663 46.706 6.99812 46.9707C6.76961 47.2354 6.64968 47.5807 6.66345 47.9342C6.67721 48.2877 6.8236 48.6221 7.07196 48.8672C7.32032 49.1123 7.65137 49.2492 7.99579 49.2492C8.34021 49.2492 8.67126 49.1123 8.91962 48.8672C9.16798 48.6221 9.31437 48.2877 9.32814 47.9342C9.3419 47.5807 9.22197 47.2354 8.99346 46.9707C8.76495 46.706 8.44559 46.5424 8.10228 46.5141V46.5141ZM29.0294 20.3469C29.1754 20.4032 29.3314 20.4268 29.4869 20.416C29.6425 20.4053 29.794 20.3604 29.9313 20.2845C30.0686 20.2086 30.1885 20.1034 30.2829 19.976C30.3773 19.8486 30.4441 19.7019 30.4788 19.5457C30.5135 19.3896 30.5152 19.2276 30.4839 19.0707C30.4526 18.9139 30.3889 18.7657 30.2973 18.6361C30.2056 18.5066 30.088 18.3987 29.9524 18.3197C29.8167 18.2408 29.6662 18.1925 29.5109 18.1782H29.2794C29.0299 18.1772 28.7877 18.2646 28.5937 18.4258C28.3996 18.5869 28.2657 18.812 28.2146 19.0628C28.171 19.3426 28.2303 19.629 28.3809 19.8663C28.5315 20.1036 28.7627 20.2749 29.0294 20.3469V20.3469ZM20.4178 17.636C20.629 17.636 20.8316 17.5499 20.9809 17.3965C21.1303 17.243 21.2142 17.035 21.2142 16.818C21.2142 16.6011 21.1303 16.393 20.9809 16.2396C20.8316 16.0862 20.629 16 20.4178 16C20.2066 16 20.0041 16.0862 19.8547 16.2396C19.7054 16.393 19.6215 16.6011 19.6215 16.818C19.6215 17.035 19.7054 17.243 19.8547 17.3965C20.0041 17.5499 20.2066 17.636 20.4178 17.636ZM32.7148 23.4859C33.0623 23.5426 33.4175 23.4553 33.7023 23.243C33.9871 23.0307 34.1782 22.7109 34.2334 22.3539C34.2887 21.997 34.2036 21.6321 33.997 21.3395C33.7903 21.047 33.479 20.8508 33.1315 20.794H32.9185C32.5752 20.7783 32.2393 20.9004 31.982 21.1344C31.7246 21.3685 31.566 21.6961 31.5395 22.0482C31.5131 22.4002 31.6209 22.749 31.8402 23.0208C32.0595 23.2927 32.3732 23.4662 32.7148 23.5049V23.4859ZM11.7969 49.6531C11.7231 49.6439 11.6485 49.6439 11.5747 49.6531C11.2911 49.6824 11.0292 49.8225 10.8433 50.0445C10.6575 50.2665 10.5618 50.5534 10.576 50.8459C10.5903 51.1384 10.7135 51.414 10.92 51.6158C11.1266 51.8177 11.4007 51.9302 11.6858 51.9302C11.9709 51.9302 12.2451 51.8177 12.4516 51.6158C12.6582 51.414 12.7813 51.1384 12.7956 50.8459C12.8099 50.5534 12.7142 50.2665 12.5283 50.0445C12.3424 49.8225 12.0806 49.6824 11.7969 49.6531ZM16.0564 51.7362H15.8342C15.6198 51.7652 15.4241 51.8768 15.2868 52.0486C15.1496 52.2203 15.0811 52.4393 15.0952 52.661C15.1094 52.8827 15.2051 53.0906 15.363 53.2425C15.5208 53.3944 15.729 53.4789 15.9453 53.4789C16.1616 53.4789 16.3698 53.3944 16.5277 53.2425C16.6856 53.0906 16.7813 52.8827 16.7954 52.661C16.8095 52.4393 16.741 52.2203 16.6038 52.0486C16.4666 51.8768 16.2709 51.7652 16.0564 51.7362V51.7362Z" fill="#444444"/>
</svg>
