<svg width="161" height="70" viewBox="0 0 161 70" fill="none" xmlns="http://www.w3.org/2000/svg">
<path d="M119.964 32.6009H111.286L112.981 25.5419H109.888L108.193 32.6009H105.354L105.227 33.1517H108.1L104.371 48.7697C104.099 49.6759 103.939 50.6123 103.897 51.5577C103.883 51.8818 103.939 52.2051 104.061 52.5056C104.184 52.806 104.369 53.0765 104.606 53.2986C104.842 53.5206 105.124 53.689 105.432 53.7922C105.739 53.8954 106.065 53.931 106.388 53.8965C109.473 53.8965 111.023 49.5408 111.193 49.0408L110.761 48.8544C110.464 49.5917 109.261 52.4305 107.803 52.4305C107.202 52.4305 106.956 52.0661 106.956 51.3289C106.967 50.8501 107.038 50.3747 107.168 49.9137L111.159 33.1517H116.82L113.006 48.7697C112.738 49.6451 112.579 50.5501 112.532 51.4644C112.512 51.7987 112.564 52.1333 112.686 52.4451C112.809 52.7569 112.997 53.0383 113.239 53.2698C113.481 53.5013 113.771 53.6773 114.088 53.7855C114.404 53.8937 114.741 53.9316 115.074 53.8965C118.159 53.8965 119.709 49.5408 119.879 49.0408L119.447 48.8544C119.15 49.5408 117.904 52.4305 116.532 52.4305C115.761 52.4305 115.633 51.9729 115.633 51.2865C115.645 50.8217 115.716 50.3603 115.845 49.9137L119.964 32.6009Z" fill="#444444"/>
<path d="M99.3139 52.4305C98.5428 52.4305 98.3733 51.9729 98.3733 51.3797C98.3844 50.8843 98.4555 50.392 98.5851 49.9137L101.322 38.5498C101.637 37.5098 101.81 36.4325 101.839 35.3465C101.852 34.9179 101.773 34.4915 101.609 34.0954C101.445 33.6993 101.198 33.3425 100.886 33.0487C100.574 32.7548 100.202 32.5304 99.7971 32.3904C99.3918 32.2505 98.9614 32.198 98.5343 32.2365C95.7463 32.2365 94.2464 34.6601 93.6447 35.7109L94.3735 32.6009H88.4924L88.3229 33.1517H91.1533L86.2637 53.4898H89.3567L92.7464 39.7023C93.5176 36.5922 95.2887 33.389 97.3733 33.389C97.5978 33.3713 97.8234 33.4034 98.0339 33.4832C98.2445 33.563 98.4348 33.6884 98.5911 33.8504C98.7475 34.0124 98.866 34.207 98.9382 34.4203C99.0104 34.6335 99.0346 34.8601 99.0089 35.0838C98.9521 35.9049 98.8072 36.7174 98.5767 37.5074L95.8734 48.7781C95.6215 49.7207 95.4625 50.6857 95.3988 51.6593C95.3988 52.8966 96.1785 53.905 97.8903 53.905C100.983 53.905 102.526 49.5493 102.737 49.0493L102.314 48.8629C101.882 49.7781 100.721 52.439 99.3902 52.439" fill="#444444"/>
<path d="M81.7214 49.9139L85.8823 32.6011H82.7977L82.2807 34.8468C82.1755 34.069 81.7815 33.3592 81.1771 32.8584C80.5727 32.3576 79.802 32.1024 79.0182 32.1435C75.3743 32.1435 73.5693 35.3468 72.4083 38.55C71.7219 40.4736 70.3067 45.3294 70.222 48.5411C70.0949 52.0155 71.6795 53.8968 74.1709 53.8968C76.6623 53.8968 78.0352 51.3545 78.5945 50.0919C78.5079 50.5444 78.4625 51.0039 78.4589 51.4647C78.4374 51.7977 78.4888 52.1314 78.6095 52.4425C78.7302 52.7537 78.9172 53.0348 79.1576 53.2663C79.398 53.4978 79.6859 53.6741 80.0013 53.783C80.3168 53.8919 80.6522 53.9307 80.9842 53.8968C84.2044 53.8968 85.6196 49.4987 85.789 49.0411L85.3653 48.8546C85.0603 49.5919 83.8993 52.4307 82.3994 52.4307C81.7553 52.4307 81.5011 51.9731 81.552 51.1935C81.5742 50.7604 81.6453 50.3311 81.7638 49.9139H81.7214ZM79.2893 46.8886C78.2979 50.2274 76.7471 52.8205 74.9082 52.8205C73.6201 52.8205 73.0184 51.9731 73.0608 50.1681C73.1964 46.092 75.4251 38.8042 75.942 37.2026C76.7895 34.4993 78.0013 32.9655 79.5436 32.9655C80.9588 32.9655 81.6452 34.2875 81.6028 35.8044C81.5181 38.05 80.5266 42.5329 79.2893 46.931" fill="#444444"/>
<path d="M65.5026 52.43C64.8586 52.43 64.6552 52.0656 64.6552 51.3284C64.6541 50.8515 64.711 50.3763 64.8247 49.9132L72.8074 17.1181H66.8754L66.7483 17.6689H69.5363L62.0282 48.7692C61.7599 49.7082 61.6006 50.6749 61.5536 51.6504C61.5348 51.9643 61.5855 52.2785 61.7022 52.5705C61.8188 52.8625 61.9985 53.1252 62.2284 53.3397C62.4583 53.5542 62.7328 53.7153 63.0322 53.8115C63.3315 53.9077 63.6485 53.9366 63.9603 53.8961C67.1381 53.8961 68.6804 49.659 68.8923 49.0403L68.4686 48.8539C68.1635 49.6335 66.8754 52.43 65.5026 52.43" fill="#444444"/>
<path d="M119.83 24.8125C119.572 24.8268 119.321 24.8938 119.09 25.0095C118.86 25.1251 118.655 25.2869 118.49 25.4848C118.325 25.6826 118.202 25.9124 118.129 26.1597C118.056 26.407 118.035 26.6667 118.067 26.9225C118.049 27.1479 118.075 27.3747 118.146 27.5896C118.217 27.8044 118.329 28.003 118.478 28.1736C118.626 28.3441 118.807 28.4833 119.01 28.5828C119.214 28.6823 119.434 28.7402 119.66 28.753C119.912 28.736 120.157 28.6688 120.382 28.5554C120.608 28.4421 120.808 28.2849 120.971 28.093C121.135 27.9011 121.258 27.6784 121.334 27.4381C121.41 27.1978 121.438 26.9447 121.414 26.6937C121.44 26.465 121.419 26.2335 121.352 26.0132C121.286 25.7929 121.175 25.5885 121.026 25.4125C120.878 25.2365 120.696 25.0925 120.49 24.9893C120.284 24.8862 120.059 24.826 119.83 24.8125" fill="#444444"/>
<path d="M129.954 32.1436C126.259 32.1436 124.335 34.9316 123.217 38.5077C122.066 41.7619 121.428 45.1755 121.327 48.6259C121.327 50.7359 122.234 53.8968 126.132 53.8968C130.208 53.8968 131.971 48.4479 132.225 47.8039L131.674 47.5327C131.115 48.9479 129.606 52.7019 126.996 52.7019C125.302 52.7019 124.454 51.3291 124.454 48.7699C124.589 45.1606 125.258 41.591 126.437 38.1772C127.59 34.4655 128.327 32.7283 130.039 32.7283C131.157 32.7283 131.844 33.2791 131.844 34.0079C131.844 35.0672 131.2 35.5671 131.2 36.5501C131.187 36.7406 131.213 36.9316 131.275 37.1119C131.338 37.2921 131.437 37.4579 131.565 37.5995C131.693 37.741 131.848 37.8553 132.021 37.9356C132.194 38.0159 132.382 38.0606 132.572 38.067C133.513 38.067 134.115 37.2196 134.115 35.9146C134.115 34.6095 133.386 32.1605 129.954 32.1605" fill="#444444"/>
<path d="M56.7091 52.4305C56.1498 52.4305 55.8108 52.0661 55.8108 51.3289C55.8286 50.8507 55.8997 50.3761 56.0226 49.9137L60.0564 33.1517H63.3613L63.4884 32.6009H60.1835L61.8783 25.5419H58.8107L57.1158 32.6009H54.5736L54.4464 33.1517H56.9887L53.2346 48.7697C52.9511 49.7052 52.7916 50.6739 52.7601 51.6509C52.7457 51.9636 52.7995 52.2757 52.9177 52.5656C53.0359 52.8555 53.2156 53.1163 53.4445 53.3298C53.6734 53.5434 53.9459 53.7047 54.2433 53.8026C54.5407 53.9004 54.8558 53.9325 55.1667 53.8965C58.4293 53.8965 59.8445 49.6594 60.0987 49.0408L59.6665 48.8544C59.3699 49.5917 58.1242 52.4305 56.7091 52.4305" fill="#444444"/>
<path d="M30.2772 28.1605H29.2434L31.6924 17.9407H32.1161C33.2347 17.9407 33.4889 18.0847 33.15 20.1439H33.4042L34.0059 17.6017H28.2604L27.6587 20.1439H27.9129C28.5569 18.3983 28.8196 17.9407 29.9721 17.9407H30.4891L28.04 28.1605H27.0994L27.0146 28.4741H30.1925L30.2772 28.1605Z" fill="#444444"/>
<path d="M32.5879 28.4741H33.6641L34.7742 23.898C35.0793 22.7032 35.7233 21.6524 36.4098 21.6524C36.4837 21.6475 36.5579 21.6583 36.6274 21.6842C36.6969 21.71 36.7602 21.7503 36.813 21.8023C36.8658 21.8543 36.907 21.9169 36.9339 21.986C36.9608 22.0551 36.9728 22.1291 36.969 22.2032C36.9513 22.5287 36.8915 22.8506 36.7911 23.1608L35.9437 26.6945C35.8515 27.0381 35.7947 27.3902 35.7742 27.7453C35.7622 27.8595 35.7759 27.975 35.8142 28.0833C35.8526 28.1915 35.9146 28.2899 35.9958 28.3711C36.0771 28.4523 36.1754 28.5143 36.2836 28.5527C36.3919 28.591 36.5074 28.6047 36.6216 28.5927C37.7402 28.5927 38.2063 27.2114 38.3164 26.8979L38.0961 26.8047C37.969 27.1267 37.5877 27.9911 37.1131 27.9911C36.9436 27.9911 36.8589 27.8978 36.8589 27.6267C36.8788 27.3413 36.9213 27.0579 36.986 26.7793L37.8334 23.3472C37.9349 22.9739 37.9918 22.5899 38.0029 22.2032C38.0095 22.0524 37.9839 21.9019 37.9276 21.7618C37.8713 21.6217 37.7857 21.4952 37.6766 21.3909C37.5675 21.2866 37.4373 21.2068 37.2948 21.1569C37.1523 21.107 37.0008 21.0881 36.8504 21.1015C36.4967 21.1418 36.1579 21.2668 35.8628 21.4659C35.5678 21.6651 35.3251 21.9326 35.1556 22.2456L36.2742 17.6187H34.4776L34.3929 17.9407H35.1217L32.5879 28.4741Z" fill="#444444"/>
<path d="M40.4878 28.618C41.903 28.618 42.5894 26.8723 42.7165 26.5079L42.4623 26.3723C42.208 27.0079 41.6148 28.0672 40.6996 28.0672C40.1403 28.0672 39.8522 27.6519 39.8522 26.9231C39.8612 26.4441 39.918 25.9672 40.0217 25.4995C41.3521 25.1775 43.5893 23.9911 43.5893 22.3386C43.6064 22.1674 43.5844 21.9946 43.5249 21.8332C43.4654 21.6718 43.3701 21.526 43.246 21.4069C43.122 21.2877 42.9725 21.1983 42.8088 21.1454C42.6451 21.0925 42.4716 21.0774 42.3012 21.1014C40.6064 21.1014 38.8184 23.9911 38.8184 26.7367C38.8184 27.7451 39.2082 28.618 40.5132 28.618H40.4878ZM42.3182 21.4234C42.6995 21.4234 42.8267 21.6098 42.8267 21.9742C42.7346 22.7077 42.4294 23.3981 41.9489 23.9599C41.4684 24.5218 40.8337 24.9303 40.1234 25.1351C40.5132 23.2114 41.4962 21.4234 42.3182 21.4234" fill="#444444"/>
<path d="M52.0699 16.3894L28.7744 52.9301H26.8846L26.749 53.4809H32.5877L32.7149 52.9301H29.4608L38.3926 38.9222H46.7312L45.2482 52.9301H42.5025L42.3754 53.4809H50.8496L50.9852 52.9301H48.5955L52.4597 16.3894H52.0699ZM46.799 38.3206H38.7739L48.2989 23.3891H48.3836L46.799 38.3206Z" fill="#444444"/>
</svg>
