<svg width="161" height="70" viewBox="0 0 161 70" fill="none" xmlns="http://www.w3.org/2000/svg">
<g clip-path="url(#clip0_546_8624)">
<path d="M160.751 43.6431V39.962H154.138V23.6364H149.815V43.6431H160.751ZM142.92 36.5059H139.98L141.534 29.2L142.92 36.5059ZM148.684 43.6431L143.993 23.6364H139.161L134.442 43.6431H138.483L139.33 39.6811H143.513L144.361 43.6431H148.684ZM133.933 43.6431V39.8778H127.038V34.8761H131.786V31.6166H127.038V27.2331H133.933V23.6364H122.714V43.6431H133.933ZM115.169 36.1406C115.169 38.1075 114.237 39.2596 112.202 39.2596H109.659V23.4116H112.202C114.237 23.4116 115.169 24.5637 115.169 26.5306V36.1406ZM120.482 36.5339V26.3901C120.482 22.2876 117.741 19 112.597 19H104.347V43.6431H112.597C117.741 43.6431 120.482 40.6926 120.482 36.5339Z" fill="#444444"/>
<path d="M102.282 43.6431V39.962H95.6705V23.6364H91.347V43.6431H102.282ZM84.4798 36.5059H81.5127L83.0669 29.2L84.4798 36.5059ZM90.2165 43.6431L85.5254 23.6364H80.6932L75.974 43.6431H80.015L80.8628 39.6811H85.0451L85.8929 43.6431H90.2165ZM75.4654 43.6431V39.8778H68.5702V34.8761H73.3177V31.6166H68.5702V27.2331H75.4654V23.6364H64.2466V43.6431H75.4654ZM56.3624 27.7389C56.3624 29.2282 55.6277 29.9306 54.2431 29.9306H51.4454V23.1587H54.4692C55.8538 23.1587 56.3624 23.9455 56.3624 25.1537V27.7389ZM62.6641 43.7836V42.2381C61.9859 41.648 61.6186 40.8612 61.6186 39.7091V35.6909C61.6186 33.9769 60.5448 32.1504 58.3123 31.6166C60.5448 31.0265 61.5055 29.5091 61.5055 27.5141V24.8446C61.5055 21.3041 59.0753 19 55.0625 19H46.1328V43.6431H51.4454V33.5835H54.2996C55.8256 33.5835 56.5038 34.7075 56.5038 36V40.0464C56.5038 42.3504 57.3232 43.8116 59.4709 43.8116H62.6641V43.7836Z" fill="#444444"/>
<path d="M25.7589 23.6364V31.9257H20.7289V23.6364H16.4053V43.6431H20.7289V35.6347H25.7589V43.6711H30.0826V23.6364H25.7589ZM32.9932 23.6364V43.6431H44.1837V39.8777H37.2885V34.8761H42.0359V31.6166H37.2885V27.2331H44.1837V23.6364H32.9932ZM0.75 19V23.524H6.11916V43.6431H11.4318V23.524H16.7445V19H0.75Z" fill="#444444"/>
<path d="M24.4304 51.2867H23.4695L21.6045 48.0553H21.5762V51.2867H20.7002V46.4817H21.9153L23.5261 49.3198V46.4817H24.4021V51.2867H24.4304ZM26.4932 47.3809V48.3644H28.33V49.2636H26.4932V50.3313H28.8104V51.2587H25.3629V46.4537H28.8104V47.3809H26.4932ZM34.0666 51.2867H32.9645L32.1733 48.1115H32.145L31.382 51.2867H30.2799L29.0365 46.4817H30.1952L30.9299 49.7131L31.7211 46.4817H32.7667L33.5862 49.7131H33.6144L33.6427 49.4884L34.3491 46.4537H35.2817L34.0666 51.2867ZM40.1988 49.2354V51.2587H39.0684V49.2354L37.5424 46.4537H38.8423L39.7749 48.2801L40.6792 46.4537H41.6964L40.1988 49.2354ZM42.0638 50.5842C41.7247 50.0784 41.5552 49.4603 41.5552 48.8702C41.5552 47.6057 42.2051 46.3975 43.618 46.3975C44.268 46.3975 44.7766 46.6223 45.144 47.128C45.4831 47.6057 45.6527 48.2801 45.6527 48.8702C45.6527 49.4041 45.5113 50.0784 45.2005 50.5281C44.8331 51.0619 44.268 51.3429 43.5898 51.3429C42.9681 51.3429 42.4312 51.1181 42.0638 50.5842ZM42.8833 47.8586C42.7703 48.1396 42.742 48.5611 42.742 48.8702C42.742 49.4603 42.8268 50.4437 43.618 50.4437C44.0137 50.4437 44.2115 50.2471 44.3527 49.9098C44.4658 49.6289 44.4941 49.2074 44.4941 48.8983C44.4941 48.5611 44.4658 48.1396 44.3245 47.8024C44.1832 47.4933 43.9854 47.3247 43.618 47.3247C43.2224 47.2967 43.0246 47.4933 42.8833 47.8586ZM47.5743 51.2867H46.4439V46.4817H48.4786C48.9025 46.4817 49.3546 46.4817 49.7219 46.7346C50.1175 46.9876 50.3436 47.4652 50.3436 47.9429C50.3436 48.4768 50.0328 48.9826 49.4958 49.1792L50.4001 51.3148H49.1568L48.422 49.4041H47.5743V51.2867ZM47.5743 48.533H48.1959C48.422 48.533 48.6764 48.5611 48.8742 48.4487C49.0437 48.3363 49.1568 48.1115 49.1568 47.8867C49.1568 47.69 49.0437 47.4933 48.8742 47.409C48.6764 47.2967 48.3655 47.3247 48.1394 47.3247H47.5743V48.533ZM52.2087 48.7297L53.7346 46.4537H54.8085L53.6499 48.1677L55.091 51.2587H53.8477L52.8869 49.1792L52.2087 50.1628V51.2587H51.1066V46.4537H52.2087V48.7297ZM58.8777 51.2867H57.7474V46.4817H59.782C60.2059 46.4817 60.658 46.4817 61.0254 46.7346C61.421 46.9876 61.6471 47.4652 61.6471 47.9429C61.6471 48.4768 61.3362 48.9826 60.7993 49.1792L61.7036 51.3148H60.4603L59.7255 49.4041H58.8777V51.2867ZM58.8777 48.533H59.4994C59.7255 48.533 59.9798 48.5611 60.1776 48.4487C60.3472 48.3363 60.4603 48.1115 60.4603 47.8867C60.4603 47.69 60.3472 47.4933 60.1776 47.409C59.9798 47.2967 59.669 47.3247 59.4429 47.3247H58.8777V48.533ZM63.5122 47.3809V48.3644H65.349V49.2636H63.5122V50.3313H65.8294V51.2587H62.3818V46.4537H65.8294V47.3809H63.5122ZM70.4638 51.2867H69.2487L68.9661 50.3033H67.4119L67.101 51.2867H66.112L67.6662 46.4817H68.9661L70.4638 51.2867ZM68.6835 49.4041L68.1748 47.7182L67.6662 49.4041H68.6835ZM74.0527 50.3313V51.2867H70.9725V46.4817H72.1028V50.3313H74.0527ZM77.7828 47.3809V48.3644H79.6197V49.2636H77.7828V50.3313H80.1001V51.2587H76.6525V46.4537H80.1001V47.3809H77.7828ZM83.2085 47.8305C83.0672 47.4371 82.8129 47.2685 82.389 47.2685C82.0782 47.2685 81.7108 47.3529 81.7108 47.7182C81.7108 48.0553 82.1347 48.1396 82.4172 48.1958C82.8129 48.2801 83.3498 48.3644 83.6889 48.5892C84.0846 48.8421 84.3106 49.2354 84.3106 49.7131C84.3106 50.1908 84.0846 50.6404 83.7172 50.9214C83.3215 51.2305 82.8129 51.3148 82.3043 51.3148C81.4 51.3148 80.5805 50.9214 80.3544 49.9942L81.4 49.7694C81.5412 50.2751 81.9086 50.4437 82.4172 50.4437C82.7282 50.4437 83.1803 50.3313 83.1803 49.938C83.1803 49.5445 82.6433 49.4603 82.3325 49.4041C81.4847 49.2354 80.637 48.9826 80.637 47.9148C80.637 47.4652 80.8065 47.0718 81.1456 46.7908C81.4847 46.5099 81.9086 46.3975 82.3608 46.3975C83.2085 46.3975 83.8867 46.6785 84.1976 47.5214L83.2085 47.8305ZM88.2103 47.409H86.9952V51.2587H85.8649V47.409H84.6497V46.4537H88.2103V47.409ZM92.3361 51.2867H91.121L90.838 50.3033H89.2841L88.9733 51.2867H87.9842L89.5385 46.4817H90.838L92.3361 51.2867ZM90.5558 49.4041L90.0475 47.7182L89.5385 49.4041H90.5558ZM95.6421 47.409H94.427V51.2587H93.2966V47.409H92.0815V46.4537H95.6421V47.409ZM97.3378 47.3809V48.3644H99.1751V49.2636H97.3378V50.3313H99.6549V51.2587H96.2073V46.4537H99.6549V47.3809H97.3378ZM106.155 51.2867H105.193L103.329 48.0553H103.3V51.2867H102.424V46.4817H103.639L105.25 49.3198V46.4817H106.126V51.2867H106.155ZM108.217 47.3809V48.3644H110.055V49.2636H108.217V50.3313H110.534V51.2587H107.087V46.4537H110.534V47.3809H108.217ZM115.819 51.2867H114.717L113.926 48.1115H113.897L113.134 51.2867H112.032L110.789 46.4817H111.948L112.682 49.7131L113.474 46.4817H114.52L115.338 49.7131H115.367L115.395 49.4884L116.101 46.4537H117.034L115.819 51.2867ZM120.001 47.8305C119.86 47.4371 119.606 47.2685 119.182 47.2685C118.871 47.2685 118.504 47.3529 118.504 47.7182C118.504 48.0553 118.928 48.1396 119.21 48.1958C119.606 48.2801 120.143 48.3644 120.482 48.5892C120.878 48.8421 121.103 49.2354 121.103 49.7131C121.103 50.1908 120.878 50.6404 120.51 50.9214C120.114 51.2305 119.606 51.3148 119.098 51.3148C118.193 51.3148 117.373 50.9214 117.147 49.9942L118.193 49.7694C118.334 50.2751 118.701 50.4437 119.21 50.4437C119.521 50.4437 119.973 50.3313 119.973 49.938C119.973 49.5445 119.436 49.4603 119.125 49.4041C118.278 49.2354 117.429 48.9826 117.429 47.9148C117.429 47.4652 117.599 47.0718 117.939 46.7908C118.278 46.5099 118.701 46.3975 119.154 46.3975C120.001 46.3975 120.679 46.6785 120.99 47.5214L120.001 47.8305Z" fill="#444444"/>
</g>
<defs>
<clipPath id="clip0_546_8624">
<rect width="160" height="70" fill="white" transform="translate(0.75)"/>
</clipPath>
</defs>
</svg>
