<svg width="161" height="70" viewBox="0 0 161 70" fill="none" xmlns="http://www.w3.org/2000/svg">
<path d="M120.052 67.116C119.704 67.116 119.37 67.2601 119.123 67.5166C118.877 67.773 118.739 68.1209 118.739 68.4836C118.739 68.8462 118.877 69.1941 119.123 69.4505C119.37 69.707 119.704 69.8511 120.052 69.8511C120.22 69.8489 120.387 69.8114 120.542 69.741C120.696 69.6706 120.835 69.5686 120.951 69.4412C121.068 69.3137 121.158 69.1632 121.217 68.9987C121.276 68.8343 121.303 68.6591 121.297 68.4836C121.301 68.3086 121.273 68.1345 121.212 67.971C121.152 67.8076 121.062 67.6581 120.946 67.5311C120.831 67.4041 120.692 67.3021 120.539 67.2309C120.385 67.1596 120.22 67.1206 120.052 67.116V67.116ZM75.1206 69.7978H80.7988V69.265L80.202 69.1229C79.6393 68.9631 79.3836 68.6612 79.3836 67.8087V59.8165H80.6965C81.515 59.8165 81.9413 60.0297 81.9754 61.8235L82.1289 65.5886C82.2312 68.9631 83.169 69.9044 84.7548 69.9044C86.3406 69.9044 86.784 68.75 86.784 67.1515V66.4766H86.136V66.9562C86.136 68.0573 85.9996 68.7322 85.6074 68.7322C85.2152 68.7322 85.1982 68.4303 85.147 67.0805L84.9765 64.5053C84.7378 61.042 84.3285 59.8165 81.8731 59.3548C82.9677 59.1251 83.9494 58.5003 84.645 57.5906C85.3407 56.6808 85.7056 55.5445 85.6756 54.3819C85.6887 53.7162 85.569 53.0549 85.3241 52.4398C85.0792 51.8248 84.7144 51.2693 84.2529 50.8086C83.7913 50.3479 83.243 49.992 82.6426 49.7633C82.0422 49.5346 81.4028 49.4382 80.7647 49.4801H71.1988V49.9951L71.7274 50.1194C72.7505 50.3681 72.7846 50.9009 72.7846 53.2808V64.9848C72.7846 67.5955 72.0854 68.8743 70.4655 68.8743C68.8456 68.8743 68.2488 68.1461 68.2488 65.3222V51.5047C68.2488 50.6878 68.5216 50.4391 69.1355 50.2793L69.8858 50.1017V49.5866H63.9688V50.1017L64.5827 50.2793C65.1454 50.4746 65.35 50.7055 65.35 51.5403V65.1801C65.2794 65.8056 65.3411 66.4396 65.5307 67.0376C65.7203 67.6356 66.0332 68.1831 66.4476 68.6418C66.8619 69.1004 67.3676 69.459 67.9292 69.6925C68.4907 69.926 69.0945 70.0286 69.6982 69.9932C72.3242 69.9932 73.603 68.2171 73.603 65.1269V52.304C73.603 50.7233 73.927 50.1372 75.1547 50.1372C76.3825 50.1372 76.553 50.5102 76.553 51.4515V67.8087C76.553 68.6434 76.2972 68.9453 75.7345 69.0874L75.1206 69.265V69.7978ZM112.975 51.5047C112.975 50.6878 113.248 50.4036 113.794 50.2793L114.561 50.1017V49.5511H108.695V50.0662L109.309 50.2615C109.855 50.4391 110.128 50.6878 110.128 51.5047V67.9507C110.128 68.75 109.804 69.194 108.917 69.194C108.03 69.194 107.758 68.8388 107.399 67.0982L103.784 49.4978H102.642L99.2317 66.5477C98.8225 68.4658 98.6519 68.892 97.8846 69.1407L97.3901 69.265V69.7978H101.483V69.265L100.903 69.1584C100.05 68.9631 99.8285 68.5191 100.255 66.2635L102.301 55.341L104.518 66.9029C104.876 68.5723 104.842 68.9098 103.614 69.1229L103.034 69.2472V69.7623H117.989V63.0667H117.46C117.17 66.1392 116.59 69.0519 114.186 69.0519H113.044V51.5047H112.975ZM104.16 64.3277V63.5462H100.374L100.255 64.3277H104.16ZM88.4209 51.8955V65.9438C88.4209 68.0751 88.4209 69.0341 87.3978 69.2295L86.9033 69.3183V69.8333H91.0469V69.265C89.2394 68.9808 89.2394 68.3415 89.2394 66.0682V52.6947L88.5744 52.0553L95.4974 69.8156H96.691V53.4584C96.691 51.0607 96.691 50.5102 97.8335 50.2082L98.2427 50.0839V49.5689H93.9457V50.0839L94.4061 50.2082C95.8384 50.4746 95.8384 51.0607 95.8384 53.2808V63.4929H96.1283L90.8764 49.6222H86.8522V50.1372L87.2614 50.2615C87.7048 50.4214 87.9605 50.9364 88.4209 51.9132V51.8955ZM79.3153 50.2438H80.4408C81.5832 50.2438 82.6063 50.9897 82.6063 54.8259C82.6063 58.6621 81.8219 59.1239 80.2361 59.1239H79.3153V50.2438ZM60.5585 59.4436C60.5585 67.933 59.8935 69.1584 58.4271 69.1584C56.9606 69.1584 56.3297 67.933 56.3297 59.5146C56.3297 51.0963 57.0288 50.1727 58.4271 50.1727C59.8253 50.1727 60.5585 51.3627 60.5585 59.4436ZM63.6449 59.6389C63.6449 54.0089 61.9397 49.3913 58.4271 49.3913C54.9144 49.3913 53.2263 54.0445 53.2263 59.6389C53.2263 65.2334 54.9315 69.9044 58.4271 69.9044C61.9226 69.9044 63.6449 65.2867 63.6449 59.6389ZM51.5893 51.5047C51.5893 50.6878 51.794 50.4036 52.3396 50.2615L52.9535 50.0662V49.5511H47.1218V50.0662L47.8209 50.2615C48.3666 50.4036 48.6905 50.6167 48.6905 51.4692V65.6774C48.6905 67.6666 48.52 69.2295 47.1218 69.2295C46.7566 69.2566 46.3948 69.1404 46.1077 68.9038C45.8205 68.6671 45.6288 68.3272 45.5701 67.9507C45.5701 67.0272 47.1218 67.0982 47.2753 65.6419C47.3305 65.4448 47.3412 65.2371 47.3066 65.035C47.272 64.8329 47.193 64.6418 47.0758 64.4768C46.9586 64.3117 46.8063 64.1771 46.6309 64.0834C46.4555 63.9898 46.2617 63.9397 46.0646 63.9369C45.7909 63.9257 45.518 63.9754 45.2642 64.0826C45.0103 64.1899 44.7814 64.3524 44.5926 64.5591C44.4038 64.7658 44.2595 65.0121 44.1693 65.2815C44.0791 65.5509 44.0451 65.8373 44.0695 66.1214C44.0416 66.6055 44.1091 67.0904 44.268 67.5463C44.4268 68.0021 44.6736 68.4193 44.9931 68.7721C45.3126 69.1248 45.6981 69.4057 46.1257 69.5974C46.5534 69.789 47.0143 69.8875 47.4799 69.8866C48.0675 69.8991 48.6507 69.7796 49.19 69.5363C49.7293 69.2929 50.2119 68.9315 50.6051 68.4765C50.9983 68.0215 51.2927 67.4836 51.4684 66.8995C51.6442 66.3154 51.697 65.6987 51.6234 65.0913V51.4337L51.5893 51.5047ZM55.1361 26.6404C55.1361 25.8234 55.4089 25.5392 55.9546 25.4149L56.7219 25.2373V24.6868H50.8561V25.2018L51.47 25.3972C52.0156 25.5748 52.2884 25.8234 52.2884 26.6404V43.0864C52.2884 43.8856 51.9645 44.3296 51.0778 44.3296C50.1911 44.3296 49.8842 43.9744 49.5431 42.2339L45.9452 24.6335H44.8028L41.3924 41.6833C40.9491 43.5126 40.7786 43.9389 40.0965 44.1875L39.5509 44.4006V44.9334H43.5068V44.4006L42.9271 44.2941C42.0745 44.0987 41.8528 43.6547 42.2791 41.3992L44.3253 30.4588L46.542 42.074C46.866 43.7435 46.866 44.081 45.6383 44.2941L45.212 44.4006V44.9334H60.1663V38.1668H59.6377C59.3478 41.2393 58.7681 44.152 56.3638 44.152H55.2213L55.1361 26.6404ZM133.71 25.3972H134.324C136.029 25.3972 136.66 28.3098 136.865 31.3824H137.393V24.598H127.162V31.2936H127.691C127.896 28.221 128.475 25.3084 130.232 25.3084H130.846V42.8733C130.846 43.6902 130.573 44.0099 130.027 44.152L129.294 44.3296V44.8624H135.415V44.4006L134.546 44.1875C134.017 44.0454 133.727 43.8678 133.727 42.9443V25.3084L133.71 25.3972ZM120.802 34.7568H121.689C122.934 34.7568 123.394 35.2719 123.581 38.4865H124.11V30.1924H123.65C123.326 32.7499 123.002 33.8333 121.774 33.8688H120.87V25.3084H122.831C124.997 25.3084 125.491 28.1678 125.781 31.2936H126.31V24.598H116.59V25.113L117.204 25.3084C117.835 25.486 118.006 25.8767 118.006 26.5693V42.8733C118.006 43.6902 117.75 44.0099 117.204 44.152L116.59 44.3296V44.8624H126.6V38.1668H126.071C125.713 41.2393 125.372 44.152 122.831 44.152H120.802V34.668V34.7568ZM110.179 34.7568H111.049C112.31 34.7568 112.754 35.2719 112.958 38.4865H113.419V30.1924H112.873C112.549 32.7499 112.225 33.8333 110.997 33.8688H110.094V25.3084H112.055C114.22 25.3084 114.715 28.221 115.004 31.2936H115.533V24.598H105.558V25.113L106.479 25.3084C107.11 25.486 107.28 25.8767 107.28 26.5693V42.8733C107.28 43.6902 107.024 44.0099 106.479 44.152L105.865 44.3296V44.8624H115.874V38.1668H115.346C115.005 41.2393 114.646 44.152 112.106 44.152H110.145V34.668L110.179 34.7568ZM98.5667 25.3972H99.4022C100.545 25.3972 101.568 26.1431 101.568 29.9793C101.568 33.8155 100.783 34.2773 99.1976 34.2773H98.5667V25.3972ZM94.3038 44.9334H99.982V44.4006L99.3681 44.2586C98.8225 44.0987 98.5667 43.7968 98.5667 42.9443V34.9522H99.6068C100.425 34.9522 100.869 35.3074 100.903 36.9591L101.039 40.7243C101.159 44.0987 102.096 45.04 103.665 45.04C105.234 45.04 105.711 43.8856 105.711 42.2872V41.6123H105.132V42.0918C105.132 43.1929 104.978 43.9566 104.603 43.9566C104.228 43.9566 104.194 43.6547 104.143 42.3049L103.955 39.7297C103.733 36.1776 103.29 35.041 100.869 34.5792C101.962 34.3491 102.941 33.7237 103.634 32.8135C104.327 31.9034 104.688 30.7673 104.654 29.6063C104.676 28.9379 104.565 28.272 104.326 27.651C104.088 27.03 103.728 26.4677 103.269 25.9998C102.81 25.5319 102.262 25.1687 101.661 24.9335C101.06 24.6982 100.419 24.5961 99.7774 24.6335H94.3549V25.1485L94.9688 25.3261C95.5144 25.5215 95.7873 25.7524 95.7873 26.5693V42.8733C95.7873 43.6902 95.5144 44.0099 94.9688 44.152L94.3549 44.3296V44.8624L94.3038 44.9334ZM89.9726 25.3972H90.5865C92.2917 25.3972 92.9226 28.3098 93.1272 31.3824H93.6558V24.598H83.4248V31.2936H83.9364C84.141 28.221 84.7378 25.3084 86.4771 25.3084H87.0909V42.8733C87.0909 43.6902 86.8351 44.0099 86.2724 44.152L85.5563 44.3296V44.8624H91.5073V44.4006L90.7741 44.223C90.0409 44.0454 89.9556 43.4593 89.9556 42.9443L89.9726 25.3972ZM83.4589 39.6054C83.4589 33.5846 77.1327 32.004 77.1327 27.635C77.1327 26.6937 77.4738 25.2906 78.8379 25.2906C80.8841 25.2906 81.6514 28.0257 81.9754 31.3469H82.504V24.6335H82.1459C81.9925 25.2728 81.7367 25.5748 81.3786 25.5748C80.7477 25.5748 80.3896 24.5092 78.8379 24.5092C78.2646 24.5329 77.7019 24.6784 77.1845 24.9368C76.6671 25.1951 76.2058 25.5609 75.829 26.0115C75.4522 26.4622 75.1678 26.9884 74.9932 27.5577C74.8186 28.127 74.7575 28.7274 74.8137 29.3222C74.8137 34.2773 81.1569 36.4263 81.1569 40.9552C81.1569 43.0686 80.2191 44.223 78.9573 44.223C77.0645 44.223 75.8368 41.8964 75.5469 38.1668H75.0183V44.8624H75.3594C75.6492 43.8856 76.0073 43.7968 76.3313 43.7968C76.6553 43.7968 77.4397 44.969 79.0766 44.969C79.7044 44.9288 80.3181 44.758 80.8815 44.4667C81.4448 44.1753 81.9464 43.7692 82.3565 43.2725C82.7666 42.7758 83.077 42.1985 83.2693 41.5748C83.4616 40.951 83.5318 40.2934 83.476 39.6409L83.4589 39.6054ZM64.9749 26.6404C64.9749 25.8234 65.2477 25.5392 65.7934 25.4149L66.5607 25.2373V24.6868H60.6949V25.2018L61.3088 25.3972C61.8544 25.5748 62.1273 25.8234 62.1273 26.6404V42.9621C62.1273 43.779 61.8544 44.0987 61.3088 44.2408L60.6949 44.4184V44.9512H69.9199V38.1668H69.3913C69.1014 41.2393 68.5216 44.152 66.1174 44.152H64.9749V26.6404V26.6404ZM46.3033 39.3745V38.593H42.5008L42.3814 39.3745H46.3033ZM30.0019 44.9157H31.1785L33.8044 30.4766H33.3952L36.2769 44.9157H37.3L40.7104 27.8481C41.1026 26.0721 41.2731 25.4504 41.9722 25.2728L42.5008 25.113V24.598H38.5278V25.113L39.1075 25.2373C39.9601 25.4149 40.1647 25.9477 39.7555 28.1322L37.5388 39.5699H37.8968L35.646 27.5284C35.4073 26.374 35.2538 25.4149 36.1917 25.2728L36.8055 25.1485V24.6335H31.349V25.1485L31.7241 25.2373C32.2868 25.3972 32.3721 25.7346 32.6108 26.8535L33.4805 31.2225L33.2758 28.594L31.3149 39.2502H31.5707L29.3369 27.5284C29.0641 26.3029 28.9788 25.3972 29.8826 25.2373L30.3259 25.1485V24.6335H24.75V25.1485L25.2786 25.3084C25.7731 25.4504 26.063 25.7346 26.4211 27.333L30.0019 44.9157ZM93.3318 10.0878H94.2015C95.4633 10.0878 95.9066 10.6029 96.1112 13.8352H96.6398V5.68328H96.1112C95.7873 8.24076 95.4633 9.34189 94.2356 9.35966H93.3318V0.69265H95.2928C97.4413 0.69265 97.9528 3.55205 98.2427 6.69562H98.7713V0H89.0348V0.515047L89.6487 0.69265C90.2966 0.888013 90.4671 1.27874 90.4671 1.97139V18.2753C90.4671 19.0923 90.2114 19.3942 89.6487 19.554L89.0348 19.7316V20.2467H99.0612V13.5688H98.5326C98.1745 16.6414 97.8335 19.554 95.2928 19.554H93.3318V10.0878ZM75.581 20.2467H81.3616V19.7316L80.7136 19.5363C80.2191 19.412 79.8781 19.0745 79.8781 18.222V10.2477H84.141V18.2753C84.1828 18.5658 84.1184 18.8621 83.9605 19.1054C83.8026 19.3488 83.5628 19.5216 83.2884 19.5896L82.6404 19.7316V20.2467H88.4209V19.7316L87.8412 19.5363C87.2955 19.3764 87.0227 19.0745 87.0227 18.222V1.95363C87.0227 1.1189 87.2955 0.852492 87.8412 0.69265L88.455 0.515047V0H82.7257V0.515047L83.3736 0.69265C83.6392 0.74473 83.8755 0.900745 84.0341 1.12865C84.1927 1.35656 84.2614 1.63905 84.2262 1.91811V9.46622H79.9633V1.91811C79.9188 1.6403 79.9817 1.35545 80.1383 1.12582C80.2949 0.896183 80.5324 0.740448 80.7988 0.69265L81.4468 0.515047V0H75.581V0.515047L76.1949 0.69265C76.7405 0.888013 77.0134 1.1189 77.0134 1.95363V18.2753C77.0134 19.0923 76.7405 19.3942 76.1949 19.554L75.581 19.7316V20.2467V20.2467ZM71.267 0.69265H71.8808C73.586 0.69265 74.2169 3.62309 74.4215 6.69562H74.9331V0H64.7021V6.69562H65.2307C65.4182 3.55205 65.998 0.69265 67.7543 0.69265H68.3682V18.2753C68.3682 19.0923 68.1124 19.3942 67.5497 19.554L66.8165 19.7316V20.2467H72.921V19.7316L72.0513 19.5363C71.5227 19.3942 71.2329 19.1988 71.2329 18.2931V0.71041L71.267 0.69265Z" fill="#444444"/>
</svg>
