<svg width="48" height="48" viewBox="0 0 48 48" fill="none" xmlns="http://www.w3.org/2000/svg">
<path d="M23.3 31.3C23.1167 31.1167 23.0207 30.8834 23.012 30.6C23.004 30.3167 23.0917 30.0834 23.275 29.9L28.175 25H17C16.7167 25 16.479 24.904 16.287 24.712C16.0957 24.5207 16 24.2834 16 24C16 23.7167 16.0957 23.479 16.287 23.287C16.479 23.0957 16.7167 23 17 23H28.175L23.275 18.1C23.0917 17.9167 23.004 17.6834 23.012 17.4C23.0207 17.1167 23.1167 16.8834 23.3 16.7C23.4833 16.5167 23.7167 16.425 24 16.425C24.2833 16.425 24.5167 16.5167 24.7 16.7L31.3 23.3C31.4 23.3834 31.471 23.4874 31.513 23.612C31.5543 23.7374 31.575 23.8667 31.575 24C31.575 24.1334 31.5543 24.2584 31.513 24.375C31.471 24.4917 31.4 24.6 31.3 24.7L24.7 31.3C24.5167 31.4834 24.2833 31.575 24 31.575C23.7167 31.575 23.4833 31.4834 23.3 31.3V31.3Z" fill="#444444"/>
<rect x="0.5" y="0.5" width="47" height="47" rx="23.5" stroke="#717475" stroke-opacity="0.2"/>
</svg>
