<svg width="27" height="26" viewBox="0 0 27 26" fill="none" xmlns="http://www.w3.org/2000/svg">
<circle cx="13.334" cy="13" r="13" fill="#4C7793"/>
<path fill-rule="evenodd" clip-rule="evenodd" d="M10.0125 10.458C9.72853 10.458 9.49853 10.221 9.54253 9.941C9.81753 8.24 11.1135 7 13.3625 7C15.6125 7 17.1295 8.36 17.1295 10.215C17.1295 11.559 16.4645 12.503 15.3395 13.188C14.2395 13.847 13.9255 14.1582 13.9255 15.0502V15.0802C13.9255 15.2128 13.8728 15.3399 13.7791 15.4337C13.6853 15.5275 13.5581 15.5802 13.4255 15.5802H12.6555C12.5238 15.5802 12.3974 15.5282 12.3037 15.4355C12.2101 15.3428 12.1568 15.2169 12.1555 15.0852L12.1525 14.8852C12.1095 13.6642 12.6295 13.032 13.7975 12.321C14.8275 11.689 15.1945 11.186 15.1945 10.293C15.1945 9.314 14.4365 8.595 13.2685 8.595C12.2595 8.595 11.5585 9.124 11.3305 9.997C11.2645 10.251 11.0525 10.458 10.7905 10.458H10.0135H10.0125ZM13.0335 19C13.6555 19 14.1285 18.526 14.1285 17.91C14.1285 17.292 13.6555 16.818 13.0335 16.818C12.4275 16.818 11.9465 17.292 11.9465 17.909C11.9465 18.526 12.4275 19 13.0335 19Z" fill="white" stroke="white" stroke-width="0.25"/>
</svg>
