<svg width="38" height="35" viewBox="0 0 38 35" fill="none" xmlns="http://www.w3.org/2000/svg">
<path d="M12.2104 0.5C4.23737 8.3074 0.5 16.6185 0.5 24.0481C0.5 30.0926 4.98485 34.5 9.4697 34.5C13.4562 34.5 16.6953 31.2259 16.6953 27.1963C16.6953 22.0333 12.9579 19.3889 7.47643 19.3889C7.47643 13.2185 9.34512 9.56666 15.2003 3.52222L12.2104 0.5ZM33.0151 0.5C25.0421 8.3074 21.3047 16.6185 21.3047 24.0481C21.3047 30.0926 25.7896 34.5 30.2744 34.5C34.2609 34.5 37.5 31.2259 37.5 27.1963C37.5 22.0333 33.7626 19.3889 28.2811 19.3889C28.2811 13.2185 30.1498 9.56666 36.005 3.52222L33.0151 0.5Z" fill="#717475" fill-opacity="0.2"/>
</svg>
